<svg xmlns="http://www.w3.org/2000/svg" width="830" height="61" fill="none" viewBox="0 0 830 61">
  <path fill="#fff" d="M19.574 24v-6.3h6.3V24h-6.3Zm-18.6 0v-6.3h6.3V24h-6.3Zm9.3 0v-6.3h6.3V24h-6.3Zm44.383-7.32h-12.87v.12c0 1.14.25 1.9.75 2.28.5.38 1.36.57 2.58.57h9.12V24h-8.79c-1.76 0-3.25-.19-4.47-.57-1.2-.4-2.17-.95-2.91-1.65a6.596 6.596 0 0 1-1.59-2.58c-.32-1-.48-2.1-.48-3.3v-2.28c0-2.38.69-4.28 2.07-5.7 1.38-1.44 3.64-2.16 6.78-2.16h1.2c1.68 0 3.08.2 4.2.6 1.12.4 2 .97 2.64 1.71.66.72 1.12 1.59 1.38 2.61.26 1.02.39 2.15.39 3.39v2.61Zm-7.95-6.9h-2.34c-.96 0-1.63.21-2.01.63-.38.42-.57 1.12-.57 2.1v.39h7.47v-.39c0-.98-.2-1.68-.6-2.1-.38-.42-1.03-.63-1.95-.63Zm14.706.57h-4.05V6h4.23c1.8 0 3.27.27 4.41.81 1.16.54 2.05 1.32 2.67 2.34.62-1.02 1.5-1.8 2.64-2.34 1.16-.54 2.64-.81 4.44-.81h8.73v4.35h-8.55c-1.18 0-2.05.27-2.61.81-.54.52-.81 1.32-.81 2.4v3.09c0 1.2.27 2 .81 2.4.56.4 1.43.6 2.61.6h3.15V24h-3.33c-1.8 0-3.28-.27-4.44-.81-1.14-.54-2.02-1.31-2.64-2.31-.62 1-1.51 1.77-2.67 2.31-1.14.54-2.61.81-4.41.81h-4.23v-4.35h4.05c1.18 0 2.04-.2 2.58-.6.56-.4.84-1.2.84-2.4v-3.09c0-1.08-.28-1.88-.84-2.4-.54-.54-1.4-.81-2.58-.81ZM83.21 28.5V6h12.78c2.22 0 3.96.74 5.22 2.22 1.26 1.48 1.89 3.44 1.89 5.88v1.8c0 2.44-.63 4.4-1.89 5.88-1.26 1.48-3 2.22-5.22 2.22h-7.08v4.5h-5.7Zm10.83-18.06h-5.13v9.12h5.13c1.22 0 2.06-.28 2.52-.84.46-.56.69-1.43.69-2.61v-2.37c0-1.18-.23-2.02-.69-2.52-.46-.52-1.3-.78-2.52-.78Zm24.834 8.91V6h5.7v18h-11.16c-2.62 0-4.52-.66-5.7-1.98-1.18-1.32-1.77-3.11-1.77-5.37V6h5.7v10.8c0 .92.15 1.58.45 1.98.32.38.92.57 1.8.57h4.98Zm19.089-1.65-4.89-.96c-1.8-.36-3.18-.99-4.14-1.89-.94-.9-1.41-2.1-1.41-3.6 0-.7.13-1.37.39-2.01.28-.64.7-1.2 1.26-1.68.58-.48 1.31-.86 2.19-1.14.9-.28 1.96-.42 3.18-.42h8.94v4.35h-9.39c-.6 0-1 .09-1.2.27-.2.18-.3.38-.3.6 0 .24.09.45.27.63.18.18.49.31.93.39l4.44.87c2.2.44 3.77 1.1 4.71 1.98.96.86 1.44 2.01 1.44 3.45 0 1.62-.62 2.94-1.86 3.96-1.22 1-3.08 1.5-5.58 1.5h-8.82v-4.35h9.78c.64 0 1.05-.09 1.23-.27.2-.18.3-.41.3-.69 0-.3-.14-.52-.42-.66-.26-.14-.61-.25-1.05-.33Zm15.262-13.26h-5.7V.9h5.7v3.54Zm-5.7 19.56V6h5.7v18h-5.7Zm19.442-6.3-4.89-.96c-1.8-.36-3.18-.99-4.14-1.89-.94-.9-1.41-2.1-1.41-3.6 0-.7.13-1.37.39-2.01.28-.64.7-1.2 1.26-1.68.58-.48 1.31-.86 2.19-1.14.9-.28 1.96-.42 3.18-.42h14.94v4.35h-15.39c-.6 0-1 .09-1.2.27-.2.18-.3.38-.3.6 0 .24.09.45.27.63.18.18.49.31.93.39l4.44.87c2.2.44 3.77 1.1 4.71 1.98.96.86 1.44 2.01 1.44 3.45 0 1.62-.62 2.94-1.86 3.96-1.22 1-3.08 1.5-5.58 1.5h-8.82v-4.35h9.63c.64 0 1.08-.09 1.32-.27.24-.18.36-.41.36-.69 0-.3-.14-.52-.42-.66-.26-.14-.61-.25-1.05-.33Zm6.861-7.35V6h2.91V2.34h5.25V6h6.15v4.35h-6.15v7.29c0 .76.16 1.29.48 1.59.32.28.84.42 1.56.42h4.11V24h-4.77c-2.48 0-4.26-.52-5.34-1.56-1.06-1.06-1.59-2.66-1.59-4.8v-7.29h-2.61Zm34.843 6.33H195.8v.12c0 1.14.25 1.9.75 2.28.5.38 1.36.57 2.58.57h9.12V24h-8.79c-1.76 0-3.25-.19-4.47-.57-1.2-.4-2.17-.95-2.91-1.65a6.596 6.596 0 0 1-1.59-2.58c-.32-1-.48-2.1-.48-3.3v-2.28c0-2.38.69-4.28 2.07-5.7 1.38-1.44 3.64-2.16 6.78-2.16h1.2c1.68 0 3.08.2 4.2.6 1.12.4 2 .97 2.64 1.71.66.72 1.12 1.59 1.38 2.61.26 1.02.39 2.15.39 3.39v2.61Zm-7.95-6.9h-2.34c-.96 0-1.63.21-2.01.63-.38.42-.57 1.12-.57 2.1v.39h7.47v-.39c0-.98-.2-1.68-.6-2.1-.38-.42-1.03-.63-1.95-.63Zm26.744.57c-1.18 0-2.05.27-2.61.81-.54.52-.81 1.32-.81 2.4v3.09c0 1.2.27 2 .81 2.4.56.4 1.43.6 2.61.6h6.75V24h-6.93c-3.22 0-5.54-.7-6.96-2.1-1.42-1.4-2.13-3.33-2.13-5.79v-2.19c0-2.46.71-4.39 2.13-5.79 1.42-1.42 3.74-2.13 6.96-2.13h6.93v4.35h-6.75Zm28.367 3.57v2.16c0 2.5-.76 4.5-2.28 6-1.5 1.48-3.65 2.22-6.45 2.22h-2.1c-2.8 0-4.96-.74-6.48-2.22-1.52-1.5-2.28-3.5-2.28-6v-2.16c0-2.5.76-4.49 2.28-5.97 1.52-1.5 3.68-2.25 6.48-2.25h2.1c2.8 0 4.95.75 6.45 2.25 1.52 1.48 2.28 3.47 2.28 5.97Zm-5.85-.48c0-1.16-.22-2.02-.66-2.58-.42-.58-1.18-.87-2.28-.87h-1.98c-1.1 0-1.87.29-2.31.87-.44.56-.66 1.42-.66 2.58v3.09c0 1.18.22 2.06.66 2.64.44.56 1.21.84 2.31.84h1.98c1.1 0 1.86-.28 2.28-.84.44-.58.66-1.46.66-2.64v-3.09ZM258.668 24V6h11.16c2.62 0 4.52.66 5.7 1.98 1.18 1.32 1.77 3.11 1.77 5.37V24h-5.7V13.2c0-.92-.16-1.57-.48-1.95-.3-.4-.89-.6-1.77-.6h-4.98V24h-5.7Zm29.326 0V6h21.36c2.74 0 4.72.66 5.94 1.98 1.22 1.32 1.83 3.11 1.83 5.37V24h-5.7V13.2c0-.92-.16-1.57-.48-1.95-.3-.4-.89-.6-1.77-.6h-3.78V24h-5.7V10.65h-6V24h-5.7Zm45.567-4.65V6h5.7v18h-11.16c-2.62 0-4.52-.66-5.7-1.98-1.18-1.32-1.77-3.11-1.77-5.37V6h5.7v10.8c0 .92.15 1.58.45 1.98.32.38.92.57 1.8.57h4.98Zm17.829-9c-1.18 0-2.05.27-2.61.81-.54.52-.81 1.32-.81 2.4v3.09c0 1.2.27 2 .81 2.4.56.4 1.43.6 2.61.6h6.75V24h-6.93c-3.22 0-5.54-.7-6.96-2.1-1.42-1.4-2.13-3.33-2.13-5.79v-2.19c0-2.46.71-4.39 2.13-5.79 1.42-1.42 3.74-2.13 6.96-2.13h6.93v4.35h-6.75ZM361.383 24V1.5h5.7V6h5.46c2.62 0 4.52.66 5.7 1.98 1.18 1.32 1.77 3.11 1.77 5.37V24h-5.7V13.2c0-.92-.16-1.57-.48-1.95-.3-.4-.89-.6-1.77-.6h-4.98V24h-5.7Zm39.189-9.75V24h-12.33c-1.8 0-3.18-.39-4.14-1.17-.96-.78-1.44-1.8-1.44-3.06 0-1.38.47-2.48 1.41-3.3.94-.84 2.07-1.71 3.39-2.61l5.1-3.51h-9.48V6h7.89c3.44 0 5.9.73 7.38 2.19 1.48 1.44 2.22 3.46 2.22 6.06Zm-10.71 5.4h5.31v-5.97l-5.43 4.23c-.34.26-.58.46-.72.6a.6.6 0 0 0-.21.48c0 .22.08.39.24.51.16.1.43.15.81.15Zm31.284-1.95-4.89-.96c-1.8-.36-3.18-.99-4.14-1.89-.94-.9-1.41-2.1-1.41-3.6 0-.7.13-1.37.39-2.01.28-.64.7-1.2 1.26-1.68.58-.48 1.31-.86 2.19-1.14.9-.28 1.96-.42 3.18-.42h8.94v4.35h-9.39c-.6 0-1 .09-1.2.27-.2.18-.3.38-.3.6 0 .24.09.45.27.63.18.18.49.31.93.39l4.44.87c2.2.44 3.77 1.1 4.71 1.98.96.86 1.44 2.01 1.44 3.45 0 1.62-.62 2.94-1.86 3.96-1.22 1-3.08 1.5-5.58 1.5h-8.82v-4.35h9.78c.64 0 1.05-.09 1.23-.27.2-.18.3-.41.3-.69 0-.3-.14-.52-.42-.66-.26-.14-.61-.25-1.05-.33Zm26.938-1.02h-12.87v.12c0 1.14.25 1.9.75 2.28.5.38 1.36.57 2.58.57h9.12V24h-8.79c-1.76 0-3.25-.19-4.47-.57-1.2-.4-2.17-.95-2.91-1.65a6.596 6.596 0 0 1-1.59-2.58c-.32-1-.48-2.1-.48-3.3v-2.28c0-2.38.69-4.28 2.07-5.7 1.38-1.44 3.64-2.16 6.78-2.16h1.2c1.68 0 3.08.2 4.2.6 1.12.4 2 .97 2.64 1.71.66.72 1.12 1.59 1.38 2.61.26 1.02.39 2.15.39 3.39v2.61Zm-7.95-6.9h-2.34c-.96 0-1.63.21-2.01.63-.38.42-.57 1.12-.57 2.1v.39h7.47v-.39c0-.98-.2-1.68-.6-2.1-.38-.42-1.03-.63-1.95-.63Zm20.107 18.72h-8.61v-4.26h8.67c1.54 0 2.54-.18 3-.54.46-.36.69-.9.69-1.62v-.39h-6.63c-2.12 0-3.81-.65-5.07-1.95-1.26-1.3-1.89-3.1-1.89-5.4v-.69c0-2.38.63-4.25 1.89-5.61 1.26-1.36 2.95-2.04 5.07-2.04h12.33v15.54c0 2.5-.73 4.28-2.19 5.34-1.46 1.08-3.88 1.62-7.26 1.62Zm-1.11-10.89h4.86v-7.23h-4.86c-1.08 0-1.83.22-2.25.66-.42.42-.63 1.15-.63 2.19v1.38c0 1.02.21 1.78.63 2.28.42.48 1.17.72 2.25.72Zm26.978 1.74V6h5.7v18h-11.16c-2.62 0-4.52-.66-5.7-1.98-1.18-1.32-1.77-3.11-1.77-5.37V6h5.7v10.8c0 .92.15 1.58.45 1.98.32.38.92.57 1.8.57h4.98Zm9.19-6.66c0-.86.13-1.69.39-2.49.26-.8.67-1.51 1.23-2.13.56-.62 1.28-1.12 2.16-1.5.9-.38 1.97-.57 3.21-.57h5.28v4.35h-3.99c-1.02 0-1.71.18-2.07.54-.34.36-.51.98-.51 1.86V24h-5.7V12.69Zm20.532-8.25h-5.7V.9h5.7v3.54Zm-5.7 19.56V6h5.7v18h-5.7Zm28.803-22.5V24h-12.78c-2.22 0-3.96-.74-5.22-2.22-1.26-1.48-1.89-3.44-1.89-5.88v-1.8c0-2.44.63-4.4 1.89-5.88 1.26-1.48 3-2.22 5.22-2.22h7.08V1.5h5.7Zm-10.83 18.06h5.13v-9.12h-5.13c-1.22 0-2.06.28-2.52.84-.46.56-.69 1.43-.69 2.61v2.37c0 1.18.23 2.03.69 2.55.46.5 1.3.75 2.52.75Zm31.374-5.31V24h-12.33c-1.8 0-3.18-.39-4.14-1.17-.96-.78-1.44-1.8-1.44-3.06 0-1.38.47-2.48 1.41-3.3.94-.84 2.07-1.71 3.39-2.61l5.1-3.51h-9.48V6h7.89c3.44 0 5.9.73 7.38 2.19 1.48 1.44 2.22 3.46 2.22 6.06Zm-10.71 5.4h5.31v-5.97l-5.43 4.23c-.34.26-.58.46-.72.6a.6.6 0 0 0-.21.48c0 .22.08.39.24.51.16.1.43.15.81.15ZM582.205 1.5V24h-12.78c-2.22 0-3.96-.74-5.22-2.22-1.26-1.48-1.89-3.44-1.89-5.88v-1.8c0-2.44.63-4.4 1.89-5.88 1.26-1.48 3-2.22 5.22-2.22h7.08V1.5h5.7Zm-10.83 18.06h5.13v-9.12h-5.13c-1.22 0-2.06.28-2.52.84-.46.56-.69 1.43-.69 2.61v2.37c0 1.18.23 2.03.69 2.55.46.5 1.3.75 2.52.75Zm12.774 8.34c.32-.62.56-1.14.72-1.56.18-.42.31-.82.39-1.2.08-.38.12-.79.12-1.23.02-.46.03-1.03.03-1.71V18h5.79v4.17c0 1.14-.12 2.11-.36 2.91-.24.8-.76 1.74-1.56 2.82h-5.13Zm36.523-26.4V24h-12.78c-2.22 0-3.96-.74-5.22-2.22-1.26-1.48-1.89-3.44-1.89-5.88v-1.8c0-2.44.63-4.4 1.89-5.88 1.26-1.48 3-2.22 5.22-2.22h7.08V1.5h5.7Zm-10.83 18.06h5.13v-9.12h-5.13c-1.22 0-2.06.28-2.52.84-.46.56-.69 1.43-.69 2.61v2.37c0 1.18.23 2.03.69 2.55.46.5 1.3.75 2.52.75Zm32.334-2.88h-12.87v.12c0 1.14.25 1.9.75 2.28.5.38 1.36.57 2.58.57h9.12V24h-8.79c-1.76 0-3.25-.19-4.47-.57-1.2-.4-2.17-.95-2.91-1.65a6.596 6.596 0 0 1-1.59-2.58c-.32-1-.48-2.1-.48-3.3v-2.28c0-2.38.69-4.28 2.07-5.7 1.38-1.44 3.64-2.16 6.78-2.16h1.2c1.68 0 3.08.2 4.2.6 1.12.4 2 .97 2.64 1.71.66.72 1.12 1.59 1.38 2.61.26 1.02.39 2.15.39 3.39v2.61Zm-7.95-6.9h-2.34c-.96 0-1.63.21-2.01.63-.38.42-.57 1.12-.57 2.1v.39h7.47v-.39c0-.98-.2-1.68-.6-2.1-.38-.42-1.03-.63-1.95-.63ZM645.123 24V6h21.36c2.74 0 4.72.66 5.94 1.98 1.22 1.32 1.83 3.11 1.83 5.37V24h-5.7V13.2c0-.92-.16-1.57-.48-1.95-.3-.4-.89-.6-1.77-.6h-3.78V24h-5.7V10.65h-6V24h-5.7Zm51.597-10.08v2.16c0 2.5-.76 4.5-2.28 6-1.5 1.48-3.65 2.22-6.45 2.22h-2.1c-2.8 0-4.96-.74-6.48-2.22-1.52-1.5-2.28-3.5-2.28-6v-2.16c0-2.5.76-4.49 2.28-5.97 1.52-1.5 3.68-2.25 6.48-2.25h2.1c2.8 0 4.95.75 6.45 2.25 1.52 1.48 2.28 3.47 2.28 5.97Zm-5.85-.48c0-1.16-.22-2.02-.66-2.58-.42-.58-1.18-.87-2.28-.87h-1.98c-1.1 0-1.87.29-2.31.87-.44.56-.66 1.42-.66 2.58v3.09c0 1.18.22 2.06.66 2.64.44.56 1.21.84 2.31.84h1.98c1.1 0 1.86-.28 2.28-.84.44-.58.66-1.46.66-2.64v-3.09Zm18.586 4.26-4.89-.96c-1.8-.36-3.18-.99-4.14-1.89-.94-.9-1.41-2.1-1.41-3.6 0-.7.13-1.37.39-2.01.28-.64.7-1.2 1.26-1.68.58-.48 1.31-.86 2.19-1.14.9-.28 1.96-.42 3.18-.42h14.94v4.35h-15.39c-.6 0-1 .09-1.2.27-.2.18-.3.38-.3.6 0 .24.09.45.27.63.18.18.49.31.93.39l4.44.87c2.2.44 3.77 1.1 4.71 1.98.96.86 1.44 2.01 1.44 3.45 0 1.62-.62 2.94-1.86 3.96-1.22 1-3.08 1.5-5.58 1.5h-8.82v-4.35h9.63c.64 0 1.08-.09 1.32-.27.24-.18.36-.41.36-.69 0-.3-.14-.52-.42-.66-.26-.14-.61-.25-1.05-.33Zm6.861-7.35V6h2.91V2.34h5.25V6h6.15v4.35h-6.15v7.29c0 .76.16 1.29.48 1.59.32.28.84.42 1.56.42h4.11V24h-4.77c-2.48 0-4.26-.52-5.34-1.56-1.06-1.06-1.59-2.66-1.59-4.8v-7.29h-2.61Zm17.4 2.94c0-.92.17-1.82.51-2.7.36-.88.88-1.66 1.56-2.34.7-.68 1.58-1.22 2.64-1.62 1.08-.42 2.34-.63 3.78-.63h6.18v4.35h-6.54c-.96 0-1.61.18-1.95.54-.32.36-.48.98-.48 1.86V24h-5.7V13.29Zm28.525.96V24h-12.33c-1.8 0-3.18-.39-4.14-1.17-.96-.78-1.44-1.8-1.44-3.06 0-1.38.47-2.48 1.41-3.3.94-.84 2.07-1.71 3.39-2.61l5.1-3.51h-9.48V6h7.89c3.44 0 5.9.73 7.38 2.19 1.48 1.44 2.22 3.46 2.22 6.06Zm-10.71 5.4h5.31v-5.97l-5.43 4.23c-.34.26-.58.46-.72.6a.6.6 0 0 0-.21.48c0 .22.08.39.24.51.16.1.43.15.81.15ZM765.709 24V6h11.16c2.62 0 4.52.66 5.7 1.98 1.18 1.32 1.77 3.11 1.77 5.37V24h-5.7V13.2c0-.92-.16-1.57-.48-1.95-.3-.4-.89-.6-1.77-.6h-4.98V24h-5.7Zm41.379-22.5V24h-12.78c-2.22 0-3.96-.74-5.22-2.22-1.26-1.48-1.89-3.44-1.89-5.88v-1.8c0-2.44.63-4.4 1.89-5.88 1.26-1.48 3-2.22 5.22-2.22h7.08V1.5h5.7Zm-10.83 18.06h5.13v-9.12h-5.13c-1.22 0-2.06.28-2.52.84-.46.56-.69 1.43-.69 2.61v2.37c0 1.18.23 2.03.69 2.55.46.5 1.3.75 2.52.75Zm33.264-5.64v2.16c0 2.5-.76 4.5-2.28 6-1.5 1.48-3.65 2.22-6.45 2.22h-2.1c-2.8 0-4.96-.74-6.48-2.22-1.52-1.5-2.28-3.5-2.28-6v-2.16c0-2.5.76-4.49 2.28-5.97 1.52-1.5 3.68-2.25 6.48-2.25h2.1c2.8 0 4.95.75 6.45 2.25 1.52 1.48 2.28 3.47 2.28 5.97Zm-5.85-.48c0-1.16-.22-2.02-.66-2.58-.42-.58-1.18-.87-2.28-.87h-1.98c-1.1 0-1.87.29-2.31.87-.44.56-.66 1.42-.66 2.58v3.09c0 1.18.22 2.06.66 2.64.44.56 1.21.84 2.31.84h1.98c1.1 0 1.86-.28 2.28-.84.44-.58.66-1.46.66-2.64v-3.09ZM218.001 46.35c-1.18 0-2.05.27-2.61.81-.54.52-.81 1.32-.81 2.4v3.09c0 1.2.27 2 .81 2.4.56.4 1.43.6 2.61.6h6.75V60h-6.93c-3.22 0-5.54-.7-6.96-2.1-1.42-1.4-2.13-3.33-2.13-5.79v-2.19c0-2.46.71-4.39 2.13-5.79 1.42-1.42 3.74-2.13 6.96-2.13h6.93v4.35h-6.75Zm28.367 3.57v2.16c0 2.5-.76 4.5-2.28 6-1.5 1.48-3.65 2.22-6.45 2.22h-2.1c-2.8 0-4.96-.74-6.48-2.22-1.52-1.5-2.28-3.5-2.28-6v-2.16c0-2.5.76-4.49 2.28-5.97 1.52-1.5 3.68-2.25 6.48-2.25h2.1c2.8 0 4.95.75 6.45 2.25 1.52 1.48 2.28 3.47 2.28 5.97Zm-5.85-.48c0-1.16-.22-2.02-.66-2.58-.42-.58-1.18-.87-2.28-.87h-1.98c-1.1 0-1.87.29-2.31.87-.44.56-.66 1.42-.66 2.58v3.09c0 1.18.22 2.06.66 2.64.44.56 1.21.84 2.31.84h1.98c1.1 0 1.86-.28 2.28-.84.44-.58.66-1.46.66-2.64v-3.09ZM249.205 60V42h11.16c2.62 0 4.52.66 5.7 1.98 1.18 1.32 1.77 3.11 1.77 5.37V60h-5.7V49.2c0-.92-.16-1.57-.48-1.95-.3-.4-.89-.6-1.77-.6h-4.98V60h-5.7Zm41.079-10.08v2.16c0 2.5-.76 4.5-2.28 6-1.5 1.48-3.65 2.22-6.45 2.22h-2.1c-2.8 0-4.96-.74-6.48-2.22-1.52-1.5-2.28-3.5-2.28-6v-2.16c0-2.5.76-4.49 2.28-5.97 1.52-1.5 3.68-2.25 6.48-2.25h2.1c2.8 0 4.95.75 6.45 2.25 1.52 1.48 2.28 3.47 2.28 5.97Zm-5.85-.48c0-1.16-.22-2.02-.66-2.58-.42-.58-1.18-.87-2.28-.87h-1.98c-1.1 0-1.87.29-2.31.87-.44.56-.66 1.42-.66 2.58v3.09c0 1.18.22 2.06.66 2.64.44.56 1.21.84 2.31.84h1.98c1.1 0 1.86-.28 2.28-.84.44-.58.66-1.46.66-2.64v-3.09Zm17.327-3.09c-1.18 0-2.05.27-2.61.81-.54.52-.81 1.32-.81 2.4v3.09c0 1.2.27 2 .81 2.4.56.4 1.43.6 2.61.6h6.75V60h-6.93c-3.22 0-5.54-.7-6.96-2.1-1.42-1.4-2.13-3.33-2.13-5.79v-2.19c0-2.46.71-4.39 2.13-5.79 1.42-1.42 3.74-2.13 6.96-2.13h6.93v4.35h-6.75Zm16.053-5.91h-5.7V36.9h5.7v3.54Zm-5.7 19.56V42h5.7v18h-5.7Zm9.542 0V42h21.36c2.74 0 4.72.66 5.94 1.98 1.22 1.32 1.83 3.11 1.83 5.37V60h-5.7V49.2c0-.92-.16-1.57-.48-1.95-.3-.4-.89-.6-1.77-.6h-3.78V60h-5.7V46.65h-6V60h-5.7Zm38.697-19.56h-5.7V36.9h5.7v3.54Zm-5.7 19.56V42h5.7v18h-5.7Zm27.572-7.32h-12.87v.12c0 1.14.25 1.9.75 2.28.5.38 1.36.57 2.58.57h9.12V60h-8.79c-1.76 0-3.25-.19-4.47-.57-1.2-.4-2.17-.95-2.91-1.65a6.596 6.596 0 0 1-1.59-2.58c-.32-1-.48-2.1-.48-3.3v-2.28c0-2.38.69-4.28 2.07-5.7 1.38-1.44 3.64-2.16 6.78-2.16h1.2c1.68 0 3.08.2 4.2.6 1.12.4 2 .97 2.64 1.71.66.72 1.12 1.59 1.38 2.61.26 1.02.39 2.15.39 3.39v2.61Zm-7.95-6.9h-2.34c-.96 0-1.63.21-2.01.63-.38.42-.57 1.12-.57 2.1v.39h7.47v-.39c0-.98-.2-1.68-.6-2.1-.38-.42-1.03-.63-1.95-.63ZM385.172 60V42h11.16c2.62 0 4.52.66 5.7 1.98 1.18 1.32 1.77 3.11 1.77 5.37V60h-5.7V49.2c0-.92-.16-1.57-.48-1.95-.3-.4-.89-.6-1.77-.6h-4.98V60h-5.7Zm20.979-13.65V42h2.91v-3.66h5.25V42h6.15v4.35h-6.15v7.29c0 .76.16 1.29.48 1.59.32.28.84.42 1.56.42h4.11V60h-4.77c-2.48 0-4.26-.52-5.34-1.56-1.06-1.06-1.59-2.66-1.59-4.8v-7.29h-2.61Zm35.774 3.57v2.16c0 2.5-.76 4.5-2.28 6-1.5 1.48-3.65 2.22-6.45 2.22h-2.1c-2.8 0-4.96-.74-6.48-2.22-1.52-1.5-2.28-3.5-2.28-6v-2.16c0-2.5.76-4.49 2.28-5.97 1.52-1.5 3.68-2.25 6.48-2.25h2.1c2.8 0 4.95.75 6.45 2.25 1.52 1.48 2.28 3.47 2.28 5.97Zm-5.85-.48c0-1.16-.22-2.02-.66-2.58-.42-.58-1.18-.87-2.28-.87h-1.98c-1.1 0-1.87.29-2.31.87-.44.56-.66 1.42-.66 2.58v3.09c0 1.18.22 2.06.66 2.64.44.56 1.21.84 2.31.84h1.98c1.1 0 1.86-.28 2.28-.84.44-.58.66-1.46.66-2.64v-3.09Zm35.154-11.94V60h-12.78c-2.22 0-3.96-.74-5.22-2.22-1.26-1.48-1.89-3.44-1.89-5.88v-1.8c0-2.44.63-4.4 1.89-5.88 1.26-1.48 3-2.22 5.22-2.22h7.08v-4.5h5.7Zm-10.83 18.06h5.13v-9.12h-5.13c-1.22 0-2.06.28-2.52.84-.46.56-.69 1.43-.69 2.61v2.37c0 1.18.23 2.03.69 2.55.46.5 1.3.75 2.52.75Zm32.334-2.88h-12.87v.12c0 1.14.25 1.9.75 2.28.5.38 1.36.57 2.58.57h9.12V60h-8.79c-1.76 0-3.25-.19-4.47-.57-1.2-.4-2.17-.95-2.91-1.65a6.596 6.596 0 0 1-1.59-2.58c-.32-1-.48-2.1-.48-3.3v-2.28c0-2.38.69-4.28 2.07-5.7 1.38-1.44 3.64-2.16 6.78-2.16h1.2c1.68 0 3.08.2 4.2.6 1.12.4 2 .97 2.64 1.71.66.72 1.12 1.59 1.38 2.61.26 1.02.39 2.15.39 3.39v2.61Zm-7.95-6.9h-2.34c-.96 0-1.63.21-2.01.63-.38.42-.57 1.12-.57 2.1v.39h7.47v-.39c0-.98-.2-1.68-.6-2.1-.38-.42-1.03-.63-1.95-.63Zm11.256-8.28h5.7V60h-5.7V37.5Zm15.61 8.85V42h2.91v-3.66h5.25V42h6.15v4.35h-6.15v7.29c0 .76.16 1.29.48 1.59.32.28.84.42 1.56.42h4.11V60h-4.77c-2.48 0-4.26-.52-5.34-1.56-1.06-1.06-1.59-2.66-1.59-4.8v-7.29h-2.61Zm34.844 6.33h-12.87v.12c0 1.14.25 1.9.75 2.28.5.38 1.36.57 2.58.57h9.12V60h-8.79c-1.76 0-3.25-.19-4.47-.57-1.2-.4-2.17-.95-2.91-1.65a6.596 6.596 0 0 1-1.59-2.58c-.32-1-.48-2.1-.48-3.3v-2.28c0-2.38.69-4.28 2.07-5.7 1.38-1.44 3.64-2.16 6.78-2.16h1.2c1.68 0 3.08.2 4.2.6 1.12.4 2 .97 2.64 1.71.66.72 1.12 1.59 1.38 2.61.26 1.02.39 2.15.39 3.39v2.61Zm-7.95-6.9h-2.34c-.96 0-1.63.21-2.01.63-.38.42-.57 1.12-.57 2.1v.39h7.47v-.39c0-.98-.2-1.68-.6-2.1-.38-.42-1.03-.63-1.95-.63ZM549.439 60V42h21.36c2.74 0 4.72.66 5.94 1.98 1.22 1.32 1.83 3.11 1.83 5.37V60h-5.7V49.2c0-.92-.16-1.57-.48-1.95-.3-.4-.89-.6-1.77-.6h-3.78V60h-5.7V46.65h-6V60h-5.7Zm49.707-9.75V60h-12.33c-1.8 0-3.18-.39-4.14-1.17-.96-.78-1.44-1.8-1.44-3.06 0-1.38.47-2.48 1.41-3.3.94-.84 2.07-1.71 3.39-2.61l5.1-3.51h-9.48V42h7.89c3.44 0 5.9.73 7.38 2.19 1.48 1.44 2.22 3.46 2.22 6.06Zm-10.71 5.4h5.31v-5.97l-5.43 4.23c-.34.26-.58.46-.72.6a.6.6 0 0 0-.21.48c0 .22.08.39.24.51.16.1.43.15.81.15ZM621.273 60v-6.3h6.3V60h-6.3Zm-18.6 0v-6.3h6.3V60h-6.3Zm9.3 0v-6.3h6.3V60h-6.3Z"/>
</svg>
