<svg xmlns="http://www.w3.org/2000/svg" width="701" height="67" fill="none" viewBox="0 0 701 67">
  <path fill="#fff" d="M.079 26V3.5h18.78v4.95H5.929v3.9h12.93v4.8H5.929v3.9h12.93V26H.079ZM22.67 3.5h5.7V26h-5.7V3.5Zm36.01 0V26H45.9c-2.22 0-3.96-.74-5.22-2.22-1.26-1.48-1.89-3.44-1.89-5.88v-1.8c0-2.44.63-4.4 1.89-5.88C41.94 8.74 43.68 8 45.9 8h7.08V3.5h5.7ZM47.85 21.56h5.13v-9.12h-5.13c-1.22 0-2.06.28-2.52.84-.46.56-.69 1.43-.69 2.61v2.37c0 1.18.23 2.03.69 2.55.46.5 1.3.75 2.52.75ZM62.514 26V8h5.7v18h-5.7Zm.69-20.16L65.154.2h4.65l-2.1 5.64h-4.5Zm25.922 10.41V26h-12.33c-1.8 0-3.18-.39-4.14-1.17-.96-.78-1.44-1.8-1.44-3.06 0-1.38.47-2.48 1.41-3.3.94-.84 2.07-1.71 3.39-2.61l5.1-3.51h-9.48V8h7.89c3.44 0 5.9.73 7.38 2.19 1.48 1.44 2.22 3.46 2.22 6.06Zm-10.71 5.4h5.31v-5.97l-5.43 4.23c-.34.26-.58.46-.72.6a.6.6 0 0 0-.21.48c0 .22.08.39.24.51.16.1.43.15.81.15ZM100.161 3.5h5.7V26h-5.7V3.5Zm22.472 17.85V8h5.7v18h-11.16c-2.62 0-4.52-.66-5.7-1.98-1.18-1.32-1.77-3.11-1.77-5.37V8h5.7v10.8c0 .92.15 1.58.45 1.98.32.38.92.57 1.8.57h4.98Zm9.189 4.65V8h11.16c2.62 0 4.52.66 5.7 1.98 1.18 1.32 1.77 3.11 1.77 5.37V26h-5.7V15.2c0-.92-.16-1.57-.48-1.95-.3-.4-.89-.6-1.77-.6h-4.98V26h-5.7Zm40.149-7.32h-12.87v.12c0 1.14.25 1.9.75 2.28.5.38 1.36.57 2.58.57h9.12V26h-8.79c-1.76 0-3.25-.19-4.47-.57-1.2-.4-2.17-.95-2.91-1.65a6.596 6.596 0 0 1-1.59-2.58c-.32-1-.48-2.1-.48-3.3v-2.28c0-2.38.69-4.28 2.07-5.7 1.38-1.44 3.64-2.16 6.78-2.16h1.2c1.68 0 3.08.2 4.2.6 1.12.4 2 .97 2.64 1.71.66.72 1.12 1.59 1.38 2.61.26 1.02.39 2.15.39 3.39v2.61Zm-7.95-6.9h-2.34c-.96 0-1.63.21-2.01.63-.38.42-.57 1.12-.57 2.1v.39h7.47v-.39c0-.98-.2-1.68-.6-2.1-.38-.42-1.03-.63-1.95-.63Zm20.183 7.92-4.89-.96c-1.8-.36-3.18-.99-4.14-1.89-.94-.9-1.41-2.1-1.41-3.6 0-.7.13-1.37.39-2.01.28-.64.7-1.2 1.26-1.68.58-.48 1.31-.86 2.19-1.14.9-.28 1.96-.42 3.18-.42h8.94v4.35h-9.39c-.6 0-1 .09-1.2.27-.2.16-.3.37-.3.63s.09.47.27.63c.18.16.49.28.93.36l4.44.87c2.2.44 3.77 1.1 4.71 1.98.96.86 1.44 2.01 1.44 3.45 0 1.62-.62 2.94-1.86 3.96-1.22 1-3.08 1.5-5.58 1.5h-14.82v-4.35h15.63c.64 0 1.08-.09 1.32-.27.24-.2.36-.44.36-.72 0-.3-.14-.51-.42-.63-.26-.14-.61-.25-1.05-.33ZM219.871 8v22.5h-5.7V26h-7.08c-2.22 0-3.96-.74-5.22-2.22-1.26-1.48-1.89-3.44-1.89-5.88v-1.8c0-2.44.63-4.4 1.89-5.88 1.26-1.48 3-2.22 5.22-2.22h12.78Zm-10.83 13.56h5.13v-9.12h-5.13c-1.22 0-2.06.28-2.52.84-.46.56-.69 1.43-.69 2.61v2.37c0 1.18.23 2.03.69 2.55.46.5 1.3.75 2.52.75Zm27.234-.21V8h5.7v18h-11.16c-2.62 0-4.52-.66-5.7-1.98-1.18-1.32-1.77-3.11-1.77-5.37V8h5.7v10.8c0 .92.15 1.58.45 1.98.32.38.92.57 1.8.57h4.98Zm27.22-2.67h-12.87v.12c0 1.14.25 1.9.75 2.28.5.38 1.36.57 2.58.57h9.12V26h-8.79c-1.76 0-3.25-.19-4.47-.57-1.2-.4-2.17-.95-2.91-1.65a6.596 6.596 0 0 1-1.59-2.58c-.32-1-.48-2.1-.48-3.3v-2.28c0-2.38.69-4.28 2.07-5.7 1.38-1.44 3.64-2.16 6.78-2.16h1.2c1.68 0 3.08.2 4.2.6 1.12.4 2 .97 2.64 1.71.66.72 1.12 1.59 1.38 2.61.26 1.02.39 2.15.39 3.39v2.61Zm-7.95-6.9h-2.34c-.96 0-1.63.21-2.01.63-.38.42-.57 1.12-.57 2.1v.39h7.47v-.39c0-.98-.2-1.68-.6-2.1-.38-.42-1.03-.63-1.95-.63Zm16.963.57V8h2.91V4.34h5.25V8h9.75v4.35h-9.75v7.29c0 .76.16 1.29.48 1.59.32.28.84.42 1.56.42h2.91V26h-3.57c-2.48 0-4.26-.52-5.34-1.56-1.06-1.06-1.59-2.66-1.59-4.8v-7.29h-2.61Zm29.422 9V8h5.7v18h-11.16c-2.62 0-4.52-.66-5.7-1.98-1.18-1.32-1.77-3.11-1.77-5.37V8h5.7v10.8c0 .92.15 1.58.45 1.98.32.38.92.57 1.8.57h4.98ZM315.589 8l4.02 12.63c.12.38.23.63.33.75.1.1.24.15.42.15.14 0 .26-.06.36-.18.1-.14.21-.4.33-.78L325.039 8h5.7l-4.86 13.62c-.58 1.62-1.31 2.81-2.19 3.57-.88.74-1.99 1.11-3.33 1.11-1.44 0-2.62-.36-3.54-1.08-.92-.74-1.65-1.86-2.19-3.36L309.709 8h5.88Zm23.27-1.56h-5.7V2.9h5.7v3.54Zm-5.7 19.56V8h5.7v18h-5.7Zm19.442-6.3-4.89-.96c-1.8-.36-3.18-.99-4.14-1.89-.94-.9-1.41-2.1-1.41-3.6 0-.7.13-1.37.39-2.01.28-.64.7-1.2 1.26-1.68.58-.48 1.31-.86 2.19-1.14.9-.28 1.96-.42 3.18-.42h14.94v4.35h-15.39c-.6 0-1 .09-1.2.27-.2.18-.3.38-.3.6 0 .24.09.45.27.63.18.18.49.31.93.39l4.44.87c2.2.44 3.77 1.1 4.71 1.98.96.86 1.44 2.01 1.44 3.45 0 1.62-.62 2.94-1.86 3.96-1.22 1-3.08 1.5-5.58 1.5h-8.82v-4.35h9.63c.64 0 1.08-.09 1.32-.27.24-.18.36-.41.36-.69 0-.3-.14-.52-.42-.66-.26-.14-.61-.25-1.05-.33Zm6.86-7.35V8h2.91V4.34h5.25V8h6.15v4.35h-6.15v7.29c0 .76.16 1.29.48 1.59.32.28.84.42 1.56.42h4.11V26h-4.77c-2.48 0-4.26-.52-5.34-1.56-1.06-1.06-1.59-2.66-1.59-4.8v-7.29h-2.61Zm34.844 6.33h-12.87v.12c0 1.14.25 1.9.75 2.28.5.38 1.36.57 2.58.57h9.12V26h-8.79c-1.76 0-3.25-.19-4.47-.57-1.2-.4-2.17-.95-2.91-1.65a6.596 6.596 0 0 1-1.59-2.58c-.32-1-.48-2.1-.48-3.3v-2.28c0-2.38.69-4.28 2.07-5.7 1.38-1.44 3.64-2.16 6.78-2.16h1.2c1.68 0 3.08.2 4.2.6 1.12.4 2 .97 2.64 1.71.66.72 1.12 1.59 1.38 2.61.26 1.02.39 2.15.39 3.39v2.61Zm-7.95-6.9h-2.34c-.96 0-1.63.21-2.01.63-.38.42-.57 1.12-.57 2.1v.39h7.47v-.39c0-.98-.2-1.68-.6-2.1-.38-.42-1.03-.63-1.95-.63ZM423.719 8v22.5h-5.7V26h-7.08c-2.22 0-3.96-.74-5.22-2.22-1.26-1.48-1.89-3.44-1.89-5.88v-1.8c0-2.44.63-4.4 1.89-5.88 1.26-1.48 3-2.22 5.22-2.22h12.78Zm-10.83 13.56h5.13v-9.12h-5.13c-1.22 0-2.06.28-2.52.84-.46.56-.69 1.43-.69 2.61v2.37c0 1.18.23 2.03.69 2.55.46.5 1.3.75 2.52.75Zm27.234-.21V8h5.7v18h-11.16c-2.62 0-4.52-.66-5.7-1.98-1.18-1.32-1.77-3.11-1.77-5.37V8h5.7v10.8c0 .92.15 1.58.45 1.98.32.38.92.57 1.8.57h4.98Zm27.219-2.67h-12.87v.12c0 1.14.25 1.9.75 2.28.5.38 1.36.57 2.58.57h9.12V26h-8.79c-1.76 0-3.25-.19-4.47-.57-1.2-.4-2.17-.95-2.91-1.65a6.596 6.596 0 0 1-1.59-2.58c-.32-1-.48-2.1-.48-3.3v-2.28c0-2.38.69-4.28 2.07-5.7 1.38-1.44 3.64-2.16 6.78-2.16h1.2c1.68 0 3.08.2 4.2.6 1.12.4 2 .97 2.64 1.71.66.72 1.12 1.59 1.38 2.61.26 1.02.39 2.15.39 3.39v2.61Zm-7.95-6.9h-2.34c-.96 0-1.63.21-2.01.63-.38.42-.57 1.12-.57 2.1v.39h7.47v-.39c0-.98-.2-1.68-.6-2.1-.38-.42-1.03-.63-1.95-.63ZM477.496 26V3.5h5.7V8h5.46c2.62 0 4.52.66 5.7 1.98 1.18 1.32 1.77 3.11 1.77 5.37V26h-5.7V15.2c0-.92-.16-1.57-.48-1.95-.3-.4-.89-.6-1.77-.6h-4.98V26h-5.7Zm39.189-9.75V26h-12.33c-1.8 0-3.18-.39-4.14-1.17-.96-.78-1.44-1.8-1.44-3.06 0-1.38.47-2.48 1.41-3.3.94-.84 2.07-1.71 3.39-2.61l5.1-3.51h-9.48V8h7.89c3.44 0 5.9.73 7.38 2.19 1.48 1.44 2.22 3.46 2.22 6.06Zm-10.71 5.4h5.31v-5.97l-5.43 4.23c-.34.26-.58.46-.72.6a.6.6 0 0 0-.21.48c0 .22.08.39.24.51.16.1.43.15.81.15ZM520.152 26V3.5h5.7v4.2h7.08c2.22 0 3.96.74 5.22 2.22 1.26 1.48 1.89 3.44 1.89 5.88v2.1c0 2.44-.63 4.4-1.89 5.88-1.26 1.48-3 2.22-5.22 2.22h-12.78Zm10.83-13.86h-5.13v9.42h5.13c1.22 0 2.06-.28 2.52-.84.46-.56.69-1.43.69-2.61v-2.67c0-1.18-.23-2.02-.69-2.52-.46-.52-1.3-.78-2.52-.78Zm12.264-8.64h5.7V26h-5.7V3.5Zm26.613 12.75V26h-12.33c-1.8 0-3.18-.39-4.14-1.17-.96-.78-1.44-1.8-1.44-3.06 0-1.38.47-2.48 1.41-3.3.94-.84 2.07-1.71 3.39-2.61l5.1-3.51h-9.48V8h7.89c3.44 0 5.9.73 7.38 2.19 1.48 1.44 2.22 3.46 2.22 6.06Zm-10.71 5.4h5.31v-5.97l-5.43 4.23c-.34.26-.58.46-.72.6a.6.6 0 0 0-.21.48c0 .22.08.39.24.51.16.1.43.15.81.15Zm14.177-6.96c0-.86.13-1.69.39-2.49.26-.8.67-1.51 1.23-2.13.56-.62 1.28-1.12 2.16-1.5.9-.38 1.97-.57 3.21-.57h5.28v4.35h-3.99c-1.02 0-1.71.18-2.07.54-.34.36-.51.98-.51 1.86V26h-5.7V14.69Zm23.6 11.31V12.35h-2.76V8h2.79c.14-1.88.7-3.3 1.68-4.26s2.63-1.44 4.95-1.44h4.14v3.72h-4.38c-.44 0-.77.11-.99.33-.22.22-.33.58-.33 1.08V8h5.7v4.35h-5.1V26h-5.7Zm12.845-11.31c0-.86.13-1.69.39-2.49.26-.8.67-1.51 1.23-2.13.56-.62 1.28-1.12 2.16-1.5.9-.38 1.97-.57 3.21-.57h5.28v4.35h-3.99c-1.02 0-1.71.18-2.07.54-.34.36-.51.98-.51 1.86V26h-5.7V14.69Zm31.917 3.99h-12.87v.12c0 1.14.25 1.9.75 2.28.5.38 1.36.57 2.58.57h9.12V26h-8.79c-1.76 0-3.25-.19-4.47-.57-1.2-.4-2.17-.95-2.91-1.65a6.596 6.596 0 0 1-1.59-2.58c-.32-1-.48-2.1-.48-3.3v-2.28c0-2.38.69-4.28 2.07-5.7 1.38-1.44 3.64-2.16 6.78-2.16h1.2c1.68 0 3.08.2 4.2.6 1.12.4 2 .97 2.64 1.71.66.72 1.12 1.59 1.38 2.61.26 1.02.39 2.15.39 3.39v2.61Zm-7.95-6.9h-2.34c-.96 0-1.63.21-2.01.63-.38.42-.57 1.12-.57 2.1v.39h7.47v-.39c0-.98-.2-1.68-.6-2.1-.38-.42-1.03-.63-1.95-.63ZM644.635 26V8h11.16c2.62 0 4.52.66 5.7 1.98 1.18 1.32 1.77 3.11 1.77 5.37V26h-5.7V15.2c0-.92-.16-1.57-.48-1.95-.3-.4-.89-.6-1.77-.6h-4.98V26h-5.7Zm20.979-13.65V8h2.91V4.34h5.25V8h6.15v4.35h-6.15v7.29c0 .76.16 1.29.48 1.59.32.28.84.42 1.56.42h4.11V26h-4.77c-2.48 0-4.26-.52-5.34-1.56-1.06-1.06-1.59-2.66-1.59-4.8v-7.29h-2.61Zm34.844 6.33h-12.87v.12c0 1.14.25 1.9.75 2.28.5.38 1.36.57 2.58.57h9.12V26h-8.79c-1.76 0-3.25-.19-4.47-.57-1.2-.4-2.17-.95-2.91-1.65a6.596 6.596 0 0 1-1.59-2.58c-.32-1-.48-2.1-.48-3.3v-2.28c0-2.38.69-4.28 2.07-5.7 1.38-1.44 3.64-2.16 6.78-2.16h1.2c1.68 0 3.08.2 4.2.6 1.12.4 2 .97 2.64 1.71.66.72 1.12 1.59 1.38 2.61.26 1.02.39 2.15.39 3.39v2.61Zm-7.95-6.9h-2.34c-.96 0-1.63.21-2.01.63-.38.42-.57 1.12-.57 2.1v.39h7.47v-.39c0-.98-.2-1.68-.6-2.1-.38-.42-1.03-.63-1.95-.63ZM130.245 52.25V62h-12.33c-1.8 0-3.18-.39-4.14-1.17-.96-.78-1.44-1.8-1.44-3.06 0-1.38.47-2.48 1.41-3.3.94-.84 2.07-1.71 3.39-2.61l5.1-3.51h-9.48V44h7.89c3.44 0 5.9.73 7.38 2.19 1.48 1.44 2.22 3.46 2.22 6.06Zm-10.71 5.4h5.31v-5.97l-5.43 4.23c-.34.26-.58.46-.72.6a.6.6 0 0 0-.21.48c0 .22.08.39.24.51.16.1.43.15.81.15Zm20.244-9.3V44h2.91v-3.66h5.25V44h6.15v4.35h-6.15v7.29c0 .76.16 1.29.48 1.59.32.28.84.42 1.56.42h4.11V62h-4.77c-2.48 0-4.26-.52-5.34-1.56-1.06-1.06-1.59-2.66-1.59-4.8v-7.29h-2.61Zm35.774 3.57v2.16c0 2.5-.76 4.5-2.28 6-1.5 1.48-3.65 2.22-6.45 2.22h-2.1c-2.8 0-4.96-.74-6.48-2.22-1.52-1.5-2.28-3.5-2.28-6v-2.16c0-2.5.76-4.49 2.28-5.97 1.52-1.5 3.68-2.25 6.48-2.25h2.1c2.8 0 4.95.75 6.45 2.25 1.52 1.48 2.28 3.47 2.28 5.97Zm-5.85-.48c0-1.16-.22-2.02-.66-2.58-.42-.58-1.18-.87-2.28-.87h-1.98c-1.1 0-1.87.29-2.31.87-.44.56-.66 1.42-.66 2.58v3.09c0 1.18.22 2.06.66 2.64.44.56 1.21.84 2.31.84h1.98c1.1 0 1.86-.28 2.28-.84.44-.58.66-1.46.66-2.64v-3.09Zm27.946-11.94V62h-12.78c-2.22 0-3.96-.74-5.22-2.22-1.26-1.48-1.89-3.44-1.89-5.88v-1.8c0-2.44.63-4.4 1.89-5.88 1.26-1.48 3-2.22 5.22-2.22h7.08v-4.5h5.7Zm-10.83 18.06h5.13v-9.12h-5.13c-1.22 0-2.06.28-2.52.84-.46.56-.69 1.43-.69 2.61v2.37c0 1.18.23 2.03.69 2.55.46.5 1.3.75 2.52.75Zm33.265-5.64v2.16c0 2.5-.76 4.5-2.28 6-1.5 1.48-3.65 2.22-6.45 2.22h-2.1c-2.8 0-4.96-.74-6.48-2.22-1.52-1.5-2.28-3.5-2.28-6v-2.16c0-2.5.76-4.49 2.28-5.97 1.52-1.5 3.68-2.25 6.48-2.25h2.1c2.8 0 4.95.75 6.45 2.25 1.52 1.48 2.28 3.47 2.28 5.97Zm-5.85-.48c0-1.16-.22-2.02-.66-2.58-.42-.58-1.18-.87-2.28-.87h-1.98c-1.1 0-1.87.29-2.31.87-.44.56-.66 1.42-.66 2.58v3.09c0 1.18.22 2.06.66 2.64.44.56 1.21.84 2.31.84h1.98c1.1 0 1.86-.28 2.28-.84.44-.58.66-1.46.66-2.64v-3.09Zm33.924 3.24h-12.87v.12c0 1.14.25 1.9.75 2.28.5.38 1.36.57 2.58.57h9.12V62h-8.79c-1.76 0-3.25-.19-4.47-.57-1.2-.4-2.17-.95-2.91-1.65a6.596 6.596 0 0 1-1.59-2.58c-.32-1-.48-2.1-.48-3.3v-2.28c0-2.38.69-4.28 2.07-5.7 1.38-1.44 3.64-2.16 6.78-2.16h1.2c1.68 0 3.08.2 4.2.6 1.12.4 2 .97 2.64 1.71.66.72 1.12 1.59 1.38 2.61.26 1.02.39 2.15.39 3.39v2.61Zm-7.95-6.9h-2.34c-.96 0-1.63.21-2.01.63-.38.42-.57 1.12-.57 2.1v.39h7.47v-.39c0-.98-.2-1.68-.6-2.1-.38-.42-1.03-.63-1.95-.63Zm11.256-8.28h5.7V62h-5.7V39.5Zm34.78 15.18h-12.87v.12c0 1.14.25 1.9.75 2.28.5.38 1.36.57 2.58.57h9.12V62h-8.79c-1.76 0-3.25-.19-4.47-.57-1.2-.4-2.17-.95-2.91-1.65a6.596 6.596 0 0 1-1.59-2.58c-.32-1-.48-2.1-.48-3.3v-2.28c0-2.38.69-4.28 2.07-5.7 1.38-1.44 3.64-2.16 6.78-2.16h1.2c1.68 0 3.08.2 4.2.6 1.12.4 2 .97 2.64 1.71.66.72 1.12 1.59 1.38 2.61.26 1.02.39 2.15.39 3.39v2.61Zm-7.95-6.9h-2.34c-.96 0-1.63.21-2.01.63-.38.42-.57 1.12-.57 2.1v.39h7.47v-.39c0-.98-.2-1.68-.6-2.1-.38-.42-1.03-.63-1.95-.63ZM308.45 44v22.5h-5.7V62h-7.08c-2.22 0-3.96-.74-5.22-2.22-1.26-1.48-1.89-3.44-1.89-5.88v-1.8c0-2.44.63-4.4 1.89-5.88 1.26-1.48 3-2.22 5.22-2.22h12.78Zm-10.83 13.56h5.13v-9.12h-5.13c-1.22 0-2.06.28-2.52.84-.46.56-.69 1.43-.69 2.61v2.37c0 1.18.23 2.03.69 2.55.46.5 1.3.75 2.52.75Zm27.235-.21V44h5.7v18h-11.16c-2.62 0-4.52-.66-5.7-1.98-1.18-1.32-1.77-3.11-1.77-5.37V44h5.7v10.8c0 .92.15 1.58.45 1.98.32.38.92.57 1.8.57h4.98Zm15.249-14.91h-5.7V38.9h5.7v3.54Zm-5.7 19.56V44h5.7v18h-5.7Zm9.542 4.5V44h12.78c2.22 0 3.96.74 5.22 2.22 1.26 1.48 1.89 3.44 1.89 5.88v1.8c0 2.44-.63 4.4-1.89 5.88-1.26 1.48-3 2.22-5.22 2.22h-7.08v4.5h-5.7Zm10.83-18.06h-5.13v9.12h5.13c1.22 0 2.06-.28 2.52-.84.46-.56.69-1.43.69-2.61v-2.37c0-1.18-.23-2.02-.69-2.52-.46-.52-1.3-.78-2.52-.78Zm30.864 3.48v2.16c0 2.5-.76 4.5-2.28 6-1.5 1.48-3.65 2.22-6.45 2.22h-2.1c-2.8 0-4.96-.74-6.48-2.22-1.52-1.5-2.28-3.5-2.28-6v-2.16c0-2.5.76-4.49 2.28-5.97 1.52-1.5 3.68-2.25 6.48-2.25h2.1c2.8 0 4.95.75 6.45 2.25 1.52 1.48 2.28 3.47 2.28 5.97Zm-5.85-.48c0-1.16-.22-2.02-.66-2.58-.42-.58-1.18-.87-2.28-.87h-1.98c-1.1 0-1.87.29-2.31.87-.44.56-.66 1.42-.66 2.58v3.09c0 1.18.22 2.06.66 2.64.44.56 1.21.84 2.31.84h1.98c1.1 0 1.86-.28 2.28-.84.44-.58.66-1.46.66-2.64v-3.09Zm35.154-11.94V62h-12.78c-2.22 0-3.96-.74-5.22-2.22-1.26-1.48-1.89-3.44-1.89-5.88v-1.8c0-2.44.63-4.4 1.89-5.88 1.26-1.48 3-2.22 5.22-2.22h7.08v-4.5h5.7Zm-10.83 18.06h5.13v-9.12h-5.13c-1.22 0-2.06.28-2.52.84-.46.56-.69 1.43-.69 2.61v2.37c0 1.18.23 2.03.69 2.55.46.5 1.3.75 2.52.75Zm32.335-2.88h-12.87v.12c0 1.14.25 1.9.75 2.28.5.38 1.36.57 2.58.57h9.12V62h-8.79c-1.76 0-3.25-.19-4.47-.57-1.2-.4-2.17-.95-2.91-1.65a6.596 6.596 0 0 1-1.59-2.58c-.32-1-.48-2.1-.48-3.3v-2.28c0-2.38.69-4.28 2.07-5.7 1.38-1.44 3.64-2.16 6.78-2.16h1.2c1.68 0 3.08.2 4.2.6 1.12.4 2 .97 2.64 1.71.66.72 1.12 1.59 1.38 2.61.26 1.02.39 2.15.39 3.39v2.61Zm-7.95-6.9h-2.34c-.96 0-1.63.21-2.01.63-.38.42-.57 1.12-.57 2.1v.39h7.47v-.39c0-.98-.2-1.68-.6-2.1-.38-.42-1.03-.63-1.95-.63Zm16.963.57V44h2.91v-3.66h5.25V44h6.15v4.35h-6.15v7.29c0 .76.16 1.29.48 1.59.32.28.84.42 1.56.42h4.11V62h-4.77c-2.48 0-4.26-.52-5.34-1.56-1.06-1.06-1.59-2.66-1.59-4.8v-7.29h-2.61Zm17.4 2.94c0-.92.17-1.82.51-2.7.36-.88.88-1.66 1.56-2.34.7-.68 1.58-1.22 2.64-1.62 1.08-.42 2.34-.63 3.78-.63h6.18v4.35h-6.54c-.96 0-1.61.18-1.95.54-.32.36-.48.98-.48 1.86V62h-5.7V51.29Zm28.525.96V62h-12.33c-1.8 0-3.18-.39-4.14-1.17-.96-.78-1.44-1.8-1.44-3.06 0-1.38.47-2.48 1.41-3.3.94-.84 2.07-1.71 3.39-2.61l5.1-3.51h-9.48V44h7.89c3.44 0 5.9.73 7.38 2.19 1.48 1.44 2.22 3.46 2.22 6.06Zm-10.71 5.4h5.31v-5.97l-5.43 4.23c-.34.26-.58.46-.72.6a.6.6 0 0 0-.21.48c0 .22.08.39.24.51.16.1.43.15.81.15ZM494.854 62V39.5h5.7v4.2h7.08c2.22 0 3.96.74 5.22 2.22 1.26 1.48 1.89 3.44 1.89 5.88v2.1c0 2.44-.63 4.4-1.89 5.88-1.26 1.48-3 2.22-5.22 2.22h-12.78Zm10.83-13.86h-5.13v9.42h5.13c1.22 0 2.06-.28 2.52-.84.46-.56.69-1.43.69-2.61v-2.67c0-1.18-.23-2.02-.69-2.52-.46-.52-1.3-.78-2.52-.78Zm28.975 4.11V62h-12.33c-1.8 0-3.18-.39-4.14-1.17-.96-.78-1.44-1.8-1.44-3.06 0-1.38.47-2.48 1.41-3.3.94-.84 2.07-1.71 3.39-2.61l5.1-3.51h-9.48V44h7.89c3.44 0 5.9.73 7.38 2.19 1.48 1.44 2.22 3.46 2.22 6.06Zm-10.71 5.4h5.31v-5.97l-5.43 4.23c-.34.26-.58.46-.72.6a.6.6 0 0 0-.21.48c0 .22.08.39.24.51.16.1.43.15.81.15Zm19.937-15.21h-5.7V38.9h5.7v3.54Zm-5.7 1.56h5.7v16.59c0 1.98-.54 3.46-1.62 4.44-1.06.98-2.52 1.47-4.38 1.47h-2.4v-3.87h1.38c.42 0 .74-.12.96-.36.24-.22.36-.62.36-1.2V44Zm28.363 7.92v2.16c0 2.5-.76 4.5-2.28 6-1.5 1.48-3.65 2.22-6.45 2.22h-2.1c-2.8 0-4.96-.74-6.48-2.22-1.52-1.5-2.28-3.5-2.28-6v-2.16c0-2.5.76-4.49 2.28-5.97 1.52-1.5 3.68-2.25 6.48-2.25h2.1c2.8 0 4.95.75 6.45 2.25 1.52 1.48 2.28 3.47 2.28 5.97Zm-5.85-.48c0-1.16-.22-2.02-.66-2.58-.42-.58-1.18-.87-2.28-.87h-1.98c-1.1 0-1.87.29-2.31.87-.44.56-.66 1.42-.66 2.58v3.09c0 1.18.22 2.06.66 2.64.44.56 1.21.84 2.31.84h1.98c1.1 0 1.86-.28 2.28-.84.44-.58.66-1.46.66-2.64v-3.09ZM587.46 62v-6.3h6.3V62h-6.3Zm-18.6 0v-6.3h6.3V62h-6.3Zm9.3 0v-6.3h6.3V62h-6.3Z"/>
</svg>
