<svg xmlns="http://www.w3.org/2000/svg" width="265" height="44" fill="none" viewBox="0 0 265 44">
  <path fill="#00153D" d="m0 43 2.35-26.8c.333-4 1.417-6.883 3.25-8.65C7.467 5.783 9.817 4.9 12.65 4.9c3.033 0 5.433.933 7.2 2.8 1.8 1.833 2.95 4.35 3.45 7.55l2.95 18.65c.067.4.167.7.3.9.167.2.417.3.75.3s.583-.117.75-.35c.167-.233.267-.55.3-.95l2.85-18.6c.467-3.167 1.583-5.667 3.35-7.5 1.8-1.867 4.2-2.8 7.2-2.8 3.167 0 5.517.9 7.05 2.7 1.567 1.767 2.517 4.633 2.85 8.6L54 43h-9.65l-2-28.25a2.896 2.896 0 0 0-.2-.85c-.067-.233-.267-.35-.6-.35-.267 0-.483.117-.65.35-.167.2-.267.45-.3.75L37.25 34.7c-.433 2.667-1.517 4.817-3.25 6.45-1.7 1.633-3.95 2.45-6.75 2.45-2.9 0-5.217-.833-6.95-2.5-1.733-1.7-2.817-3.85-3.25-6.45l-3.5-19.95c-.067-.367-.183-.65-.35-.85a.806.806 0 0 0-.65-.3c-.333 0-.567.117-.7.35-.1.233-.167.533-.2.9l-2 28.2H0Zm90.02-16.8v3.6c0 4.167-1.267 7.5-3.8 10-2.5 2.467-6.084 3.7-10.75 3.7h-3.5c-4.667 0-8.267-1.233-10.8-3.7-2.534-2.5-3.8-5.833-3.8-10v-3.6c0-4.167 1.266-7.483 3.8-9.95 2.533-2.5 6.133-3.75 10.8-3.75h3.5c4.666 0 8.25 1.25 10.75 3.75 2.533 2.467 3.8 5.783 3.8 9.95Zm-9.75-.8c0-1.933-.367-3.367-1.1-4.3-.7-.967-1.967-1.45-3.8-1.45h-3.3c-1.834 0-3.117.483-3.85 1.45-.734.933-1.1 2.367-1.1 4.3v5.15c0 1.967.366 3.433 1.1 4.4.733.933 2.016 1.4 3.85 1.4h3.3c1.833 0 3.1-.467 3.8-1.4.733-.967 1.1-2.433 1.1-4.4V25.4Zm-10.15-16L73.37 0h7.75l-3.5 9.4h-7.5Zm56.728-3.9V43h-21.3c-3.7 0-6.6-1.233-8.7-3.7-2.1-2.467-3.15-5.733-3.15-9.8v-3c0-4.067 1.05-7.333 3.15-9.8 2.1-2.467 5-3.7 8.7-3.7h11.8V5.5h9.5Zm-18.05 30.1h8.55V20.4h-8.55c-2.034 0-3.434.467-4.2 1.4-.767.933-1.15 2.383-1.15 4.35v3.95c0 1.967.383 3.383 1.15 4.25.766.833 2.166 1.25 4.2 1.25Zm45.39-.35V13h9.5v30h-18.6c-4.366 0-7.533-1.1-9.5-3.3-1.966-2.2-2.95-5.183-2.95-8.95V13h9.5v18c0 1.533.25 2.633.75 3.3.534.633 1.534.95 3 .95h8.3ZM170.104 5.5h9.5V43h-9.5V5.5Zm47.503 20.7v3.6c0 4.167-1.266 7.5-3.8 10-2.5 2.467-6.083 3.7-10.75 3.7h-3.5c-4.666 0-8.266-1.233-10.8-3.7-2.533-2.5-3.8-5.833-3.8-10v-3.6c0-4.167 1.267-7.483 3.8-9.95 2.534-2.5 6.134-3.75 10.8-3.75h3.5c4.667 0 8.25 1.25 10.75 3.75 2.534 2.467 3.8 5.783 3.8 9.95Zm-9.75-.8c0-1.933-.366-3.367-1.1-4.3-.7-.967-1.966-1.45-3.8-1.45h-3.3c-1.833 0-3.116.483-3.85 1.45-.733.933-1.1 2.367-1.1 4.3v5.15c0 1.967.367 3.433 1.1 4.4.734.933 2.017 1.4 3.85 1.4h3.3c1.834 0 3.1-.467 3.8-1.4.734-.967 1.1-2.433 1.1-4.4V25.4Zm56.04 9.75V43h-30.95v-6.1c0-1.6.167-3.033.5-4.3a9.627 9.627 0 0 1 1.75-3.5c.834-1.1 1.934-2.15 3.3-3.15 1.4-1.033 3.15-2.1 5.25-3.2l7.95-4.15c.867-.433 1.484-.85 1.85-1.25.367-.433.55-.967.55-1.6 0-.933-.316-1.567-.95-1.9-.633-.333-1.483-.5-2.55-.5h-16.85V5.5h17.7c4.467 0 7.734.817 9.8 2.45 2.067 1.6 3.1 3.8 3.1 6.6 0 1.567-.233 2.917-.7 4.05-.466 1.133-1.166 2.15-2.1 3.05-.9.9-2.016 1.767-3.35 2.6a113.77 113.77 0 0 1-4.6 2.6l-7.25 3.95c-1.133.6-1.866 1.15-2.2 1.65-.3.5-.45 1.067-.45 1.7v1h20.2Z"/>
</svg>
