<svg xmlns="http://www.w3.org/2000/svg" width="265" height="44" fill="none" viewBox="0 0 265 44">
  <path fill="#4863F7" d="M16.832 5.5c2.492 0 4.676.322 6.552.966 1.904.616 3.472 1.512 4.704 2.688 1.232 1.148 2.156 2.562 2.772 4.242.616 1.652.924 3.5.924 5.544v4.62c0 2.044-.308 3.906-.924 5.586-.616 1.652-1.54 3.066-2.772 4.242-1.232 1.148-2.8 2.044-4.704 2.688-1.876.616-4.06.924-6.552.924H.494V5.5h16.338Zm-.546 6.636H8.894v18.228h7.182c2.772 0 4.606-.518 5.502-1.554.924-1.036 1.386-2.814 1.386-5.334v-4.494c0-2.52-.448-4.284-1.344-5.292-.896-1.036-2.674-1.554-5.334-1.554Zm44.84 14.616h-18.02v.168c0 1.596.35 2.66 1.05 3.192.7.532 1.904.798 3.612.798h12.768V37H48.231c-2.464 0-4.55-.266-6.258-.798-1.68-.56-3.038-1.33-4.074-2.31a9.234 9.234 0 0 1-2.226-3.612c-.448-1.4-.672-2.94-.672-4.62v-3.192c0-3.332.966-5.992 2.898-7.98 1.932-2.016 5.096-3.024 9.492-3.024h1.68c2.352 0 4.312.28 5.88.84 1.568.56 2.8 1.358 3.696 2.394.924 1.008 1.568 2.226 1.932 3.654.364 1.428.546 3.01.546 4.746v3.654Zm-11.13-9.66h-3.277c-1.344 0-2.282.294-2.814.882-.532.588-.798 1.568-.798 2.94v.546h10.458v-.546c0-1.372-.28-2.352-.84-2.94-.532-.588-1.442-.882-2.73-.882ZM65.753 5.5h7.98V37h-7.98V5.5Zm38.602 21.252H86.338v.168c0 1.596.35 2.66 1.05 3.192.7.532 1.904.798 3.612.798h12.768V37H91.462c-2.464 0-4.55-.266-6.258-.798-1.68-.56-3.038-1.33-4.074-2.31a9.234 9.234 0 0 1-2.226-3.612c-.448-1.4-.672-2.94-.672-4.62v-3.192c0-3.332.966-5.992 2.898-7.98 1.932-2.016 5.096-3.024 9.492-3.024h1.68c2.352 0 4.312.28 5.88.84 1.568.56 2.8 1.358 3.696 2.394.924 1.008 1.568 2.226 1.932 3.654.364 1.428.546 3.01.546 4.746v3.654Zm-11.13-9.66H89.95c-1.344 0-2.282.294-2.814.882-.532.588-.798 1.568-.798 2.94v.546h10.458v-.546c0-1.372-.28-2.352-.84-2.94-.532-.588-1.442-.882-2.73-.882Zm28.15 26.208h-12.054v-5.964h12.138c2.156 0 3.556-.252 4.2-.756.644-.504.966-1.26.966-2.268v-.546h-9.282c-2.968 0-5.334-.91-7.098-2.73-1.764-1.82-2.646-4.34-2.646-7.56v-.966c0-3.332.882-5.95 2.646-7.854 1.764-1.904 4.13-2.856 7.098-2.856h17.262v21.756c0 3.5-1.022 5.992-3.066 7.476-2.044 1.512-5.432 2.268-10.164 2.268Zm-1.554-15.246h6.804V17.932h-6.804c-1.512 0-2.562.308-3.15.924-.588.588-.882 1.61-.882 3.066v1.932c0 1.428.294 2.492.882 3.192.588.672 1.638 1.008 3.15 1.008Zm43.566-4.704V37h-17.262c-2.52 0-4.452-.546-5.796-1.638-1.344-1.092-2.016-2.52-2.016-4.284 0-1.932.658-3.472 1.974-4.62 1.316-1.176 2.898-2.394 4.746-3.654l7.14-4.914h-13.272V11.8h11.046c4.816 0 8.26 1.022 10.332 3.066 2.072 2.016 3.108 4.844 3.108 8.484Zm-14.994 7.56h7.434v-8.358l-7.602 5.922c-.476.364-.812.644-1.008.84a.84.84 0 0 0-.294.672c0 .308.112.546.336.714.224.14.602.21 1.134.21Zm31.944-13.02c-1.652 0-2.87.378-3.654 1.134-.756.728-1.134 1.848-1.134 3.36v4.326c0 1.68.378 2.8 1.134 3.36.784.56 2.002.84 3.654.84h9.45V37h-9.702c-4.508 0-7.756-.98-9.744-2.94-1.988-1.96-2.982-4.662-2.982-8.106v-3.066c0-3.444.994-6.146 2.982-8.106 1.988-1.988 5.236-2.982 9.744-2.982h9.702v6.09h-9.45Zm22.474-8.274h-7.98V4.66h7.98v4.956ZM194.831 37V11.8h7.98V37h-7.98Zm39.903-14.112v3.024c0 3.5-1.064 6.3-3.192 8.4-2.1 2.072-5.11 3.108-9.03 3.108h-2.94c-3.92 0-6.944-1.036-9.072-3.108-2.128-2.1-3.192-4.9-3.192-8.4v-3.024c0-3.5 1.064-6.286 3.192-8.358 2.128-2.1 5.152-3.15 9.072-3.15h2.94c3.92 0 6.93 1.05 9.03 3.15 2.128 2.072 3.192 4.858 3.192 8.358Zm-8.19-.672c0-1.624-.308-2.828-.924-3.612-.588-.812-1.652-1.218-3.192-1.218h-2.772c-1.54 0-2.618.406-3.234 1.218-.616.784-.924 1.988-.924 3.612v4.326c0 1.652.308 2.884.924 3.696.616.784 1.694 1.176 3.234 1.176h2.772c1.54 0 2.604-.392 3.192-1.176.616-.812.924-2.044.924-3.696v-4.326Zm-8.526-13.44 2.73-7.896h6.51l-2.94 7.896h-6.3ZM238.706 37V11.8h15.624c3.668 0 6.328.924 7.98 2.772 1.652 1.848 2.478 4.354 2.478 7.518V37h-7.98V21.88c0-1.288-.224-2.198-.672-2.73-.42-.56-1.246-.84-2.478-.84h-6.972V37h-7.98Z"/>
</svg>
