<svg xmlns="http://www.w3.org/2000/svg" width="552" height="79" fill="none" viewBox="0 0 552 79">
  <path fill="#fff" d="M35.993 58.825V78H11.744c-3.54 0-6.254-.767-8.142-2.301C1.714 74.165.77 72.159.77 69.681c0-2.714.924-4.877 2.773-6.49 1.849-1.652 4.071-3.363 6.667-5.133l10.03-6.903H1.596V42.6h15.517c6.765 0 11.603 1.436 14.514 4.307 2.91 2.832 4.366 6.805 4.366 11.918ZM14.93 69.445h10.443V57.704l-10.679 8.319c-.669.511-1.14.905-1.416 1.18-.275.236-.413.55-.413.944 0 .433.157.767.472 1.003.315.197.846.295 1.593.295ZM43.52 33.75h11.21V78H43.52V33.75ZM82.823 78V24h64.08c8.22 0 14.16 1.98 17.82 5.94 3.66 3.96 5.49 9.33 5.49 16.11V78h-17.1V45.6c0-2.76-.48-4.71-1.44-5.85-.9-1.2-2.67-1.8-5.31-1.8h-11.34V78h-17.1V37.95h-18V78h-17.1Zm154.79-30.24v6.48c0 7.5-2.28 13.5-6.84 18-4.5 4.44-10.95 6.66-19.35 6.66h-6.3c-8.4 0-14.88-2.22-19.44-6.66-4.56-4.5-6.84-10.5-6.84-18v-6.48c0-7.5 2.28-13.47 6.84-17.91 4.56-4.5 11.04-6.75 19.44-6.75h6.3c8.4 0 14.85 2.25 19.35 6.75 4.56 4.44 6.84 10.41 6.84 17.91Zm-17.55-1.44c0-3.48-.66-6.06-1.98-7.74-1.26-1.74-3.54-2.61-6.84-2.61h-5.94c-3.3 0-5.61.87-6.93 2.61-1.32 1.68-1.98 4.26-1.98 7.74v9.27c0 3.54.66 6.18 1.98 7.92 1.32 1.68 3.63 2.52 6.93 2.52h5.94c3.3 0 5.58-.84 6.84-2.52 1.32-1.74 1.98-4.38 1.98-7.92v-9.27Zm-18.27-28.8L207.643.6h13.95l-6.3 16.92h-13.5Zm102.11-7.02V78h-38.34c-6.66 0-11.88-2.22-15.66-6.66-3.78-4.44-5.67-10.32-5.67-17.64v-5.4c0-7.32 1.89-13.2 5.67-17.64 3.78-4.44 9-6.66 15.66-6.66h21.24V10.5h17.1Zm-32.49 54.18h15.39V37.32h-15.39c-3.66 0-6.18.84-7.56 2.52-1.38 1.68-2.07 4.29-2.07 7.83v7.11c0 3.54.69 6.09 2.07 7.65 1.38 1.5 3.9 2.25 7.56 2.25Zm81.703-.63V24h17.1v54h-33.48c-7.86 0-13.56-1.98-17.1-5.94-3.54-3.96-5.31-9.33-5.31-16.11V24h17.1v32.4c0 2.76.45 4.74 1.35 5.94.96 1.14 2.76 1.71 5.4 1.71h14.94Zm28.648-53.55h17.1V78h-17.1V10.5Zm85.507 37.26v6.48c0 7.5-2.28 13.5-6.84 18-4.5 4.44-10.95 6.66-19.35 6.66h-6.3c-8.4 0-14.88-2.22-19.44-6.66-4.56-4.5-6.84-10.5-6.84-18v-6.48c0-7.5 2.28-13.47 6.84-17.91 4.56-4.5 11.04-6.75 19.44-6.75h6.3c8.4 0 14.85 2.25 19.35 6.75 4.56 4.44 6.84 10.41 6.84 17.91Zm-17.55-1.44c0-3.48-.66-6.06-1.98-7.74-1.26-1.74-3.54-2.61-6.84-2.61h-5.94c-3.3 0-5.61.87-6.93 2.61-1.32 1.68-1.98 4.26-1.98 7.74v9.27c0 3.54.66 6.18 1.98 7.92 1.32 1.68 3.63 2.52 6.93 2.52h5.94c3.3 0 5.58-.84 6.84-2.52 1.32-1.74 1.98-4.38 1.98-7.92v-9.27Zm100.872 17.55V78h-55.71V67.02c0-2.88.3-5.46.9-7.74.6-2.28 1.65-4.38 3.15-6.3 1.5-1.98 3.48-3.87 5.94-5.67 2.52-1.86 5.67-3.78 9.45-5.76l14.31-7.47c1.56-.78 2.67-1.53 3.33-2.25.66-.78.99-1.74.99-2.88 0-1.68-.57-2.82-1.71-3.42-1.14-.6-2.67-.9-4.59-.9h-30.33V10.5h31.86c8.04 0 13.92 1.47 17.64 4.41 3.72 2.88 5.58 6.84 5.58 11.88 0 2.82-.42 5.25-1.26 7.29-.84 2.04-2.1 3.87-3.78 5.49-1.62 1.62-3.63 3.18-6.03 4.68-2.4 1.44-5.16 3-8.28 4.68l-13.05 7.11c-2.04 1.08-3.36 2.07-3.96 2.97-.54.9-.81 1.92-.81 3.06v1.8h36.36Z"/>
</svg>
