<svg xmlns="http://www.w3.org/2000/svg" width="561" height="91" fill="none" viewBox="0 0 561 91">
  <path fill="#fff" d="M35.406 10.25c5.28 0 9.909.682 13.884 2.047 4.035 1.305 7.357 3.204 9.968 5.696 2.61 2.433 4.569 5.429 5.874 8.989 1.305 3.5 1.958 7.417 1.958 11.748v9.79c0 4.331-.653 8.277-1.958 11.837-1.305 3.5-3.263 6.497-5.874 8.989-2.61 2.433-5.933 4.331-9.968 5.696C45.315 76.347 40.687 77 35.406 77H.785V10.25h34.621Zm-1.157 14.062H18.585v38.626h15.219c5.874 0 9.76-1.098 11.659-3.293 1.958-2.195 2.937-5.963 2.937-11.303v-9.523c0-5.34-.95-9.078-2.848-11.214-1.899-2.195-5.666-3.293-11.303-3.293Zm95.017 30.972h-38.18v.356c0 3.382.74 5.637 2.224 6.764 1.484 1.127 4.035 1.691 7.654 1.691h27.056V77h-26.077c-5.221 0-9.641-.564-13.26-1.691-3.56-1.187-6.438-2.818-8.634-4.895-2.136-2.136-3.708-4.687-4.717-7.654-.95-2.967-1.424-6.23-1.424-9.79v-6.764c0-7.06 2.047-12.697 6.141-16.91 4.094-4.272 10.799-6.408 20.114-6.408h3.56c4.984 0 9.138.593 12.46 1.78 3.323 1.187 5.934 2.878 7.832 5.073 1.958 2.136 3.323 4.717 4.094 7.743.772 3.026 1.157 6.378 1.157 10.057v7.743Zm-23.585-20.47h-6.942c-2.848 0-4.835.623-5.963 1.869-1.127 1.246-1.69 3.323-1.69 6.23v1.157h22.16v-1.157c0-2.907-.593-4.984-1.78-6.23-1.127-1.246-3.055-1.869-5.785-1.869Zm33.395-24.564h16.91V77h-16.91V10.25Zm81.798 45.034h-38.181v.356c0 3.382.741 5.637 2.225 6.764 1.483 1.127 4.034 1.691 7.654 1.691h27.056V77h-26.077c-5.222 0-9.642-.564-13.261-1.691-3.56-1.187-6.438-2.818-8.633-4.895-2.136-2.136-3.709-4.687-4.717-7.654-.95-2.967-1.424-6.23-1.424-9.79v-6.764c0-7.06 2.047-12.697 6.141-16.91 4.094-4.272 10.798-6.408 20.114-6.408h3.56c4.984 0 9.137.593 12.46 1.78 3.322 1.187 5.933 2.878 7.832 5.073 1.958 2.136 3.322 4.717 4.094 7.743.771 3.026 1.157 6.378 1.157 10.057v7.743Zm-23.585-20.47h-6.942c-2.848 0-4.836.623-5.963 1.869-1.128 1.246-1.691 3.323-1.691 6.23v1.157h22.161v-1.157c0-2.907-.594-4.984-1.78-6.23-1.128-1.246-3.056-1.869-5.785-1.869Zm59.649 55.536h-25.543V77.712h25.721c4.569 0 7.535-.534 8.9-1.602 1.365-1.068 2.047-2.67 2.047-4.806v-1.157h-19.669c-6.289 0-11.303-1.928-15.041-5.785-3.738-3.857-5.607-9.197-5.607-16.02v-2.047c0-7.06 1.869-12.608 5.607-16.643 3.738-4.035 8.752-6.052 15.041-6.052h36.579v46.102c0 7.417-2.166 12.697-6.497 15.842-4.331 3.204-11.511 4.806-21.538 4.806Zm-3.293-32.307h14.418V36.594h-14.418c-3.204 0-5.429.653-6.675 1.958-1.246 1.246-1.869 3.412-1.869 6.497v4.094c0 3.026.623 5.28 1.869 6.764 1.246 1.424 3.471 2.136 6.675 2.136Zm92.318-9.968V77h-36.579c-5.34 0-9.434-1.157-12.282-3.471-2.848-2.314-4.272-5.34-4.272-9.078 0-4.094 1.394-7.357 4.183-9.79 2.789-2.492 6.141-5.073 10.057-7.743l15.13-10.413h-28.124V23.6h23.407c10.205 0 17.503 2.166 21.894 6.497 4.391 4.272 6.586 10.265 6.586 17.978Zm-31.773 16.02h15.753V46.384l-16.109 12.549c-1.009.771-1.721 1.365-2.136 1.78-.415.356-.623.83-.623 1.424 0 .653.237 1.157.712 1.513.475.297 1.276.445 2.403.445Zm67.691-27.59c-3.501 0-6.082.801-7.743 2.403-1.602 1.543-2.403 3.916-2.403 7.12v9.167c0 3.56.801 5.933 2.403 7.12 1.661 1.187 4.242 1.78 7.743 1.78h20.025V77h-20.559c-9.553 0-16.435-2.077-20.648-6.23-4.213-4.153-6.319-9.879-6.319-17.177v-6.497c0-7.298 2.106-13.024 6.319-17.177 4.213-4.213 11.095-6.319 20.648-6.319h20.559v12.905h-20.025Zm47.623-17.533h-16.91V8.47h16.91v10.502ZM412.594 77V23.6h16.91V77h-16.91Zm84.557-29.904v6.408c0 7.417-2.254 13.35-6.764 17.8-4.45 4.39-10.828 6.586-19.135 6.586h-6.23c-8.306 0-14.714-2.195-19.224-6.586-4.509-4.45-6.764-10.383-6.764-17.8v-6.408c0-7.417 2.255-13.32 6.764-17.711 4.51-4.45 10.918-6.675 19.224-6.675h6.23c8.307 0 14.685 2.225 19.135 6.675 4.51 4.39 6.764 10.294 6.764 17.711Zm-17.355-1.424c0-3.441-.652-5.993-1.958-7.654-1.246-1.72-3.5-2.581-6.764-2.581H465.2c-3.263 0-5.547.86-6.853 2.581-1.305 1.661-1.958 4.213-1.958 7.654v9.167c0 3.5.653 6.111 1.958 7.832 1.306 1.661 3.59 2.492 6.853 2.492h5.874c3.264 0 5.518-.83 6.764-2.492 1.306-1.72 1.958-4.331 1.958-7.832v-9.167Zm-18.067-28.48L467.514.46h13.795l-6.23 16.732h-13.35ZM505.567 77V23.6h33.108c7.773 0 13.41 1.958 16.91 5.874 3.501 3.916 5.251 9.226 5.251 15.931V77h-16.91V44.96c0-2.73-.474-4.658-1.424-5.785-.89-1.187-2.64-1.78-5.251-1.78h-14.774V77h-16.91Z"/>
</svg>
