<svg xmlns="http://www.w3.org/2000/svg" width="561" height="154" fill="none" viewBox="0 0 561 154">
  <path fill="#fff" d="M42.532 11.04v13.65h-13.65V11.04h13.65Zm.195 48.75h-14.04l.52-30.096h13l.52 30.095Zm31.846-58.5c3.38 0 6.37.194 8.97.584 2.6.347 4.745.975 6.435 1.885 1.733.91 3.033 2.145 3.9 3.705.91 1.56 1.365 3.553 1.365 5.98v2.145c0 1.993-.564 3.857-1.69 5.59-1.127 1.69-3.185 3.012-6.175 3.965 3.293.953 5.633 2.318 7.02 4.095 1.386 1.733 2.08 3.64 2.08 5.72v2.275c0 4.593-1.604 7.887-4.81 9.88-3.207 1.95-8.645 2.925-16.315 2.925H50.848V1.29h23.725Zm.91 9.23H63.848v10.01h11.31c2.773 0 4.593-.326 5.46-.976.866-.65 1.3-1.712 1.3-3.185v-1.495c0-1.473-.434-2.557-1.3-3.25-.824-.737-2.535-1.105-5.135-1.105Zm1.235 19.63h-12.87v10.66h12.545c2.86 0 4.701-.37 5.525-1.106.823-.737 1.235-1.842 1.235-3.315v-1.56c0-1.473-.412-2.622-1.235-3.445-.78-.823-2.514-1.235-5.2-1.235Zm26.252 19.89V1.29h13v48.75h-13Zm21.764 0V1.29h40.69v10.724h-28.015v8.45h28.015v10.4h-28.015v8.45h28.015V50.04h-40.69Zm48.624 0V14.29c0-2.21.368-4.183 1.105-5.916.736-1.733 1.69-3.163 2.86-4.29a12.27 12.27 0 0 1 4.225-2.665 14.55 14.55 0 0 1 5.07-.91c4.16 0 7.41 1.127 9.75 3.38 2.383 2.21 4.311 5.135 5.785 8.775l10.595 25.87.39.91c.173.26.433.39.78.39.433 0 .715-.108.845-.325.173-.26.26-.607.26-1.04V1.29h13v35.815c0 2.297-.369 4.312-1.105 6.045-.737 1.733-1.712 3.185-2.925 4.355-1.17 1.127-2.579 1.972-4.225 2.535a14.994 14.994 0 0 1-5.005.845c-4.16 0-7.41-1.083-9.75-3.25-2.297-2.167-4.225-5.135-5.785-8.905l-10.595-25.87a5.264 5.264 0 0 0-.455-.845c-.13-.303-.369-.455-.715-.455-.434 0-.737.13-.91.39-.13.217-.195.542-.195.975V50.04h-13Zm78.71 0V1.29h13v18.46h23.075V1.29h13v48.75h-13V31.123h-23.075V50.04h-13Zm57.51 0V1.29h40.69v10.724h-28.015v8.45h28.015v10.4h-28.015v8.45h28.015V50.04h-40.69Zm89.313-10.726V50.04h-18.85c-3.856 0-7.258-.477-10.205-1.43-2.946-.997-5.395-2.383-7.345-4.16-1.95-1.82-3.423-4.008-4.42-6.565-.996-2.6-1.495-5.482-1.495-8.645v-7.15c0-3.163.499-6.023 1.495-8.58.997-2.6 2.47-4.788 4.42-6.565 1.95-1.82 4.399-3.207 7.345-4.16 2.947-.997 6.349-1.495 10.205-1.495h18.525v10.725h-17.875c-4.03 0-6.781.802-8.255 2.405-1.473 1.56-2.21 4.16-2.21 7.8v6.89c0 3.64.759 6.262 2.275 7.865 1.517 1.56 4.355 2.34 8.515 2.34h17.875Zm6.156 10.725V1.29h13v18.46h23.075V1.29h13v48.75h-13V31.124h-23.075V50.04h-13Zm107.495-20.995c0 3.25-.499 6.218-1.495 8.905-.954 2.643-2.405 4.918-4.355 6.825-1.95 1.863-4.42 3.315-7.41 4.355-2.99 1.04-6.457 1.56-10.4 1.56h-4.29c-3.944 0-7.41-.52-10.4-1.56s-5.46-2.492-7.41-4.355c-1.95-1.907-3.424-4.182-4.42-6.825-.954-2.687-1.43-5.655-1.43-8.905v-6.76c0-3.25.476-6.197 1.43-8.84.996-2.687 2.47-4.962 4.42-6.825 1.95-1.907 4.42-3.38 7.41-4.42s6.456-1.56 10.4-1.56h4.29c3.943 0 7.41.52 10.4 1.56s5.46 2.513 7.41 4.42c1.95 1.863 3.401 4.138 4.355 6.825.996 2.643 1.495 5.59 1.495 8.84v6.76Zm-37.96.52c0 3.857.715 6.587 2.145 8.19 1.473 1.603 3.965 2.405 7.475 2.405h5.07c3.51 0 5.98-.802 7.41-2.405 1.473-1.603 2.21-4.333 2.21-8.19v-7.93c0-3.857-.737-6.565-2.21-8.125-1.43-1.603-3.9-2.405-7.41-2.405h-5.07c-3.51 0-6.002.802-7.475 2.405-1.43 1.56-2.145 4.268-2.145 8.125v7.93ZM519.043 1.29h14.04l-.52 30.095h-13l-.52-30.095Zm.195 48.75V36.39h13.65v13.65h-13.65Zm-495.32 93.375c.234.443.35.84.35 1.19a1.2 1.2 0 0 1-.28.875c-.21.233-.56.478-1.05.735-.746.35-1.33.443-1.75.28-.396-.163-.77-.618-1.12-1.365l-7.804-16.485-7.77 16.485c-.35.723-.735 1.155-1.155 1.295-.42.163-1.003.082-1.75-.245-.467-.233-.817-.478-1.05-.735a1.254 1.254 0 0 1-.28-.91c.047-.373.198-.817.455-1.33l9.625-20.055c.186-.373.455-.665.805-.875.373-.233.758-.35 1.155-.35.28 0 .537.047.77.14.233.093.443.233.63.42.21.187.385.42.525.7l9.695 20.23ZM6.034 140.02l1.68-3.605h9.135l1.68 3.605H6.034Zm26.425 6.335a7.16 7.16 0 0 1-3.045-.665 8.095 8.095 0 0 1-2.52-1.82 9.047 9.047 0 0 1-1.715-2.765 9.328 9.328 0 0 1-.63-3.43c0-1.167.21-2.263.63-3.29.42-1.05.992-1.96 1.715-2.73a8.25 8.25 0 0 1 2.555-1.855 7.082 7.082 0 0 1 3.01-.665c1.12 0 2.124.222 3.01.665a6.375 6.375 0 0 1 2.24 1.855c.63.77 1.109 1.68 1.435 2.73a11.65 11.65 0 0 1 .525 3.325c0 1.19-.163 2.31-.49 3.36a7.967 7.967 0 0 1-1.4 2.73 6.641 6.641 0 0 1-2.275 1.89c-.886.443-1.901.665-3.045.665Zm.56-4.095c.817 0 1.54-.187 2.17-.56a4.253 4.253 0 0 0 1.54-1.61c.397-.677.595-1.447.595-2.31 0-.887-.198-1.668-.595-2.345a4.253 4.253 0 0 0-1.54-1.61c-.63-.397-1.353-.595-2.17-.595-.816 0-1.551.198-2.205.595-.653.373-1.178.91-1.575 1.61-.373.677-.56 1.458-.56 2.345 0 .863.187 1.633.56 2.31a4.53 4.53 0 0 0 1.575 1.61c.677.373 1.412.56 2.205.56Zm6.475 4.095c-.653 0-1.131-.105-1.435-.315-.303-.233-.501-.595-.595-1.085v-21.56c0-.397.024-.747.07-1.05.07-.327.245-.583.525-.77.304-.21.77-.315 1.4-.315.677 0 1.155.093 1.435.28.28.187.455.443.525.77.094.303.14.653.14 1.05v20.86c0 .397-.035.758-.105 1.085-.07.327-.256.583-.56.77-.28.187-.746.28-1.4.28Zm14.007.245c-1.516 0-2.846-.245-3.99-.735-1.12-.49-2.065-1.155-2.835-1.995a9.473 9.473 0 0 1-1.715-2.87 10.048 10.048 0 0 1-.56-3.325c0-1.68.385-3.173 1.155-4.48a8.249 8.249 0 0 1 3.185-3.08c1.377-.747 2.952-1.12 4.725-1.12 1.26 0 2.369.198 3.325.595.957.397 1.75.922 2.38 1.575a6.36 6.36 0 0 1 1.47 2.1c.35.77.525 1.517.525 2.24 0 1.237-.303 2.135-.91 2.695-.583.56-1.318.84-2.205.84h-9.24c.024.793.269 1.482.735 2.065a5.067 5.067 0 0 0 1.82 1.365 6.003 6.003 0 0 0 2.275.455 9.98 9.98 0 0 0 1.54-.105 9.6 9.6 0 0 0 1.19-.245c.327-.117.607-.233.84-.35.257-.117.49-.222.7-.315a2.13 2.13 0 0 1 .595-.175c.257-.023.514.035.77.175.257.14.467.385.63.735.14.233.234.455.28.665.07.187.105.373.105.56 0 .467-.28.91-.84 1.33-.56.397-1.353.723-2.38.98-1.003.28-2.193.42-3.57.42Zm-4.69-10.045h7.175c.397 0 .7-.058.91-.175.21-.14.315-.42.315-.84 0-.537-.163-1.015-.49-1.435-.326-.443-.77-.782-1.33-1.015-.56-.257-1.213-.385-1.96-.385-.863 0-1.645.175-2.345.525-.7.327-1.26.782-1.68 1.365a3.406 3.406 0 0 0-.595 1.96Zm21.247 9.835a13.66 13.66 0 0 1-2.31-.175c-.653-.117-1.225-.315-1.715-.595a3.527 3.527 0 0 1-1.155-1.12c-.303-.49-.536-1.085-.7-1.785-.14-.7-.21-1.54-.21-2.52v-16.87c0-.397.035-.747.105-1.05a1.34 1.34 0 0 1 .56-.77c.304-.21.782-.315 1.435-.315.654 0 1.12.093 1.4.28.304.187.49.443.56.77.094.303.14.653.14 1.05v16.73c0 .443.024.817.07 1.12.07.28.175.513.315.7a1.4 1.4 0 0 0 .595.35c.257.07.56.105.91.105.304 0 .572.035.805.105.257.07.455.245.595.525.164.28.245.735.245 1.365 0 .653-.081 1.132-.245 1.435-.14.303-.338.49-.595.56-.256.07-.525.105-.805.105Zm18.516-.07c-.677 0-1.178-.128-1.505-.385-.327-.257-.49-.607-.49-1.05l.245-1.155c-.187.303-.502.665-.945 1.085-.443.397-1.027.758-1.75 1.085-.723.303-1.598.455-2.625.455a7.476 7.476 0 0 1-3.115-.665 8.772 8.772 0 0 1-2.555-1.89 10.295 10.295 0 0 1-1.75-2.765 8.962 8.962 0 0 1-.63-3.36c0-1.143.21-2.217.63-3.22a9.355 9.355 0 0 1 1.785-2.73 8.248 8.248 0 0 1 2.555-1.855c.98-.467 2.007-.7 3.08-.7.957 0 1.762.128 2.415.385.677.257 1.248.583 1.715.98.467.373.852.77 1.155 1.19l-.21-1.015c0-.513.163-.898.49-1.155.327-.28.84-.42 1.54-.42.653 0 1.12.105 1.4.315.28.187.455.455.525.805.07.327.105.7.105 1.12v12.81c0 .397-.035.758-.105 1.085-.07.327-.257.583-.56.77-.28.187-.747.28-1.4.28Zm-6.44-4.06c.793 0 1.505-.198 2.135-.595a4.345 4.345 0 0 0 1.505-1.61 4.6 4.6 0 0 0 .595-2.31c0-.91-.198-1.703-.595-2.38a4.246 4.246 0 0 0-1.575-1.575c-.63-.397-1.342-.595-2.135-.595-.863 0-1.633.21-2.31.63a4.363 4.363 0 0 0-1.61 1.645c-.373.677-.56 1.447-.56 2.31 0 .84.198 1.598.595 2.275a4.438 4.438 0 0 0 1.61 1.61c.7.397 1.482.595 2.345.595Zm14.082 4.095c-.63 0-1.097-.105-1.4-.315a1.185 1.185 0 0 1-.525-.735 5.188 5.188 0 0 1-.105-1.085v-13.09c0-.373.035-.712.105-1.015.07-.303.256-.537.56-.7.303-.187.77-.28 1.4-.28.56 0 .98.07 1.26.21.28.14.466.315.56.525.093.21.14.42.14.63.023.21.046.373.07.49l-.14 1.12c.14-.373.373-.735.7-1.085.326-.35.723-.665 1.19-.945a5.883 5.883 0 0 1 1.505-.7 5.377 5.377 0 0 1 1.715-.28c1.096 0 2.076.198 2.94.595a6.258 6.258 0 0 1 2.205 1.68c.63.723 1.108 1.587 1.435 2.59.326.98.49 2.088.49 3.325v6.965c0 .397-.047.758-.14 1.085-.07.303-.245.548-.525.735-.28.187-.759.28-1.435.28-.654 0-1.132-.105-1.435-.315-.304-.187-.49-.432-.56-.735a5.188 5.188 0 0 1-.105-1.085v-6.965c0-.84-.152-1.563-.455-2.17a3.064 3.064 0 0 0-1.26-1.4c-.537-.327-1.225-.49-2.065-.49-.817 0-1.529.175-2.135.525a3.374 3.374 0 0 0-1.4 1.4c-.327.607-.49 1.318-.49 2.135v7c0 .397-.035.758-.105 1.085-.07.303-.257.548-.56.735-.28.187-.759.28-1.435.28Zm25.683.035c-1.143 0-2.123-.117-2.94-.35-.817-.233-1.482-.595-1.995-1.085-.513-.49-.898-1.12-1.155-1.89-.233-.793-.35-1.727-.35-2.8v-14.84c0-.42.035-.782.105-1.085.093-.303.28-.537.56-.7.303-.187.77-.28 1.4-.28.653 0 1.12.093 1.4.28.303.187.49.443.56.77.093.303.14.642.14 1.015v14.7c0 .49.035.887.105 1.19.093.303.222.537.385.7.187.14.42.245.7.315.303.047.665.07 1.085.07.443 0 .817.035 1.12.105.327.07.572.245.735.525.163.257.245.688.245 1.295 0 .653-.105 1.132-.315 1.435-.187.28-.443.455-.77.525-.303.07-.642.105-1.015.105Zm-7.875-16.905 3.605.035 4.83-.14c.397 0 .747.047 1.05.14.327.07.583.257.77.56.187.28.28.747.28 1.4 0 .607-.093 1.062-.28 1.365-.187.303-.432.502-.735.595-.303.07-.653.105-1.05.105l-4.69-.07-3.885.035c-.583-.023-.992-.187-1.225-.49-.21-.327-.315-.852-.315-1.575 0-.677.128-1.167.385-1.47.28-.327.7-.49 1.26-.49Zm21.474 17.115c-1.516 0-2.846-.245-3.99-.735-1.12-.49-2.065-1.155-2.835-1.995a9.495 9.495 0 0 1-1.715-2.87 10.059 10.059 0 0 1-.56-3.325c0-1.68.385-3.173 1.155-4.48a8.251 8.251 0 0 1 3.185-3.08c1.377-.747 2.952-1.12 4.725-1.12 1.26 0 2.369.198 3.325.595.957.397 1.75.922 2.38 1.575a6.339 6.339 0 0 1 1.47 2.1c.35.77.525 1.517.525 2.24 0 1.237-.303 2.135-.91 2.695-.583.56-1.318.84-2.205.84h-9.24c.024.793.269 1.482.735 2.065a5.07 5.07 0 0 0 1.82 1.365 6.004 6.004 0 0 0 2.275.455 9.97 9.97 0 0 0 1.54-.105 9.6 9.6 0 0 0 1.19-.245c.327-.117.607-.233.84-.35.257-.117.49-.222.7-.315a2.13 2.13 0 0 1 .595-.175c.257-.023.514.035.77.175.257.14.467.385.63.735.14.233.234.455.28.665.07.187.105.373.105.56 0 .467-.28.91-.84 1.33-.56.397-1.353.723-2.38.98-1.003.28-2.193.42-3.57.42Zm-4.69-10.045h7.175c.397 0 .7-.058.91-.175.21-.14.315-.42.315-.84 0-.537-.163-1.015-.49-1.435-.326-.443-.77-.782-1.33-1.015-.56-.257-1.213-.385-1.96-.385-.863 0-1.645.175-2.345.525-.7.327-1.26.782-1.68 1.365a3.412 3.412 0 0 0-.595 1.96Zm31.521 9.905a9.96 9.96 0 0 1-3.29-.56 9.487 9.487 0 0 1-2.87-1.715 8.542 8.542 0 0 1-2.03-2.73c-.49-1.097-.735-2.333-.735-3.71 0-1.377.245-2.602.735-3.675a8.542 8.542 0 0 1 2.03-2.73 9.042 9.042 0 0 1 2.835-1.715 9.13 9.13 0 0 1 3.255-.595c.817 0 1.587.117 2.31.35.747.233 1.389.513 1.925.84.537.327.922.653 1.155.98.304.28.56.548.77.805.21.257.28.572.21.945-.07.233-.175.455-.315.665-.14.187-.315.385-.525.595-.56.63-1.108.863-1.645.7a18.136 18.136 0 0 1-.91-.525 11.942 11.942 0 0 0-.945-.525 5.004 5.004 0 0 0-.945-.455 3.195 3.195 0 0 0-1.085-.175c-.886 0-1.68.198-2.38.595a4.177 4.177 0 0 0-1.61 1.575c-.373.677-.56 1.458-.56 2.345 0 .887.187 1.68.56 2.38a4.446 4.446 0 0 0 1.61 1.61c.677.373 1.447.56 2.31.56.42 0 .817-.047 1.19-.14a5.495 5.495 0 0 0 1.05-.42 3.97 3.97 0 0 0 .735-.56c.257-.163.49-.315.7-.455.21-.14.432-.21.665-.21.28 0 .549.105.805.315.28.187.584.49.91.91.304.35.467.688.49 1.015a1.38 1.38 0 0 1-.21.945c-.163.303-.443.583-.84.84-.28.28-.7.572-1.26.875a10.27 10.27 0 0 1-1.89.735c-.7.21-1.435.315-2.205.315Zm17.46.14c-1.12 0-2.217-.21-3.29-.63a9.917 9.917 0 0 1-2.87-1.855 9.372 9.372 0 0 1-2.03-2.8c-.49-1.073-.735-2.252-.735-3.535 0-1.237.233-2.392.7-3.465a9.096 9.096 0 0 1 1.925-2.835 8.71 8.71 0 0 1 2.8-1.89 8.5 8.5 0 0 1 3.43-.7c1.633 0 3.115.397 4.445 1.19a8.775 8.775 0 0 1 3.185 3.15c.793 1.33 1.19 2.835 1.19 4.515 0 1.33-.245 2.543-.735 3.64a8.888 8.888 0 0 1-1.995 2.8 9.244 9.244 0 0 1-2.835 1.785 8.34 8.34 0 0 1-3.185.63Zm-.07-4.13c.77 0 1.505-.187 2.205-.56a4.66 4.66 0 0 0 1.75-1.68c.466-.723.7-1.575.7-2.555 0-.91-.21-1.715-.63-2.415a4.29 4.29 0 0 0-1.645-1.645c-.7-.397-1.505-.595-2.415-.595-.864 0-1.645.21-2.345.63-.7.397-1.26.957-1.68 1.68-.397.7-.595 1.493-.595 2.38 0 .98.221 1.832.665 2.555a4.82 4.82 0 0 0 1.715 1.645c.723.373 1.481.56 2.275.56Zm13.635 3.885c-.63 0-1.096-.105-1.4-.315a1.185 1.185 0 0 1-.525-.735 5.188 5.188 0 0 1-.105-1.085v-13.09c0-.373.035-.712.105-1.015.07-.303.257-.537.56-.7.304-.187.77-.28 1.4-.28.56 0 .98.07 1.26.21.28.14.467.315.56.525.094.21.14.42.14.63.024.21.047.373.07.49l-.14 1.12c.14-.373.374-.735.7-1.085a5.47 5.47 0 0 1 1.19-.945 5.915 5.915 0 0 1 1.505-.7 5.382 5.382 0 0 1 1.715-.28c1.097 0 2.077.198 2.94.595a6.24 6.24 0 0 1 2.205 1.68c.63.723 1.109 1.587 1.435 2.59.327.98.49 2.088.49 3.325v6.965c0 .397-.046.758-.14 1.085-.07.303-.245.548-.525.735-.28.187-.758.28-1.435.28-.653 0-1.131-.105-1.435-.315-.303-.187-.49-.432-.56-.735a5.188 5.188 0 0 1-.105-1.085v-6.965c0-.84-.151-1.563-.455-2.17a3.064 3.064 0 0 0-1.26-1.4c-.536-.327-1.225-.49-2.065-.49-.816 0-1.528.175-2.135.525a3.38 3.38 0 0 0-1.4 1.4c-.326.607-.49 1.318-.49 2.135v7c0 .397-.035.758-.105 1.085-.07.303-.256.548-.56.735-.28.187-.758.28-1.435.28Zm34.532.245c-1.517 0-2.847-.245-3.99-.735-1.12-.49-2.065-1.155-2.835-1.995a9.475 9.475 0 0 1-1.715-2.87 10.059 10.059 0 0 1-.56-3.325c0-1.68.385-3.173 1.155-4.48a8.251 8.251 0 0 1 3.185-3.08c1.377-.747 2.952-1.12 4.725-1.12 1.26 0 2.368.198 3.325.595.957.397 1.75.922 2.38 1.575a6.368 6.368 0 0 1 1.47 2.1c.35.77.525 1.517.525 2.24 0 1.237-.303 2.135-.91 2.695-.583.56-1.318.84-2.205.84h-9.24c.023.793.268 1.482.735 2.065a5.07 5.07 0 0 0 1.82 1.365 6.004 6.004 0 0 0 2.275.455 9.98 9.98 0 0 0 1.54-.105c.467-.07.863-.152 1.19-.245.327-.117.607-.233.84-.35.257-.117.49-.222.7-.315a2.12 2.12 0 0 1 .595-.175c.257-.023.513.035.77.175.257.14.467.385.63.735.14.233.233.455.28.665.07.187.105.373.105.56 0 .467-.28.91-.84 1.33-.56.397-1.353.723-2.38.98-1.003.28-2.193.42-3.57.42Zm-4.69-10.045h7.175c.397 0 .7-.058.91-.175.21-.14.315-.42.315-.84 0-.537-.163-1.015-.49-1.435-.327-.443-.77-.782-1.33-1.015-.56-.257-1.213-.385-1.96-.385-.863 0-1.645.175-2.345.525-.7.327-1.26.782-1.68 1.365a3.404 3.404 0 0 0-.595 1.96Zm21.247 9.835c-.863 0-1.633-.058-2.31-.175-.653-.117-1.225-.315-1.715-.595a3.539 3.539 0 0 1-1.155-1.12c-.303-.49-.536-1.085-.7-1.785-.14-.7-.21-1.54-.21-2.52v-16.87c0-.397.035-.747.105-1.05.094-.327.28-.583.56-.77.304-.21.782-.315 1.435-.315.654 0 1.12.093 1.4.28.304.187.49.443.56.77.094.303.14.653.14 1.05v16.73c0 .443.024.817.07 1.12.07.28.175.513.315.7a1.4 1.4 0 0 0 .595.35c.257.07.56.105.91.105.304 0 .572.035.805.105.257.07.455.245.595.525.164.28.245.735.245 1.365 0 .653-.081 1.132-.245 1.435-.14.303-.338.49-.595.56-.256.07-.525.105-.805.105Zm18.832.21c-.606 0-1.248-.07-1.925-.21a11.095 11.095 0 0 1-1.96-.525 8.374 8.374 0 0 1-1.645-.875c-.443-.35-.723-.735-.84-1.155a1.38 1.38 0 0 1-.105-.665c.024-.233.094-.467.21-.7a3.03 3.03 0 0 1 .525-.77c.21-.257.42-.397.63-.42.234-.047.525.023.875.21.304.117.63.268.98.455l1.12.56a8.33 8.33 0 0 0 1.19.455c.42.117.829.175 1.225.175.864 0 1.552-.14 2.065-.42.514-.303.77-.723.77-1.26 0-.303-.081-.572-.245-.805a1.746 1.746 0 0 0-.665-.56 3.963 3.963 0 0 0-.945-.42 7.441 7.441 0 0 0-1.155-.35 72.538 72.538 0 0 1-1.26-.385 17.278 17.278 0 0 1-1.75-.595 6.185 6.185 0 0 1-1.575-.91 4.34 4.34 0 0 1-1.085-1.4c-.28-.56-.42-1.26-.42-2.1 0-1.05.245-1.937.735-2.66.514-.747 1.249-1.318 2.205-1.715.957-.397 2.112-.595 3.465-.595.467 0 .91.035 1.33.105.444.07.864.175 1.26.315a6.6 6.6 0 0 1 1.19.455c.397.187.77.397 1.12.63.584.327.887.712.91 1.155.024.42-.14.875-.49 1.365-.256.327-.513.56-.77.7a.967.967 0 0 1-.805 0 59.74 59.74 0 0 0-1.225-.595 8.532 8.532 0 0 0-1.33-.595 4.024 4.024 0 0 0-1.4-.245c-.466 0-.886.07-1.26.21-.373.14-.653.338-.84.595a1.51 1.51 0 0 0-.28.91c0 .327.094.595.28.805.187.21.432.385.735.525.304.14.665.268 1.085.385.42.093.864.187 1.33.28.654.14 1.319.315 1.995.525.677.21 1.295.502 1.855.875a4.13 4.13 0 0 1 1.4 1.505c.35.607.525 1.4.525 2.38 0 1.703-.63 3.022-1.89 3.955-1.236.933-2.951 1.4-5.145 1.4Zm12.32-.21c-.63 0-1.097-.105-1.4-.315-.303-.187-.49-.432-.56-.735a5.188 5.188 0 0 1-.105-1.085v-13.02c0-.373.035-.712.105-1.015.093-.327.28-.583.56-.77.303-.187.782-.28 1.435-.28s1.12.093 1.4.28c.303.187.49.443.56.77.07.327.105.688.105 1.085v12.985c0 .397-.035.758-.105 1.085-.07.303-.257.548-.56.735-.28.187-.758.28-1.435.28Zm0-20.615c-.677 0-1.178-.093-1.505-.28a1.447 1.447 0 0 1-.595-.84 5.9 5.9 0 0 1-.105-1.155c0-.443.035-.828.105-1.155.093-.327.303-.583.63-.77.327-.21.828-.315 1.505-.315.7 0 1.202.105 1.505.315.303.21.502.49.595.84.093.327.14.712.14 1.155 0 .397-.047.77-.14 1.12-.093.35-.292.618-.595.805-.303.187-.817.28-1.54.28Zm13.454 27.615c-.84 0-1.645-.105-2.415-.315a9.31 9.31 0 0 1-2.1-.77c-.607-.327-1.097-.677-1.47-1.05-.35-.373-.525-.723-.525-1.05 0-.327.046-.607.14-.84.116-.233.28-.467.49-.7.28-.28.501-.49.665-.63.186-.14.431-.21.735-.21.256 0 .501.093.735.28.256.187.548.397.875.63a5.67 5.67 0 0 0 1.19.63c.466.187 1.061.28 1.785.28a4.4 4.4 0 0 0 1.68-.315c.513-.21.945-.525 1.295-.945.373-.397.665-.875.875-1.435.21-.56.315-1.19.315-1.89l-.035-14.49c.046-.537.233-.91.56-1.12.326-.233.828-.35 1.505-.35.63 0 1.085.093 1.365.28.28.163.455.408.525.735.07.303.105.642.105 1.015v14.175c0 1.283-.222 2.427-.665 3.43-.444 1.003-1.05 1.843-1.82 2.52a7.665 7.665 0 0 1-2.66 1.575 8.78 8.78 0 0 1-3.15.56Zm-.385-7.455a7.573 7.573 0 0 1-3.08-.63 7.736 7.736 0 0 1-2.485-1.785 9.202 9.202 0 0 1-1.68-2.66c-.397-1.027-.595-2.135-.595-3.325 0-1.167.198-2.252.595-3.255.42-1.003.98-1.89 1.68-2.66a7.736 7.736 0 0 1 2.485-1.785 7.156 7.156 0 0 1 3.045-.665c1.05 0 1.96.21 2.73.63a5.14 5.14 0 0 1 1.96 1.715c.513.747.898 1.633 1.155 2.66.28 1.027.42 2.158.42 3.395 0 1.703-.234 3.185-.7 4.445-.467 1.26-1.155 2.228-2.065 2.905-.91.677-2.065 1.015-3.465 1.015Zm.385-3.955c.793 0 1.493-.187 2.1-.56a4.08 4.08 0 0 0 1.47-1.61c.373-.677.56-1.435.56-2.275 0-.863-.187-1.622-.56-2.275a3.831 3.831 0 0 0-1.47-1.575c-.63-.373-1.342-.56-2.135-.56-.794 0-1.505.198-2.135.595a3.969 3.969 0 0 0-1.435 1.54c-.35.653-.525 1.412-.525 2.275s.175 1.633.525 2.31a4.54 4.54 0 0 0 1.47 1.575c.63.373 1.341.56 2.135.56Zm19.166 4.375c-1.074 0-2.065-.187-2.975-.56a7.224 7.224 0 0 1-2.345-1.68c-.677-.723-1.202-1.587-1.575-2.59-.374-1.003-.56-2.112-.56-3.325v-6.965c0-.397.035-.747.105-1.05.07-.327.256-.583.56-.77.303-.187.77-.28 1.4-.28.676 0 1.155.093 1.435.28.303.187.49.443.56.77.07.327.105.688.105 1.085v6.93c0 .84.14 1.563.42 2.17a3.499 3.499 0 0 0 1.295 1.435c.56.327 1.248.49 2.065.49.84 0 1.551-.163 2.135-.49a3.604 3.604 0 0 0 1.4-1.435c.326-.63.49-1.353.49-2.17v-7c0-.397.035-.747.105-1.05a1.05 1.05 0 0 1 .56-.735c.303-.187.781-.28 1.435-.28.653 0 1.12.093 1.4.28.28.187.455.443.525.77.093.327.14.677.14 1.05v13.125c0 .35-.047.677-.14.98-.07.303-.257.548-.56.735-.28.187-.747.28-1.4.28-.467 0-.84-.058-1.12-.175a1.386 1.386 0 0 1-.595-.385 1.925 1.925 0 0 1-.245-.56 4.386 4.386 0 0 1-.035-.56l.28-.945c-.14.21-.35.467-.63.77-.28.28-.63.572-1.05.875-.397.28-.864.513-1.4.7a5.4 5.4 0 0 1-1.785.28Zm14.377.035c-.63 0-1.097-.105-1.4-.315-.303-.187-.49-.432-.56-.735a5.188 5.188 0 0 1-.105-1.085v-13.02c0-.373.035-.712.105-1.015.093-.327.28-.583.56-.77.303-.187.782-.28 1.435-.28s1.12.093 1.4.28c.303.187.49.443.56.77.07.327.105.688.105 1.085v12.985c0 .397-.035.758-.105 1.085-.07.303-.257.548-.56.735-.28.187-.758.28-1.435.28Zm0-20.615c-.677 0-1.178-.093-1.505-.28a1.447 1.447 0 0 1-.595-.84 5.9 5.9 0 0 1-.105-1.155c0-.443.035-.828.105-1.155.093-.327.303-.583.63-.77.327-.21.828-.315 1.505-.315.7 0 1.202.105 1.505.315.303.21.502.49.595.84.093.327.14.712.14 1.155 0 .397-.047.77-.14 1.12-.093.35-.292.618-.595.805-.303.187-.817.28-1.54.28Zm14.259 20.825c-1.517 0-2.847-.245-3.99-.735-1.12-.49-2.065-1.155-2.835-1.995a9.475 9.475 0 0 1-1.715-2.87 10.059 10.059 0 0 1-.56-3.325c0-1.68.385-3.173 1.155-4.48a8.251 8.251 0 0 1 3.185-3.08c1.377-.747 2.952-1.12 4.725-1.12 1.26 0 2.368.198 3.325.595.957.397 1.75.922 2.38 1.575a6.368 6.368 0 0 1 1.47 2.1c.35.77.525 1.517.525 2.24 0 1.237-.303 2.135-.91 2.695-.583.56-1.318.84-2.205.84h-9.24c.023.793.268 1.482.735 2.065a5.07 5.07 0 0 0 1.82 1.365 6.004 6.004 0 0 0 2.275.455 9.98 9.98 0 0 0 1.54-.105c.467-.07.863-.152 1.19-.245.327-.117.607-.233.84-.35.257-.117.49-.222.7-.315a2.12 2.12 0 0 1 .595-.175c.257-.023.513.035.77.175.257.14.467.385.63.735.14.233.233.455.28.665.07.187.105.373.105.56 0 .467-.28.91-.84 1.33-.56.397-1.353.723-2.38.98-1.003.28-2.193.42-3.57.42Zm-4.69-10.045h7.175c.397 0 .7-.058.91-.175.21-.14.315-.42.315-.84 0-.537-.163-1.015-.49-1.435-.327-.443-.77-.782-1.33-1.015-.56-.257-1.213-.385-1.96-.385-.863 0-1.645.175-2.345.525-.7.327-1.26.782-1.68 1.365a3.404 3.404 0 0 0-.595 1.96Zm17.292 9.8c-.63 0-1.097-.105-1.4-.315a1.185 1.185 0 0 1-.525-.735 5.188 5.188 0 0 1-.105-1.085v-13.09c0-.373.035-.712.105-1.015.07-.303.257-.537.56-.7.303-.187.77-.28 1.4-.28.56 0 .98.07 1.26.21.28.14.467.315.56.525.093.21.14.42.14.63.023.21.047.373.07.49l-.14 1.12c.14-.373.373-.735.7-1.085.327-.35.723-.665 1.19-.945a5.899 5.899 0 0 1 1.505-.7 5.382 5.382 0 0 1 1.715-.28c1.097 0 2.077.198 2.94.595a6.258 6.258 0 0 1 2.205 1.68c.63.723 1.108 1.587 1.435 2.59.327.98.49 2.088.49 3.325v6.965c0 .397-.047.758-.14 1.085-.07.303-.245.548-.525.735-.28.187-.758.28-1.435.28-.653 0-1.132-.105-1.435-.315-.303-.187-.49-.432-.56-.735a5.188 5.188 0 0 1-.105-1.085v-6.965c0-.84-.152-1.563-.455-2.17a3.064 3.064 0 0 0-1.26-1.4c-.537-.327-1.225-.49-2.065-.49-.817 0-1.528.175-2.135.525a3.374 3.374 0 0 0-1.4 1.4c-.327.607-.49 1.318-.49 2.135v7c0 .397-.035.758-.105 1.085-.07.303-.257.548-.56.735-.28.187-.758.28-1.435.28Zm25.683.035c-1.143 0-2.123-.117-2.94-.35-.816-.233-1.481-.595-1.995-1.085-.513-.49-.898-1.12-1.155-1.89-.233-.793-.35-1.727-.35-2.8v-14.84c0-.42.035-.782.105-1.085.094-.303.28-.537.56-.7.304-.187.77-.28 1.4-.28.654 0 1.12.093 1.4.28.304.187.49.443.56.77.094.303.14.642.14 1.015v14.7c0 .49.035.887.105 1.19.094.303.222.537.385.7.187.14.42.245.7.315.304.047.665.07 1.085.07.444 0 .817.035 1.12.105.327.07.572.245.735.525.164.257.245.688.245 1.295 0 .653-.105 1.132-.315 1.435-.186.28-.443.455-.77.525-.303.07-.641.105-1.015.105Zm-7.875-16.905 3.605.035 4.83-.14c.397 0 .747.047 1.05.14.327.07.584.257.77.56.187.28.28.747.28 1.4 0 .607-.093 1.062-.28 1.365-.186.303-.431.502-.735.595-.303.07-.653.105-1.05.105l-4.69-.07-3.885.035c-.583-.023-.991-.187-1.225-.49-.21-.327-.315-.852-.315-1.575 0-.677.129-1.167.385-1.47.28-.327.7-.49 1.26-.49Zm21.475 17.115c-1.517 0-2.847-.245-3.99-.735-1.12-.49-2.065-1.155-2.835-1.995a9.454 9.454 0 0 1-1.715-2.87 10.033 10.033 0 0 1-.56-3.325c0-1.68.385-3.173 1.155-4.48a8.245 8.245 0 0 1 3.185-3.08c1.376-.747 2.951-1.12 4.725-1.12 1.26 0 2.368.198 3.325.595.956.397 1.75.922 2.38 1.575a6.368 6.368 0 0 1 1.47 2.1c.35.77.525 1.517.525 2.24 0 1.237-.304 2.135-.91 2.695-.584.56-1.319.84-2.205.84h-9.24c.023.793.268 1.482.735 2.065a5.062 5.062 0 0 0 1.82 1.365 6 6 0 0 0 2.275.455c.583 0 1.096-.035 1.54-.105.466-.07.863-.152 1.19-.245a7.77 7.77 0 0 0 .84-.35 65.1 65.1 0 0 1 .7-.315 2.12 2.12 0 0 1 .595-.175c.256-.023.513.035.77.175.256.14.466.385.63.735.14.233.233.455.28.665.07.187.105.373.105.56 0 .467-.28.91-.84 1.33-.56.397-1.354.723-2.38.98-1.004.28-2.194.42-3.57.42Zm-4.69-10.045h7.175c.396 0 .7-.058.91-.175.21-.14.315-.42.315-.84 0-.537-.164-1.015-.49-1.435-.327-.443-.77-.782-1.33-1.015-.56-.257-1.214-.385-1.96-.385-.864 0-1.645.175-2.345.525-.7.327-1.26.782-1.68 1.365a3.404 3.404 0 0 0-.595 1.96Zm31.521 9.905a9.955 9.955 0 0 1-3.29-.56 9.475 9.475 0 0 1-2.87-1.715 8.527 8.527 0 0 1-2.03-2.73c-.49-1.097-.735-2.333-.735-3.71 0-1.377.245-2.602.735-3.675a8.527 8.527 0 0 1 2.03-2.73 9.042 9.042 0 0 1 2.835-1.715 9.13 9.13 0 0 1 3.255-.595c.816 0 1.586.117 2.31.35.746.233 1.388.513 1.925.84.536.327.921.653 1.155.98.303.28.56.548.77.805.21.257.28.572.21.945-.07.233-.175.455-.315.665-.14.187-.315.385-.525.595-.56.63-1.109.863-1.645.7a17.285 17.285 0 0 1-.91-.525 12.308 12.308 0 0 0-.945-.525 5.063 5.063 0 0 0-.945-.455 3.203 3.203 0 0 0-1.085-.175c-.887 0-1.68.198-2.38.595a4.164 4.164 0 0 0-1.61 1.575c-.374.677-.56 1.458-.56 2.345 0 .887.186 1.68.56 2.38a4.43 4.43 0 0 0 1.61 1.61c.676.373 1.446.56 2.31.56.42 0 .816-.047 1.19-.14a5.548 5.548 0 0 0 1.05-.42c.303-.187.548-.373.735-.56.256-.163.49-.315.7-.455.21-.14.431-.21.665-.21.28 0 .548.105.805.315.28.187.583.49.91.91.303.35.466.688.49 1.015.046.327-.024.642-.21.945-.164.303-.444.583-.84.84-.28.28-.7.572-1.26.875-.537.28-1.167.525-1.89.735-.7.21-1.435.315-2.205.315Zm17.459.14c-1.12 0-2.217-.21-3.29-.63a9.917 9.917 0 0 1-2.87-1.855 9.372 9.372 0 0 1-2.03-2.8c-.49-1.073-.735-2.252-.735-3.535 0-1.237.233-2.392.7-3.465a9.113 9.113 0 0 1 1.925-2.835 8.721 8.721 0 0 1 2.8-1.89 8.503 8.503 0 0 1 3.43-.7c1.633 0 3.115.397 4.445 1.19a8.768 8.768 0 0 1 3.185 3.15c.793 1.33 1.19 2.835 1.19 4.515 0 1.33-.245 2.543-.735 3.64a8.888 8.888 0 0 1-1.995 2.8 9.244 9.244 0 0 1-2.835 1.785 8.336 8.336 0 0 1-3.185.63Zm-.07-4.13c.77 0 1.505-.187 2.205-.56a4.652 4.652 0 0 0 1.75-1.68c.467-.723.7-1.575.7-2.555 0-.91-.21-1.715-.63-2.415a4.29 4.29 0 0 0-1.645-1.645c-.7-.397-1.505-.595-2.415-.595a4.47 4.47 0 0 0-2.345.63c-.7.397-1.26.957-1.68 1.68-.397.7-.595 1.493-.595 2.38 0 .98.222 1.832.665 2.555a4.82 4.82 0 0 0 1.715 1.645 4.9 4.9 0 0 0 2.275.56Zm13.636 3.885c-.63 0-1.097-.105-1.4-.315a1.185 1.185 0 0 1-.525-.735 5.188 5.188 0 0 1-.105-1.085v-13.09c0-.373.035-.712.105-1.015.07-.303.256-.537.56-.7.303-.187.77-.28 1.4-.28.56 0 .98.07 1.26.21.28.14.466.315.56.525.093.21.14.42.14.63.023.21.046.373.07.49l-.14 1.12c.14-.373.373-.735.7-1.085.326-.35.723-.665 1.19-.945a5.883 5.883 0 0 1 1.505-.7 5.377 5.377 0 0 1 1.715-.28c1.096 0 2.076.198 2.94.595a6.258 6.258 0 0 1 2.205 1.68c.63.723 1.108 1.587 1.435 2.59.326.98.49 2.088.49 3.325v6.965c0 .397-.047.758-.14 1.085-.07.303-.245.548-.525.735-.28.187-.759.28-1.435.28-.654 0-1.132-.105-1.435-.315-.304-.187-.49-.432-.56-.735a5.188 5.188 0 0 1-.105-1.085v-6.965c0-.84-.152-1.563-.455-2.17a3.064 3.064 0 0 0-1.26-1.4c-.537-.327-1.225-.49-2.065-.49-.817 0-1.529.175-2.135.525a3.368 3.368 0 0 0-1.4 1.4c-.327.607-.49 1.318-.49 2.135v7c0 .397-.035.758-.105 1.085-.07.303-.257.548-.56.735-.28.187-.759.28-1.435.28Zm25.683.035c-1.143 0-2.123-.117-2.94-.35-.817-.233-1.482-.595-1.995-1.085-.513-.49-.898-1.12-1.155-1.89-.233-.793-.35-1.727-.35-2.8v-14.84c0-.42.035-.782.105-1.085.093-.303.28-.537.56-.7.303-.187.77-.28 1.4-.28.653 0 1.12.093 1.4.28.303.187.49.443.56.77.093.303.14.642.14 1.015v14.7c0 .49.035.887.105 1.19.093.303.222.537.385.7.187.14.42.245.7.315.303.047.665.07 1.085.07.443 0 .817.035 1.12.105.327.07.572.245.735.525.163.257.245.688.245 1.295 0 .653-.105 1.132-.315 1.435-.187.28-.443.455-.77.525-.303.07-.642.105-1.015.105Zm-7.875-16.905 3.605.035 4.83-.14c.397 0 .747.047 1.05.14.327.07.583.257.77.56.187.28.28.747.28 1.4 0 .607-.093 1.062-.28 1.365-.187.303-.432.502-.735.595-.303.07-.653.105-1.05.105l-4.69-.07-3.885.035c-.583-.023-.992-.187-1.225-.49-.21-.327-.315-.852-.315-1.575 0-.677.128-1.167.385-1.47.28-.327.7-.49 1.26-.49Zm21.474 17.115c-1.516 0-2.846-.245-3.99-.735-1.12-.49-2.065-1.155-2.835-1.995a9.495 9.495 0 0 1-1.715-2.87 10.059 10.059 0 0 1-.56-3.325c0-1.68.385-3.173 1.155-4.48a8.251 8.251 0 0 1 3.185-3.08c1.377-.747 2.952-1.12 4.725-1.12 1.26 0 2.369.198 3.325.595.957.397 1.75.922 2.38 1.575a6.339 6.339 0 0 1 1.47 2.1c.35.77.525 1.517.525 2.24 0 1.237-.303 2.135-.91 2.695-.583.56-1.318.84-2.205.84h-9.24c.024.793.269 1.482.735 2.065a5.07 5.07 0 0 0 1.82 1.365 6.004 6.004 0 0 0 2.275.455 9.97 9.97 0 0 0 1.54-.105 9.6 9.6 0 0 0 1.19-.245c.327-.117.607-.233.84-.35.257-.117.49-.222.7-.315a2.13 2.13 0 0 1 .595-.175c.257-.023.514.035.77.175.257.14.467.385.63.735.14.233.234.455.28.665.07.187.105.373.105.56 0 .467-.28.91-.84 1.33-.56.397-1.353.723-2.38.98-1.003.28-2.193.42-3.57.42Zm-4.69-10.045h7.175c.397 0 .7-.058.91-.175.21-.14.315-.42.315-.84 0-.537-.163-1.015-.49-1.435-.326-.443-.77-.782-1.33-1.015-.56-.257-1.213-.385-1.96-.385-.863 0-1.645.175-2.345.525-.7.327-1.26.782-1.68 1.365a3.412 3.412 0 0 0-.595 1.96Zm17.292 9.8c-.63 0-1.096-.105-1.4-.315a1.185 1.185 0 0 1-.525-.735 5.188 5.188 0 0 1-.105-1.085v-13.09c0-.373.035-.712.105-1.015.07-.303.257-.537.56-.7.304-.187.77-.28 1.4-.28.56 0 .98.07 1.26.21.28.14.467.315.56.525.094.21.14.42.14.63.024.21.047.373.07.49l-.14 1.12c.14-.373.374-.735.7-1.085a5.47 5.47 0 0 1 1.19-.945 5.915 5.915 0 0 1 1.505-.7 5.382 5.382 0 0 1 1.715-.28c1.097 0 2.077.198 2.94.595a6.24 6.24 0 0 1 2.205 1.68c.63.723 1.109 1.587 1.435 2.59.327.98.49 2.088.49 3.325v6.965c0 .397-.046.758-.14 1.085-.07.303-.245.548-.525.735-.28.187-.758.28-1.435.28-.653 0-1.131-.105-1.435-.315-.303-.187-.49-.432-.56-.735a5.188 5.188 0 0 1-.105-1.085v-6.965c0-.84-.151-1.563-.455-2.17a3.064 3.064 0 0 0-1.26-1.4c-.536-.327-1.225-.49-2.065-.49-.816 0-1.528.175-2.135.525a3.38 3.38 0 0 0-1.4 1.4c-.326.607-.49 1.318-.49 2.135v7c0 .397-.035.758-.105 1.085-.07.303-.256.548-.56.735-.28.187-.758.28-1.435.28Zm19.76.035c-.63 0-1.096-.105-1.4-.315-.303-.187-.49-.432-.56-.735a5.188 5.188 0 0 1-.105-1.085v-13.02c0-.373.035-.712.105-1.015.094-.327.28-.583.56-.77.304-.187.782-.28 1.435-.28.654 0 1.12.093 1.4.28.304.187.49.443.56.77.07.327.105.688.105 1.085v12.985c0 .397-.035.758-.105 1.085-.07.303-.256.548-.56.735-.28.187-.758.28-1.435.28Zm0-20.615c-.676 0-1.178-.093-1.505-.28a1.452 1.452 0 0 1-.595-.84 5.9 5.9 0 0 1-.105-1.155c0-.443.035-.828.105-1.155.094-.327.304-.583.63-.77.327-.21.829-.315 1.505-.315.7 0 1.202.105 1.505.315.304.21.502.49.595.84.094.327.14.712.14 1.155 0 .397-.046.77-.14 1.12-.093.35-.291.618-.595.805-.303.187-.816.28-1.54.28Zm13.349 20.58a7.163 7.163 0 0 1-3.045-.665 8.109 8.109 0 0 1-2.52-1.82 9.052 9.052 0 0 1-1.715-2.765 9.328 9.328 0 0 1-.63-3.43c0-1.167.21-2.263.63-3.29.42-1.05.992-1.96 1.715-2.73a8.26 8.26 0 0 1 2.555-1.855 7.083 7.083 0 0 1 3.01-.665c1.12 0 2.124.222 3.01.665a6.367 6.367 0 0 1 2.24 1.855c.63.77 1.109 1.68 1.435 2.73a11.65 11.65 0 0 1 .525 3.325c0 1.19-.163 2.31-.49 3.36a7.961 7.961 0 0 1-1.4 2.73 6.636 6.636 0 0 1-2.275 1.89c-.886.443-1.901.665-3.045.665Zm.56-4.095c.817 0 1.54-.187 2.17-.56a4.246 4.246 0 0 0 1.54-1.61c.397-.677.595-1.447.595-2.31 0-.887-.198-1.668-.595-2.345a4.246 4.246 0 0 0-1.54-1.61c-.63-.397-1.353-.595-2.17-.595-.816 0-1.551.198-2.205.595-.653.373-1.178.91-1.575 1.61-.373.677-.56 1.458-.56 2.345 0 .863.187 1.633.56 2.31a4.535 4.535 0 0 0 1.575 1.61c.677.373 1.412.56 2.205.56Zm6.475 4.095c-.653 0-1.131-.105-1.435-.315-.303-.233-.501-.595-.595-1.085v-21.56c0-.397.024-.747.07-1.05.07-.327.245-.583.525-.77.304-.21.77-.315 1.4-.315.677 0 1.155.093 1.435.28.28.187.455.443.525.77.094.303.14.653.14 1.05v20.86c0 .397-.035.758-.105 1.085-.07.327-.256.583-.56.77-.28.187-.746.28-1.4.28Zm13.556.245a8.96 8.96 0 0 1-3.29-.63 9.93 9.93 0 0 1-2.87-1.855 9.389 9.389 0 0 1-2.03-2.8c-.49-1.073-.735-2.252-.735-3.535 0-1.237.234-2.392.7-3.465a9.13 9.13 0 0 1 1.925-2.835 8.721 8.721 0 0 1 2.8-1.89 8.507 8.507 0 0 1 3.43-.7c1.634 0 3.115.397 4.445 1.19a8.768 8.768 0 0 1 3.185 3.15c.794 1.33 1.19 2.835 1.19 4.515 0 1.33-.245 2.543-.735 3.64a8.888 8.888 0 0 1-1.995 2.8 9.244 9.244 0 0 1-2.835 1.785 8.332 8.332 0 0 1-3.185.63Zm-.07-4.13c.77 0 1.505-.187 2.205-.56a4.645 4.645 0 0 0 1.75-1.68c.467-.723.7-1.575.7-2.555 0-.91-.21-1.715-.63-2.415a4.284 4.284 0 0 0-1.645-1.645c-.7-.397-1.505-.595-2.415-.595a4.47 4.47 0 0 0-2.345.63c-.7.397-1.26.957-1.68 1.68-.396.7-.595 1.493-.595 2.38 0 .98.222 1.832.665 2.555a4.829 4.829 0 0 0 1.715 1.645c.724.373 1.482.56 2.275.56Z"/>
</svg>
