<svg xmlns="http://www.w3.org/2000/svg" width="646" height="187" fill="none" viewBox="0 0 646 187">
  <path fill="#fff" d="M246.295 10.496v13.65h-13.65v-13.65h13.65Zm.195 48.75h-14.04l.52-30.095h13l.52 30.095Zm28.076-8.905c-7.28 0-12.48-1.625-15.6-4.875-3.12-3.25-4.68-7.778-4.68-13.585V.746h13v32.37c0 2.34.52 4.073 1.56 5.2 1.083 1.083 2.925 1.625 5.525 1.625h7.41c2.426 0 4.181-.542 5.265-1.625 1.126-1.127 1.69-2.86 1.69-5.2V.746h13v31.135c0 2.903-.347 5.503-1.04 7.8-.65 2.297-1.755 4.247-3.315 5.85-1.517 1.56-3.575 2.752-6.175 3.575-2.6.823-5.807 1.235-9.62 1.235h-7.02Zm79.339-35.815v4.81c0 5.287-1.603 8.927-4.81 10.92-3.206 1.993-8.168 2.99-14.885 2.99h-11.375v16.25h-13V.746h24.375c6.717 0 11.679 1.062 14.885 3.185 3.207 2.123 4.81 5.655 4.81 10.595Zm-13 4.42v-3.835c0-1.517-.476-2.687-1.43-3.51-.91-.867-2.535-1.3-4.875-1.3h-11.765v13.39H334.6c2.34 0 3.965-.412 4.875-1.235.954-.867 1.43-2.037 1.43-3.51Zm42.871 12.415-11.7-3.445c-4.506-1.343-7.843-3.185-10.01-5.525-2.166-2.34-3.25-5.135-3.25-8.385 0-4.073 1.43-7.302 4.29-9.685 2.86-2.383 6.89-3.575 12.09-3.575h25.025v10.725h-25.09c-1.386 0-2.361.26-2.925.78-.563.477-.845 1.018-.845 1.625 0 .78.26 1.43.78 1.95.564.477 1.452.888 2.665 1.235l11.895 3.445c5.027 1.473 8.797 3.293 11.31 5.46 2.557 2.123 3.835 5.113 3.835 8.97 0 1.993-.39 3.878-1.17 5.655-.736 1.777-1.885 3.315-3.445 4.615-1.516 1.3-3.466 2.34-5.85 3.12-2.34.78-5.091 1.17-8.255 1.17h-23.01V38.771h24.96c1.647 0 2.795-.325 3.445-.975.65-.65.975-1.408.975-2.275 0-1.04-.411-1.82-1.235-2.34-.78-.563-2.275-1.17-4.485-1.82ZM408.343.746h14.04l-.52 30.095h-13l-.52-30.095Zm.195 48.75v-13.65h13.65v13.65h-13.65ZM2.953 145.811c-.63 0-1.096-.105-1.4-.315a1.339 1.339 0 0 1-.56-.77 5.01 5.01 0 0 1-.105-1.05v-20.3c0-.35.047-.677.14-.98.094-.303.292-.548.595-.735.327-.187.805-.28 1.435-.28.7 0 1.179.082 1.435.245.28.14.537.35.77.63l11.69 16.345v-15.225c0-.35.047-.677.14-.98.093-.303.292-.548.595-.735.303-.187.77-.28 1.4-.28.653 0 1.12.105 1.4.315.303.187.49.443.56.77.094.327.14.688.14 1.085v20.16c0 .373-.058.723-.175 1.05-.093.303-.303.548-.63.735-.303.21-.781.315-1.435.315-.513 0-.922-.047-1.225-.14-.28-.093-.537-.292-.77-.595l-11.865-16.31v14.945c0 .373-.046.723-.14 1.05-.07.303-.256.548-.56.735-.303.21-.781.315-1.435.315Zm30.286.245c-1.12 0-2.217-.21-3.29-.63a9.921 9.921 0 0 1-2.87-1.855 9.377 9.377 0 0 1-2.03-2.8c-.49-1.073-.735-2.252-.735-3.535 0-1.237.233-2.392.7-3.465a9.113 9.113 0 0 1 1.925-2.835 8.718 8.718 0 0 1 2.8-1.89 8.503 8.503 0 0 1 3.43-.7c1.633 0 3.115.397 4.445 1.19a8.77 8.77 0 0 1 3.185 3.15c.793 1.33 1.19 2.835 1.19 4.515 0 1.33-.245 2.543-.735 3.64a8.888 8.888 0 0 1-1.995 2.8 9.244 9.244 0 0 1-2.835 1.785 8.336 8.336 0 0 1-3.185.63Zm-.07-4.13c.77 0 1.505-.187 2.205-.56a4.652 4.652 0 0 0 1.75-1.68c.467-.723.7-1.575.7-2.555 0-.91-.21-1.715-.63-2.415a4.288 4.288 0 0 0-1.645-1.645c-.7-.397-1.505-.595-2.415-.595a4.47 4.47 0 0 0-2.345.63c-.7.397-1.26.957-1.68 1.68-.397.7-.595 1.493-.595 2.38 0 .98.222 1.832.665 2.555a4.823 4.823 0 0 0 1.715 1.645 4.9 4.9 0 0 0 2.275.56Zm22.143 3.92c-.654 0-1.132-.105-1.435-.315a1.194 1.194 0 0 1-.526-.77 5.01 5.01 0 0 1-.105-1.05v-20.895c0-.397.035-.747.105-1.05a1.34 1.34 0 0 1 .56-.77c.304-.187.782-.28 1.435-.28.654 0 1.12.105 1.4.315.304.187.49.443.56.77.094.303.14.653.14 1.05v7.91c.467-.537 1.062-1.027 1.785-1.47.747-.467 1.645-.7 2.695-.7 1.424 0 2.695.35 3.816 1.05 1.12.677 2.006 1.622 2.66 2.835.653 1.213.98 2.637.98 4.27v7c0 .373-.035.723-.106 1.05-.07.303-.256.548-.56.735-.28.187-.746.28-1.4.28-.653 0-1.131-.093-1.434-.28-.304-.187-.49-.432-.56-.735-.07-.327-.106-.7-.106-1.12v-6.965c0-.817-.14-1.528-.42-2.135a3.064 3.064 0 0 0-1.26-1.4c-.536-.35-1.213-.525-2.03-.525-1.096 0-2.018.327-2.764.98-.747.63-1.179 1.447-1.295 2.45v7.665c0 .373-.047.723-.14 1.05-.07.327-.257.583-.56.77-.28.187-.759.28-1.435.28Zm31.19-.07c-.677 0-1.178-.128-1.505-.385-.327-.257-.49-.607-.49-1.05l.245-1.155c-.187.303-.502.665-.945 1.085-.443.397-1.027.758-1.75 1.085-.723.303-1.598.455-2.625.455a7.476 7.476 0 0 1-3.115-.665 8.772 8.772 0 0 1-2.555-1.89 10.295 10.295 0 0 1-1.75-2.765 8.962 8.962 0 0 1-.63-3.36c0-1.143.21-2.217.63-3.22a9.355 9.355 0 0 1 1.785-2.73 8.248 8.248 0 0 1 2.555-1.855c.98-.467 2.007-.7 3.08-.7.957 0 1.762.128 2.415.385.677.257 1.248.583 1.715.98.467.373.852.77 1.155 1.19l-.21-1.015c0-.513.163-.898.49-1.155.327-.28.84-.42 1.54-.42.653 0 1.12.105 1.4.315.28.187.455.455.525.805.07.327.105.7.105 1.12v12.81c0 .397-.035.758-.105 1.085-.07.327-.257.583-.56.77-.28.187-.747.28-1.4.28Zm-6.44-4.06c.793 0 1.505-.198 2.135-.595a4.345 4.345 0 0 0 1.505-1.61 4.6 4.6 0 0 0 .595-2.31c0-.91-.198-1.703-.595-2.38a4.246 4.246 0 0 0-1.575-1.575c-.63-.397-1.342-.595-2.135-.595-.863 0-1.633.21-2.31.63a4.363 4.363 0 0 0-1.61 1.645c-.373.677-.56 1.447-.56 2.31 0 .84.198 1.598.595 2.275a4.438 4.438 0 0 0 1.61 1.61c.7.397 1.482.595 2.345.595Zm18.002 4.34c-.607 0-1.249-.07-1.925-.21a11.079 11.079 0 0 1-1.96-.525 8.362 8.362 0 0 1-1.645-.875c-.444-.35-.724-.735-.84-1.155a1.37 1.37 0 0 1-.105-.665c.023-.233.093-.467.21-.7a3.01 3.01 0 0 1 .525-.77c.21-.257.42-.397.63-.42.233-.047.525.023.875.21.303.117.63.268.98.455l1.12.56a8.28 8.28 0 0 0 1.19.455c.42.117.828.175 1.225.175.863 0 1.551-.14 2.065-.42.513-.303.77-.723.77-1.26 0-.303-.082-.572-.245-.805a1.754 1.754 0 0 0-.665-.56 3.996 3.996 0 0 0-.945-.42 7.441 7.441 0 0 0-1.155-.35 69 69 0 0 1-1.26-.385 17.186 17.186 0 0 1-1.75-.595 6.172 6.172 0 0 1-1.575-.91 4.335 4.335 0 0 1-1.085-1.4c-.28-.56-.42-1.26-.42-2.1 0-1.05.245-1.937.735-2.66.513-.747 1.248-1.318 2.205-1.715.956-.397 2.111-.595 3.465-.595.466 0 .91.035 1.33.105.443.07.863.175 1.26.315.42.117.816.268 1.19.455.396.187.77.397 1.12.63.583.327.886.712.91 1.155.023.42-.14.875-.49 1.365-.257.327-.514.56-.77.7a.967.967 0 0 1-.805 0 65.265 65.265 0 0 0-1.225-.595 8.567 8.567 0 0 0-1.33-.595 4.025 4.025 0 0 0-1.4-.245c-.467 0-.887.07-1.26.21-.374.14-.654.338-.84.595-.187.257-.28.56-.28.91 0 .327.093.595.28.805.186.21.431.385.735.525.303.14.665.268 1.085.385.42.093.863.187 1.33.28.653.14 1.318.315 1.995.525.676.21 1.295.502 1.855.875.583.373 1.05.875 1.4 1.505.35.607.525 1.4.525 2.38 0 1.703-.63 3.022-1.89 3.955-1.237.933-2.952 1.4-5.145 1.4Zm32.769-.28c-.677 0-1.178-.128-1.505-.385-.327-.257-.49-.607-.49-1.05l.245-1.155c-.187.303-.502.665-.945 1.085-.443.397-1.027.758-1.75 1.085-.723.303-1.598.455-2.625.455a7.475 7.475 0 0 1-3.115-.665 8.772 8.772 0 0 1-2.555-1.89 10.295 10.295 0 0 1-1.75-2.765 8.962 8.962 0 0 1-.63-3.36c0-1.143.21-2.217.63-3.22a9.343 9.343 0 0 1 1.785-2.73 8.248 8.248 0 0 1 2.555-1.855c.98-.467 2.007-.7 3.08-.7.957 0 1.762.128 2.415.385.677.257 1.248.583 1.715.98.467.373.852.77 1.155 1.19l-.21-1.015c0-.513.163-.898.49-1.155.327-.28.84-.42 1.54-.42.653 0 1.12.105 1.4.315.28.187.455.455.525.805.07.327.105.7.105 1.12v12.81c0 .397-.035.758-.105 1.085-.07.327-.257.583-.56.77-.28.187-.747.28-1.4.28Zm-6.44-4.06c.793 0 1.505-.198 2.135-.595a4.343 4.343 0 0 0 1.505-1.61 4.6 4.6 0 0 0 .595-2.31c0-.91-.198-1.703-.595-2.38a4.25 4.25 0 0 0-1.575-1.575c-.63-.397-1.342-.595-2.135-.595-.863 0-1.633.21-2.31.63a4.363 4.363 0 0 0-1.61 1.645c-.373.677-.56 1.447-.56 2.31 0 .84.198 1.598.595 2.275a4.438 4.438 0 0 0 1.61 1.61c.7.397 1.482.595 2.345.595Zm20.872 3.885c-1.144 0-2.17-.21-3.08-.63a6.881 6.881 0 0 1-2.275-1.82 8.857 8.857 0 0 1-1.4-2.73c-.304-1.027-.455-2.135-.455-3.325a11.65 11.65 0 0 1 .525-3.325c.326-1.05.793-1.96 1.4-2.73a6.881 6.881 0 0 1 2.275-1.82c.886-.443 1.89-.665 3.01-.665 1.073 0 2.076.222 3.01.665a7.86 7.86 0 0 1 2.52 1.855 8.72 8.72 0 0 1 1.75 2.765c.42 1.027.63 2.135.63 3.325 0 1.213-.21 2.333-.63 3.36a8.714 8.714 0 0 1-1.715 2.695 7.901 7.901 0 0 1-2.52 1.75c-.957.42-1.972.63-3.045.63Zm-7 7.28c-.63 0-1.097-.093-1.4-.28-.304-.187-.49-.432-.56-.735a4.695 4.695 0 0 1-.105-1.05v-20.125c0-.397.035-.747.105-1.05.07-.303.245-.548.525-.735.303-.21.77-.315 1.4-.315.606 0 1.085.093 1.435.28.35.187.583.502.7.945v20.965c.023.397-.012.747-.105 1.05-.07.327-.257.583-.56.77-.304.187-.782.28-1.435.28Zm6.44-11.2c.816 0 1.551-.187 2.205-.56a4.261 4.261 0 0 0 1.54-1.61c.396-.7.595-1.482.595-2.345 0-.887-.199-1.668-.595-2.345a4.003 4.003 0 0 0-1.54-1.575c-.654-.397-1.389-.595-2.205-.595-.794 0-1.517.198-2.17.595a4.518 4.518 0 0 0-1.575 1.61c-.374.653-.56 1.423-.56 2.31 0 .863.186 1.645.56 2.345a4.518 4.518 0 0 0 1.575 1.61c.653.373 1.376.56 2.17.56Zm13.491 4.165c-.63 0-1.096-.105-1.4-.315a1.194 1.194 0 0 1-.525-.77 5.188 5.188 0 0 1-.105-1.085v-12.985c0-.42.035-.782.105-1.085.07-.327.245-.572.525-.735.304-.187.782-.28 1.435-.28.63 0 1.085.082 1.365.245.304.163.49.373.56.63.094.233.14.467.14.7l-.28.63c.117-.187.28-.408.49-.665.21-.28.49-.548.84-.805.35-.28.77-.502 1.26-.665.49-.187 1.074-.28 1.75-.28.28 0 .572.035.875.105.327.047.642.128.945.245.327.093.619.222.875.385.257.163.455.362.595.595.14.21.21.455.21.735 0 .747-.186 1.377-.56 1.89-.373.513-.816.77-1.33.77-.35 0-.606-.035-.77-.105a1.835 1.835 0 0 1-.42-.245c-.093-.093-.245-.175-.455-.245-.186-.07-.49-.105-.91-.105-.35 0-.711.058-1.085.175-.35.117-.676.292-.98.525a2.591 2.591 0 0 0-.735.91c-.186.35-.28.758-.28 1.225v8.505c0 .397-.035.758-.105 1.085-.07.303-.256.548-.56.735-.303.187-.793.28-1.47.28Zm19.828.21a8.96 8.96 0 0 1-3.29-.63 9.93 9.93 0 0 1-2.87-1.855 9.389 9.389 0 0 1-2.03-2.8c-.49-1.073-.735-2.252-.735-3.535 0-1.237.234-2.392.7-3.465a9.13 9.13 0 0 1 1.925-2.835 8.721 8.721 0 0 1 2.8-1.89 8.507 8.507 0 0 1 3.43-.7c1.634 0 3.115.397 4.445 1.19a8.768 8.768 0 0 1 3.185 3.15c.794 1.33 1.19 2.835 1.19 4.515 0 1.33-.245 2.543-.735 3.64a8.888 8.888 0 0 1-1.995 2.8 9.244 9.244 0 0 1-2.835 1.785 8.332 8.332 0 0 1-3.185.63Zm-.07-4.13c.77 0 1.505-.187 2.205-.56a4.645 4.645 0 0 0 1.75-1.68c.467-.723.7-1.575.7-2.555 0-.91-.21-1.715-.63-2.415a4.284 4.284 0 0 0-1.645-1.645c-.7-.397-1.505-.595-2.415-.595a4.47 4.47 0 0 0-2.345.63c-.7.397-1.26.957-1.68 1.68-.396.7-.595 1.493-.595 2.38 0 .98.222 1.832.665 2.555a4.829 4.829 0 0 0 1.715 1.645c.724.373 1.482.56 2.275.56Zm20.566 3.885c-1.143 0-2.17-.222-3.08-.665a7.104 7.104 0 0 1-2.275-1.89 8.879 8.879 0 0 1-1.4-2.73 12.066 12.066 0 0 1-.455-3.36 11.65 11.65 0 0 1 .525-3.325c.327-1.05.793-1.96 1.4-2.73a6.704 6.704 0 0 1 2.275-1.855c.887-.443 1.89-.665 3.01-.665a6.93 6.93 0 0 1 3.01.665 7.839 7.839 0 0 1 2.52 1.855c.747.77 1.33 1.68 1.75 2.73.42 1.027.63 2.123.63 3.29 0 1.213-.21 2.357-.63 3.43a9.052 9.052 0 0 1-1.715 2.765 8.086 8.086 0 0 1-2.52 1.82 7.163 7.163 0 0 1-3.045.665Zm-.56-4.095c.817 0 1.552-.187 2.205-.56a4.254 4.254 0 0 0 1.54-1.61c.397-.677.595-1.447.595-2.31 0-.887-.198-1.668-.595-2.345a3.942 3.942 0 0 0-1.54-1.61c-.653-.397-1.388-.595-2.205-.595-.793 0-1.517.198-2.17.595a4.535 4.535 0 0 0-1.575 1.61c-.373.677-.56 1.458-.56 2.345 0 .863.187 1.633.56 2.31a4.535 4.535 0 0 0 1.575 1.61 4.3 4.3 0 0 0 2.17.56Zm-6.475 4.13c-.63 0-1.097-.105-1.4-.315-.303-.187-.49-.432-.56-.735a5.188 5.188 0 0 1-.105-1.085v-20.86c0-.397.035-.747.105-1.05.07-.327.257-.583.56-.77.303-.187.77-.28 1.4-.28.653 0 1.12.093 1.4.28.28.187.455.443.525.77s.105.677.105 1.05v21.56c-.093.513-.292.875-.595 1.085-.28.233-.758.35-1.435.35Zm32.112-.07c-.677 0-1.179-.128-1.505-.385-.327-.257-.49-.607-.49-1.05l.245-1.155c-.187.303-.502.665-.945 1.085-.444.397-1.027.758-1.75 1.085-.724.303-1.599.455-2.625.455a7.475 7.475 0 0 1-3.115-.665 8.76 8.76 0 0 1-2.555-1.89 10.27 10.27 0 0 1-1.75-2.765 8.962 8.962 0 0 1-.63-3.36c0-1.143.21-2.217.63-3.22a9.343 9.343 0 0 1 1.785-2.73 8.237 8.237 0 0 1 2.555-1.855c.98-.467 2.006-.7 3.08-.7.956 0 1.761.128 2.415.385.676.257 1.248.583 1.715.98.466.373.851.77 1.155 1.19l-.21-1.015c0-.513.163-.898.49-1.155.326-.28.84-.42 1.54-.42.653 0 1.12.105 1.4.315.28.187.455.455.525.805.07.327.105.7.105 1.12v12.81c0 .397-.035.758-.105 1.085-.07.327-.257.583-.56.77-.28.187-.747.28-1.4.28Zm-6.44-4.06c.793 0 1.505-.198 2.135-.595a4.351 4.351 0 0 0 1.505-1.61c.396-.7.595-1.47.595-2.31 0-.91-.199-1.703-.595-2.38a4.25 4.25 0 0 0-1.575-1.575c-.63-.397-1.342-.595-2.135-.595-.864 0-1.634.21-2.31.63a4.356 4.356 0 0 0-1.61 1.645c-.374.677-.56 1.447-.56 2.31 0 .84.198 1.598.595 2.275a4.43 4.43 0 0 0 1.61 1.61c.7.397 1.481.595 2.345.595Zm19.436 4.095a7.163 7.163 0 0 1-3.045-.665 8.109 8.109 0 0 1-2.52-1.82 9.052 9.052 0 0 1-1.715-2.765 9.328 9.328 0 0 1-.63-3.43c0-1.167.21-2.263.63-3.29.42-1.05.992-1.96 1.715-2.73a8.26 8.26 0 0 1 2.555-1.855 7.083 7.083 0 0 1 3.01-.665c1.12 0 2.124.222 3.01.665a6.367 6.367 0 0 1 2.24 1.855c.63.77 1.109 1.68 1.435 2.73a11.65 11.65 0 0 1 .525 3.325c0 1.19-.163 2.31-.49 3.36a7.961 7.961 0 0 1-1.4 2.73 6.636 6.636 0 0 1-2.275 1.89c-.886.443-1.901.665-3.045.665Zm.56-4.095c.817 0 1.54-.187 2.17-.56a4.246 4.246 0 0 0 1.54-1.61c.397-.677.595-1.447.595-2.31 0-.887-.198-1.668-.595-2.345a4.246 4.246 0 0 0-1.54-1.61c-.63-.397-1.353-.595-2.17-.595-.816 0-1.551.198-2.205.595-.653.373-1.178.91-1.575 1.61-.373.677-.56 1.458-.56 2.345 0 .863.187 1.633.56 2.31a4.535 4.535 0 0 0 1.575 1.61c.677.373 1.412.56 2.205.56Zm6.475 4.095c-.653 0-1.131-.105-1.435-.315-.303-.233-.501-.595-.595-1.085v-21.56c0-.397.024-.747.07-1.05.07-.327.245-.583.525-.77.304-.21.77-.315 1.4-.315.677 0 1.155.093 1.435.28.28.187.455.443.525.77.094.303.14.653.14 1.05v20.86c0 .397-.035.758-.105 1.085-.07.327-.256.583-.56.77-.28.187-.746.28-1.4.28Zm13.556.245a8.96 8.96 0 0 1-3.29-.63 9.93 9.93 0 0 1-2.87-1.855 9.389 9.389 0 0 1-2.03-2.8c-.49-1.073-.735-2.252-.735-3.535 0-1.237.234-2.392.7-3.465a9.13 9.13 0 0 1 1.925-2.835 8.721 8.721 0 0 1 2.8-1.89 8.507 8.507 0 0 1 3.43-.7c1.634 0 3.115.397 4.445 1.19a8.768 8.768 0 0 1 3.185 3.15c.794 1.33 1.19 2.835 1.19 4.515 0 1.33-.245 2.543-.735 3.64a8.888 8.888 0 0 1-1.995 2.8 9.244 9.244 0 0 1-2.835 1.785 8.332 8.332 0 0 1-3.185.63Zm-.07-4.13c.77 0 1.505-.187 2.205-.56a4.645 4.645 0 0 0 1.75-1.68c.467-.723.7-1.575.7-2.555 0-.91-.21-1.715-.63-2.415a4.284 4.284 0 0 0-1.645-1.645c-.7-.397-1.505-.595-2.415-.595a4.47 4.47 0 0 0-2.345.63c-.7.397-1.26.957-1.68 1.68-.396.7-.595 1.493-.595 2.38 0 .98.222 1.832.665 2.555a4.829 4.829 0 0 0 1.715 1.645c.724.373 1.482.56 2.275.56Zm10.485 7.49-.14-.035c-.093-.023-.187-.117-.28-.28-.093-.14-.14-.373-.14-.7 0-.443.07-.735.21-.875.14-.14.233-.21.28-.21.023-.023.187-.163.49-.42.303-.233.478-.642.525-1.225a4.133 4.133 0 0 1-.63-.175 2.151 2.151 0 0 1-.455-.35 1.38 1.38 0 0 1-.385-.805 7.621 7.621 0 0 1-.07-1.015c.023-.373.058-.735.105-1.085.07-.35.268-.642.595-.875.35-.233.91-.35 1.68-.35.887 0 1.517.187 1.89.56.21.21.338.49.385.84.047.327.07.653.07.98 0 .163-.012.327-.035.49 0 .163-.012.315-.035.455a7.047 7.047 0 0 1-.735 2.555c-.373.77-.852 1.377-1.435 1.82-.56.467-1.19.7-1.89.7Zm18.293-3.57c-.63 0-1.097-.105-1.4-.315a1.194 1.194 0 0 1-.525-.77 5.188 5.188 0 0 1-.105-1.085v-12.985c0-.42.035-.782.105-1.085.07-.327.245-.572.525-.735.303-.187.781-.28 1.435-.28.63 0 1.085.082 1.365.245.303.163.49.373.56.63.093.233.14.467.14.7l-.28.63c.116-.187.28-.408.49-.665.21-.28.49-.548.84-.805.35-.28.77-.502 1.26-.665.49-.187 1.073-.28 1.75-.28.28 0 .571.035.875.105.326.047.641.128.945.245.326.093.618.222.875.385.256.163.455.362.595.595.14.21.21.455.21.735 0 .747-.187 1.377-.56 1.89-.374.513-.817.77-1.33.77-.35 0-.607-.035-.77-.105a1.793 1.793 0 0 1-.42-.245c-.094-.093-.245-.175-.455-.245-.187-.07-.49-.105-.91-.105-.35 0-.712.058-1.085.175-.35.117-.677.292-.98.525a2.57 2.57 0 0 0-.735.91c-.187.35-.28.758-.28 1.225v8.505c0 .397-.035.758-.105 1.085-.07.303-.257.548-.56.735-.304.187-.794.28-1.47.28Zm19.732.21c-1.517 0-2.847-.245-3.99-.735-1.12-.49-2.065-1.155-2.835-1.995a9.454 9.454 0 0 1-1.715-2.87 10.033 10.033 0 0 1-.56-3.325c0-1.68.385-3.173 1.155-4.48a8.245 8.245 0 0 1 3.185-3.08c1.376-.747 2.951-1.12 4.725-1.12 1.26 0 2.368.198 3.325.595.956.397 1.75.922 2.38 1.575a6.368 6.368 0 0 1 1.47 2.1c.35.77.525 1.517.525 2.24 0 1.237-.304 2.135-.91 2.695-.584.56-1.319.84-2.205.84h-9.24c.023.793.268 1.482.735 2.065a5.062 5.062 0 0 0 1.82 1.365 6 6 0 0 0 2.275.455c.583 0 1.096-.035 1.54-.105.466-.07.863-.152 1.19-.245a7.77 7.77 0 0 0 .84-.35 65.1 65.1 0 0 1 .7-.315 2.12 2.12 0 0 1 .595-.175c.256-.023.513.035.77.175.256.14.466.385.63.735.14.233.233.455.28.665.07.187.105.373.105.56 0 .467-.28.91-.84 1.33-.56.397-1.354.723-2.38.98-1.004.28-2.194.42-3.57.42Zm-4.69-10.045h7.175c.396 0 .7-.058.91-.175.21-.14.315-.42.315-.84 0-.537-.164-1.015-.49-1.435-.327-.443-.77-.782-1.33-1.015-.56-.257-1.214-.385-1.96-.385-.864 0-1.645.175-2.345.525-.7.327-1.26.782-1.68 1.365a3.404 3.404 0 0 0-.595 1.96Zm23.557 9.905a9.955 9.955 0 0 1-3.29-.56 9.475 9.475 0 0 1-2.87-1.715 8.527 8.527 0 0 1-2.03-2.73c-.49-1.097-.735-2.333-.735-3.71 0-1.377.245-2.602.735-3.675a8.527 8.527 0 0 1 2.03-2.73 9.042 9.042 0 0 1 2.835-1.715 9.13 9.13 0 0 1 3.255-.595c.816 0 1.586.117 2.31.35.746.233 1.388.513 1.925.84.536.327.921.653 1.155.98.303.28.56.548.77.805.21.257.28.572.21.945-.07.233-.175.455-.315.665-.14.187-.315.385-.525.595-.56.63-1.109.863-1.645.7a17.285 17.285 0 0 1-.91-.525 12.308 12.308 0 0 0-.945-.525 5.063 5.063 0 0 0-.945-.455 3.203 3.203 0 0 0-1.085-.175c-.887 0-1.68.198-2.38.595a4.164 4.164 0 0 0-1.61 1.575c-.374.677-.56 1.458-.56 2.345 0 .887.186 1.68.56 2.38a4.43 4.43 0 0 0 1.61 1.61c.676.373 1.446.56 2.31.56.42 0 .816-.047 1.19-.14a5.548 5.548 0 0 0 1.05-.42c.303-.187.548-.373.735-.56.256-.163.49-.315.7-.455.21-.14.431-.21.665-.21.28 0 .548.105.805.315.28.187.583.49.91.91.303.35.466.688.49 1.015.046.327-.024.642-.21.945-.164.303-.444.583-.84.84-.28.28-.7.572-1.26.875-.537.28-1.167.525-1.89.735-.7.21-1.435.315-2.205.315Zm16.549-.105c-1.073 0-2.065-.187-2.975-.56a7.234 7.234 0 0 1-2.345-1.68c-.677-.723-1.202-1.587-1.575-2.59s-.56-2.112-.56-3.325v-6.965c0-.397.035-.747.105-1.05.07-.327.257-.583.56-.77.303-.187.77-.28 1.4-.28.677 0 1.155.093 1.435.28.303.187.49.443.56.77.07.327.105.688.105 1.085v6.93c0 .84.14 1.563.42 2.17a3.499 3.499 0 0 0 1.295 1.435c.56.327 1.248.49 2.065.49.84 0 1.552-.163 2.135-.49a3.598 3.598 0 0 0 1.4-1.435c.327-.63.49-1.353.49-2.17v-7c0-.397.035-.747.105-1.05.07-.327.257-.572.56-.735.303-.187.782-.28 1.435-.28s1.12.093 1.4.28c.28.187.455.443.525.77.093.327.14.677.14 1.05v13.125c0 .35-.047.677-.14.98-.07.303-.257.548-.56.735-.28.187-.747.28-1.4.28-.467 0-.84-.058-1.12-.175a1.386 1.386 0 0 1-.595-.385 1.952 1.952 0 0 1-.245-.56 4.576 4.576 0 0 1-.035-.56l.28-.945c-.14.21-.35.467-.63.77-.28.28-.63.572-1.05.875a5.62 5.62 0 0 1-1.4.7 5.4 5.4 0 0 1-1.785.28Zm20.467.245c-1.516 0-2.846-.245-3.99-.735-1.12-.49-2.065-1.155-2.835-1.995a9.495 9.495 0 0 1-1.715-2.87 10.059 10.059 0 0 1-.56-3.325c0-1.68.385-3.173 1.155-4.48a8.251 8.251 0 0 1 3.185-3.08c1.377-.747 2.952-1.12 4.725-1.12 1.26 0 2.369.198 3.325.595.957.397 1.75.922 2.38 1.575a6.339 6.339 0 0 1 1.47 2.1c.35.77.525 1.517.525 2.24 0 1.237-.303 2.135-.91 2.695-.583.56-1.318.84-2.205.84h-9.24c.024.793.269 1.482.735 2.065a5.07 5.07 0 0 0 1.82 1.365 6.004 6.004 0 0 0 2.275.455 9.97 9.97 0 0 0 1.54-.105 9.6 9.6 0 0 0 1.19-.245c.327-.117.607-.233.84-.35.257-.117.49-.222.7-.315a2.13 2.13 0 0 1 .595-.175c.257-.023.514.035.77.175.257.14.467.385.63.735.14.233.234.455.28.665.07.187.105.373.105.56 0 .467-.28.91-.84 1.33-.56.397-1.353.723-2.38.98-1.003.28-2.193.42-3.57.42Zm-4.69-10.045h7.175c.397 0 .7-.058.91-.175.21-.14.315-.42.315-.84 0-.537-.163-1.015-.49-1.435-.326-.443-.77-.782-1.33-1.015-.56-.257-1.213-.385-1.96-.385-.863 0-1.645.175-2.345.525-.7.327-1.26.782-1.68 1.365a3.412 3.412 0 0 0-.595 1.96Zm17.293 9.835c-.63 0-1.097-.105-1.4-.315a1.194 1.194 0 0 1-.525-.77 5.188 5.188 0 0 1-.105-1.085v-12.985c0-.42.035-.782.105-1.085.07-.327.245-.572.525-.735.303-.187.781-.28 1.435-.28.63 0 1.085.082 1.365.245.303.163.49.373.56.63.093.233.14.467.14.7l-.28.63c.116-.187.28-.408.49-.665.21-.28.49-.548.84-.805.35-.28.77-.502 1.26-.665.49-.187 1.073-.28 1.75-.28.28 0 .571.035.875.105.326.047.641.128.945.245.326.093.618.222.875.385.256.163.455.362.595.595.14.21.21.455.21.735 0 .747-.187 1.377-.56 1.89-.374.513-.817.77-1.33.77-.35 0-.607-.035-.77-.105a1.793 1.793 0 0 1-.42-.245c-.094-.093-.245-.175-.455-.245-.187-.07-.49-.105-.91-.105-.35 0-.712.058-1.085.175-.35.117-.677.292-.98.525a2.57 2.57 0 0 0-.735.91c-.187.35-.28.758-.28 1.225v8.505c0 .397-.035.758-.105 1.085-.07.303-.257.548-.56.735-.304.187-.794.28-1.47.28Zm18.821-.035a7.163 7.163 0 0 1-3.045-.665 8.109 8.109 0 0 1-2.52-1.82 9.052 9.052 0 0 1-1.715-2.765 9.328 9.328 0 0 1-.63-3.43c0-1.167.21-2.263.63-3.29.42-1.05.992-1.96 1.715-2.73a8.26 8.26 0 0 1 2.555-1.855 7.083 7.083 0 0 1 3.01-.665c1.12 0 2.124.222 3.01.665a6.367 6.367 0 0 1 2.24 1.855c.63.77 1.109 1.68 1.435 2.73a11.65 11.65 0 0 1 .525 3.325c0 1.19-.163 2.31-.49 3.36a7.961 7.961 0 0 1-1.4 2.73 6.636 6.636 0 0 1-2.275 1.89c-.886.443-1.901.665-3.045.665Zm.56-4.095c.817 0 1.54-.187 2.17-.56a4.246 4.246 0 0 0 1.54-1.61c.397-.677.595-1.447.595-2.31 0-.887-.198-1.668-.595-2.345a4.246 4.246 0 0 0-1.54-1.61c-.63-.397-1.353-.595-2.17-.595-.816 0-1.551.198-2.205.595-.653.373-1.178.91-1.575 1.61-.373.677-.56 1.458-.56 2.345 0 .863.187 1.633.56 2.31a4.535 4.535 0 0 0 1.575 1.61c.677.373 1.412.56 2.205.56Zm6.475 4.095c-.653 0-1.131-.105-1.435-.315-.303-.233-.501-.595-.595-1.085v-21.56c0-.397.024-.747.07-1.05.07-.327.245-.583.525-.77.304-.21.77-.315 1.4-.315.677 0 1.155.093 1.435.28.28.187.455.443.525.77.094.303.14.653.14 1.05v20.86c0 .397-.035.758-.105 1.085-.07.327-.256.583-.56.77-.28.187-.746.28-1.4.28Zm19.685-.035c-.676 0-1.178-.128-1.505-.385-.326-.257-.49-.607-.49-1.05l.245-1.155c-.186.303-.501.665-.945 1.085-.443.397-1.026.758-1.75 1.085-.723.303-1.598.455-2.625.455a7.478 7.478 0 0 1-3.115-.665 8.786 8.786 0 0 1-2.555-1.89 10.32 10.32 0 0 1-1.75-2.765 8.962 8.962 0 0 1-.63-3.36c0-1.143.21-2.217.63-3.22a9.383 9.383 0 0 1 1.785-2.73 8.26 8.26 0 0 1 2.555-1.855c.98-.467 2.007-.7 3.08-.7.957 0 1.762.128 2.415.385.677.257 1.249.583 1.715.98.467.373.852.77 1.155 1.19l-.21-1.015c0-.513.164-.898.49-1.155.327-.28.84-.42 1.54-.42.654 0 1.12.105 1.4.315.28.187.455.455.525.805.07.327.105.7.105 1.12v12.81c0 .397-.035.758-.105 1.085-.07.327-.256.583-.56.77-.28.187-.746.28-1.4.28Zm-6.44-4.06c.794 0 1.505-.198 2.135-.595a4.343 4.343 0 0 0 1.505-1.61 4.6 4.6 0 0 0 .595-2.31c0-.91-.198-1.703-.595-2.38a4.236 4.236 0 0 0-1.575-1.575c-.63-.397-1.341-.595-2.135-.595-.863 0-1.633.21-2.31.63a4.37 4.37 0 0 0-1.61 1.645c-.373.677-.56 1.447-.56 2.31 0 .84.199 1.598.595 2.275a4.446 4.446 0 0 0 1.61 1.61c.7.397 1.482.595 2.345.595Zm27.769 3.885a7.487 7.487 0 0 1-3.045-.63 7.88 7.88 0 0 1-2.52-1.75 8.696 8.696 0 0 1-1.715-2.695c-.42-1.027-.63-2.147-.63-3.36 0-1.19.21-2.298.63-3.325a9.033 9.033 0 0 1 1.715-2.765 8.237 8.237 0 0 1 2.555-1.855 7.08 7.08 0 0 1 3.01-.665c1.12 0 2.123.222 3.01.665a6.542 6.542 0 0 1 2.24 1.82c.63.77 1.108 1.68 1.435 2.73a11.72 11.72 0 0 1 .525 3.325c0 1.19-.164 2.298-.49 3.325a7.979 7.979 0 0 1-1.4 2.73 6.446 6.446 0 0 1-2.275 1.82c-.887.42-1.902.63-3.045.63Zm.56-3.92c.793 0 1.516-.187 2.17-.56a4.261 4.261 0 0 0 1.54-1.61c.396-.7.595-1.482.595-2.345 0-.887-.199-1.657-.595-2.31a4.261 4.261 0 0 0-1.54-1.61c-.63-.397-1.354-.595-2.17-.595-.817 0-1.552.198-2.205.595a4.236 4.236 0 0 0-1.575 1.575c-.374.677-.56 1.458-.56 2.345 0 .863.186 1.645.56 2.345a4.518 4.518 0 0 0 1.575 1.61 4.49 4.49 0 0 0 2.205.56Zm6.44 11.2c-.654 0-1.132-.093-1.435-.28a1.163 1.163 0 0 1-.56-.77 4.695 4.695 0 0 1-.105-1.05v-20.965c.093-.303.221-.537.385-.7.186-.187.42-.315.7-.385.303-.093.653-.14 1.05-.14.63 0 1.085.105 1.365.315.303.187.49.432.56.735.07.303.105.653.105 1.05v20.125c0 .397-.035.747-.105 1.05-.07.303-.257.548-.56.735-.28.187-.747.28-1.4.28Zm12.655-7.07c-1.074 0-2.065-.187-2.975-.56a7.224 7.224 0 0 1-2.345-1.68c-.677-.723-1.202-1.587-1.575-2.59-.374-1.003-.56-2.112-.56-3.325v-6.965c0-.397.035-.747.105-1.05.07-.327.256-.583.56-.77.303-.187.77-.28 1.4-.28.676 0 1.155.093 1.435.28.303.187.49.443.56.77.07.327.105.688.105 1.085v6.93c0 .84.14 1.563.42 2.17a3.499 3.499 0 0 0 1.295 1.435c.56.327 1.248.49 2.065.49.84 0 1.551-.163 2.135-.49a3.604 3.604 0 0 0 1.4-1.435c.326-.63.49-1.353.49-2.17v-7c0-.397.035-.747.105-1.05a1.05 1.05 0 0 1 .56-.735c.303-.187.781-.28 1.435-.28.653 0 1.12.093 1.4.28.28.187.455.443.525.77.093.327.14.677.14 1.05v13.125c0 .35-.047.677-.14.98-.07.303-.257.548-.56.735-.28.187-.747.28-1.4.28-.467 0-.84-.058-1.12-.175a1.386 1.386 0 0 1-.595-.385 1.925 1.925 0 0 1-.245-.56 4.386 4.386 0 0 1-.035-.56l.28-.945c-.14.21-.35.467-.63.77-.28.28-.63.572-1.05.875-.397.28-.864.513-1.4.7a5.4 5.4 0 0 1-1.785.28Zm20.467.245c-1.517 0-2.847-.245-3.99-.735-1.12-.49-2.065-1.155-2.835-1.995a9.475 9.475 0 0 1-1.715-2.87 10.059 10.059 0 0 1-.56-3.325c0-1.68.385-3.173 1.155-4.48a8.251 8.251 0 0 1 3.185-3.08c1.377-.747 2.952-1.12 4.725-1.12 1.26 0 2.368.198 3.325.595.957.397 1.75.922 2.38 1.575a6.368 6.368 0 0 1 1.47 2.1c.35.77.525 1.517.525 2.24 0 1.237-.303 2.135-.91 2.695-.583.56-1.318.84-2.205.84h-9.24c.023.793.268 1.482.735 2.065a5.07 5.07 0 0 0 1.82 1.365 6.004 6.004 0 0 0 2.275.455 9.98 9.98 0 0 0 1.54-.105c.467-.07.863-.152 1.19-.245.327-.117.607-.233.84-.35.257-.117.49-.222.7-.315a2.12 2.12 0 0 1 .595-.175c.257-.023.513.035.77.175.257.14.467.385.63.735.14.233.233.455.28.665.07.187.105.373.105.56 0 .467-.28.91-.84 1.33-.56.397-1.353.723-2.38.98-1.003.28-2.193.42-3.57.42Zm-4.69-10.045h7.175c.397 0 .7-.058.91-.175.21-.14.315-.42.315-.84 0-.537-.163-1.015-.49-1.435-.327-.443-.77-.782-1.33-1.015-.56-.257-1.213-.385-1.96-.385-.863 0-1.645.175-2.345.525-.7.327-1.26.782-1.68 1.365a3.404 3.404 0 0 0-.595 1.96Zm25.974 9.8c-.63 0-1.097-.105-1.4-.315a1.185 1.185 0 0 1-.525-.735 5.188 5.188 0 0 1-.105-1.085v-13.09c0-.373.035-.712.105-1.015.07-.303.257-.537.56-.7.303-.187.77-.28 1.4-.28.56 0 .98.07 1.26.21.28.14.467.315.56.525.093.21.14.42.14.63.023.21.047.373.07.49l-.14 1.12c.14-.373.373-.735.7-1.085.327-.35.723-.665 1.19-.945a5.899 5.899 0 0 1 1.505-.7 5.382 5.382 0 0 1 1.715-.28c1.097 0 2.077.198 2.94.595a6.258 6.258 0 0 1 2.205 1.68c.63.723 1.108 1.587 1.435 2.59.327.98.49 2.088.49 3.325v6.965c0 .397-.047.758-.14 1.085-.07.303-.245.548-.525.735-.28.187-.758.28-1.435.28-.653 0-1.132-.105-1.435-.315-.303-.187-.49-.432-.56-.735a5.188 5.188 0 0 1-.105-1.085v-6.965c0-.84-.152-1.563-.455-2.17a3.064 3.064 0 0 0-1.26-1.4c-.537-.327-1.225-.49-2.065-.49-.817 0-1.528.175-2.135.525a3.374 3.374 0 0 0-1.4 1.4c-.327.607-.49 1.318-.49 2.135v7c0 .397-.035.758-.105 1.085-.07.303-.257.548-.56.735-.28.187-.758.28-1.435.28Zm25.85.245c-1.517 0-2.847-.245-3.99-.735-1.12-.49-2.065-1.155-2.835-1.995a9.475 9.475 0 0 1-1.715-2.87 10.059 10.059 0 0 1-.56-3.325c0-1.68.385-3.173 1.155-4.48a8.251 8.251 0 0 1 3.185-3.08c1.377-.747 2.952-1.12 4.725-1.12 1.26 0 2.368.198 3.325.595.957.397 1.75.922 2.38 1.575a6.368 6.368 0 0 1 1.47 2.1c.35.77.525 1.517.525 2.24 0 1.237-.303 2.135-.91 2.695-.583.56-1.318.84-2.205.84h-9.24c.023.793.268 1.482.735 2.065a5.07 5.07 0 0 0 1.82 1.365 6.004 6.004 0 0 0 2.275.455 9.98 9.98 0 0 0 1.54-.105c.467-.07.863-.152 1.19-.245.327-.117.607-.233.84-.35.257-.117.49-.222.7-.315a2.12 2.12 0 0 1 .595-.175c.257-.023.513.035.77.175.257.14.467.385.63.735.14.233.233.455.28.665.07.187.105.373.105.56 0 .467-.28.91-.84 1.33-.56.397-1.353.723-2.38.98-1.003.28-2.193.42-3.57.42Zm-4.69-10.045h7.175c.397 0 .7-.058.91-.175.21-.14.315-.42.315-.84 0-.537-.163-1.015-.49-1.435-.327-.443-.77-.782-1.33-1.015-.56-.257-1.213-.385-1.96-.385-.863 0-1.645.175-2.345.525-.7.327-1.26.782-1.68 1.365a3.404 3.404 0 0 0-.595 1.96Zm23.557 9.905a9.955 9.955 0 0 1-3.29-.56 9.475 9.475 0 0 1-2.87-1.715 8.527 8.527 0 0 1-2.03-2.73c-.49-1.097-.735-2.333-.735-3.71 0-1.377.245-2.602.735-3.675a8.527 8.527 0 0 1 2.03-2.73 9.042 9.042 0 0 1 2.835-1.715 9.13 9.13 0 0 1 3.255-.595c.817 0 1.587.117 2.31.35.747.233 1.388.513 1.925.84.537.327.922.653 1.155.98.303.28.56.548.77.805.21.257.28.572.21.945-.07.233-.175.455-.315.665-.14.187-.315.385-.525.595-.56.63-1.108.863-1.645.7a17.7 17.7 0 0 1-.91-.525 11.942 11.942 0 0 0-.945-.525 5.004 5.004 0 0 0-.945-.455 3.199 3.199 0 0 0-1.085-.175c-.887 0-1.68.198-2.38.595a4.17 4.17 0 0 0-1.61 1.575c-.373.677-.56 1.458-.56 2.345 0 .887.187 1.68.56 2.38a4.438 4.438 0 0 0 1.61 1.61c.677.373 1.447.56 2.31.56.42 0 .817-.047 1.19-.14a5.495 5.495 0 0 0 1.05-.42c.303-.187.548-.373.735-.56.257-.163.49-.315.7-.455.21-.14.432-.21.665-.21.28 0 .548.105.805.315.28.187.583.49.91.91.303.35.467.688.49 1.015a1.38 1.38 0 0 1-.21.945c-.163.303-.443.583-.84.84-.28.28-.7.572-1.26.875-.537.28-1.167.525-1.89.735-.7.21-1.435.315-2.205.315Zm17.739.14c-1.516 0-2.846-.245-3.99-.735-1.12-.49-2.065-1.155-2.835-1.995a9.495 9.495 0 0 1-1.715-2.87 10.059 10.059 0 0 1-.56-3.325c0-1.68.385-3.173 1.155-4.48a8.251 8.251 0 0 1 3.185-3.08c1.377-.747 2.952-1.12 4.725-1.12 1.26 0 2.369.198 3.325.595.957.397 1.75.922 2.38 1.575a6.339 6.339 0 0 1 1.47 2.1c.35.77.525 1.517.525 2.24 0 1.237-.303 2.135-.91 2.695-.583.56-1.318.84-2.205.84h-9.24c.024.793.269 1.482.735 2.065a5.07 5.07 0 0 0 1.82 1.365 6.004 6.004 0 0 0 2.275.455 9.97 9.97 0 0 0 1.54-.105 9.6 9.6 0 0 0 1.19-.245c.327-.117.607-.233.84-.35.257-.117.49-.222.7-.315a2.13 2.13 0 0 1 .595-.175c.257-.023.514.035.77.175.257.14.467.385.63.735.14.233.234.455.28.665.07.187.105.373.105.56 0 .467-.28.91-.84 1.33-.56.397-1.353.723-2.38.98-1.003.28-2.193.42-3.57.42Zm-4.69-10.045h7.175c.397 0 .7-.058.91-.175.21-.14.315-.42.315-.84 0-.537-.163-1.015-.49-1.435-.326-.443-.77-.782-1.33-1.015-.56-.257-1.213-.385-1.96-.385-.863 0-1.645.175-2.345.525-.7.327-1.26.782-1.68 1.365a3.412 3.412 0 0 0-.595 1.96Zm21.213 10.045c-.607 0-1.249-.07-1.925-.21a11.072 11.072 0 0 1-1.96-.525 8.345 8.345 0 0 1-1.645-.875c-.444-.35-.724-.735-.84-1.155a1.356 1.356 0 0 1-.105-.665c.023-.233.093-.467.21-.7a2.98 2.98 0 0 1 .525-.77c.21-.257.42-.397.63-.42.233-.047.525.023.875.21.303.117.63.268.98.455l1.12.56a8.24 8.24 0 0 0 1.19.455c.42.117.828.175 1.225.175.863 0 1.551-.14 2.065-.42.513-.303.77-.723.77-1.26 0-.303-.082-.572-.245-.805a1.754 1.754 0 0 0-.665-.56 4 4 0 0 0-.945-.42 7.441 7.441 0 0 0-1.155-.35 67.587 67.587 0 0 1-1.26-.385 17.112 17.112 0 0 1-1.75-.595 6.151 6.151 0 0 1-1.575-.91 4.327 4.327 0 0 1-1.085-1.4c-.28-.56-.42-1.26-.42-2.1 0-1.05.245-1.937.735-2.66.513-.747 1.248-1.318 2.205-1.715.956-.397 2.111-.595 3.465-.595.466 0 .91.035 1.33.105.443.07.863.175 1.26.315.42.117.816.268 1.19.455.396.187.77.397 1.12.63.583.327.886.712.91 1.155.023.42-.14.875-.49 1.365-.257.327-.514.56-.77.7a.967.967 0 0 1-.805 0 65.265 65.265 0 0 0-1.225-.595 8.574 8.574 0 0 0-1.33-.595 4.028 4.028 0 0 0-1.4-.245c-.467 0-.887.07-1.26.21-.374.14-.654.338-.84.595-.187.257-.28.56-.28.91 0 .327.093.595.28.805.186.21.431.385.735.525.303.14.665.268 1.085.385.42.093.863.187 1.33.28.653.14 1.318.315 1.995.525.676.21 1.295.502 1.855.875.583.373 1.05.875 1.4 1.505.35.607.525 1.4.525 2.38 0 1.703-.63 3.022-1.89 3.955-1.237.933-2.952 1.4-5.145 1.4Zm12.319-.21c-.63 0-1.097-.105-1.4-.315-.303-.187-.49-.432-.56-.735a5.188 5.188 0 0 1-.105-1.085v-13.02c0-.373.035-.712.105-1.015.093-.327.28-.583.56-.77.303-.187.782-.28 1.435-.28s1.12.093 1.4.28c.303.187.49.443.56.77.07.327.105.688.105 1.085v12.985c0 .397-.035.758-.105 1.085-.07.303-.257.548-.56.735-.28.187-.758.28-1.435.28Zm0-20.615c-.677 0-1.178-.093-1.505-.28a1.447 1.447 0 0 1-.595-.84 5.9 5.9 0 0 1-.105-1.155c0-.443.035-.828.105-1.155.093-.327.303-.583.63-.77.327-.21.828-.315 1.505-.315.7 0 1.202.105 1.505.315.303.21.502.49.595.84.093.327.14.712.14 1.155 0 .397-.047.77-.14 1.12-.093.35-.292.618-.595.805-.303.187-.817.28-1.54.28Zm13.99 20.615c-1.144 0-2.124-.117-2.94-.35-.817-.233-1.482-.595-1.995-1.085-.514-.49-.899-1.12-1.155-1.89-.234-.793-.35-1.727-.35-2.8v-14.84c0-.42.035-.782.105-1.085.093-.303.28-.537.56-.7.303-.187.77-.28 1.4-.28.653 0 1.12.093 1.4.28.303.187.49.443.56.77.093.303.14.642.14 1.015v14.7c0 .49.035.887.105 1.19.093.303.221.537.385.7.186.14.42.245.7.315.303.047.665.07 1.085.07.443 0 .816.035 1.12.105.326.07.571.245.735.525.163.257.245.688.245 1.295 0 .653-.105 1.132-.315 1.435-.187.28-.444.455-.77.525-.304.07-.642.105-1.015.105Zm-7.875-16.905 3.605.035 4.83-.14c.396 0 .746.047 1.05.14.326.07.583.257.77.56.186.28.28.747.28 1.4 0 .607-.094 1.062-.28 1.365-.187.303-.432.502-.735.595-.304.07-.654.105-1.05.105l-4.69-.07-3.885.035c-.584-.023-.992-.187-1.225-.49-.21-.327-.315-.852-.315-1.575 0-.677.128-1.167.385-1.47.28-.327.7-.49 1.26-.49Zm27.494 16.835c-.677 0-1.178-.128-1.505-.385-.327-.257-.49-.607-.49-1.05l.245-1.155c-.187.303-.502.665-.945 1.085-.443.397-1.027.758-1.75 1.085-.723.303-1.598.455-2.625.455a7.475 7.475 0 0 1-3.115-.665 8.772 8.772 0 0 1-2.555-1.89 10.295 10.295 0 0 1-1.75-2.765 8.962 8.962 0 0 1-.63-3.36c0-1.143.21-2.217.63-3.22a9.343 9.343 0 0 1 1.785-2.73 8.248 8.248 0 0 1 2.555-1.855c.98-.467 2.007-.7 3.08-.7.957 0 1.762.128 2.415.385.677.257 1.248.583 1.715.98.467.373.852.77 1.155 1.19l-.21-1.015c0-.513.163-.898.49-1.155.327-.28.84-.42 1.54-.42.653 0 1.12.105 1.4.315.28.187.455.455.525.805.07.327.105.7.105 1.12v12.81c0 .397-.035.758-.105 1.085-.07.327-.257.583-.56.77-.28.187-.747.28-1.4.28Zm-6.44-4.06c.793 0 1.505-.198 2.135-.595a4.343 4.343 0 0 0 1.505-1.61 4.6 4.6 0 0 0 .595-2.31c0-.91-.198-1.703-.595-2.38a4.25 4.25 0 0 0-1.575-1.575c-.63-.397-1.342-.595-2.135-.595-.863 0-1.633.21-2.31.63a4.363 4.363 0 0 0-1.61 1.645c-.373.677-.56 1.447-.56 2.31 0 .84.198 1.598.595 2.275a4.438 4.438 0 0 0 1.61 1.61c.7.397 1.482.595 2.345.595Zm18.002 4.34c-.607 0-1.249-.07-1.925-.21a11.072 11.072 0 0 1-1.96-.525 8.345 8.345 0 0 1-1.645-.875c-.444-.35-.724-.735-.84-1.155a1.356 1.356 0 0 1-.105-.665c.023-.233.093-.467.21-.7a2.98 2.98 0 0 1 .525-.77c.21-.257.42-.397.63-.42.233-.047.525.023.875.21.303.117.63.268.98.455l1.12.56a8.24 8.24 0 0 0 1.19.455c.42.117.828.175 1.225.175.863 0 1.551-.14 2.065-.42.513-.303.77-.723.77-1.26 0-.303-.082-.572-.245-.805a1.754 1.754 0 0 0-.665-.56 4 4 0 0 0-.945-.42 7.441 7.441 0 0 0-1.155-.35 67.587 67.587 0 0 1-1.26-.385 17.112 17.112 0 0 1-1.75-.595 6.151 6.151 0 0 1-1.575-.91 4.327 4.327 0 0 1-1.085-1.4c-.28-.56-.42-1.26-.42-2.1 0-1.05.245-1.937.735-2.66.513-.747 1.248-1.318 2.205-1.715.956-.397 2.111-.595 3.465-.595.466 0 .91.035 1.33.105.443.07.863.175 1.26.315.42.117.816.268 1.19.455.396.187.77.397 1.12.63.583.327.886.712.91 1.155.023.42-.14.875-.49 1.365-.257.327-.514.56-.77.7a.967.967 0 0 1-.805 0 65.265 65.265 0 0 0-1.225-.595 8.574 8.574 0 0 0-1.33-.595 4.028 4.028 0 0 0-1.4-.245c-.467 0-.887.07-1.26.21-.374.14-.654.338-.84.595-.187.257-.28.56-.28.91 0 .327.093.595.28.805.186.21.431.385.735.525.303.14.665.268 1.085.385.42.093.863.187 1.33.28.653.14 1.318.315 1.995.525.676.21 1.295.502 1.855.875.583.373 1.05.875 1.4 1.505.35.607.525 1.4.525 2.38 0 1.703-.63 3.022-1.89 3.955-1.237.933-2.952 1.4-5.145 1.4Zm-590.252 34c-1.12 0-2.217-.21-3.29-.63a9.921 9.921 0 0 1-2.87-1.855 9.377 9.377 0 0 1-2.03-2.8c-.49-1.073-.735-2.252-.735-3.535 0-1.237.233-2.392.7-3.465a9.112 9.112 0 0 1 1.925-2.835 8.717 8.717 0 0 1 2.8-1.89 8.503 8.503 0 0 1 3.43-.7c1.633 0 3.115.397 4.445 1.19a8.77 8.77 0 0 1 3.185 3.15c.793 1.33 1.19 2.835 1.19 4.515 0 1.33-.245 2.543-.735 3.64a8.888 8.888 0 0 1-1.995 2.8 9.244 9.244 0 0 1-2.835 1.785 8.336 8.336 0 0 1-3.185.63Zm-.07-4.13c.77 0 1.505-.187 2.205-.56a4.653 4.653 0 0 0 1.75-1.68c.467-.723.7-1.575.7-2.555 0-.91-.21-1.715-.63-2.415a4.288 4.288 0 0 0-1.645-1.645c-.7-.397-1.505-.595-2.415-.595a4.47 4.47 0 0 0-2.345.63c-.7.397-1.26.957-1.68 1.68-.397.7-.595 1.493-.595 2.38 0 .98.221 1.832.665 2.555a4.823 4.823 0 0 0 1.715 1.645 4.9 4.9 0 0 0 2.275.56Zm20.566 3.885c-1.144 0-2.17-.222-3.08-.665a7.108 7.108 0 0 1-2.275-1.89 8.877 8.877 0 0 1-1.4-2.73 12.05 12.05 0 0 1-.455-3.36 11.65 11.65 0 0 1 .525-3.325c.326-1.05.793-1.96 1.4-2.73a6.707 6.707 0 0 1 2.275-1.855c.886-.443 1.89-.665 3.01-.665a6.93 6.93 0 0 1 3.01.665 7.847 7.847 0 0 1 2.52 1.855c.746.77 1.33 1.68 1.75 2.73.42 1.027.63 2.123.63 3.29 0 1.213-.21 2.357-.63 3.43a9.047 9.047 0 0 1-1.715 2.765 8.095 8.095 0 0 1-2.52 1.82 7.16 7.16 0 0 1-3.045.665Zm-.56-4.095c.816 0 1.551-.187 2.205-.56a4.254 4.254 0 0 0 1.54-1.61c.396-.677.595-1.447.595-2.31 0-.887-.199-1.668-.595-2.345a3.943 3.943 0 0 0-1.54-1.61c-.654-.397-1.389-.595-2.205-.595-.794 0-1.517.198-2.17.595a4.528 4.528 0 0 0-1.575 1.61c-.374.677-.56 1.458-.56 2.345 0 .863.186 1.633.56 2.31a4.528 4.528 0 0 0 1.575 1.61 4.3 4.3 0 0 0 2.17.56Zm-6.475 4.13c-.63 0-1.097-.105-1.4-.315-.304-.187-.49-.432-.56-.735a5.188 5.188 0 0 1-.105-1.085v-20.86c0-.397.035-.747.105-1.05.07-.327.256-.583.56-.77.303-.187.77-.28 1.4-.28.653 0 1.12.093 1.4.28.28.187.455.443.525.77s.105.677.105 1.05v21.56c-.094.513-.292.875-.595 1.085-.28.233-.759.35-1.435.35Zm25.822 0c-1.143 0-2.123-.117-2.94-.35-.817-.233-1.482-.595-1.995-1.085-.513-.49-.898-1.12-1.155-1.89-.233-.793-.35-1.727-.35-2.8v-14.84c0-.42.035-.782.105-1.085.093-.303.28-.537.56-.7.303-.187.77-.28 1.4-.28.653 0 1.12.093 1.4.28.303.187.49.443.56.77.093.303.14.642.14 1.015v14.7c0 .49.035.887.105 1.19.093.303.222.537.385.7.187.14.42.245.7.315.303.047.665.07 1.085.07.443 0 .817.035 1.12.105.327.07.572.245.735.525.163.257.245.688.245 1.295 0 .653-.105 1.132-.315 1.435-.187.28-.443.455-.77.525-.303.07-.642.105-1.015.105Zm-7.875-16.905 3.605.035 4.83-.14c.397 0 .747.047 1.05.14.327.07.583.257.77.56.187.28.28.747.28 1.4 0 .607-.093 1.062-.28 1.365-.187.303-.432.502-.735.595-.303.07-.653.105-1.05.105l-4.69-.07-3.885.035c-.583-.023-.992-.187-1.225-.49-.21-.327-.315-.852-.315-1.575 0-.677.128-1.167.385-1.47.28-.327.7-.49 1.26-.49Zm21.474 17.115c-1.516 0-2.846-.245-3.99-.735-1.12-.49-2.065-1.155-2.835-1.995a9.477 9.477 0 0 1-1.715-2.87 10.051 10.051 0 0 1-.56-3.325c0-1.68.385-3.173 1.155-4.48a8.25 8.25 0 0 1 3.185-3.08c1.377-.747 2.952-1.12 4.725-1.12 1.26 0 2.369.198 3.325.595.957.397 1.75.922 2.38 1.575a6.339 6.339 0 0 1 1.47 2.1c.35.77.525 1.517.525 2.24 0 1.237-.303 2.135-.91 2.695-.583.56-1.318.84-2.205.84h-9.24c.024.793.269 1.482.735 2.065a5.068 5.068 0 0 0 1.82 1.365 6 6 0 0 0 2.275.455 9.97 9.97 0 0 0 1.54-.105 9.6 9.6 0 0 0 1.19-.245c.327-.117.607-.233.84-.35.257-.117.49-.222.7-.315a2.13 2.13 0 0 1 .595-.175c.257-.023.514.035.77.175.257.14.467.385.63.735.14.233.234.455.28.665.07.187.105.373.105.56 0 .467-.28.91-.84 1.33-.56.397-1.353.723-2.38.98-1.003.28-2.193.42-3.57.42Zm-4.69-10.045h7.175c.397 0 .7-.058.91-.175.21-.14.315-.42.315-.84 0-.537-.163-1.015-.49-1.435-.326-.443-.77-.782-1.33-1.015-.56-.257-1.213-.385-1.96-.385-.863 0-1.645.175-2.345.525-.7.327-1.26.782-1.68 1.365a3.407 3.407 0 0 0-.595 1.96Zm17.293 9.8c-.63 0-1.097-.105-1.4-.315a1.185 1.185 0 0 1-.525-.735 5.188 5.188 0 0 1-.105-1.085v-13.09c0-.373.035-.712.105-1.015.07-.303.256-.537.56-.7.303-.187.77-.28 1.4-.28.56 0 .98.07 1.26.21.28.14.466.315.56.525.093.21.14.42.14.63.023.21.046.373.07.49l-.14 1.12c.14-.373.373-.735.7-1.085.326-.35.723-.665 1.19-.945a5.883 5.883 0 0 1 1.505-.7 5.377 5.377 0 0 1 1.715-.28c1.096 0 2.076.198 2.94.595a6.258 6.258 0 0 1 2.205 1.68c.63.723 1.108 1.587 1.435 2.59.326.98.49 2.088.49 3.325v6.965c0 .397-.047.758-.14 1.085-.07.303-.245.548-.525.735-.28.187-.759.28-1.435.28-.654 0-1.132-.105-1.435-.315-.304-.187-.49-.432-.56-.735a5.188 5.188 0 0 1-.105-1.085v-6.965c0-.84-.152-1.563-.455-2.17a3.064 3.064 0 0 0-1.26-1.4c-.537-.327-1.225-.49-2.065-.49-.817 0-1.529.175-2.135.525a3.368 3.368 0 0 0-1.4 1.4c-.327.607-.49 1.318-.49 2.135v7c0 .397-.035.758-.105 1.085-.07.303-.257.548-.56.735-.28.187-.759.28-1.435.28Zm25.85.245c-1.517 0-2.847-.245-3.99-.735-1.12-.49-2.065-1.155-2.835-1.995a9.454 9.454 0 0 1-1.715-2.87 10.033 10.033 0 0 1-.56-3.325c0-1.68.385-3.173 1.155-4.48a8.245 8.245 0 0 1 3.185-3.08c1.376-.747 2.951-1.12 4.725-1.12 1.26 0 2.368.198 3.325.595.956.397 1.75.922 2.38 1.575a6.368 6.368 0 0 1 1.47 2.1c.35.77.525 1.517.525 2.24 0 1.237-.304 2.135-.91 2.695-.584.56-1.319.84-2.205.84h-9.24c.023.793.268 1.482.735 2.065a5.062 5.062 0 0 0 1.82 1.365 6 6 0 0 0 2.275.455c.583 0 1.096-.035 1.54-.105.466-.07.863-.152 1.19-.245a7.77 7.77 0 0 0 .84-.35 65.1 65.1 0 0 1 .7-.315 2.12 2.12 0 0 1 .595-.175c.256-.023.513.035.77.175.256.14.466.385.63.735.14.233.233.455.28.665.07.187.105.373.105.56 0 .467-.28.91-.84 1.33-.56.397-1.354.723-2.38.98-1.004.28-2.194.42-3.57.42Zm-4.69-10.045h7.175c.396 0 .7-.058.91-.175.21-.14.315-.42.315-.84 0-.537-.164-1.015-.49-1.435-.327-.443-.77-.782-1.33-1.015-.56-.257-1.214-.385-1.96-.385-.864 0-1.645.175-2.345.525-.7.327-1.26.782-1.68 1.365a3.404 3.404 0 0 0-.595 1.96Zm17.292 9.835c-.63 0-1.097-.105-1.4-.315a1.194 1.194 0 0 1-.525-.77 5.188 5.188 0 0 1-.105-1.085v-12.985c0-.42.035-.782.105-1.085.07-.327.245-.572.525-.735.303-.187.781-.28 1.435-.28.63 0 1.085.082 1.365.245.303.163.49.373.56.63.093.233.14.467.14.7l-.28.63c.116-.187.28-.408.49-.665.21-.28.49-.548.84-.805.35-.28.77-.502 1.26-.665.49-.187 1.073-.28 1.75-.28.28 0 .571.035.875.105.326.047.641.128.945.245.326.093.618.222.875.385.256.163.455.362.595.595.14.21.21.455.21.735 0 .747-.187 1.377-.56 1.89-.374.513-.817.77-1.33.77-.35 0-.607-.035-.77-.105a1.793 1.793 0 0 1-.42-.245c-.094-.093-.245-.175-.455-.245-.187-.07-.49-.105-.91-.105-.35 0-.712.058-1.085.175-.35.117-.677.292-.98.525a2.57 2.57 0 0 0-.735.91c-.187.35-.28.758-.28 1.225v8.505c0 .397-.035.758-.105 1.085-.07.303-.257.548-.56.735-.304.187-.794.28-1.47.28Zm29.333.035c-.77 0-1.307-.152-1.61-.455-.304-.327-.455-.887-.455-1.68v-20.3c0-.77.151-1.307.455-1.61.303-.303.851-.455 1.645-.455.77 0 1.306.163 1.61.49.303.303.455.852.455 1.645v20.265c0 .77-.152 1.318-.455 1.645-.304.303-.852.455-1.645.455Zm-5.39-15.365c-.537.49-1.015.735-1.435.735-.42-.023-.887-.315-1.4-.875-.49-.537-.724-1.038-.7-1.505.046-.467.373-.968.98-1.505l5.985-5.285c.536-.467 1.015-.677 1.435-.63.443.023.91.303 1.4.84.513.537.746 1.038.7 1.505-.047.467-.385.968-1.015 1.505l-5.95 5.215Zm18.504 15.54c-1.75 0-3.243-.373-4.48-1.12-1.237-.77-2.193-1.89-2.87-3.36-.653-1.47-.98-3.243-.98-5.32 0-1.797.198-3.465.595-5.005.42-1.54 1.015-2.917 1.785-4.13a12.66 12.66 0 0 1 2.835-3.15 12.848 12.848 0 0 1 3.745-1.995c1.377-.467 2.87-.7 4.48-.7.373 0 .7.047.98.14.303.07.548.257.735.56.187.303.28.782.28 1.435s-.105 1.132-.315 1.435c-.187.303-.443.49-.77.56-.303.07-.653.105-1.05.105-1.167 0-2.205.152-3.115.455a8.706 8.706 0 0 0-2.415 1.225 7.459 7.459 0 0 0-1.75 1.785 7.358 7.358 0 0 0-1.05 2.1 7.868 7.868 0 0 0-.385 2.17l-.49.21c.14-.397.42-.77.84-1.12.42-.35.945-.63 1.575-.84a6.203 6.203 0 0 1 2.1-.35c1.47 0 2.765.315 3.885.945a7.013 7.013 0 0 1 2.695 2.59c.653 1.073.98 2.287.98 3.64 0 1.493-.338 2.823-1.015 3.99a7.154 7.154 0 0 1-2.765 2.765c-1.167.653-2.52.98-4.06.98Zm-.14-3.955c.817 0 1.505-.14 2.065-.42.583-.303 1.015-.723 1.295-1.26.303-.537.455-1.178.455-1.925 0-.7-.14-1.307-.42-1.82-.28-.537-.7-.945-1.26-1.225-.537-.303-1.178-.455-1.925-.455-.817 0-1.528.152-2.135.455-.607.28-1.073.677-1.4 1.19-.303.513-.455 1.108-.455 1.785 0 .747.14 1.4.42 1.96.303.56.735.992 1.295 1.295.56.28 1.248.42 2.065.42Zm11.034 5.075c-.677-.35-1.073-.723-1.19-1.12-.117-.373.012-.933.385-1.68l11.48-22.785c.257-.513.502-.875.735-1.085.257-.233.548-.338.875-.315.35 0 .747.117 1.19.35.49.233.828.478 1.015.735.187.233.257.525.21.875-.047.327-.198.747-.455 1.26l-11.515 22.68c-.35.77-.723 1.213-1.12 1.33-.373.14-.91.058-1.61-.245Zm19.243-1.505c-.536 0-1.026-.21-1.47-.63-.42-.443-.63-.957-.63-1.54 0-.373.024-.735.07-1.085.047-.35.152-.688.315-1.015.164-.327.409-.642.735-.945a44.247 44.247 0 0 1 3.255-2.45c1.12-.747 2.194-1.458 3.22-2.135a31.389 31.389 0 0 0 2.765-2.03c.817-.7 1.459-1.423 1.925-2.17.467-.77.7-1.598.7-2.485 0-.723-.151-1.377-.455-1.96-.28-.583-.735-1.05-1.365-1.4-.63-.35-1.47-.525-2.52-.525-.723 0-1.365.105-1.925.315a3.7 3.7 0 0 0-1.365.91c-.35.397-.63.887-.84 1.47-.186.56-.28 1.202-.28 1.925 0 .397-.035.747-.105 1.05-.07.303-.256.548-.56.735-.28.163-.77.245-1.47.245s-1.201-.105-1.505-.315c-.28-.21-.455-.49-.525-.84a9.43 9.43 0 0 1-.07-1.155 9.56 9.56 0 0 1 .56-3.29 7.877 7.877 0 0 1 1.715-2.73 7.84 7.84 0 0 1 2.695-1.855c1.074-.467 2.287-.7 3.64-.7 1.704 0 3.197.35 4.48 1.05a7.538 7.538 0 0 1 3.045 2.94c.747 1.26 1.12 2.765 1.12 4.515 0 .91-.14 1.762-.42 2.555a9.277 9.277 0 0 1-1.155 2.24 11.793 11.793 0 0 1-1.715 1.89 21.583 21.583 0 0 1-2.065 1.68 45.389 45.389 0 0 1-2.205 1.47c-.746.443-1.47.875-2.17 1.295l-1.33.7h9.94c.397 0 .759.047 1.085.14.327.07.572.257.735.56.187.303.28.793.28 1.47 0 .653-.093 1.132-.28 1.435-.186.303-.443.49-.77.56-.326.07-.7.105-1.12.105h-13.965Zm27.507.42c-1.376 0-2.578-.222-3.605-.665-1.026-.467-1.89-1.097-2.59-1.89a9.94 9.94 0 0 1-1.68-2.8 16.121 16.121 0 0 1-.91-3.43 24.685 24.685 0 0 1-.28-3.745c0-1.213.094-2.415.28-3.605.187-1.19.479-2.31.875-3.36a9.813 9.813 0 0 1 1.68-2.835 7.286 7.286 0 0 1 2.555-1.96c1.027-.49 2.229-.735 3.605-.735 1.33 0 2.485.233 3.465.7a7.112 7.112 0 0 1 2.52 1.925c.7.817 1.26 1.762 1.68 2.835.42 1.073.724 2.217.91 3.43a24.319 24.319 0 0 1 0 7.35 16.062 16.062 0 0 1-.91 3.43 9.94 9.94 0 0 1-1.68 2.8 7.408 7.408 0 0 1-2.485 1.89c-.98.443-2.123.665-3.43.665Zm-.175-4.27c.957 0 1.727-.198 2.31-.595a4.34 4.34 0 0 0 1.365-1.61 7.24 7.24 0 0 0 .735-2.1c.14-.747.222-1.447.245-2.1.047-.677.07-1.225.07-1.645v-.21c0-1.75-.175-3.243-.525-4.48-.35-1.237-.875-2.17-1.575-2.8-.676-.653-1.528-.98-2.555-.98-1.073 0-1.96.327-2.66.98-.7.63-1.225 1.563-1.575 2.8-.326 1.213-.49 2.718-.49 4.515 0 1.75.175 3.243.525 4.48.35 1.213.864 2.147 1.54 2.8.7.63 1.564.945 2.59.945Zm34.698 3.955c-.677 0-1.178-.128-1.505-.385-.327-.257-.49-.607-.49-1.05l.245-1.155c-.187.303-.502.665-.945 1.085-.443.397-1.027.758-1.75 1.085-.723.303-1.598.455-2.625.455a7.475 7.475 0 0 1-3.115-.665 8.772 8.772 0 0 1-2.555-1.89 10.295 10.295 0 0 1-1.75-2.765 8.962 8.962 0 0 1-.63-3.36c0-1.143.21-2.217.63-3.22a9.343 9.343 0 0 1 1.785-2.73 8.248 8.248 0 0 1 2.555-1.855c.98-.467 2.007-.7 3.08-.7.957 0 1.762.128 2.415.385.677.257 1.248.583 1.715.98.467.373.852.77 1.155 1.19l-.21-1.015c0-.513.163-.898.49-1.155.327-.28.84-.42 1.54-.42.653 0 1.12.105 1.4.315.28.187.455.455.525.805.07.327.105.7.105 1.12v12.81c0 .397-.035.758-.105 1.085-.07.327-.257.583-.56.77-.28.187-.747.28-1.4.28Zm-6.44-4.06c.793 0 1.505-.198 2.135-.595a4.343 4.343 0 0 0 1.505-1.61 4.6 4.6 0 0 0 .595-2.31c0-.91-.198-1.703-.595-2.38a4.25 4.25 0 0 0-1.575-1.575c-.63-.397-1.342-.595-2.135-.595-.863 0-1.633.21-2.31.63a4.363 4.363 0 0 0-1.61 1.645c-.373.677-.56 1.447-.56 2.31 0 .84.198 1.598.595 2.275a4.438 4.438 0 0 0 1.61 1.61c.7.397 1.482.595 2.345.595Zm20.347 4.2a9.955 9.955 0 0 1-3.29-.56 9.475 9.475 0 0 1-2.87-1.715 8.527 8.527 0 0 1-2.03-2.73c-.49-1.097-.735-2.333-.735-3.71 0-1.377.245-2.602.735-3.675a8.527 8.527 0 0 1 2.03-2.73 9.042 9.042 0 0 1 2.835-1.715 9.13 9.13 0 0 1 3.255-.595c.816 0 1.586.117 2.31.35.746.233 1.388.513 1.925.84.536.327.921.653 1.155.98.303.28.56.548.77.805.21.257.28.572.21.945-.07.233-.175.455-.315.665-.14.187-.315.385-.525.595-.56.63-1.109.863-1.645.7a17.285 17.285 0 0 1-.91-.525 12.308 12.308 0 0 0-.945-.525 5.063 5.063 0 0 0-.945-.455 3.203 3.203 0 0 0-1.085-.175c-.887 0-1.68.198-2.38.595a4.164 4.164 0 0 0-1.61 1.575c-.374.677-.56 1.458-.56 2.345 0 .887.186 1.68.56 2.38a4.43 4.43 0 0 0 1.61 1.61c.676.373 1.446.56 2.31.56.42 0 .816-.047 1.19-.14a5.548 5.548 0 0 0 1.05-.42c.303-.187.548-.373.735-.56.256-.163.49-.315.7-.455.21-.14.431-.21.665-.21.28 0 .548.105.805.315.28.187.583.49.91.91.303.35.466.688.49 1.015.046.327-.024.642-.21.945-.164.303-.444.583-.84.84-.28.28-.7.572-1.26.875-.537.28-1.167.525-1.89.735-.7.21-1.435.315-2.205.315Zm11.649-.07c-.63 0-1.097-.105-1.4-.315-.303-.187-.49-.432-.56-.735a5.188 5.188 0 0 1-.105-1.085v-13.02c0-.373.035-.712.105-1.015.093-.327.28-.583.56-.77.303-.187.782-.28 1.435-.28s1.12.093 1.4.28c.303.187.49.443.56.77.07.327.105.688.105 1.085v12.985c0 .397-.035.758-.105 1.085-.07.303-.257.548-.56.735-.28.187-.758.28-1.435.28Zm0-20.615c-.677 0-1.178-.093-1.505-.28a1.447 1.447 0 0 1-.595-.84 5.9 5.9 0 0 1-.105-1.155c0-.443.035-.828.105-1.155.093-.327.303-.583.63-.77.327-.21.828-.315 1.505-.315.7 0 1.202.105 1.505.315.303.21.502.49.595.84.093.327.14.712.14 1.155 0 .397-.047.77-.14 1.12-.093.35-.292.618-.595.805-.303.187-.817.28-1.54.28Zm14.259 20.825c-1.517 0-2.847-.245-3.99-.735-1.12-.49-2.065-1.155-2.835-1.995a9.454 9.454 0 0 1-1.715-2.87 10.033 10.033 0 0 1-.56-3.325c0-1.68.385-3.173 1.155-4.48a8.245 8.245 0 0 1 3.185-3.08c1.376-.747 2.951-1.12 4.725-1.12 1.26 0 2.368.198 3.325.595.956.397 1.75.922 2.38 1.575a6.368 6.368 0 0 1 1.47 2.1c.35.77.525 1.517.525 2.24 0 1.237-.304 2.135-.91 2.695-.584.56-1.319.84-2.205.84h-9.24c.023.793.268 1.482.735 2.065a5.062 5.062 0 0 0 1.82 1.365 6 6 0 0 0 2.275.455c.583 0 1.096-.035 1.54-.105.466-.07.863-.152 1.19-.245a7.77 7.77 0 0 0 .84-.35 65.1 65.1 0 0 1 .7-.315 2.12 2.12 0 0 1 .595-.175c.256-.023.513.035.77.175.256.14.466.385.63.735.14.233.233.455.28.665.07.187.105.373.105.56 0 .467-.28.91-.84 1.33-.56.397-1.354.723-2.38.98-1.004.28-2.194.42-3.57.42Zm-4.69-10.045h7.175c.396 0 .7-.058.91-.175.21-.14.315-.42.315-.84 0-.537-.164-1.015-.49-1.435-.327-.443-.77-.782-1.33-1.015-.56-.257-1.214-.385-1.96-.385-.864 0-1.645.175-2.345.525-.7.327-1.26.782-1.68 1.365a3.404 3.404 0 0 0-.595 1.96Zm17.292 9.835c-.63 0-1.097-.105-1.4-.315a1.194 1.194 0 0 1-.525-.77 5.188 5.188 0 0 1-.105-1.085v-12.985c0-.42.035-.782.105-1.085.07-.327.245-.572.525-.735.303-.187.782-.28 1.435-.28.63 0 1.085.082 1.365.245.303.163.49.373.56.63.093.233.14.467.14.7l-.28.63c.117-.187.28-.408.49-.665.21-.28.49-.548.84-.805.35-.28.77-.502 1.26-.665.49-.187 1.073-.28 1.75-.28.28 0 .572.035.875.105.327.047.642.128.945.245.327.093.618.222.875.385s.455.362.595.595c.14.21.21.455.21.735 0 .747-.187 1.377-.56 1.89-.373.513-.817.77-1.33.77-.35 0-.607-.035-.77-.105a1.835 1.835 0 0 1-.42-.245c-.093-.093-.245-.175-.455-.245-.187-.07-.49-.105-.91-.105-.35 0-.712.058-1.085.175-.35.117-.677.292-.98.525a2.591 2.591 0 0 0-.735.91c-.187.35-.28.758-.28 1.225v8.505c0 .397-.035.758-.105 1.085-.07.303-.257.548-.56.735-.303.187-.793.28-1.47.28Zm20.522 0c-1.143 0-2.123-.117-2.94-.35-.817-.233-1.482-.595-1.995-1.085-.513-.49-.898-1.12-1.155-1.89-.233-.793-.35-1.727-.35-2.8v-14.84c0-.42.035-.782.105-1.085.093-.303.28-.537.56-.7.303-.187.77-.28 1.4-.28.653 0 1.12.093 1.4.28.303.187.49.443.56.77.093.303.14.642.14 1.015v14.7c0 .49.035.887.105 1.19.093.303.222.537.385.7.187.14.42.245.7.315.303.047.665.07 1.085.07.443 0 .817.035 1.12.105.327.07.572.245.735.525.163.257.245.688.245 1.295 0 .653-.105 1.132-.315 1.435-.187.28-.443.455-.77.525-.303.07-.642.105-1.015.105Zm-7.875-16.905 3.605.035 4.83-.14c.397 0 .747.047 1.05.14.327.07.583.257.77.56.187.28.28.747.28 1.4 0 .607-.093 1.062-.28 1.365-.187.303-.432.502-.735.595-.303.07-.653.105-1.05.105l-4.69-.07-3.885.035c-.583-.023-.992-.187-1.225-.49-.21-.327-.315-.852-.315-1.575 0-.677.128-1.167.385-1.47.28-.327.7-.49 1.26-.49Zm21.194 17.115a8.96 8.96 0 0 1-3.29-.63 9.93 9.93 0 0 1-2.87-1.855 9.389 9.389 0 0 1-2.03-2.8c-.49-1.073-.735-2.252-.735-3.535 0-1.237.234-2.392.7-3.465a9.13 9.13 0 0 1 1.925-2.835 8.721 8.721 0 0 1 2.8-1.89 8.507 8.507 0 0 1 3.43-.7c1.634 0 3.115.397 4.445 1.19a8.768 8.768 0 0 1 3.185 3.15c.794 1.33 1.19 2.835 1.19 4.515 0 1.33-.245 2.543-.735 3.64a8.888 8.888 0 0 1-1.995 2.8 9.244 9.244 0 0 1-2.835 1.785 8.332 8.332 0 0 1-3.185.63Zm-.07-4.13c.77 0 1.505-.187 2.205-.56a4.645 4.645 0 0 0 1.75-1.68c.467-.723.7-1.575.7-2.555 0-.91-.21-1.715-.63-2.415a4.284 4.284 0 0 0-1.645-1.645c-.7-.397-1.505-.595-2.415-.595a4.47 4.47 0 0 0-2.345.63c-.7.397-1.26.957-1.68 1.68-.396.7-.595 1.493-.595 2.38 0 .98.222 1.832.665 2.555a4.829 4.829 0 0 0 1.715 1.645c.724.373 1.482.56 2.275.56Zm17.556 4.13c-.606 0-1.248-.07-1.925-.21a11.095 11.095 0 0 1-1.96-.525 8.374 8.374 0 0 1-1.645-.875c-.443-.35-.723-.735-.84-1.155a1.38 1.38 0 0 1-.105-.665c.024-.233.094-.467.21-.7a3.03 3.03 0 0 1 .525-.77c.21-.257.42-.397.63-.42.234-.047.525.023.875.21.304.117.63.268.98.455l1.12.56a8.33 8.33 0 0 0 1.19.455c.42.117.829.175 1.225.175.864 0 1.552-.14 2.065-.42.514-.303.77-.723.77-1.26 0-.303-.081-.572-.245-.805a1.746 1.746 0 0 0-.665-.56 3.963 3.963 0 0 0-.945-.42 7.441 7.441 0 0 0-1.155-.35 72.538 72.538 0 0 1-1.26-.385 17.278 17.278 0 0 1-1.75-.595 6.185 6.185 0 0 1-1.575-.91 4.34 4.34 0 0 1-1.085-1.4c-.28-.56-.42-1.26-.42-2.1 0-1.05.245-1.937.735-2.66.514-.747 1.249-1.318 2.205-1.715.957-.397 2.112-.595 3.465-.595.467 0 .91.035 1.33.105.444.07.864.175 1.26.315a6.6 6.6 0 0 1 1.19.455c.397.187.77.397 1.12.63.584.327.887.712.91 1.155.024.42-.14.875-.49 1.365-.256.327-.513.56-.77.7a.967.967 0 0 1-.805 0 59.74 59.74 0 0 0-1.225-.595 8.532 8.532 0 0 0-1.33-.595 4.024 4.024 0 0 0-1.4-.245c-.466 0-.886.07-1.26.21-.373.14-.653.338-.84.595a1.51 1.51 0 0 0-.28.91c0 .327.094.595.28.805.187.21.432.385.735.525.304.14.665.268 1.085.385.42.093.864.187 1.33.28.654.14 1.319.315 1.995.525.677.21 1.295.502 1.855.875a4.13 4.13 0 0 1 1.4 1.505c.35.607.525 1.4.525 2.38 0 1.703-.63 3.022-1.89 3.955-1.236.933-2.951 1.4-5.145 1.4Zm27.616-.455c-1.143 0-2.17-.21-3.08-.63a6.891 6.891 0 0 1-2.275-1.82 8.9 8.9 0 0 1-1.4-2.73c-.303-1.027-.455-2.135-.455-3.325a11.72 11.72 0 0 1 .525-3.325c.327-1.05.794-1.96 1.4-2.73a6.891 6.891 0 0 1 2.275-1.82c.887-.443 1.89-.665 3.01-.665 1.074 0 2.077.222 3.01.665a7.839 7.839 0 0 1 2.52 1.855 8.703 8.703 0 0 1 1.75 2.765c.42 1.027.63 2.135.63 3.325 0 1.213-.21 2.333-.63 3.36a8.696 8.696 0 0 1-1.715 2.695 7.88 7.88 0 0 1-2.52 1.75c-.956.42-1.971.63-3.045.63Zm-7 7.28c-.63 0-1.096-.093-1.4-.28-.303-.187-.49-.432-.56-.735a4.695 4.695 0 0 1-.105-1.05v-20.125c0-.397.035-.747.105-1.05.07-.303.245-.548.525-.735.304-.21.77-.315 1.4-.315.607 0 1.085.093 1.435.28.35.187.584.502.7.945v20.965c.024.397-.011.747-.105 1.05-.07.327-.256.583-.56.77-.303.187-.781.28-1.435.28Zm6.44-11.2c.817 0 1.552-.187 2.205-.56a4.246 4.246 0 0 0 1.54-1.61c.397-.7.595-1.482.595-2.345 0-.887-.198-1.668-.595-2.345a3.99 3.99 0 0 0-1.54-1.575c-.653-.397-1.388-.595-2.205-.595a4.1 4.1 0 0 0-2.17.595 4.535 4.535 0 0 0-1.575 1.61c-.373.653-.56 1.423-.56 2.31 0 .863.187 1.645.56 2.345a4.535 4.535 0 0 0 1.575 1.61c.654.373 1.377.56 2.17.56Zm25.777 4.095c-.677 0-1.178-.128-1.505-.385-.327-.257-.49-.607-.49-1.05l.245-1.155c-.187.303-.502.665-.945 1.085-.443.397-1.027.758-1.75 1.085-.723.303-1.598.455-2.625.455a7.475 7.475 0 0 1-3.115-.665 8.772 8.772 0 0 1-2.555-1.89 10.295 10.295 0 0 1-1.75-2.765 8.962 8.962 0 0 1-.63-3.36c0-1.143.21-2.217.63-3.22a9.343 9.343 0 0 1 1.785-2.73 8.248 8.248 0 0 1 2.555-1.855c.98-.467 2.007-.7 3.08-.7.957 0 1.762.128 2.415.385.677.257 1.248.583 1.715.98.467.373.852.77 1.155 1.19l-.21-1.015c0-.513.163-.898.49-1.155.327-.28.84-.42 1.54-.42.653 0 1.12.105 1.4.315.28.187.455.455.525.805.07.327.105.7.105 1.12v12.81c0 .397-.035.758-.105 1.085-.07.327-.257.583-.56.77-.28.187-.747.28-1.4.28Zm-6.44-4.06c.793 0 1.505-.198 2.135-.595a4.343 4.343 0 0 0 1.505-1.61 4.6 4.6 0 0 0 .595-2.31c0-.91-.198-1.703-.595-2.38a4.25 4.25 0 0 0-1.575-1.575c-.63-.397-1.342-.595-2.135-.595-.863 0-1.633.21-2.31.63a4.363 4.363 0 0 0-1.61 1.645c-.373.677-.56 1.447-.56 2.31 0 .84.198 1.598.595 2.275a4.438 4.438 0 0 0 1.61 1.61c.7.397 1.482.595 2.345.595Zm14.082 4.13c-.63 0-1.097-.105-1.4-.315a1.194 1.194 0 0 1-.525-.77 5.188 5.188 0 0 1-.105-1.085v-12.985c0-.42.035-.782.105-1.085.07-.327.245-.572.525-.735.303-.187.781-.28 1.435-.28.63 0 1.085.082 1.365.245.303.163.49.373.56.63.093.233.14.467.14.7l-.28.63c.116-.187.28-.408.49-.665.21-.28.49-.548.84-.805.35-.28.77-.502 1.26-.665.49-.187 1.073-.28 1.75-.28.28 0 .571.035.875.105.326.047.641.128.945.245.326.093.618.222.875.385.256.163.455.362.595.595.14.21.21.455.21.735 0 .747-.187 1.377-.56 1.89-.374.513-.817.77-1.33.77-.35 0-.607-.035-.77-.105a1.793 1.793 0 0 1-.42-.245c-.094-.093-.245-.175-.455-.245-.187-.07-.49-.105-.91-.105-.35 0-.712.058-1.085.175-.35.117-.677.292-.98.525a2.57 2.57 0 0 0-.735.91c-.187.35-.28.758-.28 1.225v8.505c0 .397-.035.758-.105 1.085-.07.303-.257.548-.56.735-.304.187-.794.28-1.47.28Zm25.41-.07c-.677 0-1.179-.128-1.505-.385-.327-.257-.49-.607-.49-1.05l.245-1.155c-.187.303-.502.665-.945 1.085-.444.397-1.027.758-1.75 1.085-.724.303-1.599.455-2.625.455a7.475 7.475 0 0 1-3.115-.665 8.76 8.76 0 0 1-2.555-1.89 10.27 10.27 0 0 1-1.75-2.765 8.962 8.962 0 0 1-.63-3.36c0-1.143.21-2.217.63-3.22a9.343 9.343 0 0 1 1.785-2.73 8.237 8.237 0 0 1 2.555-1.855c.98-.467 2.006-.7 3.08-.7.956 0 1.761.128 2.415.385.676.257 1.248.583 1.715.98.466.373.851.77 1.155 1.19l-.21-1.015c0-.513.163-.898.49-1.155.326-.28.84-.42 1.54-.42.653 0 1.12.105 1.4.315.28.187.455.455.525.805.07.327.105.7.105 1.12v12.81c0 .397-.035.758-.105 1.085-.07.327-.257.583-.56.77-.28.187-.747.28-1.4.28Zm-6.44-4.06c.793 0 1.505-.198 2.135-.595a4.351 4.351 0 0 0 1.505-1.61c.396-.7.595-1.47.595-2.31 0-.91-.199-1.703-.595-2.38a4.25 4.25 0 0 0-1.575-1.575c-.63-.397-1.342-.595-2.135-.595-.864 0-1.634.21-2.31.63a4.356 4.356 0 0 0-1.61 1.645c-.374.677-.56 1.447-.56 2.31 0 .84.198 1.598.595 2.275a4.43 4.43 0 0 0 1.61 1.61c.7.397 1.481.595 2.345.595Zm34.706 4.06c-.676 0-1.178-.128-1.505-.385-.326-.257-.49-.607-.49-1.05l.245-1.155c-.186.303-.501.665-.945 1.085-.443.397-1.026.758-1.75 1.085-.723.303-1.598.455-2.625.455a7.478 7.478 0 0 1-3.115-.665 8.786 8.786 0 0 1-2.555-1.89 10.32 10.32 0 0 1-1.75-2.765 8.962 8.962 0 0 1-.63-3.36c0-1.143.21-2.217.63-3.22a9.383 9.383 0 0 1 1.785-2.73 8.26 8.26 0 0 1 2.555-1.855c.98-.467 2.007-.7 3.08-.7.957 0 1.762.128 2.415.385.677.257 1.249.583 1.715.98.467.373.852.77 1.155 1.19l-.21-1.015c0-.513.164-.898.49-1.155.327-.28.84-.42 1.54-.42.654 0 1.12.105 1.4.315.28.187.455.455.525.805.07.327.105.7.105 1.12v12.81c0 .397-.035.758-.105 1.085-.07.327-.256.583-.56.77-.28.187-.746.28-1.4.28Zm-6.44-4.06c.794 0 1.505-.198 2.135-.595a4.343 4.343 0 0 0 1.505-1.61 4.6 4.6 0 0 0 .595-2.31c0-.91-.198-1.703-.595-2.38a4.236 4.236 0 0 0-1.575-1.575c-.63-.397-1.341-.595-2.135-.595-.863 0-1.633.21-2.31.63a4.37 4.37 0 0 0-1.61 1.645c-.373.677-.56 1.447-.56 2.31 0 .84.199 1.598.595 2.275a4.446 4.446 0 0 0 1.61 1.61c.7.397 1.482.595 2.345.595Zm20.872 3.885c-1.143 0-2.17-.21-3.08-.63a6.881 6.881 0 0 1-2.275-1.82 8.879 8.879 0 0 1-1.4-2.73c-.303-1.027-.455-2.135-.455-3.325a11.65 11.65 0 0 1 .525-3.325c.327-1.05.793-1.96 1.4-2.73a6.881 6.881 0 0 1 2.275-1.82c.887-.443 1.89-.665 3.01-.665a6.93 6.93 0 0 1 3.01.665 7.839 7.839 0 0 1 2.52 1.855 8.703 8.703 0 0 1 1.75 2.765c.42 1.027.63 2.135.63 3.325 0 1.213-.21 2.333-.63 3.36a8.714 8.714 0 0 1-1.715 2.695 7.88 7.88 0 0 1-2.52 1.75c-.957.42-1.972.63-3.045.63Zm-7 7.28c-.63 0-1.097-.093-1.4-.28-.303-.187-.49-.432-.56-.735a4.695 4.695 0 0 1-.105-1.05v-20.125c0-.397.035-.747.105-1.05.07-.303.245-.548.525-.735.303-.21.77-.315 1.4-.315.607 0 1.085.093 1.435.28.35.187.583.502.7.945v20.965c.023.397-.012.747-.105 1.05-.07.327-.257.583-.56.77-.303.187-.782.28-1.435.28Zm6.44-11.2c.817 0 1.552-.187 2.205-.56a4.254 4.254 0 0 0 1.54-1.61c.397-.7.595-1.482.595-2.345 0-.887-.198-1.668-.595-2.345a3.996 3.996 0 0 0-1.54-1.575c-.653-.397-1.388-.595-2.205-.595-.793 0-1.517.198-2.17.595a4.535 4.535 0 0 0-1.575 1.61c-.373.653-.56 1.423-.56 2.31 0 .863.187 1.645.56 2.345a4.535 4.535 0 0 0 1.575 1.61 4.3 4.3 0 0 0 2.17.56Zm13.492 4.165c-.63 0-1.097-.105-1.4-.315a1.194 1.194 0 0 1-.525-.77 5.188 5.188 0 0 1-.105-1.085v-12.985c0-.42.035-.782.105-1.085.07-.327.245-.572.525-.735.303-.187.781-.28 1.435-.28.63 0 1.085.082 1.365.245.303.163.49.373.56.63.093.233.14.467.14.7l-.28.63c.116-.187.28-.408.49-.665.21-.28.49-.548.84-.805.35-.28.77-.502 1.26-.665.49-.187 1.073-.28 1.75-.28.28 0 .571.035.875.105.326.047.641.128.945.245.326.093.618.222.875.385.256.163.455.362.595.595.14.21.21.455.21.735 0 .747-.187 1.377-.56 1.89-.374.513-.817.77-1.33.77-.35 0-.607-.035-.77-.105a1.793 1.793 0 0 1-.42-.245c-.094-.093-.245-.175-.455-.245-.187-.07-.49-.105-.91-.105-.35 0-.712.058-1.085.175-.35.117-.677.292-.98.525a2.57 2.57 0 0 0-.735.91c-.187.35-.28.758-.28 1.225v8.505c0 .397-.035.758-.105 1.085-.07.303-.257.548-.56.735-.304.187-.794.28-1.47.28Zm19.828.21c-1.12 0-2.217-.21-3.29-.63a9.917 9.917 0 0 1-2.87-1.855 9.372 9.372 0 0 1-2.03-2.8c-.49-1.073-.735-2.252-.735-3.535 0-1.237.233-2.392.7-3.465a9.096 9.096 0 0 1 1.925-2.835 8.71 8.71 0 0 1 2.8-1.89 8.5 8.5 0 0 1 3.43-.7c1.633 0 3.115.397 4.445 1.19a8.775 8.775 0 0 1 3.185 3.15c.793 1.33 1.19 2.835 1.19 4.515 0 1.33-.245 2.543-.735 3.64a8.888 8.888 0 0 1-1.995 2.8 9.244 9.244 0 0 1-2.835 1.785 8.34 8.34 0 0 1-3.185.63Zm-.07-4.13c.77 0 1.505-.187 2.205-.56a4.66 4.66 0 0 0 1.75-1.68c.466-.723.7-1.575.7-2.555 0-.91-.21-1.715-.63-2.415a4.29 4.29 0 0 0-1.645-1.645c-.7-.397-1.505-.595-2.415-.595-.864 0-1.645.21-2.345.63-.7.397-1.26.957-1.68 1.68-.397.7-.595 1.493-.595 2.38 0 .98.221 1.832.665 2.555a4.82 4.82 0 0 0 1.715 1.645c.723.373 1.481.56 2.275.56Zm20.565 3.885c-1.143 0-2.17-.222-3.08-.665a7.115 7.115 0 0 1-2.275-1.89 8.9 8.9 0 0 1-1.4-2.73 12.066 12.066 0 0 1-.455-3.36 11.72 11.72 0 0 1 .525-3.325c.327-1.05.794-1.96 1.4-2.73a6.714 6.714 0 0 1 2.275-1.855c.887-.443 1.89-.665 3.01-.665 1.074 0 2.077.222 3.01.665a7.839 7.839 0 0 1 2.52 1.855c.747.77 1.33 1.68 1.75 2.73.42 1.027.63 2.123.63 3.29 0 1.213-.21 2.357-.63 3.43a9.033 9.033 0 0 1-1.715 2.765 8.086 8.086 0 0 1-2.52 1.82 7.156 7.156 0 0 1-3.045.665Zm-.56-4.095c.817 0 1.552-.187 2.205-.56a4.246 4.246 0 0 0 1.54-1.61c.397-.677.595-1.447.595-2.31 0-.887-.198-1.668-.595-2.345a3.936 3.936 0 0 0-1.54-1.61c-.653-.397-1.388-.595-2.205-.595a4.1 4.1 0 0 0-2.17.595 4.535 4.535 0 0 0-1.575 1.61c-.373.677-.56 1.458-.56 2.345 0 .863.187 1.633.56 2.31a4.535 4.535 0 0 0 1.575 1.61c.654.373 1.377.56 2.17.56Zm-6.475 4.13c-.63 0-1.096-.105-1.4-.315-.303-.187-.49-.432-.56-.735a5.188 5.188 0 0 1-.105-1.085v-20.86c0-.397.035-.747.105-1.05.07-.327.257-.583.56-.77.304-.187.77-.28 1.4-.28.654 0 1.12.093 1.4.28.28.187.455.443.525.77s.105.677.105 1.05v21.56c-.093.513-.291.875-.595 1.085-.28.233-.758.35-1.435.35Zm32.112-.07c-.677 0-1.178-.128-1.505-.385-.327-.257-.49-.607-.49-1.05l.245-1.155c-.187.303-.502.665-.945 1.085-.443.397-1.027.758-1.75 1.085-.723.303-1.598.455-2.625.455a7.475 7.475 0 0 1-3.115-.665 8.772 8.772 0 0 1-2.555-1.89 10.295 10.295 0 0 1-1.75-2.765 8.962 8.962 0 0 1-.63-3.36c0-1.143.21-2.217.63-3.22a9.343 9.343 0 0 1 1.785-2.73 8.248 8.248 0 0 1 2.555-1.855c.98-.467 2.007-.7 3.08-.7.957 0 1.762.128 2.415.385.677.257 1.248.583 1.715.98.467.373.852.77 1.155 1.19l-.21-1.015c0-.513.163-.898.49-1.155.327-.28.84-.42 1.54-.42.653 0 1.12.105 1.4.315.28.187.455.455.525.805.07.327.105.7.105 1.12v12.81c0 .397-.035.758-.105 1.085-.07.327-.257.583-.56.77-.28.187-.747.28-1.4.28Zm-6.44-4.06c.793 0 1.505-.198 2.135-.595a4.343 4.343 0 0 0 1.505-1.61 4.6 4.6 0 0 0 .595-2.31c0-.91-.198-1.703-.595-2.38a4.25 4.25 0 0 0-1.575-1.575c-.63-.397-1.342-.595-2.135-.595-.863 0-1.633.21-2.31.63a4.363 4.363 0 0 0-1.61 1.645c-.373.677-.56 1.447-.56 2.31 0 .84.198 1.598.595 2.275a4.438 4.438 0 0 0 1.61 1.61c.7.397 1.482.595 2.345.595Zm14.082 4.13c-.63 0-1.097-.105-1.4-.315a1.194 1.194 0 0 1-.525-.77 5.188 5.188 0 0 1-.105-1.085v-12.985c0-.42.035-.782.105-1.085.07-.327.245-.572.525-.735.303-.187.781-.28 1.435-.28.63 0 1.085.082 1.365.245.303.163.49.373.56.63.093.233.14.467.14.7l-.28.63c.116-.187.28-.408.49-.665.21-.28.49-.548.84-.805.35-.28.77-.502 1.26-.665.49-.187 1.073-.28 1.75-.28.28 0 .571.035.875.105.326.047.641.128.945.245.326.093.618.222.875.385.256.163.455.362.595.595.14.21.21.455.21.735 0 .747-.187 1.377-.56 1.89-.374.513-.817.77-1.33.77-.35 0-.607-.035-.77-.105a1.793 1.793 0 0 1-.42-.245c-.094-.093-.245-.175-.455-.245-.187-.07-.49-.105-.91-.105-.35 0-.712.058-1.085.175-.35.117-.677.292-.98.525a2.57 2.57 0 0 0-.735.91c-.187.35-.28.758-.28 1.225v8.505c0 .397-.035.758-.105 1.085-.07.303-.257.548-.56.735-.304.187-.794.28-1.47.28Z"/>
</svg>
