<svg xmlns="http://www.w3.org/2000/svg" width="790" height="161" fill="none" viewBox="0 0 790 161">
  <path fill="#fff" d="M3.55 51V2.25h13V51h-13Zm21.31 0V12h24.18c5.677 0 9.793 1.43 12.35 4.29 2.556 2.86 3.835 6.738 3.835 11.635V51h-12.35V27.6c0-1.993-.347-3.402-1.04-4.225-.65-.867-1.928-1.3-3.835-1.3H37.21V51H24.86Zm69.375-13.65L83.64 35.27c-3.9-.78-6.89-2.145-8.97-4.095-2.037-1.95-3.055-4.55-3.055-7.8 0-1.517.281-2.968.845-4.355.606-1.387 1.516-2.6 2.73-3.64 1.256-1.04 2.838-1.863 4.745-2.47 1.95-.607 4.246-.91 6.89-.91h32.37v9.425H85.85c-1.3 0-2.167.195-2.6.585-.434.39-.65.823-.65 1.3 0 .52.195.975.585 1.365.39.39 1.061.672 2.015.845l9.62 1.885c4.766.953 8.168 2.383 10.205 4.29 2.08 1.863 3.12 4.355 3.12 7.475 0 3.51-1.344 6.37-4.03 8.58-2.644 2.167-6.674 3.25-12.09 3.25h-19.11v-9.425H93.78c1.386 0 2.34-.195 2.86-.585.52-.39.78-.888.78-1.495 0-.65-.304-1.127-.91-1.43-.564-.303-1.322-.542-2.275-.715Zm14.864-15.925V12h6.305V4.07h11.375V12h13.325v9.425h-13.325V37.22c0 1.647.346 2.795 1.04 3.445.693.607 1.82.91 3.38.91h8.905V51h-10.335c-5.374 0-9.23-1.127-11.57-3.38-2.297-2.297-3.445-5.763-3.445-10.4V21.425h-5.655Zm37.699 5.07c0-1.863.282-3.662.845-5.395a12.647 12.647 0 0 1 2.665-4.615c1.214-1.343 2.774-2.427 4.68-3.25 1.95-.823 4.269-1.235 6.955-1.235h11.44v9.425h-8.645c-2.21 0-3.705.39-4.485 1.17-.736.78-1.105 2.123-1.105 4.03V51h-12.35V26.495Zm59.373 14.43V12h12.35v39h-24.18c-5.677 0-9.794-1.43-12.35-4.29-2.557-2.86-3.835-6.738-3.835-11.635V12h12.35v23.4c0 1.993.325 3.423.975 4.29.693.823 1.993 1.235 3.9 1.235h10.79Zm38.63-19.5c-2.557 0-4.442.585-5.655 1.755-1.17 1.127-1.755 2.86-1.755 5.2v6.695c0 2.6.585 4.333 1.755 5.2 1.213.867 3.098 1.3 5.655 1.3h14.625V51h-15.015c-6.977 0-12.004-1.517-15.08-4.55-3.077-3.033-4.615-7.215-4.615-12.545V29.16c0-5.33 1.538-9.512 4.615-12.545 3.076-3.077 8.103-4.615 15.08-4.615h15.015v9.425h-14.625Zm39.101 0c-2.557 0-4.442.585-5.655 1.755-1.17 1.127-1.755 2.86-1.755 5.2v6.695c0 2.6.585 4.333 1.755 5.2 1.213.867 3.098 1.3 5.655 1.3h14.625V51h-15.015c-6.977 0-12.003-1.517-15.08-4.55s-4.615-7.215-4.615-12.545V29.16c0-5.33 1.538-9.512 4.615-12.545 3.077-3.077 8.103-4.615 15.08-4.615h15.015v9.425h-14.625ZM318.683 8.62h-12.35V.95h12.35v7.67ZM306.333 51V12h12.35v39h-12.35Zm61.755-21.84v4.68c0 5.417-1.646 9.75-4.94 13-3.25 3.207-7.908 4.81-13.975 4.81h-4.55c-6.066 0-10.746-1.603-14.04-4.81-3.293-3.25-4.94-7.583-4.94-13v-4.68c0-5.417 1.647-9.728 4.94-12.935 3.294-3.25 7.974-4.875 14.04-4.875h4.55c6.067 0 10.725 1.625 13.975 4.875 3.294 3.207 4.94 7.518 4.94 12.935Zm-12.675-1.04c0-2.513-.476-4.377-1.43-5.59-.91-1.257-2.556-1.885-4.94-1.885h-4.29c-2.383 0-4.051.628-5.005 1.885-.953 1.213-1.43 3.077-1.43 5.59v6.695c0 2.557.477 4.463 1.43 5.72.954 1.213 2.622 1.82 5.005 1.82h4.29c2.384 0 4.03-.607 4.94-1.82.954-1.257 1.43-3.163 1.43-5.72V28.12ZM374.235 51V12h24.18c5.677 0 9.793 1.43 12.35 4.29 2.557 2.86 3.835 6.738 3.835 11.635V51h-12.35V27.6c0-1.993-.347-3.402-1.04-4.225-.65-.867-1.928-1.3-3.835-1.3h-10.79V51h-12.35Zm86.99-15.86H433.34v.26c0 2.47.541 4.117 1.625 4.94 1.083.823 2.946 1.235 5.59 1.235h19.76V51H441.27c-3.814 0-7.042-.412-9.685-1.235-2.6-.867-4.702-2.058-6.305-3.575-1.56-1.56-2.709-3.423-3.445-5.59-.694-2.167-1.04-4.55-1.04-7.15v-4.94c0-5.157 1.495-9.273 4.485-12.35 2.99-3.12 7.886-4.68 14.69-4.68h2.6c3.64 0 6.673.433 9.1 1.3 2.426.867 4.333 2.102 5.72 3.705 1.43 1.56 2.426 3.445 2.99 5.655.563 2.21.845 4.658.845 7.345v5.655ZM444 20.19h-5.07c-2.08 0-3.532.455-4.355 1.365-.824.91-1.235 2.427-1.235 4.55v.845h16.185v-.845c0-2.123-.434-3.64-1.3-4.55-.824-.91-2.232-1.365-4.225-1.365Zm43.728 17.16-10.595-2.08c-3.9-.78-6.89-2.145-8.97-4.095-2.036-1.95-3.055-4.55-3.055-7.8 0-1.517.282-2.968.845-4.355.607-1.387 1.517-2.6 2.73-3.64 1.257-1.04 2.839-1.863 4.745-2.47 1.95-.607 4.247-.91 6.89-.91h19.37v9.425h-20.345c-1.3 0-2.166.195-2.6.585-.433.347-.65.802-.65 1.365s.195 1.018.585 1.365c.39.347 1.062.607 2.015.78l9.62 1.885c4.767.953 8.169 2.383 10.205 4.29 2.08 1.863 3.12 4.355 3.12 7.475 0 3.51-1.343 6.37-4.03 8.58-2.643 2.167-6.673 3.25-12.09 3.25h-32.11v-9.425h33.865c1.387 0 2.34-.195 2.86-.585.52-.433.78-.953.78-1.56 0-.65-.303-1.105-.91-1.365-.563-.303-1.321-.542-2.275-.715Zm-484.458 82c-.677 0-1.167-.105-1.47-.315a1.3 1.3 0 0 1-.595-.77 5.01 5.01 0 0 1-.105-1.05V97.02c0-.397.035-.758.105-1.085.093-.327.28-.583.56-.77.303-.187.793-.28 1.47-.28.653 0 1.12.093 1.4.28.303.187.49.443.56.77.093.327.14.688.14 1.085v18.55H16.01c.35 0 .665.035.945.105.28.047.502.21.665.49.163.257.245.677.245 1.26s-.082 1.015-.245 1.295c-.163.257-.385.42-.665.49-.28.093-.595.14-.945.14H3.27Zm25.533.21c-1.516 0-2.846-.245-3.99-.735-1.12-.49-2.065-1.155-2.835-1.995a9.477 9.477 0 0 1-1.715-2.87 10.051 10.051 0 0 1-.56-3.325c0-1.68.385-3.173 1.155-4.48a8.25 8.25 0 0 1 3.185-3.08c1.377-.747 2.952-1.12 4.725-1.12 1.26 0 2.369.198 3.325.595.957.397 1.75.922 2.38 1.575a6.356 6.356 0 0 1 1.47 2.1c.35.77.525 1.517.525 2.24 0 1.237-.303 2.135-.91 2.695-.583.56-1.318.84-2.205.84h-9.24c.024.793.269 1.482.735 2.065a5.068 5.068 0 0 0 1.82 1.365 6.003 6.003 0 0 0 2.275.455 9.97 9.97 0 0 0 1.54-.105 9.6 9.6 0 0 0 1.19-.245c.327-.117.607-.233.84-.35.257-.117.49-.222.7-.315a2.13 2.13 0 0 1 .595-.175c.257-.023.514.035.77.175.257.14.467.385.63.735.14.233.234.455.28.665.07.187.105.373.105.56 0 .467-.28.91-.84 1.33-.56.397-1.353.723-2.38.98-1.003.28-2.193.42-3.57.42Zm-4.69-10.045h7.175c.397 0 .7-.058.91-.175.21-.14.315-.42.315-.84 0-.537-.163-1.015-.49-1.435-.326-.443-.77-.782-1.33-1.015-.56-.257-1.213-.385-1.96-.385-.863 0-1.645.175-2.345.525-.7.327-1.26.782-1.68 1.365a3.407 3.407 0 0 0-.595 1.96ZM47.67 119.56c-1.516 0-2.846-.245-3.99-.735-1.12-.49-2.065-1.155-2.834-1.995a9.475 9.475 0 0 1-1.715-2.87 10.051 10.051 0 0 1-.56-3.325c0-1.68.385-3.173 1.154-4.48a8.25 8.25 0 0 1 3.185-3.08c1.377-.747 2.952-1.12 4.726-1.12 1.26 0 2.368.198 3.325.595.956.397 1.75.922 2.38 1.575a6.36 6.36 0 0 1 1.47 2.1c.35.77.525 1.517.525 2.24 0 1.237-.304 2.135-.91 2.695-.584.56-1.319.84-2.206.84h-9.24c.024.793.269 1.482.736 2.065a5.068 5.068 0 0 0 1.82 1.365 6.003 6.003 0 0 0 2.274.455 9.98 9.98 0 0 0 1.54-.105 9.6 9.6 0 0 0 1.19-.245c.327-.117.607-.233.84-.35.257-.117.49-.222.7-.315.21-.093.409-.152.596-.175.256-.023.513.035.77.175.256.14.466.385.63.735.14.233.233.455.28.665.07.187.105.373.105.56 0 .467-.28.91-.84 1.33-.56.397-1.354.723-2.38.98-1.004.28-2.194.42-3.57.42Zm-4.69-10.045h7.176c.396 0 .7-.058.91-.175.21-.14.314-.42.314-.84 0-.537-.163-1.015-.49-1.435-.326-.443-.77-.782-1.33-1.015-.56-.257-1.213-.385-1.96-.385-.863 0-1.645.175-2.345.525-.7.327-1.26.782-1.68 1.365a3.406 3.406 0 0 0-.595 1.96Zm40.203 9.905a9.956 9.956 0 0 1-3.29-.56 9.478 9.478 0 0 1-2.87-1.715 8.531 8.531 0 0 1-2.03-2.73c-.49-1.097-.735-2.333-.735-3.71 0-1.377.245-2.602.735-3.675a8.531 8.531 0 0 1 2.03-2.73 9.042 9.042 0 0 1 2.835-1.715 9.13 9.13 0 0 1 3.255-.595 7.49 7.49 0 0 1 2.31.35c.747.233 1.388.513 1.925.84.537.327.922.653 1.155.98.303.28.56.548.77.805.21.257.28.572.21.945-.07.233-.175.455-.315.665-.14.187-.315.385-.525.595-.56.63-1.108.863-1.645.7a17.7 17.7 0 0 1-.91-.525 12.05 12.05 0 0 0-.945-.525 5.021 5.021 0 0 0-.945-.455 3.199 3.199 0 0 0-1.085-.175c-.886 0-1.68.198-2.38.595a4.17 4.17 0 0 0-1.61 1.575c-.373.677-.56 1.458-.56 2.345 0 .887.187 1.68.56 2.38a4.438 4.438 0 0 0 1.61 1.61c.677.373 1.447.56 2.31.56.42 0 .817-.047 1.19-.14a5.51 5.51 0 0 0 1.05-.42c.303-.187.549-.373.735-.56.257-.163.49-.315.7-.455.21-.14.432-.21.665-.21.28 0 .549.105.805.315.28.187.584.49.91.91.303.35.467.688.49 1.015a1.38 1.38 0 0 1-.21.945c-.163.303-.443.583-.84.84-.28.28-.7.572-1.26.875a10.31 10.31 0 0 1-1.89.735c-.7.21-1.435.315-2.205.315Zm17.459.14a8.96 8.96 0 0 1-3.29-.63 9.921 9.921 0 0 1-2.87-1.855 9.377 9.377 0 0 1-2.03-2.8c-.49-1.073-.734-2.252-.734-3.535 0-1.237.233-2.392.7-3.465a9.112 9.112 0 0 1 1.924-2.835 8.717 8.717 0 0 1 2.8-1.89 8.502 8.502 0 0 1 3.43-.7c1.634 0 3.115.397 4.445 1.19a8.768 8.768 0 0 1 3.185 3.15c.794 1.33 1.19 2.835 1.19 4.515 0 1.33-.245 2.543-.735 3.64a8.888 8.888 0 0 1-1.995 2.8 9.244 9.244 0 0 1-2.835 1.785 8.332 8.332 0 0 1-3.185.63Zm-.07-4.13c.77 0 1.505-.187 2.205-.56a4.645 4.645 0 0 0 1.75-1.68c.467-.723.7-1.575.7-2.555 0-.91-.21-1.715-.63-2.415a4.284 4.284 0 0 0-1.645-1.645c-.7-.397-1.505-.595-2.415-.595a4.47 4.47 0 0 0-2.345.63c-.7.397-1.26.957-1.68 1.68-.396.7-.594 1.493-.594 2.38 0 .98.221 1.832.664 2.555a4.823 4.823 0 0 0 1.716 1.645c.723.373 1.481.56 2.274.56Zm13.636 3.885c-.63 0-1.096-.105-1.4-.315a1.185 1.185 0 0 1-.525-.735 5.188 5.188 0 0 1-.105-1.085v-13.09c0-.373.035-.712.105-1.015.07-.303.257-.537.56-.7.304-.187.77-.28 1.4-.28.56 0 .98.07 1.26.21.28.14.467.315.56.525.094.21.14.42.14.63.024.21.047.373.07.49l-.14 1.12c.14-.373.374-.735.7-1.085a5.47 5.47 0 0 1 1.19-.945 5.915 5.915 0 0 1 1.505-.7 5.382 5.382 0 0 1 1.715-.28c1.097 0 2.077.198 2.94.595a6.24 6.24 0 0 1 2.205 1.68c.63.723 1.109 1.587 1.435 2.59.327.98.49 2.088.49 3.325v6.965c0 .397-.046.758-.14 1.085-.07.303-.245.548-.525.735-.28.187-.758.28-1.435.28-.653 0-1.131-.105-1.435-.315-.303-.187-.49-.432-.56-.735a5.188 5.188 0 0 1-.105-1.085v-6.965c0-.84-.151-1.563-.455-2.17a3.064 3.064 0 0 0-1.26-1.4c-.536-.327-1.225-.49-2.065-.49-.816 0-1.528.175-2.135.525a3.38 3.38 0 0 0-1.4 1.4c-.326.607-.49 1.318-.49 2.135v7c0 .397-.035.758-.105 1.085-.07.303-.256.548-.56.735-.28.187-.758.28-1.435.28Zm40.21-.035c-.677 0-1.178-.128-1.505-.385-.327-.257-.49-.607-.49-1.05l.245-1.155c-.187.303-.502.665-.945 1.085-.443.397-1.027.758-1.75 1.085-.723.303-1.598.455-2.625.455a7.475 7.475 0 0 1-3.115-.665 8.772 8.772 0 0 1-2.555-1.89 10.295 10.295 0 0 1-1.75-2.765 8.962 8.962 0 0 1-.63-3.36c0-1.143.21-2.217.63-3.22a9.343 9.343 0 0 1 1.785-2.73 8.248 8.248 0 0 1 2.555-1.855c.98-.467 2.007-.7 3.08-.7.957 0 1.762.128 2.415.385.677.257 1.248.583 1.715.98.467.373.852.77 1.155 1.19l-.21-1.015c0-.513.163-.898.49-1.155.327-.28.84-.42 1.54-.42.653 0 1.12.105 1.4.315.28.187.455.455.525.805.07.327.105.7.105 1.12v12.81c0 .397-.035.758-.105 1.085-.07.327-.257.583-.56.77-.28.187-.747.28-1.4.28Zm-6.44-4.06c.793 0 1.505-.198 2.135-.595a4.343 4.343 0 0 0 1.505-1.61 4.6 4.6 0 0 0 .595-2.31c0-.91-.198-1.703-.595-2.38a4.25 4.25 0 0 0-1.575-1.575c-.63-.397-1.342-.595-2.135-.595-.863 0-1.633.21-2.31.63a4.363 4.363 0 0 0-1.61 1.645c-.373.677-.56 1.447-.56 2.31 0 .84.198 1.598.595 2.275a4.438 4.438 0 0 0 1.61 1.61c.7.397 1.482.595 2.345.595Zm20.522 4.13c-1.144 0-2.124-.117-2.94-.35-.817-.233-1.482-.595-1.995-1.085-.514-.49-.899-1.12-1.155-1.89-.234-.793-.35-1.727-.35-2.8v-14.84c0-.42.035-.782.105-1.085.093-.303.28-.537.56-.7.303-.187.77-.28 1.4-.28.653 0 1.12.093 1.4.28.303.187.49.443.56.77.093.303.14.642.14 1.015v14.7c0 .49.035.887.105 1.19.093.303.221.537.385.7.186.14.42.245.7.315.303.047.665.07 1.085.07.443 0 .816.035 1.12.105.326.07.571.245.735.525.163.257.245.688.245 1.295 0 .653-.105 1.132-.315 1.435-.187.28-.444.455-.77.525-.304.07-.642.105-1.015.105Zm-7.875-16.905 3.605.035 4.83-.14c.396 0 .746.047 1.05.14.326.07.583.257.77.56.186.28.28.747.28 1.4 0 .607-.094 1.062-.28 1.365-.187.303-.432.502-.735.595-.304.07-.654.105-1.05.105l-4.69-.07-3.885.035c-.584-.023-.992-.187-1.225-.49-.21-.327-.315-.852-.315-1.575 0-.677.128-1.167.385-1.47.28-.327.7-.49 1.26-.49Zm21.474 17.115c-1.516 0-2.846-.245-3.99-.735-1.12-.49-2.065-1.155-2.835-1.995a9.495 9.495 0 0 1-1.715-2.87 10.059 10.059 0 0 1-.56-3.325c0-1.68.385-3.173 1.155-4.48a8.251 8.251 0 0 1 3.185-3.08c1.377-.747 2.952-1.12 4.725-1.12 1.26 0 2.369.198 3.325.595.957.397 1.75.922 2.38 1.575a6.339 6.339 0 0 1 1.47 2.1c.35.77.525 1.517.525 2.24 0 1.237-.303 2.135-.91 2.695-.583.56-1.318.84-2.205.84h-9.24c.024.793.269 1.482.735 2.065a5.07 5.07 0 0 0 1.82 1.365 6.004 6.004 0 0 0 2.275.455 9.97 9.97 0 0 0 1.54-.105 9.6 9.6 0 0 0 1.19-.245c.327-.117.607-.233.84-.35.257-.117.49-.222.7-.315a2.13 2.13 0 0 1 .595-.175c.257-.023.514.035.77.175.257.14.467.385.63.735.14.233.234.455.28.665.07.187.105.373.105.56 0 .467-.28.91-.84 1.33-.56.397-1.353.723-2.38.98-1.003.28-2.193.42-3.57.42Zm-4.69-10.045h7.175c.397 0 .7-.058.91-.175.21-.14.315-.42.315-.84 0-.537-.163-1.015-.49-1.435-.326-.443-.77-.782-1.33-1.015-.56-.257-1.213-.385-1.96-.385-.863 0-1.645.175-2.345.525-.7.327-1.26.782-1.68 1.365a3.412 3.412 0 0 0-.595 1.96Zm17.292 9.8c-.63 0-1.096-.105-1.4-.315a1.185 1.185 0 0 1-.525-.735 5.188 5.188 0 0 1-.105-1.085v-13.09c0-.373.035-.712.105-1.015.07-.303.257-.537.56-.7.304-.187.77-.28 1.4-.28.56 0 .98.07 1.26.21.28.14.467.315.56.525.094.21.14.42.14.63.024.21.047.373.07.49l-.14 1.12c.14-.373.374-.735.7-1.085a5.47 5.47 0 0 1 1.19-.945 5.915 5.915 0 0 1 1.505-.7 5.382 5.382 0 0 1 1.715-.28c1.097 0 2.077.198 2.94.595a6.24 6.24 0 0 1 2.205 1.68c.63.723 1.109 1.587 1.435 2.59.327.98.49 2.088.49 3.325v6.965c0 .397-.046.758-.14 1.085-.07.303-.245.548-.525.735-.28.187-.758.28-1.435.28-.653 0-1.131-.105-1.435-.315-.303-.187-.49-.432-.56-.735a5.188 5.188 0 0 1-.105-1.085v-6.965c0-.84-.151-1.563-.455-2.17a3.064 3.064 0 0 0-1.26-1.4c-.536-.327-1.225-.49-2.065-.49-.816 0-1.528.175-2.135.525a3.38 3.38 0 0 0-1.4 1.4c-.326.607-.49 1.318-.49 2.135v7c0 .397-.035.758-.105 1.085-.07.303-.256.548-.56.735-.28.187-.758.28-1.435.28Zm25.85.105a9.96 9.96 0 0 1-3.29-.56 9.487 9.487 0 0 1-2.87-1.715 8.542 8.542 0 0 1-2.03-2.73c-.49-1.097-.735-2.333-.735-3.71 0-1.377.245-2.602.735-3.675a8.542 8.542 0 0 1 2.03-2.73 9.042 9.042 0 0 1 2.835-1.715 9.13 9.13 0 0 1 3.255-.595c.817 0 1.587.117 2.31.35.747.233 1.389.513 1.925.84.537.327.922.653 1.155.98.304.28.56.548.77.805.21.257.28.572.21.945-.07.233-.175.455-.315.665-.14.187-.315.385-.525.595-.56.63-1.108.863-1.645.7a18.136 18.136 0 0 1-.91-.525 11.942 11.942 0 0 0-.945-.525 5.004 5.004 0 0 0-.945-.455 3.195 3.195 0 0 0-1.085-.175c-.886 0-1.68.198-2.38.595a4.177 4.177 0 0 0-1.61 1.575c-.373.677-.56 1.458-.56 2.345 0 .887.187 1.68.56 2.38a4.446 4.446 0 0 0 1.61 1.61c.677.373 1.447.56 2.31.56.42 0 .817-.047 1.19-.14a5.495 5.495 0 0 0 1.05-.42 3.97 3.97 0 0 0 .735-.56c.257-.163.49-.315.7-.455.21-.14.432-.21.665-.21.28 0 .549.105.805.315.28.187.584.49.91.91.304.35.467.688.49 1.015a1.38 1.38 0 0 1-.21.945c-.163.303-.443.583-.84.84-.28.28-.7.572-1.26.875a10.27 10.27 0 0 1-1.89.735c-.7.21-1.435.315-2.205.315Zm11.65-.07c-.63 0-1.097-.105-1.4-.315-.304-.187-.49-.432-.56-.735a5.188 5.188 0 0 1-.105-1.085v-13.02c0-.373.035-.712.105-1.015.093-.327.28-.583.56-.77.303-.187.781-.28 1.435-.28.653 0 1.12.093 1.4.28.303.187.49.443.56.77.07.327.105.688.105 1.085v12.985c0 .397-.035.758-.105 1.085-.07.303-.257.548-.56.735-.28.187-.759.28-1.435.28Zm0-20.615c-.677 0-1.179-.093-1.505-.28a1.443 1.443 0 0 1-.595-.84 5.9 5.9 0 0 1-.105-1.155c0-.443.035-.828.105-1.155.093-.327.303-.583.63-.77.326-.21.828-.315 1.505-.315.7 0 1.201.105 1.505.315.303.21.501.49.595.84.093.327.14.712.14 1.155 0 .397-.047.77-.14 1.12a1.31 1.31 0 0 1-.595.805c-.304.187-.817.28-1.54.28Zm13.979 20.825c-1.12 0-2.217-.21-3.29-.63a9.917 9.917 0 0 1-2.87-1.855 9.372 9.372 0 0 1-2.03-2.8c-.49-1.073-.735-2.252-.735-3.535 0-1.237.233-2.392.7-3.465a9.096 9.096 0 0 1 1.925-2.835 8.71 8.71 0 0 1 2.8-1.89 8.5 8.5 0 0 1 3.43-.7c1.633 0 3.115.397 4.445 1.19a8.775 8.775 0 0 1 3.185 3.15c.793 1.33 1.19 2.835 1.19 4.515 0 1.33-.245 2.543-.735 3.64a8.888 8.888 0 0 1-1.995 2.8 9.244 9.244 0 0 1-2.835 1.785 8.34 8.34 0 0 1-3.185.63Zm-.07-4.13c.77 0 1.505-.187 2.205-.56a4.66 4.66 0 0 0 1.75-1.68c.466-.723.7-1.575.7-2.555 0-.91-.21-1.715-.63-2.415a4.29 4.29 0 0 0-1.645-1.645c-.7-.397-1.505-.595-2.415-.595-.864 0-1.645.21-2.345.63-.7.397-1.26.957-1.68 1.68-.397.7-.595 1.493-.595 2.38 0 .98.221 1.832.665 2.555a4.82 4.82 0 0 0 1.715 1.645c.723.373 1.481.56 2.275.56Zm-1.12-15.12c-.374.07-.689 0-.945-.21-.234-.21-.432-.583-.595-1.12-.21-.653-.257-1.143-.14-1.47.14-.35.501-.618 1.085-.805l5.88-1.855c.373-.07.676.012.91.245.256.21.455.583.595 1.12.233.63.268 1.12.105 1.47-.14.327-.49.583-1.05.77l-5.845 1.855Zm14.755 19.005c-.63 0-1.096-.105-1.4-.315a1.185 1.185 0 0 1-.525-.735 5.188 5.188 0 0 1-.105-1.085v-13.09c0-.373.035-.712.105-1.015.07-.303.257-.537.56-.7.304-.187.77-.28 1.4-.28.56 0 .98.07 1.26.21.28.14.467.315.56.525.094.21.14.42.14.63.024.21.047.373.07.49l-.14 1.12c.14-.373.374-.735.7-1.085a5.47 5.47 0 0 1 1.19-.945 5.915 5.915 0 0 1 1.505-.7 5.382 5.382 0 0 1 1.715-.28c1.097 0 2.077.198 2.94.595a6.24 6.24 0 0 1 2.205 1.68c.63.723 1.109 1.587 1.435 2.59.327.98.49 2.088.49 3.325v6.965c0 .397-.046.758-.14 1.085-.07.303-.245.548-.525.735-.28.187-.758.28-1.435.28-.653 0-1.131-.105-1.435-.315-.303-.187-.49-.432-.56-.735a5.188 5.188 0 0 1-.105-1.085v-6.965c0-.84-.151-1.563-.455-2.17a3.064 3.064 0 0 0-1.26-1.4c-.536-.327-1.225-.49-2.065-.49-.816 0-1.528.175-2.135.525a3.38 3.38 0 0 0-1.4 1.4c-.326.607-.49 1.318-.49 2.135v7c0 .397-.035.758-.105 1.085-.07.303-.256.548-.56.735-.28.187-.758.28-1.435.28Zm33.814.105a9.96 9.96 0 0 1-3.29-.56 9.487 9.487 0 0 1-2.87-1.715 8.542 8.542 0 0 1-2.03-2.73c-.49-1.097-.735-2.333-.735-3.71 0-1.377.245-2.602.735-3.675a8.542 8.542 0 0 1 2.03-2.73 9.042 9.042 0 0 1 2.835-1.715 9.13 9.13 0 0 1 3.255-.595c.817 0 1.587.117 2.31.35.747.233 1.389.513 1.925.84.537.327.922.653 1.155.98.304.28.56.548.77.805.21.257.28.572.21.945-.07.233-.175.455-.315.665-.14.187-.315.385-.525.595-.56.63-1.108.863-1.645.7a18.136 18.136 0 0 1-.91-.525 11.942 11.942 0 0 0-.945-.525 5.004 5.004 0 0 0-.945-.455 3.195 3.195 0 0 0-1.085-.175c-.886 0-1.68.198-2.38.595a4.177 4.177 0 0 0-1.61 1.575c-.373.677-.56 1.458-.56 2.345 0 .887.187 1.68.56 2.38a4.446 4.446 0 0 0 1.61 1.61c.677.373 1.447.56 2.31.56.42 0 .817-.047 1.19-.14a5.495 5.495 0 0 0 1.05-.42 3.97 3.97 0 0 0 .735-.56c.257-.163.49-.315.7-.455.21-.14.432-.21.665-.21.28 0 .549.105.805.315.28.187.584.49.91.91.304.35.467.688.49 1.015a1.38 1.38 0 0 1-.21.945c-.163.303-.443.583-.84.84-.28.28-.7.572-1.26.875a10.27 10.27 0 0 1-1.89.735c-.7.21-1.435.315-2.205.315Zm23.759-.14c-.676 0-1.178-.128-1.505-.385-.326-.257-.49-.607-.49-1.05l.245-1.155c-.186.303-.501.665-.945 1.085-.443.397-1.026.758-1.75 1.085-.723.303-1.598.455-2.625.455a7.478 7.478 0 0 1-3.115-.665 8.786 8.786 0 0 1-2.555-1.89 10.32 10.32 0 0 1-1.75-2.765 8.962 8.962 0 0 1-.63-3.36c0-1.143.21-2.217.63-3.22a9.383 9.383 0 0 1 1.785-2.73 8.26 8.26 0 0 1 2.555-1.855c.98-.467 2.007-.7 3.08-.7.957 0 1.762.128 2.415.385.677.257 1.249.583 1.715.98.467.373.852.77 1.155 1.19l-.21-1.015c0-.513.164-.898.49-1.155.327-.28.84-.42 1.54-.42.654 0 1.12.105 1.4.315.28.187.455.455.525.805.07.327.105.7.105 1.12v12.81c0 .397-.035.758-.105 1.085-.07.327-.256.583-.56.77-.28.187-.746.28-1.4.28Zm-6.44-4.06c.794 0 1.505-.198 2.135-.595a4.343 4.343 0 0 0 1.505-1.61 4.6 4.6 0 0 0 .595-2.31c0-.91-.198-1.703-.595-2.38a4.236 4.236 0 0 0-1.575-1.575c-.63-.397-1.341-.595-2.135-.595-.863 0-1.633.21-2.31.63a4.37 4.37 0 0 0-1.61 1.645c-.373.677-.56 1.447-.56 2.31 0 .84.199 1.598.595 2.275a4.446 4.446 0 0 0 1.61 1.61c.7.397 1.482.595 2.345.595Zm19.437 4.095a7.163 7.163 0 0 1-3.045-.665 8.109 8.109 0 0 1-2.52-1.82 9.052 9.052 0 0 1-1.715-2.765 9.328 9.328 0 0 1-.63-3.43c0-1.167.21-2.263.63-3.29.42-1.05.992-1.96 1.715-2.73a8.26 8.26 0 0 1 2.555-1.855 7.083 7.083 0 0 1 3.01-.665c1.12 0 2.124.222 3.01.665a6.367 6.367 0 0 1 2.24 1.855c.63.77 1.109 1.68 1.435 2.73a11.65 11.65 0 0 1 .525 3.325c0 1.19-.163 2.31-.49 3.36a7.961 7.961 0 0 1-1.4 2.73 6.636 6.636 0 0 1-2.275 1.89c-.886.443-1.901.665-3.045.665Zm.56-4.095c.817 0 1.54-.187 2.17-.56a4.246 4.246 0 0 0 1.54-1.61c.397-.677.595-1.447.595-2.31 0-.887-.198-1.668-.595-2.345a4.246 4.246 0 0 0-1.54-1.61c-.63-.397-1.353-.595-2.17-.595-.816 0-1.551.198-2.205.595-.653.373-1.178.91-1.575 1.61-.373.677-.56 1.458-.56 2.345 0 .863.187 1.633.56 2.31a4.535 4.535 0 0 0 1.575 1.61c.677.373 1.412.56 2.205.56Zm6.475 4.095c-.653 0-1.131-.105-1.435-.315-.303-.233-.501-.595-.595-1.085v-21.56c0-.397.024-.747.07-1.05.07-.327.245-.583.525-.77.304-.21.77-.315 1.4-.315.677 0 1.155.093 1.435.28.28.187.455.443.525.77.094.303.14.653.14 1.05v20.86c0 .397-.035.758-.105 1.085-.07.327-.256.583-.56.77-.28.187-.746.28-1.4.28Zm19.685-.035c-.676 0-1.178-.128-1.505-.385-.326-.257-.49-.607-.49-1.05l.245-1.155c-.186.303-.501.665-.945 1.085-.443.397-1.026.758-1.75 1.085-.723.303-1.598.455-2.625.455a7.478 7.478 0 0 1-3.115-.665 8.786 8.786 0 0 1-2.555-1.89 10.32 10.32 0 0 1-1.75-2.765 8.962 8.962 0 0 1-.63-3.36c0-1.143.21-2.217.63-3.22a9.383 9.383 0 0 1 1.785-2.73 8.26 8.26 0 0 1 2.555-1.855c.98-.467 2.007-.7 3.08-.7.957 0 1.762.128 2.415.385.677.257 1.249.583 1.715.98.467.373.852.77 1.155 1.19l-.21-1.015c0-.513.164-.898.49-1.155.327-.28.84-.42 1.54-.42.654 0 1.12.105 1.4.315.28.187.455.455.525.805.07.327.105.7.105 1.12v12.81c0 .397-.035.758-.105 1.085-.07.327-.256.583-.56.77-.28.187-.746.28-1.4.28Zm-6.44-4.06c.794 0 1.505-.198 2.135-.595a4.343 4.343 0 0 0 1.505-1.61 4.6 4.6 0 0 0 .595-2.31c0-.91-.198-1.703-.595-2.38a4.236 4.236 0 0 0-1.575-1.575c-.63-.397-1.341-.595-2.135-.595-.863 0-1.633.21-2.31.63a4.37 4.37 0 0 0-1.61 1.645c-.373.677-.56 1.447-.56 2.31 0 .84.199 1.598.595 2.275a4.446 4.446 0 0 0 1.61 1.61c.7.397 1.482.595 2.345.595Zm27.839 4.095c-1.074 0-2.065-.187-2.975-.56a7.224 7.224 0 0 1-2.345-1.68c-.677-.723-1.202-1.587-1.575-2.59-.374-1.003-.56-2.112-.56-3.325v-6.965c0-.397.035-.747.105-1.05.07-.327.256-.583.56-.77.303-.187.77-.28 1.4-.28.676 0 1.155.093 1.435.28.303.187.49.443.56.77.07.327.105.688.105 1.085v6.93c0 .84.14 1.563.42 2.17a3.499 3.499 0 0 0 1.295 1.435c.56.327 1.248.49 2.065.49.84 0 1.551-.163 2.135-.49a3.604 3.604 0 0 0 1.4-1.435c.326-.63.49-1.353.49-2.17v-7c0-.397.035-.747.105-1.05a1.05 1.05 0 0 1 .56-.735c.303-.187.781-.28 1.435-.28.653 0 1.12.093 1.4.28.28.187.455.443.525.77.093.327.14.677.14 1.05v13.125c0 .35-.047.677-.14.98-.07.303-.257.548-.56.735-.28.187-.747.28-1.4.28-.467 0-.84-.058-1.12-.175a1.386 1.386 0 0 1-.595-.385 1.925 1.925 0 0 1-.245-.56 4.386 4.386 0 0 1-.035-.56l.28-.945c-.14.21-.35.467-.63.77-.28.28-.63.572-1.05.875-.397.28-.864.513-1.4.7a5.4 5.4 0 0 1-1.785.28Zm14.202 0c-.63 0-1.097-.105-1.4-.315a1.185 1.185 0 0 1-.525-.735 5.188 5.188 0 0 1-.105-1.085v-13.09c0-.373.035-.712.105-1.015.07-.303.257-.537.56-.7.303-.187.77-.28 1.4-.28.56 0 .98.07 1.26.21.28.14.467.315.56.525.093.21.14.42.14.63.023.21.047.373.07.49l-.14 1.12c.14-.373.373-.735.7-1.085.327-.35.723-.665 1.19-.945a5.899 5.899 0 0 1 1.505-.7 5.382 5.382 0 0 1 1.715-.28c1.097 0 2.077.198 2.94.595a6.258 6.258 0 0 1 2.205 1.68c.63.723 1.108 1.587 1.435 2.59.327.98.49 2.088.49 3.325v6.965c0 .397-.047.758-.14 1.085-.07.303-.245.548-.525.735-.28.187-.758.28-1.435.28-.653 0-1.132-.105-1.435-.315-.303-.187-.49-.432-.56-.735a5.188 5.188 0 0 1-.105-1.085v-6.965c0-.84-.152-1.563-.455-2.17a3.064 3.064 0 0 0-1.26-1.4c-.537-.327-1.225-.49-2.065-.49-.817 0-1.528.175-2.135.525a3.374 3.374 0 0 0-1.4 1.4c-.327.607-.49 1.318-.49 2.135v7c0 .397-.035.758-.105 1.085-.07.303-.257.548-.56.735-.28.187-.758.28-1.435.28Zm31.87-.035c-.677 0-1.178-.128-1.505-.385-.327-.257-.49-.607-.49-1.05l.245-1.155c-.187.303-.502.665-.945 1.085-.443.397-1.027.758-1.75 1.085-.723.303-1.598.455-2.625.455a7.475 7.475 0 0 1-3.115-.665 8.772 8.772 0 0 1-2.555-1.89 10.295 10.295 0 0 1-1.75-2.765 8.962 8.962 0 0 1-.63-3.36c0-1.143.21-2.217.63-3.22a9.343 9.343 0 0 1 1.785-2.73 8.248 8.248 0 0 1 2.555-1.855c.98-.467 2.007-.7 3.08-.7.957 0 1.762.128 2.415.385.677.257 1.248.583 1.715.98.467.373.852.77 1.155 1.19l-.21-1.015c0-.513.163-.898.49-1.155.327-.28.84-.42 1.54-.42.653 0 1.12.105 1.4.315.28.187.455.455.525.805.07.327.105.7.105 1.12v12.81c0 .397-.035.758-.105 1.085-.07.327-.257.583-.56.77-.28.187-.747.28-1.4.28Zm-6.44-4.06c.793 0 1.505-.198 2.135-.595a4.343 4.343 0 0 0 1.505-1.61 4.6 4.6 0 0 0 .595-2.31c0-.91-.198-1.703-.595-2.38a4.25 4.25 0 0 0-1.575-1.575c-.63-.397-1.342-.595-2.135-.595-.863 0-1.633.21-2.31.63a4.363 4.363 0 0 0-1.61 1.645c-.373.677-.56 1.447-.56 2.31 0 .84.198 1.598.595 2.275a4.438 4.438 0 0 0 1.61 1.61c.7.397 1.482.595 2.345.595Zm28.118 4.095a7.163 7.163 0 0 1-3.045-.665 8.109 8.109 0 0 1-2.52-1.82 9.052 9.052 0 0 1-1.715-2.765 9.328 9.328 0 0 1-.63-3.43c0-1.167.21-2.263.63-3.29.42-1.05.992-1.96 1.715-2.73a8.26 8.26 0 0 1 2.555-1.855 7.083 7.083 0 0 1 3.01-.665c1.12 0 2.124.222 3.01.665a6.367 6.367 0 0 1 2.24 1.855c.63.77 1.109 1.68 1.435 2.73a11.65 11.65 0 0 1 .525 3.325c0 1.19-.163 2.31-.49 3.36a7.961 7.961 0 0 1-1.4 2.73 6.636 6.636 0 0 1-2.275 1.89c-.886.443-1.901.665-3.045.665Zm.56-4.095c.817 0 1.54-.187 2.17-.56a4.246 4.246 0 0 0 1.54-1.61c.397-.677.595-1.447.595-2.31 0-.887-.198-1.668-.595-2.345a4.246 4.246 0 0 0-1.54-1.61c-.63-.397-1.353-.595-2.17-.595-.816 0-1.551.198-2.205.595-.653.373-1.178.91-1.575 1.61-.373.677-.56 1.458-.56 2.345 0 .863.187 1.633.56 2.31a4.535 4.535 0 0 0 1.575 1.61c.677.373 1.412.56 2.205.56Zm6.475 4.095c-.653 0-1.131-.105-1.435-.315-.303-.233-.501-.595-.595-1.085v-21.56c0-.397.024-.747.07-1.05.07-.327.245-.583.525-.77.304-.21.77-.315 1.4-.315.677 0 1.155.093 1.435.28.28.187.455.443.525.77.094.303.14.653.14 1.05v20.86c0 .397-.035.758-.105 1.085-.07.327-.256.583-.56.77-.28.187-.746.28-1.4.28Zm14.007.245c-1.516 0-2.846-.245-3.99-.735-1.12-.49-2.065-1.155-2.835-1.995a9.495 9.495 0 0 1-1.715-2.87 10.059 10.059 0 0 1-.56-3.325c0-1.68.385-3.173 1.155-4.48a8.251 8.251 0 0 1 3.185-3.08c1.377-.747 2.952-1.12 4.725-1.12 1.26 0 2.369.198 3.325.595.957.397 1.75.922 2.38 1.575a6.339 6.339 0 0 1 1.47 2.1c.35.77.525 1.517.525 2.24 0 1.237-.303 2.135-.91 2.695-.583.56-1.318.84-2.205.84h-9.24c.024.793.269 1.482.735 2.065a5.07 5.07 0 0 0 1.82 1.365 6.004 6.004 0 0 0 2.275.455 9.97 9.97 0 0 0 1.54-.105 9.6 9.6 0 0 0 1.19-.245c.327-.117.607-.233.84-.35.257-.117.49-.222.7-.315a2.13 2.13 0 0 1 .595-.175c.257-.023.514.035.77.175.257.14.467.385.63.735.14.233.234.455.28.665.07.187.105.373.105.56 0 .467-.28.91-.84 1.33-.56.397-1.353.723-2.38.98-1.003.28-2.193.42-3.57.42Zm-4.69-10.045h7.175c.397 0 .7-.058.91-.175.21-.14.315-.42.315-.84 0-.537-.163-1.015-.49-1.435-.326-.443-.77-.782-1.33-1.015-.56-.257-1.213-.385-1.96-.385-.863 0-1.645.175-2.345.525-.7.327-1.26.782-1.68 1.365a3.412 3.412 0 0 0-.595 1.96Zm29.929 9.835c-.863 0-1.633-.058-2.31-.175-.653-.117-1.225-.315-1.715-.595a3.52 3.52 0 0 1-1.155-1.12c-.303-.49-.537-1.085-.7-1.785-.14-.7-.21-1.54-.21-2.52v-16.87c0-.397.035-.747.105-1.05.093-.327.28-.583.56-.77.303-.21.782-.315 1.435-.315s1.12.093 1.4.28c.303.187.49.443.56.77.093.303.14.653.14 1.05v16.73c0 .443.023.817.07 1.12.07.28.175.513.315.7.163.163.362.28.595.35.257.07.56.105.91.105.303 0 .572.035.805.105.257.07.455.245.595.525.163.28.245.735.245 1.365 0 .653-.082 1.132-.245 1.435-.14.303-.338.49-.595.56-.257.07-.525.105-.805.105Zm18.516-.07c-.677 0-1.179-.128-1.505-.385-.327-.257-.49-.607-.49-1.05l.245-1.155c-.187.303-.502.665-.945 1.085-.444.397-1.027.758-1.75 1.085-.724.303-1.599.455-2.625.455a7.475 7.475 0 0 1-3.115-.665 8.76 8.76 0 0 1-2.555-1.89 10.27 10.27 0 0 1-1.75-2.765 8.962 8.962 0 0 1-.63-3.36c0-1.143.21-2.217.63-3.22a9.343 9.343 0 0 1 1.785-2.73 8.237 8.237 0 0 1 2.555-1.855c.98-.467 2.006-.7 3.08-.7.956 0 1.761.128 2.415.385.676.257 1.248.583 1.715.98.466.373.851.77 1.155 1.19l-.21-1.015c0-.513.163-.898.49-1.155.326-.28.84-.42 1.54-.42.653 0 1.12.105 1.4.315.28.187.455.455.525.805.07.327.105.7.105 1.12v12.81c0 .397-.035.758-.105 1.085-.07.327-.257.583-.56.77-.28.187-.747.28-1.4.28Zm-6.44-4.06c.793 0 1.505-.198 2.135-.595a4.351 4.351 0 0 0 1.505-1.61c.396-.7.595-1.47.595-2.31 0-.91-.199-1.703-.595-2.38a4.25 4.25 0 0 0-1.575-1.575c-.63-.397-1.342-.595-2.135-.595-.864 0-1.634.21-2.31.63a4.356 4.356 0 0 0-1.61 1.645c-.374.677-.56 1.447-.56 2.31 0 .84.198 1.598.595 2.275a4.43 4.43 0 0 0 1.61 1.61c.7.397 1.481.595 2.345.595Zm18.001 4.34c-.606 0-1.248-.07-1.925-.21a11.095 11.095 0 0 1-1.96-.525 8.374 8.374 0 0 1-1.645-.875c-.443-.35-.723-.735-.84-1.155a1.38 1.38 0 0 1-.105-.665c.024-.233.094-.467.21-.7a3.03 3.03 0 0 1 .525-.77c.21-.257.42-.397.63-.42.234-.047.525.023.875.21.304.117.63.268.98.455l1.12.56a8.33 8.33 0 0 0 1.19.455c.42.117.829.175 1.225.175.864 0 1.552-.14 2.065-.42.514-.303.77-.723.77-1.26 0-.303-.081-.572-.245-.805a1.746 1.746 0 0 0-.665-.56 3.963 3.963 0 0 0-.945-.42 7.441 7.441 0 0 0-1.155-.35 72.538 72.538 0 0 1-1.26-.385 17.278 17.278 0 0 1-1.75-.595 6.185 6.185 0 0 1-1.575-.91 4.34 4.34 0 0 1-1.085-1.4c-.28-.56-.42-1.26-.42-2.1 0-1.05.245-1.937.735-2.66.514-.747 1.249-1.318 2.205-1.715.957-.397 2.112-.595 3.465-.595.467 0 .91.035 1.33.105.444.07.864.175 1.26.315a6.6 6.6 0 0 1 1.19.455c.397.187.77.397 1.12.63.584.327.887.712.91 1.155.024.42-.14.875-.49 1.365-.256.327-.513.56-.77.7a.967.967 0 0 1-.805 0 59.74 59.74 0 0 0-1.225-.595 8.532 8.532 0 0 0-1.33-.595 4.024 4.024 0 0 0-1.4-.245c-.466 0-.886.07-1.26.21-.373.14-.653.338-.84.595a1.51 1.51 0 0 0-.28.91c0 .327.094.595.28.805.187.21.432.385.735.525.304.14.665.268 1.085.385.42.093.864.187 1.33.28.654.14 1.319.315 1.995.525.677.21 1.295.502 1.855.875a4.13 4.13 0 0 1 1.4 1.505c.35.607.525 1.4.525 2.38 0 1.703-.63 3.022-1.89 3.955-1.236.933-2.951 1.4-5.145 1.4Zm24.746 0c-.606 0-1.248-.07-1.925-.21a11.095 11.095 0 0 1-1.96-.525 8.374 8.374 0 0 1-1.645-.875c-.443-.35-.723-.735-.84-1.155a1.38 1.38 0 0 1-.105-.665c.024-.233.094-.467.21-.7a3.03 3.03 0 0 1 .525-.77c.21-.257.42-.397.63-.42.234-.047.525.023.875.21.304.117.63.268.98.455l1.12.56a8.33 8.33 0 0 0 1.19.455c.42.117.829.175 1.225.175.864 0 1.552-.14 2.065-.42.514-.303.77-.723.77-1.26 0-.303-.081-.572-.245-.805a1.746 1.746 0 0 0-.665-.56 3.963 3.963 0 0 0-.945-.42 7.441 7.441 0 0 0-1.155-.35 72.538 72.538 0 0 1-1.26-.385 17.278 17.278 0 0 1-1.75-.595 6.185 6.185 0 0 1-1.575-.91 4.34 4.34 0 0 1-1.085-1.4c-.28-.56-.42-1.26-.42-2.1 0-1.05.245-1.937.735-2.66.514-.747 1.249-1.318 2.205-1.715.957-.397 2.112-.595 3.465-.595.467 0 .91.035 1.33.105.444.07.864.175 1.26.315a6.6 6.6 0 0 1 1.19.455c.397.187.77.397 1.12.63.584.327.887.712.91 1.155.024.42-.14.875-.49 1.365-.256.327-.513.56-.77.7a.967.967 0 0 1-.805 0 59.74 59.74 0 0 0-1.225-.595 8.532 8.532 0 0 0-1.33-.595 4.024 4.024 0 0 0-1.4-.245c-.466 0-.886.07-1.26.21-.373.14-.653.338-.84.595a1.51 1.51 0 0 0-.28.91c0 .327.094.595.28.805.187.21.432.385.735.525.304.14.665.268 1.085.385.42.093.864.187 1.33.28.654.14 1.319.315 1.995.525.677.21 1.295.502 1.855.875a4.13 4.13 0 0 1 1.4 1.505c.35.607.525 1.4.525 2.38 0 1.703-.63 3.022-1.89 3.955-1.236.933-2.951 1.4-5.145 1.4Zm12.32-.21c-.63 0-1.097-.105-1.4-.315-.303-.187-.49-.432-.56-.735a5.188 5.188 0 0 1-.105-1.085v-13.02c0-.373.035-.712.105-1.015.093-.327.28-.583.56-.77.303-.187.782-.28 1.435-.28s1.12.093 1.4.28c.303.187.49.443.56.77.07.327.105.688.105 1.085v12.985c0 .397-.035.758-.105 1.085-.07.303-.257.548-.56.735-.28.187-.758.28-1.435.28Zm0-20.615c-.677 0-1.178-.093-1.505-.28a1.447 1.447 0 0 1-.595-.84 5.9 5.9 0 0 1-.105-1.155c0-.443.035-.828.105-1.155.093-.327.303-.583.63-.77.327-.21.828-.315 1.505-.315.7 0 1.202.105 1.505.315.303.21.502.49.595.84.093.327.14.712.14 1.155 0 .397-.047.77-.14 1.12-.093.35-.292.618-.595.805-.303.187-.817.28-1.54.28Zm13.989 20.615c-1.143 0-2.123-.117-2.94-.35-.816-.233-1.481-.595-1.995-1.085-.513-.49-.898-1.12-1.155-1.89-.233-.793-.35-1.727-.35-2.8v-14.84c0-.42.035-.782.105-1.085.094-.303.28-.537.56-.7.304-.187.77-.28 1.4-.28.654 0 1.12.093 1.4.28.304.187.49.443.56.77.094.303.14.642.14 1.015v14.7c0 .49.035.887.105 1.19.094.303.222.537.385.7.187.14.42.245.7.315.304.047.665.07 1.085.07.444 0 .817.035 1.12.105.327.07.572.245.735.525.164.257.245.688.245 1.295 0 .653-.105 1.132-.315 1.435-.186.28-.443.455-.77.525-.303.07-.641.105-1.015.105Zm-7.875-16.905 3.605.035 4.83-.14c.397 0 .747.047 1.05.14.327.07.584.257.77.56.187.28.28.747.28 1.4 0 .607-.093 1.062-.28 1.365-.186.303-.431.502-.735.595-.303.07-.653.105-1.05.105l-4.69-.07-3.885.035c-.583-.023-.991-.187-1.225-.49-.21-.327-.315-.852-.315-1.575 0-.677.129-1.167.385-1.47.28-.327.7-.49 1.26-.49Zm20.285 16.87c-1.073 0-2.065-.187-2.975-.56a7.234 7.234 0 0 1-2.345-1.68c-.677-.723-1.202-1.587-1.575-2.59s-.56-2.112-.56-3.325v-6.965c0-.397.035-.747.105-1.05.07-.327.257-.583.56-.77.303-.187.77-.28 1.4-.28.677 0 1.155.093 1.435.28.303.187.49.443.56.77.07.327.105.688.105 1.085v6.93c0 .84.14 1.563.42 2.17a3.499 3.499 0 0 0 1.295 1.435c.56.327 1.248.49 2.065.49.84 0 1.552-.163 2.135-.49a3.598 3.598 0 0 0 1.4-1.435c.327-.63.49-1.353.49-2.17v-7c0-.397.035-.747.105-1.05.07-.327.257-.572.56-.735.303-.187.782-.28 1.435-.28s1.12.093 1.4.28c.28.187.455.443.525.77.093.327.14.677.14 1.05v13.125c0 .35-.047.677-.14.98-.07.303-.257.548-.56.735-.28.187-.747.28-1.4.28-.467 0-.84-.058-1.12-.175a1.386 1.386 0 0 1-.595-.385 1.952 1.952 0 0 1-.245-.56 4.576 4.576 0 0 1-.035-.56l.28-.945c-.14.21-.35.467-.63.77-.28.28-.63.572-1.05.875a5.62 5.62 0 0 1-1.4.7 5.4 5.4 0 0 1-1.785.28Zm26.487-.035c-.676 0-1.178-.128-1.505-.385-.326-.257-.49-.607-.49-1.05l.245-1.155c-.186.303-.501.665-.945 1.085-.443.397-1.026.758-1.75 1.085-.723.303-1.598.455-2.625.455a7.478 7.478 0 0 1-3.115-.665 8.786 8.786 0 0 1-2.555-1.89 10.32 10.32 0 0 1-1.75-2.765 8.962 8.962 0 0 1-.63-3.36c0-1.143.21-2.217.63-3.22a9.383 9.383 0 0 1 1.785-2.73 8.26 8.26 0 0 1 2.555-1.855c.98-.467 2.007-.7 3.08-.7.957 0 1.762.128 2.415.385.677.257 1.249.583 1.715.98.467.373.852.77 1.155 1.19l-.21-1.015c0-.513.164-.898.49-1.155.327-.28.84-.42 1.54-.42.654 0 1.12.105 1.4.315.28.187.455.455.525.805.07.327.105.7.105 1.12v12.81c0 .397-.035.758-.105 1.085-.07.327-.256.583-.56.77-.28.187-.746.28-1.4.28Zm-6.44-4.06c.794 0 1.505-.198 2.135-.595a4.343 4.343 0 0 0 1.505-1.61 4.6 4.6 0 0 0 .595-2.31c0-.91-.198-1.703-.595-2.38a4.236 4.236 0 0 0-1.575-1.575c-.63-.397-1.341-.595-2.135-.595-.863 0-1.633.21-2.31.63a4.37 4.37 0 0 0-1.61 1.645c-.373.677-.56 1.447-.56 2.31 0 .84.199 1.598.595 2.275a4.446 4.446 0 0 0 1.61 1.61c.7.397 1.482.595 2.345.595Zm20.347 4.2a9.955 9.955 0 0 1-3.29-.56 9.475 9.475 0 0 1-2.87-1.715 8.527 8.527 0 0 1-2.03-2.73c-.49-1.097-.735-2.333-.735-3.71 0-1.377.245-2.602.735-3.675a8.527 8.527 0 0 1 2.03-2.73 9.042 9.042 0 0 1 2.835-1.715 9.13 9.13 0 0 1 3.255-.595c.817 0 1.587.117 2.31.35.747.233 1.388.513 1.925.84.537.327.922.653 1.155.98.303.28.56.548.77.805.21.257.28.572.21.945-.07.233-.175.455-.315.665-.14.187-.315.385-.525.595-.56.63-1.108.863-1.645.7a17.7 17.7 0 0 1-.91-.525 11.942 11.942 0 0 0-.945-.525 5.004 5.004 0 0 0-.945-.455 3.199 3.199 0 0 0-1.085-.175c-.887 0-1.68.198-2.38.595a4.17 4.17 0 0 0-1.61 1.575c-.373.677-.56 1.458-.56 2.345 0 .887.187 1.68.56 2.38a4.438 4.438 0 0 0 1.61 1.61c.677.373 1.447.56 2.31.56.42 0 .817-.047 1.19-.14a5.495 5.495 0 0 0 1.05-.42c.303-.187.548-.373.735-.56.257-.163.49-.315.7-.455.21-.14.432-.21.665-.21.28 0 .548.105.805.315.28.187.583.49.91.91.303.35.467.688.49 1.015a1.38 1.38 0 0 1-.21.945c-.163.303-.443.583-.84.84-.28.28-.7.572-1.26.875-.537.28-1.167.525-1.89.735-.7.21-1.435.315-2.205.315Zm11.649-.07c-.63 0-1.096-.105-1.4-.315-.303-.187-.49-.432-.56-.735a5.188 5.188 0 0 1-.105-1.085v-13.02c0-.373.035-.712.105-1.015.094-.327.28-.583.56-.77.304-.187.782-.28 1.435-.28.654 0 1.12.093 1.4.28.304.187.49.443.56.77.07.327.105.688.105 1.085v12.985c0 .397-.035.758-.105 1.085-.07.303-.256.548-.56.735-.28.187-.758.28-1.435.28Zm0-20.615c-.676 0-1.178-.093-1.505-.28a1.452 1.452 0 0 1-.595-.84 5.9 5.9 0 0 1-.105-1.155c0-.443.035-.828.105-1.155.094-.327.304-.583.63-.77.327-.21.829-.315 1.505-.315.7 0 1.202.105 1.505.315.304.21.502.49.595.84.094.327.14.712.14 1.155 0 .397-.046.77-.14 1.12-.093.35-.291.618-.595.805-.303.187-.816.28-1.54.28Zm13.808 20.825a8.96 8.96 0 0 1-3.29-.63 9.93 9.93 0 0 1-2.87-1.855 9.389 9.389 0 0 1-2.03-2.8c-.49-1.073-.735-2.252-.735-3.535 0-1.237.234-2.392.7-3.465a9.13 9.13 0 0 1 1.925-2.835 8.721 8.721 0 0 1 2.8-1.89 8.507 8.507 0 0 1 3.43-.7c1.634 0 3.115.397 4.445 1.19a8.768 8.768 0 0 1 3.185 3.15c.794 1.33 1.19 2.835 1.19 4.515 0 1.33-.245 2.543-.735 3.64a8.888 8.888 0 0 1-1.995 2.8 9.244 9.244 0 0 1-2.835 1.785 8.332 8.332 0 0 1-3.185.63Zm-.07-4.13c.77 0 1.505-.187 2.205-.56a4.645 4.645 0 0 0 1.75-1.68c.467-.723.7-1.575.7-2.555 0-.91-.21-1.715-.63-2.415a4.284 4.284 0 0 0-1.645-1.645c-.7-.397-1.505-.595-2.415-.595a4.47 4.47 0 0 0-2.345.63c-.7.397-1.26.957-1.68 1.68-.396.7-.595 1.493-.595 2.38 0 .98.222 1.832.665 2.555a4.829 4.829 0 0 0 1.715 1.645c.724.373 1.482.56 2.275.56Zm13.636 3.885c-.63 0-1.097-.105-1.4-.315a1.185 1.185 0 0 1-.525-.735 5.188 5.188 0 0 1-.105-1.085v-13.09c0-.373.035-.712.105-1.015.07-.303.257-.537.56-.7.303-.187.77-.28 1.4-.28.56 0 .98.07 1.26.21.28.14.467.315.56.525.093.21.14.42.14.63.023.21.047.373.07.49l-.14 1.12c.14-.373.373-.735.7-1.085.327-.35.723-.665 1.19-.945a5.899 5.899 0 0 1 1.505-.7 5.382 5.382 0 0 1 1.715-.28c1.097 0 2.077.198 2.94.595a6.258 6.258 0 0 1 2.205 1.68c.63.723 1.108 1.587 1.435 2.59.327.98.49 2.088.49 3.325v6.965c0 .397-.047.758-.14 1.085-.07.303-.245.548-.525.735-.28.187-.758.28-1.435.28-.653 0-1.132-.105-1.435-.315-.303-.187-.49-.432-.56-.735a5.188 5.188 0 0 1-.105-1.085v-6.965c0-.84-.152-1.563-.455-2.17a3.064 3.064 0 0 0-1.26-1.4c-.537-.327-1.225-.49-2.065-.49-.817 0-1.528.175-2.135.525a3.374 3.374 0 0 0-1.4 1.4c-.327.607-.49 1.318-.49 2.135v7c0 .397-.035.758-.105 1.085-.07.303-.257.548-.56.735-.28.187-.758.28-1.435.28Zm25.85.245c-1.517 0-2.847-.245-3.99-.735-1.12-.49-2.065-1.155-2.835-1.995a9.475 9.475 0 0 1-1.715-2.87 10.059 10.059 0 0 1-.56-3.325c0-1.68.385-3.173 1.155-4.48a8.251 8.251 0 0 1 3.185-3.08c1.377-.747 2.952-1.12 4.725-1.12 1.26 0 2.368.198 3.325.595.957.397 1.75.922 2.38 1.575a6.368 6.368 0 0 1 1.47 2.1c.35.77.525 1.517.525 2.24 0 1.237-.303 2.135-.91 2.695-.583.56-1.318.84-2.205.84h-9.24c.023.793.268 1.482.735 2.065a5.07 5.07 0 0 0 1.82 1.365 6.004 6.004 0 0 0 2.275.455 9.98 9.98 0 0 0 1.54-.105c.467-.07.863-.152 1.19-.245.327-.117.607-.233.84-.35.257-.117.49-.222.7-.315a2.12 2.12 0 0 1 .595-.175c.257-.023.513.035.77.175.257.14.467.385.63.735.14.233.233.455.28.665.07.187.105.373.105.56 0 .467-.28.91-.84 1.33-.56.397-1.353.723-2.38.98-1.003.28-2.193.42-3.57.42Zm-4.69-10.045h7.175c.397 0 .7-.058.91-.175.21-.14.315-.42.315-.84 0-.537-.163-1.015-.49-1.435-.327-.443-.77-.782-1.33-1.015-.56-.257-1.213-.385-1.96-.385-.863 0-1.645.175-2.345.525-.7.327-1.26.782-1.68 1.365a3.404 3.404 0 0 0-.595 1.96Zm21.212 10.045c-.606 0-1.248-.07-1.925-.21a11.095 11.095 0 0 1-1.96-.525 8.374 8.374 0 0 1-1.645-.875c-.443-.35-.723-.735-.84-1.155a1.38 1.38 0 0 1-.105-.665c.024-.233.094-.467.21-.7a3.03 3.03 0 0 1 .525-.77c.21-.257.42-.397.63-.42.234-.047.525.023.875.21.304.117.63.268.98.455l1.12.56a8.33 8.33 0 0 0 1.19.455c.42.117.829.175 1.225.175.864 0 1.552-.14 2.065-.42.514-.303.77-.723.77-1.26 0-.303-.081-.572-.245-.805a1.746 1.746 0 0 0-.665-.56 3.963 3.963 0 0 0-.945-.42 7.441 7.441 0 0 0-1.155-.35 72.538 72.538 0 0 1-1.26-.385 17.278 17.278 0 0 1-1.75-.595 6.185 6.185 0 0 1-1.575-.91 4.34 4.34 0 0 1-1.085-1.4c-.28-.56-.42-1.26-.42-2.1 0-1.05.245-1.937.735-2.66.514-.747 1.249-1.318 2.205-1.715.957-.397 2.112-.595 3.465-.595.467 0 .91.035 1.33.105.444.07.864.175 1.26.315a6.6 6.6 0 0 1 1.19.455c.397.187.77.397 1.12.63.584.327.887.712.91 1.155.024.42-.14.875-.49 1.365-.256.327-.513.56-.77.7a.967.967 0 0 1-.805 0 59.74 59.74 0 0 0-1.225-.595 8.532 8.532 0 0 0-1.33-.595 4.024 4.024 0 0 0-1.4-.245c-.466 0-.886.07-1.26.21-.373.14-.653.338-.84.595a1.51 1.51 0 0 0-.28.91c0 .327.094.595.28.805.187.21.432.385.735.525.304.14.665.268 1.085.385.42.093.864.187 1.33.28.654.14 1.319.315 1.995.525.677.21 1.295.502 1.855.875a4.13 4.13 0 0 1 1.4 1.505c.35.607.525 1.4.525 2.38 0 1.703-.63 3.022-1.89 3.955-1.236.933-2.951 1.4-5.145 1.4Zm22.384 6.685c-.747-.327-1.179-.7-1.295-1.12-.117-.397-.012-.933.315-1.61l9.03-20.23c.326-.747.676-1.19 1.05-1.33.373-.163.945-.082 1.715.245.723.327 1.143.688 1.26 1.085.14.397.058.933-.245 1.61l-9.1 20.335c-.304.747-.642 1.178-1.015 1.295-.374.14-.945.047-1.715-.28Zm3.255-8.575-8.085-12.425c-.42-.63-.595-1.155-.525-1.575.093-.42.466-.828 1.12-1.225.723-.443 1.283-.618 1.68-.525.42.093.84.467 1.26 1.12l6.405 9.975-1.855 4.655Zm27.51 1.645a7.163 7.163 0 0 1-3.045-.665 8.086 8.086 0 0 1-2.52-1.82 9.052 9.052 0 0 1-1.715-2.765 9.328 9.328 0 0 1-.63-3.43c0-1.167.21-2.263.63-3.29.42-1.05.992-1.96 1.715-2.73a8.248 8.248 0 0 1 2.555-1.855 7.083 7.083 0 0 1 3.01-.665c1.12 0 2.123.222 3.01.665a6.375 6.375 0 0 1 2.24 1.855c.63.77 1.108 1.68 1.435 2.73a11.65 11.65 0 0 1 .525 3.325c0 1.19-.163 2.31-.49 3.36a7.961 7.961 0 0 1-1.4 2.73 6.645 6.645 0 0 1-2.275 1.89c-.887.443-1.902.665-3.045.665Zm.56-4.095c.817 0 1.54-.187 2.17-.56a4.254 4.254 0 0 0 1.54-1.61c.397-.677.595-1.447.595-2.31 0-.887-.198-1.668-.595-2.345a4.254 4.254 0 0 0-1.54-1.61c-.63-.397-1.353-.595-2.17-.595s-1.552.198-2.205.595c-.653.373-1.178.91-1.575 1.61-.373.677-.56 1.458-.56 2.345 0 .863.187 1.633.56 2.31a4.535 4.535 0 0 0 1.575 1.61c.677.373 1.412.56 2.205.56Zm6.475 4.095c-.653 0-1.132-.105-1.435-.315-.303-.233-.502-.595-.595-1.085v-21.56c0-.397.023-.747.07-1.05.07-.327.245-.583.525-.77.303-.21.77-.315 1.4-.315.677 0 1.155.093 1.435.28.28.187.455.443.525.77.093.303.14.653.14 1.05v20.86c0 .397-.035.758-.105 1.085-.07.327-.257.583-.56.77-.28.187-.747.28-1.4.28Zm19.685-.035c-.677 0-1.178-.128-1.505-.385-.327-.257-.49-.607-.49-1.05l.245-1.155c-.187.303-.502.665-.945 1.085-.443.397-1.027.758-1.75 1.085-.723.303-1.598.455-2.625.455a7.475 7.475 0 0 1-3.115-.665 8.772 8.772 0 0 1-2.555-1.89 10.295 10.295 0 0 1-1.75-2.765 8.962 8.962 0 0 1-.63-3.36c0-1.143.21-2.217.63-3.22a9.343 9.343 0 0 1 1.785-2.73 8.248 8.248 0 0 1 2.555-1.855c.98-.467 2.007-.7 3.08-.7.957 0 1.762.128 2.415.385.677.257 1.248.583 1.715.98.467.373.852.77 1.155 1.19l-.21-1.015c0-.513.163-.898.49-1.155.327-.28.84-.42 1.54-.42.653 0 1.12.105 1.4.315.28.187.455.455.525.805.07.327.105.7.105 1.12v12.81c0 .397-.035.758-.105 1.085-.07.327-.257.583-.56.77-.28.187-.747.28-1.4.28Zm-6.44-4.06c.793 0 1.505-.198 2.135-.595a4.343 4.343 0 0 0 1.505-1.61 4.6 4.6 0 0 0 .595-2.31c0-.91-.198-1.703-.595-2.38a4.25 4.25 0 0 0-1.575-1.575c-.63-.397-1.342-.595-2.135-.595-.863 0-1.633.21-2.31.63a4.363 4.363 0 0 0-1.61 1.645c-.373.677-.56 1.447-.56 2.31 0 .84.198 1.598.595 2.275a4.438 4.438 0 0 0 1.61 1.61c.7.397 1.482.595 2.345.595ZM9.15 153.42a9.956 9.956 0 0 1-3.29-.56 9.479 9.479 0 0 1-2.87-1.715 8.532 8.532 0 0 1-2.03-2.73c-.49-1.097-.735-2.333-.735-3.71 0-1.377.245-2.602.735-3.675a8.532 8.532 0 0 1 2.03-2.73 9.042 9.042 0 0 1 2.835-1.715 9.13 9.13 0 0 1 3.255-.595 7.49 7.49 0 0 1 2.31.35c.747.233 1.388.513 1.925.84.537.327.922.653 1.155.98.303.28.56.548.77.805.21.257.28.572.21.945-.07.233-.175.455-.315.665-.14.187-.315.385-.525.595-.56.63-1.108.863-1.645.7a17.7 17.7 0 0 1-.91-.525 12.05 12.05 0 0 0-.945-.525 5.021 5.021 0 0 0-.945-.455 3.199 3.199 0 0 0-1.085-.175c-.887 0-1.68.198-2.38.595a4.17 4.17 0 0 0-1.61 1.575c-.373.677-.56 1.458-.56 2.345 0 .887.187 1.68.56 2.38a4.438 4.438 0 0 0 1.61 1.61c.677.373 1.447.56 2.31.56.42 0 .817-.047 1.19-.14a5.51 5.51 0 0 0 1.05-.42c.303-.187.548-.373.735-.56.257-.163.49-.315.7-.455.21-.14.432-.21.665-.21.28 0 .548.105.805.315.28.187.583.49.91.91.303.35.467.688.49 1.015a1.38 1.38 0 0 1-.21.945c-.163.303-.443.583-.84.84-.28.28-.7.572-1.26.875a10.31 10.31 0 0 1-1.89.735c-.7.21-1.435.315-2.205.315Zm15.43-.07c-.864 0-1.634-.058-2.31-.175-.654-.117-1.226-.315-1.716-.595a3.525 3.525 0 0 1-1.155-1.12c-.303-.49-.536-1.085-.7-1.785-.14-.7-.21-1.54-.21-2.52v-16.87c0-.397.035-.747.105-1.05.094-.327.28-.583.56-.77.304-.21.782-.315 1.435-.315.654 0 1.12.093 1.4.28.304.187.49.443.56.77.094.303.14.653.14 1.05v16.73c0 .443.024.817.07 1.12.07.28.175.513.315.7a1.4 1.4 0 0 0 .595.35c.257.07.56.105.91.105.304 0 .572.035.805.105.257.07.455.245.595.525.164.28.245.735.245 1.365 0 .653-.081 1.132-.245 1.435-.14.303-.338.49-.595.56-.256.07-.525.105-.805.105Zm6.405 0c-.63 0-1.097-.105-1.4-.315-.303-.187-.49-.432-.56-.735a5.188 5.188 0 0 1-.105-1.085v-13.02c0-.373.035-.712.105-1.015.093-.327.28-.583.56-.77.303-.187.781-.28 1.435-.28.653 0 1.12.093 1.4.28.303.187.49.443.56.77.07.327.105.688.105 1.085v12.985c0 .397-.035.758-.105 1.085-.07.303-.257.548-.56.735-.28.187-.759.28-1.435.28Zm0-20.615c-.677 0-1.178-.093-1.505-.28a1.447 1.447 0 0 1-.595-.84 5.9 5.9 0 0 1-.105-1.155c0-.443.035-.828.105-1.155.093-.327.303-.583.63-.77.326-.21.828-.315 1.505-.315.7 0 1.201.105 1.505.315.303.21.502.49.595.84.093.327.14.712.14 1.155 0 .397-.047.77-.14 1.12-.093.35-.292.618-.595.805-.303.187-.817.28-1.54.28Zm13.541 20.685a9.956 9.956 0 0 1-3.29-.56 9.478 9.478 0 0 1-2.87-1.715 8.531 8.531 0 0 1-2.03-2.73c-.49-1.097-.735-2.333-.735-3.71 0-1.377.245-2.602.735-3.675a8.531 8.531 0 0 1 2.03-2.73 9.042 9.042 0 0 1 2.835-1.715 9.13 9.13 0 0 1 3.255-.595 7.49 7.49 0 0 1 2.31.35c.747.233 1.388.513 1.925.84.537.327.922.653 1.155.98.303.28.56.548.77.805.21.257.28.572.21.945-.07.233-.175.455-.315.665-.14.187-.315.385-.525.595-.56.63-1.108.863-1.645.7a17.658 17.658 0 0 1-.91-.525 12.086 12.086 0 0 0-.945-.525 5.027 5.027 0 0 0-.945-.455 3.2 3.2 0 0 0-1.085-.175c-.887 0-1.68.198-2.38.595a4.17 4.17 0 0 0-1.61 1.575c-.373.677-.56 1.458-.56 2.345 0 .887.187 1.68.56 2.38a4.438 4.438 0 0 0 1.61 1.61c.677.373 1.447.56 2.31.56.42 0 .817-.047 1.19-.14a5.516 5.516 0 0 0 1.05-.42c.303-.187.548-.373.735-.56.257-.163.49-.315.7-.455.21-.14.432-.21.665-.21.28 0 .548.105.805.315.28.187.583.49.91.91.303.35.467.688.49 1.015a1.38 1.38 0 0 1-.21.945c-.163.303-.443.583-.84.84-.28.28-.7.572-1.26.875a10.31 10.31 0 0 1-1.89.735c-.7.21-1.435.315-2.205.315Zm26.42.14c-1.516 0-2.846-.245-3.99-.735-1.12-.49-2.064-1.155-2.834-1.995a9.473 9.473 0 0 1-1.715-2.87 10.048 10.048 0 0 1-.56-3.325c0-1.68.385-3.173 1.155-4.48a8.249 8.249 0 0 1 3.185-3.08c1.377-.747 2.951-1.12 4.725-1.12 1.26 0 2.368.198 3.325.595.957.397 1.75.922 2.38 1.575a6.36 6.36 0 0 1 1.47 2.1c.35.77.525 1.517.525 2.24 0 1.237-.303 2.135-.91 2.695-.584.56-1.319.84-2.205.84h-9.24c.023.793.268 1.482.735 2.065a5.067 5.067 0 0 0 1.82 1.365 6.003 6.003 0 0 0 2.275.455 9.98 9.98 0 0 0 1.54-.105c.467-.07.863-.152 1.19-.245.327-.117.607-.233.84-.35.257-.117.49-.222.7-.315a2.12 2.12 0 0 1 .595-.175c.257-.023.513.035.77.175.257.14.467.385.63.735.14.233.233.455.28.665.07.187.105.373.105.56 0 .467-.28.91-.84 1.33-.56.397-1.354.723-2.38.98-1.004.28-2.194.42-3.57.42Zm-4.69-10.045h7.176c.397 0 .7-.058.91-.175.21-.14.315-.42.315-.84 0-.537-.163-1.015-.49-1.435-.327-.443-.77-.782-1.33-1.015-.56-.257-1.213-.385-1.96-.385-.864 0-1.645.175-2.345.525-.7.327-1.26.782-1.68 1.365a3.406 3.406 0 0 0-.595 1.96Zm17.293 9.8c-.63 0-1.097-.105-1.4-.315a1.185 1.185 0 0 1-.525-.735 5.188 5.188 0 0 1-.105-1.085v-13.09c0-.373.035-.712.105-1.015.07-.303.257-.537.56-.7.303-.187.77-.28 1.4-.28.56 0 .98.07 1.26.21.28.14.467.315.56.525.093.21.14.42.14.63.023.21.047.373.07.49l-.14 1.12c.14-.373.373-.735.7-1.085.327-.35.723-.665 1.19-.945a5.897 5.897 0 0 1 1.505-.7 5.38 5.38 0 0 1 1.715-.28c1.097 0 2.077.198 2.94.595a6.253 6.253 0 0 1 2.205 1.68c.63.723 1.108 1.587 1.435 2.59.327.98.49 2.088.49 3.325v6.965c0 .397-.047.758-.14 1.085-.07.303-.245.548-.525.735-.28.187-.758.28-1.435.28-.653 0-1.132-.105-1.435-.315-.303-.187-.49-.432-.56-.735a5.188 5.188 0 0 1-.105-1.085v-6.965c0-.84-.152-1.563-.455-2.17a3.064 3.064 0 0 0-1.26-1.4c-.537-.327-1.225-.49-2.065-.49-.817 0-1.528.175-2.135.525a3.374 3.374 0 0 0-1.4 1.4c-.327.607-.49 1.318-.49 2.135v7c0 .397-.035.758-.105 1.085-.07.303-.257.548-.56.735-.28.187-.758.28-1.435.28Zm32.222.035c-.864 0-1.634-.058-2.31-.175-.654-.117-1.225-.315-1.715-.595a3.52 3.52 0 0 1-1.155-1.12c-.304-.49-.537-1.085-.7-1.785-.14-.7-.21-1.54-.21-2.52v-16.87c0-.397.035-.747.105-1.05.093-.327.28-.583.56-.77.303-.21.781-.315 1.435-.315.653 0 1.12.093 1.4.28.303.187.49.443.56.77.093.303.14.653.14 1.05v16.73c0 .443.023.817.07 1.12.07.28.175.513.315.7.163.163.361.28.595.35.256.07.56.105.91.105.303 0 .571.035.805.105.256.07.455.245.595.525.163.28.245.735.245 1.365 0 .653-.082 1.132-.245 1.435-.14.303-.339.49-.595.56-.257.07-.525.105-.805.105Zm18.515-.07c-.676 0-1.178-.128-1.505-.385-.326-.257-.49-.607-.49-1.05l.245-1.155c-.186.303-.501.665-.945 1.085-.443.397-1.026.758-1.75 1.085-.723.303-1.598.455-2.625.455a7.478 7.478 0 0 1-3.115-.665 8.786 8.786 0 0 1-2.555-1.89 10.32 10.32 0 0 1-1.75-2.765 8.962 8.962 0 0 1-.63-3.36c0-1.143.21-2.217.63-3.22a9.383 9.383 0 0 1 1.785-2.73 8.26 8.26 0 0 1 2.555-1.855c.98-.467 2.007-.7 3.08-.7.957 0 1.762.128 2.415.385.677.257 1.249.583 1.715.98.467.373.852.77 1.155 1.19l-.21-1.015c0-.513.164-.898.49-1.155.327-.28.84-.42 1.54-.42.654 0 1.12.105 1.4.315.28.187.455.455.525.805.07.327.105.7.105 1.12v12.81c0 .397-.035.758-.105 1.085-.07.327-.256.583-.56.77-.28.187-.746.28-1.4.28Zm-6.44-4.06c.794 0 1.505-.198 2.135-.595a4.343 4.343 0 0 0 1.505-1.61 4.6 4.6 0 0 0 .595-2.31c0-.91-.198-1.703-.595-2.38a4.236 4.236 0 0 0-1.575-1.575c-.63-.397-1.341-.595-2.135-.595-.863 0-1.633.21-2.31.63a4.37 4.37 0 0 0-1.61 1.645c-.373.677-.56 1.447-.56 2.31 0 .84.199 1.598.595 2.275a4.446 4.446 0 0 0 1.61 1.61c.7.397 1.482.595 2.345.595Zm26.719 4.13c-.864 0-1.634-.058-2.31-.175-.654-.117-1.225-.315-1.715-.595a3.52 3.52 0 0 1-1.155-1.12c-.304-.49-.537-1.085-.7-1.785-.14-.7-.21-1.54-.21-2.52v-16.87c0-.397.035-.747.105-1.05.093-.327.28-.583.56-.77.303-.21.781-.315 1.435-.315.653 0 1.12.093 1.4.28.303.187.49.443.56.77.093.303.14.653.14 1.05v16.73c0 .443.023.817.07 1.12.07.28.175.513.315.7.163.163.361.28.595.35.256.07.56.105.91.105.303 0 .571.035.805.105.256.07.455.245.595.525.163.28.245.735.245 1.365 0 .653-.082 1.132-.245 1.435-.14.303-.339.49-.595.56-.257.07-.525.105-.805.105Zm12.495.21c-1.517 0-2.847-.245-3.99-.735-1.12-.49-2.065-1.155-2.835-1.995a9.475 9.475 0 0 1-1.715-2.87 10.059 10.059 0 0 1-.56-3.325c0-1.68.385-3.173 1.155-4.48a8.251 8.251 0 0 1 3.185-3.08c1.377-.747 2.952-1.12 4.725-1.12 1.26 0 2.368.198 3.325.595.957.397 1.75.922 2.38 1.575a6.368 6.368 0 0 1 1.47 2.1c.35.77.525 1.517.525 2.24 0 1.237-.303 2.135-.91 2.695-.583.56-1.318.84-2.205.84h-9.24c.023.793.268 1.482.735 2.065a5.07 5.07 0 0 0 1.82 1.365 6.004 6.004 0 0 0 2.275.455 9.98 9.98 0 0 0 1.54-.105c.467-.07.863-.152 1.19-.245.327-.117.607-.233.84-.35.257-.117.49-.222.7-.315a2.12 2.12 0 0 1 .595-.175c.257-.023.513.035.77.175.257.14.467.385.63.735.14.233.233.455.28.665.07.187.105.373.105.56 0 .467-.28.91-.84 1.33-.56.397-1.353.723-2.38.98-1.003.28-2.193.42-3.57.42Zm-4.69-10.045h7.175c.397 0 .7-.058.91-.175.21-.14.315-.42.315-.84 0-.537-.163-1.015-.49-1.435-.327-.443-.77-.782-1.33-1.015-.56-.257-1.213-.385-1.96-.385-.863 0-1.645.175-2.345.525-.7.327-1.26.782-1.68 1.365a3.404 3.404 0 0 0-.595 1.96Zm23.391 9.835c-1.144 0-2.124-.117-2.94-.35-.817-.233-1.482-.595-1.995-1.085-.514-.49-.899-1.12-1.155-1.89-.234-.793-.35-1.727-.35-2.8v-14.84c0-.42.035-.782.105-1.085.093-.303.28-.537.56-.7.303-.187.77-.28 1.4-.28.653 0 1.12.093 1.4.28.303.187.49.443.56.77.093.303.14.642.14 1.015v14.7c0 .49.035.887.105 1.19.093.303.221.537.385.7.186.14.42.245.7.315.303.047.665.07 1.085.07.443 0 .816.035 1.12.105.326.07.571.245.735.525.163.257.245.688.245 1.295 0 .653-.105 1.132-.315 1.435-.187.28-.444.455-.77.525-.304.07-.642.105-1.015.105Zm-7.875-16.905 3.605.035 4.83-.14c.396 0 .746.047 1.05.14.326.07.583.257.77.56.186.28.28.747.28 1.4 0 .607-.094 1.062-.28 1.365-.187.303-.432.502-.735.595-.304.07-.654.105-1.05.105l-4.69-.07-3.885.035c-.584-.023-.992-.187-1.225-.49-.21-.327-.315-.852-.315-1.575 0-.677.128-1.167.385-1.47.28-.327.7-.49 1.26-.49Zm15.209 16.905c-.63 0-1.097-.105-1.4-.315a1.194 1.194 0 0 1-.525-.77 5.188 5.188 0 0 1-.105-1.085v-12.985c0-.42.035-.782.105-1.085.07-.327.245-.572.525-.735.303-.187.782-.28 1.435-.28.63 0 1.085.082 1.365.245.303.163.49.373.56.63.093.233.14.467.14.7l-.28.63c.117-.187.28-.408.49-.665.21-.28.49-.548.84-.805.35-.28.77-.502 1.26-.665.49-.187 1.073-.28 1.75-.28.28 0 .572.035.875.105.327.047.642.128.945.245.327.093.618.222.875.385s.455.362.595.595c.14.21.21.455.21.735 0 .747-.187 1.377-.56 1.89-.373.513-.817.77-1.33.77-.35 0-.607-.035-.77-.105a1.835 1.835 0 0 1-.42-.245c-.093-.093-.245-.175-.455-.245-.187-.07-.49-.105-.91-.105-.35 0-.712.058-1.085.175-.35.117-.677.292-.98.525a2.591 2.591 0 0 0-.735.91c-.187.35-.28.758-.28 1.225v8.505c0 .397-.035.758-.105 1.085-.07.303-.257.548-.56.735-.303.187-.793.28-1.47.28Zm25.41-.07c-.677 0-1.178-.128-1.505-.385-.327-.257-.49-.607-.49-1.05l.245-1.155c-.187.303-.502.665-.945 1.085-.443.397-1.027.758-1.75 1.085-.723.303-1.598.455-2.625.455a7.475 7.475 0 0 1-3.115-.665 8.772 8.772 0 0 1-2.555-1.89 10.295 10.295 0 0 1-1.75-2.765 8.962 8.962 0 0 1-.63-3.36c0-1.143.21-2.217.63-3.22a9.343 9.343 0 0 1 1.785-2.73 8.248 8.248 0 0 1 2.555-1.855c.98-.467 2.007-.7 3.08-.7.957 0 1.762.128 2.415.385.677.257 1.248.583 1.715.98.467.373.852.77 1.155 1.19l-.21-1.015c0-.513.163-.898.49-1.155.327-.28.84-.42 1.54-.42.653 0 1.12.105 1.4.315.28.187.455.455.525.805.07.327.105.7.105 1.12v12.81c0 .397-.035.758-.105 1.085-.07.327-.257.583-.56.77-.28.187-.747.28-1.4.28Zm-6.44-4.06c.793 0 1.505-.198 2.135-.595a4.343 4.343 0 0 0 1.505-1.61 4.6 4.6 0 0 0 .595-2.31c0-.91-.198-1.703-.595-2.38a4.25 4.25 0 0 0-1.575-1.575c-.63-.397-1.342-.595-2.135-.595-.863 0-1.633.21-2.31.63a4.363 4.363 0 0 0-1.61 1.645c-.373.677-.56 1.447-.56 2.31 0 .84.198 1.598.595 2.275a4.438 4.438 0 0 0 1.61 1.61c.7.397 1.482.595 2.345.595Zm28.118 4.095a7.163 7.163 0 0 1-3.045-.665 8.109 8.109 0 0 1-2.52-1.82 9.052 9.052 0 0 1-1.715-2.765 9.328 9.328 0 0 1-.63-3.43c0-1.167.21-2.263.63-3.29.42-1.05.992-1.96 1.715-2.73a8.26 8.26 0 0 1 2.555-1.855 7.083 7.083 0 0 1 3.01-.665c1.12 0 2.124.222 3.01.665a6.367 6.367 0 0 1 2.24 1.855c.63.77 1.109 1.68 1.435 2.73a11.65 11.65 0 0 1 .525 3.325c0 1.19-.163 2.31-.49 3.36a7.961 7.961 0 0 1-1.4 2.73 6.636 6.636 0 0 1-2.275 1.89c-.886.443-1.901.665-3.045.665Zm.56-4.095c.817 0 1.54-.187 2.17-.56a4.246 4.246 0 0 0 1.54-1.61c.397-.677.595-1.447.595-2.31 0-.887-.198-1.668-.595-2.345a4.246 4.246 0 0 0-1.54-1.61c-.63-.397-1.353-.595-2.17-.595-.816 0-1.551.198-2.205.595-.653.373-1.178.91-1.575 1.61-.373.677-.56 1.458-.56 2.345 0 .863.187 1.633.56 2.31a4.535 4.535 0 0 0 1.575 1.61c.677.373 1.412.56 2.205.56Zm6.475 4.095c-.653 0-1.131-.105-1.435-.315-.303-.233-.501-.595-.595-1.085v-21.56c0-.397.024-.747.07-1.05.07-.327.245-.583.525-.77.304-.21.77-.315 1.4-.315.677 0 1.155.093 1.435.28.28.187.455.443.525.77.094.303.14.653.14 1.05v20.86c0 .397-.035.758-.105 1.085-.07.327-.256.583-.56.77-.28.187-.746.28-1.4.28Zm14.007.245c-1.516 0-2.846-.245-3.99-.735-1.12-.49-2.065-1.155-2.835-1.995a9.495 9.495 0 0 1-1.715-2.87 10.059 10.059 0 0 1-.56-3.325c0-1.68.385-3.173 1.155-4.48a8.251 8.251 0 0 1 3.185-3.08c1.377-.747 2.952-1.12 4.725-1.12 1.26 0 2.369.198 3.325.595.957.397 1.75.922 2.38 1.575a6.339 6.339 0 0 1 1.47 2.1c.35.77.525 1.517.525 2.24 0 1.237-.303 2.135-.91 2.695-.583.56-1.318.84-2.205.84h-9.24c.024.793.269 1.482.735 2.065a5.07 5.07 0 0 0 1.82 1.365 6.004 6.004 0 0 0 2.275.455 9.97 9.97 0 0 0 1.54-.105 9.6 9.6 0 0 0 1.19-.245c.327-.117.607-.233.84-.35.257-.117.49-.222.7-.315a2.13 2.13 0 0 1 .595-.175c.257-.023.514.035.77.175.257.14.467.385.63.735.14.233.234.455.28.665.07.187.105.373.105.56 0 .467-.28.91-.84 1.33-.56.397-1.353.723-2.38.98-1.003.28-2.193.42-3.57.42Zm-4.69-10.045h7.175c.397 0 .7-.058.91-.175.21-.14.315-.42.315-.84 0-.537-.163-1.015-.49-1.435-.326-.443-.77-.782-1.33-1.015-.56-.257-1.213-.385-1.96-.385-.863 0-1.645.175-2.345.525-.7.327-1.26.782-1.68 1.365a3.412 3.412 0 0 0-.595 1.96Zm21.247 9.835c-.863 0-1.633-.058-2.31-.175-.653-.117-1.225-.315-1.715-.595a3.539 3.539 0 0 1-1.155-1.12c-.303-.49-.536-1.085-.7-1.785-.14-.7-.21-1.54-.21-2.52v-16.87c0-.397.035-.747.105-1.05.094-.327.28-.583.56-.77.304-.21.782-.315 1.435-.315.654 0 1.12.093 1.4.28.304.187.49.443.56.77.094.303.14.653.14 1.05v16.73c0 .443.024.817.07 1.12.07.28.175.513.315.7a1.4 1.4 0 0 0 .595.35c.257.07.56.105.91.105.304 0 .572.035.805.105.257.07.455.245.595.525.164.28.245.735.245 1.365 0 .653-.081 1.132-.245 1.435-.14.303-.338.49-.595.56-.256.07-.525.105-.805.105Zm15.053-.035c-.607 0-1.062-.093-1.365-.28a1.297 1.297 0 0 1-.595-.77 5.188 5.188 0 0 1-.105-1.085v-20.195c0-.373.035-.712.105-1.015.093-.327.291-.583.595-.77.303-.21.781-.315 1.435-.315.49 0 .851.035 1.085.105.256.047.455.128.595.245.14.093.28.222.42.385l8.54 11.935h-.805l8.575-11.97c.163-.187.326-.327.49-.42.163-.093.373-.163.63-.21a5.86 5.86 0 0 1 1.015-.07c.63 0 1.096.105 1.4.315.303.187.49.443.56.77.093.327.14.688.14 1.085v20.195c0 .35-.047.688-.14 1.015-.07.327-.257.583-.56.77-.304.187-.782.28-1.435.28-.63 0-1.097-.105-1.4-.315a1.297 1.297 0 0 1-.595-.77 5.01 5.01 0 0 1-.105-1.05v-15.015l-6.37 9.205a8.19 8.19 0 0 1-.315.385c-.14.14-.327.268-.56.385-.234.117-.549.175-.945.175-.374 0-.677-.058-.91-.175a2.135 2.135 0 0 1-.56-.385l-.35-.42-6.335-9.17v15.085c0 .35-.047.688-.14 1.015-.07.327-.257.583-.56.77-.304.187-.782.28-1.435.28Zm34.385.245c-1.12 0-2.217-.21-3.29-.63a9.917 9.917 0 0 1-2.87-1.855 9.372 9.372 0 0 1-2.03-2.8c-.49-1.073-.735-2.252-.735-3.535 0-1.237.233-2.392.7-3.465a9.096 9.096 0 0 1 1.925-2.835 8.71 8.71 0 0 1 2.8-1.89 8.5 8.5 0 0 1 3.43-.7c1.633 0 3.115.397 4.445 1.19a8.775 8.775 0 0 1 3.185 3.15c.793 1.33 1.19 2.835 1.19 4.515 0 1.33-.245 2.543-.735 3.64a8.888 8.888 0 0 1-1.995 2.8 9.244 9.244 0 0 1-2.835 1.785 8.34 8.34 0 0 1-3.185.63Zm-.07-4.13c.77 0 1.505-.187 2.205-.56a4.66 4.66 0 0 0 1.75-1.68c.466-.723.7-1.575.7-2.555 0-.91-.21-1.715-.63-2.415a4.29 4.29 0 0 0-1.645-1.645c-.7-.397-1.505-.595-2.415-.595-.864 0-1.645.21-2.345.63-.7.397-1.26.957-1.68 1.68-.397.7-.595 1.493-.595 2.38 0 .98.221 1.832.665 2.555a4.82 4.82 0 0 0 1.715 1.645c.723.373 1.481.56 2.275.56Zm18.99 3.885a7.163 7.163 0 0 1-3.045-.665 8.109 8.109 0 0 1-2.52-1.82 9.052 9.052 0 0 1-1.715-2.765 9.328 9.328 0 0 1-.63-3.43c0-1.167.21-2.263.63-3.29.42-1.05.992-1.96 1.715-2.73a8.26 8.26 0 0 1 2.555-1.855 7.083 7.083 0 0 1 3.01-.665c1.12 0 2.124.222 3.01.665a6.367 6.367 0 0 1 2.24 1.855c.63.77 1.109 1.68 1.435 2.73a11.65 11.65 0 0 1 .525 3.325c0 1.19-.163 2.31-.49 3.36a7.961 7.961 0 0 1-1.4 2.73 6.636 6.636 0 0 1-2.275 1.89c-.886.443-1.901.665-3.045.665Zm.56-4.095c.817 0 1.54-.187 2.17-.56a4.246 4.246 0 0 0 1.54-1.61c.397-.677.595-1.447.595-2.31 0-.887-.198-1.668-.595-2.345a4.246 4.246 0 0 0-1.54-1.61c-.63-.397-1.353-.595-2.17-.595-.816 0-1.551.198-2.205.595-.653.373-1.178.91-1.575 1.61-.373.677-.56 1.458-.56 2.345 0 .863.187 1.633.56 2.31a4.535 4.535 0 0 0 1.575 1.61c.677.373 1.412.56 2.205.56Zm6.475 4.095c-.653 0-1.131-.105-1.435-.315-.303-.233-.501-.595-.595-1.085v-21.56c0-.397.024-.747.07-1.05.07-.327.245-.583.525-.77.304-.21.77-.315 1.4-.315.677 0 1.155.093 1.435.28.28.187.455.443.525.77.094.303.14.653.14 1.05v20.86c0 .397-.035.758-.105 1.085-.07.327-.256.583-.56.77-.28.187-.746.28-1.4.28Zm14.007.245c-1.516 0-2.846-.245-3.99-.735-1.12-.49-2.065-1.155-2.835-1.995a9.495 9.495 0 0 1-1.715-2.87 10.059 10.059 0 0 1-.56-3.325c0-1.68.385-3.173 1.155-4.48a8.251 8.251 0 0 1 3.185-3.08c1.377-.747 2.952-1.12 4.725-1.12 1.26 0 2.369.198 3.325.595.957.397 1.75.922 2.38 1.575a6.339 6.339 0 0 1 1.47 2.1c.35.77.525 1.517.525 2.24 0 1.237-.303 2.135-.91 2.695-.583.56-1.318.84-2.205.84h-9.24c.024.793.269 1.482.735 2.065a5.07 5.07 0 0 0 1.82 1.365 6.004 6.004 0 0 0 2.275.455 9.97 9.97 0 0 0 1.54-.105 9.6 9.6 0 0 0 1.19-.245c.327-.117.607-.233.84-.35.257-.117.49-.222.7-.315a2.13 2.13 0 0 1 .595-.175c.257-.023.514.035.77.175.257.14.467.385.63.735.14.233.234.455.28.665.07.187.105.373.105.56 0 .467-.28.91-.84 1.33-.56.397-1.353.723-2.38.98-1.003.28-2.193.42-3.57.42Zm-4.69-10.045h7.175c.397 0 .7-.058.91-.175.21-.14.315-.42.315-.84 0-.537-.163-1.015-.49-1.435-.326-.443-.77-.782-1.33-1.015-.56-.257-1.213-.385-1.96-.385-.863 0-1.645.175-2.345.525-.7.327-1.26.782-1.68 1.365a3.412 3.412 0 0 0-.595 1.96Zm21.247 9.835c-.863 0-1.633-.058-2.31-.175-.653-.117-1.225-.315-1.715-.595a3.539 3.539 0 0 1-1.155-1.12c-.303-.49-.536-1.085-.7-1.785-.14-.7-.21-1.54-.21-2.52v-16.87c0-.397.035-.747.105-1.05.094-.327.28-.583.56-.77.304-.21.782-.315 1.435-.315.654 0 1.12.093 1.4.28.304.187.49.443.56.77.094.303.14.653.14 1.05v16.73c0 .443.024.817.07 1.12.07.28.175.513.315.7a1.4 1.4 0 0 0 .595.35c.257.07.56.105.91.105.304 0 .572.035.805.105.257.07.455.245.595.525.164.28.245.735.245 1.365 0 .653-.081 1.132-.245 1.435-.14.303-.338.49-.595.56-.256.07-.525.105-.805.105Zm12.216.21c-1.12 0-2.217-.21-3.29-.63a9.917 9.917 0 0 1-2.87-1.855 9.372 9.372 0 0 1-2.03-2.8c-.49-1.073-.735-2.252-.735-3.535 0-1.237.233-2.392.7-3.465a9.113 9.113 0 0 1 1.925-2.835 8.721 8.721 0 0 1 2.8-1.89 8.503 8.503 0 0 1 3.43-.7c1.633 0 3.115.397 4.445 1.19a8.768 8.768 0 0 1 3.185 3.15c.793 1.33 1.19 2.835 1.19 4.515 0 1.33-.245 2.543-.735 3.64a8.888 8.888 0 0 1-1.995 2.8 9.244 9.244 0 0 1-2.835 1.785 8.336 8.336 0 0 1-3.185.63Zm-.07-4.13c.77 0 1.505-.187 2.205-.56a4.652 4.652 0 0 0 1.75-1.68c.467-.723.7-1.575.7-2.555 0-.91-.21-1.715-.63-2.415a4.29 4.29 0 0 0-1.645-1.645c-.7-.397-1.505-.595-2.415-.595a4.47 4.47 0 0 0-2.345.63c-.7.397-1.26.957-1.68 1.68-.397.7-.595 1.493-.595 2.38 0 .98.222 1.832.665 2.555a4.82 4.82 0 0 0 1.715 1.645 4.9 4.9 0 0 0 2.275.56Zm27.917 4.235c-1.05 0-2.006-.128-2.87-.385a9.851 9.851 0 0 1-2.24-.98 10.418 10.418 0 0 1-1.61-1.225c-.443-.42-.77-.805-.98-1.155-.303-.42-.501-.793-.595-1.12a1.322 1.322 0 0 1 .07-.945c.164-.327.455-.665.875-1.015.42-.373.805-.56 1.155-.56.374-.023.724.082 1.05.315.35.233.689.56 1.015.98.56.747 1.19 1.283 1.89 1.61.7.303 1.4.455 2.1.455.91 0 1.704-.117 2.38-.35.677-.257 1.202-.63 1.575-1.12.397-.49.595-1.12.595-1.89 0-.63-.198-1.143-.595-1.54-.373-.42-.875-.77-1.505-1.05a14.066 14.066 0 0 0-2.135-.805 58.735 58.735 0 0 1-2.345-.84 16.73 16.73 0 0 1-1.68-.665c-.56-.28-1.085-.595-1.575-.945a6.982 6.982 0 0 1-1.26-1.225c-.35-.49-.63-1.05-.84-1.68-.21-.63-.315-1.365-.315-2.205 0-1.33.327-2.497.98-3.5.654-1.027 1.564-1.832 2.73-2.415 1.167-.607 2.497-.91 3.99-.91.957 0 1.809.093 2.555.28.77.163 1.424.385 1.96.665.56.257 1.015.525 1.365.805.374.257.642.478.805.665.537.537.829.992.875 1.365.07.35-.14.828-.63 1.435-.49.63-.968.98-1.435 1.05-.443.047-.945-.14-1.505-.56a5.689 5.689 0 0 0-1.12-.945 3.845 3.845 0 0 0-1.26-.56c-.443-.117-.991-.175-1.645-.175-.466 0-.921.07-1.365.21a2.83 2.83 0 0 0-1.085.56 2.683 2.683 0 0 0-.735.875c-.163.35-.245.747-.245 1.19 0 .607.164 1.108.49 1.505.35.373.817.688 1.4.945a21.46 21.46 0 0 0 1.96.665c.724.21 1.459.432 2.205.665.77.257 1.529.56 2.275.91.747.35 1.412.793 1.995 1.33.584.513 1.05 1.167 1.4 1.96.35.77.525 1.715.525 2.835 0 1.283-.245 2.403-.735 3.36a6.496 6.496 0 0 1-1.995 2.345 8.598 8.598 0 0 1-2.8 1.33 10.949 10.949 0 0 1-3.115.455Zm32.367-3.29c.234.443.35.84.35 1.19.024.327-.07.618-.28.875-.21.233-.56.478-1.05.735-.746.35-1.33.443-1.75.28-.396-.163-.77-.618-1.12-1.365l-7.805-16.485-7.77 16.485c-.35.723-.735 1.155-1.155 1.295-.42.163-1.003.082-1.75-.245-.466-.233-.816-.478-1.05-.735a1.255 1.255 0 0 1-.28-.91c.047-.373.199-.817.455-1.33l9.625-20.055a2.09 2.09 0 0 1 .805-.875c.374-.233.759-.35 1.155-.35.28 0 .537.047.77.14.234.093.444.233.63.42.21.187.385.42.525.7l9.695 20.23Zm-17.885-3.395 1.68-3.605h9.135l1.68 3.605h-12.495Zm22.857 6.335c-.653 0-1.132-.093-1.435-.28a1.337 1.337 0 0 1-.56-.77 5.522 5.522 0 0 1-.105-1.085v-20.195c0-.373.047-.712.14-1.015.093-.327.28-.583.56-.77.303-.21.782-.315 1.435-.315h7.49c1.073 0 2.088.175 3.045.525.98.327 1.855.84 2.625 1.54.77.677 1.377 1.54 1.82 2.59.467 1.027.7 2.228.7 3.605 0 .91-.14 1.82-.42 2.73-.28.887-.7 1.715-1.26 2.485a7.44 7.44 0 0 1-2.065 1.925c-.84.537-1.832.887-2.975 1.05h-6.86v5.88c0 .373-.047.723-.14 1.05-.07.327-.257.583-.56.77-.28.187-.758.28-1.435.28Zm14.91-.525c-.677.467-1.237.642-1.68.525-.42-.117-.84-.49-1.26-1.12l-5.88-8.89 4.725-.63 4.655 7.07c.327.467.525.863.595 1.19.07.327.012.63-.175.91s-.513.595-.98.945Zm-12.775-11.655h5.915c.42 0 .828-.07 1.225-.21.42-.163.793-.408 1.12-.735.327-.35.583-.77.77-1.26.21-.513.315-1.12.315-1.82 0-.84-.163-1.552-.49-2.135a3.162 3.162 0 0 0-1.4-1.365c-.583-.327-1.295-.49-2.135-.49h-5.32v8.015Zm19.361 12.18c-.653 0-1.132-.093-1.435-.28a1.166 1.166 0 0 1-.56-.77 5.522 5.522 0 0 1-.105-1.085v-20.195c0-.373.035-.712.105-1.015a1.3 1.3 0 0 1 .595-.77c.303-.21.782-.315 1.435-.315h7.42c1.027 0 2.03.175 3.01.525a7.73 7.73 0 0 1 2.625 1.575 7.21 7.21 0 0 1 1.855 2.59c.467 1.027.7 2.228.7 3.605 0 1.353-.233 2.543-.7 3.57a7.29 7.29 0 0 1-1.855 2.555 8.11 8.11 0 0 1-2.66 1.575c-.957.35-1.96.525-3.01.525h-5.285v5.81c0 .373-.047.723-.14 1.05-.07.327-.257.583-.56.77-.28.187-.758.28-1.435.28Zm2.135-12.18h5.32c.723 0 1.377-.14 1.96-.42a3.66 3.66 0 0 0 1.47-1.33c.373-.607.56-1.365.56-2.275 0-.817-.175-1.517-.525-2.1a3.374 3.374 0 0 0-1.4-1.4c-.583-.327-1.283-.49-2.1-.49h-5.285v8.015Zm32.801 12.285a9.955 9.955 0 0 1-3.29-.56 9.475 9.475 0 0 1-2.87-1.715 8.527 8.527 0 0 1-2.03-2.73c-.49-1.097-.735-2.333-.735-3.71 0-1.377.245-2.602.735-3.675a8.527 8.527 0 0 1 2.03-2.73 9.042 9.042 0 0 1 2.835-1.715 9.13 9.13 0 0 1 3.255-.595c.817 0 1.587.117 2.31.35.747.233 1.388.513 1.925.84.537.327.922.653 1.155.98.303.28.56.548.77.805.21.257.28.572.21.945-.07.233-.175.455-.315.665-.14.187-.315.385-.525.595-.56.63-1.108.863-1.645.7a17.7 17.7 0 0 1-.91-.525 11.942 11.942 0 0 0-.945-.525 5.004 5.004 0 0 0-.945-.455 3.199 3.199 0 0 0-1.085-.175c-.887 0-1.68.198-2.38.595a4.17 4.17 0 0 0-1.61 1.575c-.373.677-.56 1.458-.56 2.345 0 .887.187 1.68.56 2.38a4.438 4.438 0 0 0 1.61 1.61c.677.373 1.447.56 2.31.56.42 0 .817-.047 1.19-.14a5.495 5.495 0 0 0 1.05-.42c.303-.187.548-.373.735-.56.257-.163.49-.315.7-.455.21-.14.432-.21.665-.21.28 0 .548.105.805.315.28.187.583.49.91.91.303.35.467.688.49 1.015a1.38 1.38 0 0 1-.21.945c-.163.303-.443.583-.84.84-.28.28-.7.572-1.26.875-.537.28-1.167.525-1.89.735-.7.21-1.435.315-2.205.315Zm17.459.14c-1.12 0-2.217-.21-3.29-.63a9.917 9.917 0 0 1-2.87-1.855 9.372 9.372 0 0 1-2.03-2.8c-.49-1.073-.735-2.252-.735-3.535 0-1.237.233-2.392.7-3.465a9.113 9.113 0 0 1 1.925-2.835 8.721 8.721 0 0 1 2.8-1.89 8.503 8.503 0 0 1 3.43-.7c1.633 0 3.115.397 4.445 1.19a8.768 8.768 0 0 1 3.185 3.15c.793 1.33 1.19 2.835 1.19 4.515 0 1.33-.245 2.543-.735 3.64a8.888 8.888 0 0 1-1.995 2.8 9.244 9.244 0 0 1-2.835 1.785 8.336 8.336 0 0 1-3.185.63Zm-.07-4.13c.77 0 1.505-.187 2.205-.56a4.652 4.652 0 0 0 1.75-1.68c.467-.723.7-1.575.7-2.555 0-.91-.21-1.715-.63-2.415a4.29 4.29 0 0 0-1.645-1.645c-.7-.397-1.505-.595-2.415-.595a4.47 4.47 0 0 0-2.345.63c-.7.397-1.26.957-1.68 1.68-.397.7-.595 1.493-.595 2.38 0 .98.222 1.832.665 2.555a4.82 4.82 0 0 0 1.715 1.645 4.9 4.9 0 0 0 2.275.56Zm13.636 3.92c-.63 0-1.097-.105-1.4-.315a1.194 1.194 0 0 1-.525-.77 5.188 5.188 0 0 1-.105-1.085v-12.985c0-.42.035-.782.105-1.085.07-.327.245-.572.525-.735.303-.187.782-.28 1.435-.28.63 0 1.085.082 1.365.245.303.163.49.373.56.63.093.233.14.467.14.7l-.28.63c.117-.187.28-.408.49-.665.21-.28.49-.548.84-.805.35-.28.77-.502 1.26-.665.49-.187 1.073-.28 1.75-.28.28 0 .572.035.875.105.327.047.642.128.945.245.327.093.618.222.875.385s.455.362.595.595c.14.21.21.455.21.735 0 .747-.187 1.377-.56 1.89-.373.513-.817.77-1.33.77-.35 0-.607-.035-.77-.105a1.835 1.835 0 0 1-.42-.245c-.093-.093-.245-.175-.455-.245-.187-.07-.49-.105-.91-.105-.35 0-.712.058-1.085.175-.35.117-.677.292-.98.525a2.591 2.591 0 0 0-.735.91c-.187.35-.28.758-.28 1.225v8.505c0 .397-.035.758-.105 1.085-.07.303-.257.548-.56.735-.303.187-.793.28-1.47.28Zm14.526 0c-.63 0-1.096-.105-1.4-.315a1.194 1.194 0 0 1-.525-.77 5.188 5.188 0 0 1-.105-1.085v-12.985c0-.42.035-.782.105-1.085.07-.327.245-.572.525-.735.304-.187.782-.28 1.435-.28.63 0 1.085.082 1.365.245.304.163.49.373.56.63.094.233.14.467.14.7l-.28.63c.117-.187.28-.408.49-.665.21-.28.49-.548.84-.805.35-.28.77-.502 1.26-.665.49-.187 1.074-.28 1.75-.28.28 0 .572.035.875.105.327.047.642.128.945.245.327.093.619.222.875.385.257.163.455.362.595.595.14.21.21.455.21.735 0 .747-.186 1.377-.56 1.89-.373.513-.816.77-1.33.77-.35 0-.606-.035-.77-.105a1.835 1.835 0 0 1-.42-.245c-.093-.093-.245-.175-.455-.245-.186-.07-.49-.105-.91-.105-.35 0-.711.058-1.085.175-.35.117-.676.292-.98.525a2.591 2.591 0 0 0-.735.91c-.186.35-.28.758-.28 1.225v8.505c0 .397-.035.758-.105 1.085-.07.303-.256.548-.56.735-.303.187-.793.28-1.47.28Zm19.732.21c-1.517 0-2.847-.245-3.99-.735-1.12-.49-2.065-1.155-2.835-1.995a9.475 9.475 0 0 1-1.715-2.87 10.059 10.059 0 0 1-.56-3.325c0-1.68.385-3.173 1.155-4.48a8.251 8.251 0 0 1 3.185-3.08c1.377-.747 2.952-1.12 4.725-1.12 1.26 0 2.368.198 3.325.595.957.397 1.75.922 2.38 1.575a6.368 6.368 0 0 1 1.47 2.1c.35.77.525 1.517.525 2.24 0 1.237-.303 2.135-.91 2.695-.583.56-1.318.84-2.205.84h-9.24c.023.793.268 1.482.735 2.065a5.07 5.07 0 0 0 1.82 1.365 6.004 6.004 0 0 0 2.275.455 9.98 9.98 0 0 0 1.54-.105c.467-.07.863-.152 1.19-.245.327-.117.607-.233.84-.35.257-.117.49-.222.7-.315a2.12 2.12 0 0 1 .595-.175c.257-.023.513.035.77.175.257.14.467.385.63.735.14.233.233.455.28.665.07.187.105.373.105.56 0 .467-.28.91-.84 1.33-.56.397-1.353.723-2.38.98-1.003.28-2.193.42-3.57.42Zm-4.69-10.045h7.175c.397 0 .7-.058.91-.175.21-.14.315-.42.315-.84 0-.537-.163-1.015-.49-1.435-.327-.443-.77-.782-1.33-1.015-.56-.257-1.213-.385-1.96-.385-.863 0-1.645.175-2.345.525-.7.327-1.26.782-1.68 1.365a3.404 3.404 0 0 0-.595 1.96Zm21.212 10.045c-.606 0-1.248-.07-1.925-.21a11.095 11.095 0 0 1-1.96-.525 8.374 8.374 0 0 1-1.645-.875c-.443-.35-.723-.735-.84-1.155a1.38 1.38 0 0 1-.105-.665c.024-.233.094-.467.21-.7a3.03 3.03 0 0 1 .525-.77c.21-.257.42-.397.63-.42.234-.047.525.023.875.21.304.117.63.268.98.455l1.12.56a8.33 8.33 0 0 0 1.19.455c.42.117.829.175 1.225.175.864 0 1.552-.14 2.065-.42.514-.303.77-.723.77-1.26 0-.303-.081-.572-.245-.805a1.746 1.746 0 0 0-.665-.56 3.963 3.963 0 0 0-.945-.42 7.441 7.441 0 0 0-1.155-.35 72.538 72.538 0 0 1-1.26-.385 17.278 17.278 0 0 1-1.75-.595 6.185 6.185 0 0 1-1.575-.91 4.34 4.34 0 0 1-1.085-1.4c-.28-.56-.42-1.26-.42-2.1 0-1.05.245-1.937.735-2.66.514-.747 1.249-1.318 2.205-1.715.957-.397 2.112-.595 3.465-.595.467 0 .91.035 1.33.105.444.07.864.175 1.26.315a6.6 6.6 0 0 1 1.19.455c.397.187.77.397 1.12.63.584.327.887.712.91 1.155.024.42-.14.875-.49 1.365-.256.327-.513.56-.77.7a.967.967 0 0 1-.805 0 59.74 59.74 0 0 0-1.225-.595 8.532 8.532 0 0 0-1.33-.595 4.024 4.024 0 0 0-1.4-.245c-.466 0-.886.07-1.26.21-.373.14-.653.338-.84.595a1.51 1.51 0 0 0-.28.91c0 .327.094.595.28.805.187.21.432.385.735.525.304.14.665.268 1.085.385.42.093.864.187 1.33.28.654.14 1.319.315 1.995.525.677.21 1.295.502 1.855.875a4.13 4.13 0 0 1 1.4 1.505c.35.607.525 1.4.525 2.38 0 1.703-.63 3.022-1.89 3.955-1.236.933-2.951 1.4-5.145 1.4Zm18.935-.455c-1.144 0-2.17-.21-3.08-.63a6.881 6.881 0 0 1-2.275-1.82 8.857 8.857 0 0 1-1.4-2.73c-.304-1.027-.455-2.135-.455-3.325a11.65 11.65 0 0 1 .525-3.325c.326-1.05.793-1.96 1.4-2.73a6.881 6.881 0 0 1 2.275-1.82c.886-.443 1.89-.665 3.01-.665 1.073 0 2.076.222 3.01.665a7.86 7.86 0 0 1 2.52 1.855 8.72 8.72 0 0 1 1.75 2.765c.42 1.027.63 2.135.63 3.325 0 1.213-.21 2.333-.63 3.36a8.714 8.714 0 0 1-1.715 2.695 7.901 7.901 0 0 1-2.52 1.75c-.957.42-1.972.63-3.045.63Zm-7 7.28c-.63 0-1.097-.093-1.4-.28-.304-.187-.49-.432-.56-.735a4.695 4.695 0 0 1-.105-1.05v-20.125c0-.397.035-.747.105-1.05.07-.303.245-.548.525-.735.303-.21.77-.315 1.4-.315.606 0 1.085.093 1.435.28.35.187.583.502.7.945v20.965c.023.397-.012.747-.105 1.05-.07.327-.257.583-.56.77-.304.187-.782.28-1.435.28Zm6.44-11.2c.816 0 1.551-.187 2.205-.56a4.261 4.261 0 0 0 1.54-1.61c.396-.7.595-1.482.595-2.345 0-.887-.199-1.668-.595-2.345a4.003 4.003 0 0 0-1.54-1.575c-.654-.397-1.389-.595-2.205-.595-.794 0-1.517.198-2.17.595a4.518 4.518 0 0 0-1.575 1.61c-.374.653-.56 1.423-.56 2.31 0 .863.186 1.645.56 2.345a4.518 4.518 0 0 0 1.575 1.61c.653.373 1.376.56 2.17.56Zm19.476 4.375a8.96 8.96 0 0 1-3.29-.63 9.93 9.93 0 0 1-2.87-1.855 9.389 9.389 0 0 1-2.03-2.8c-.49-1.073-.735-2.252-.735-3.535 0-1.237.234-2.392.7-3.465a9.13 9.13 0 0 1 1.925-2.835 8.721 8.721 0 0 1 2.8-1.89 8.507 8.507 0 0 1 3.43-.7c1.634 0 3.115.397 4.445 1.19a8.768 8.768 0 0 1 3.185 3.15c.794 1.33 1.19 2.835 1.19 4.515 0 1.33-.245 2.543-.735 3.64a8.888 8.888 0 0 1-1.995 2.8 9.244 9.244 0 0 1-2.835 1.785 8.332 8.332 0 0 1-3.185.63Zm-.07-4.13c.77 0 1.505-.187 2.205-.56a4.645 4.645 0 0 0 1.75-1.68c.467-.723.7-1.575.7-2.555 0-.91-.21-1.715-.63-2.415a4.284 4.284 0 0 0-1.645-1.645c-.7-.397-1.505-.595-2.415-.595a4.47 4.47 0 0 0-2.345.63c-.7.397-1.26.957-1.68 1.68-.396.7-.595 1.493-.595 2.38 0 .98.222 1.832.665 2.555a4.829 4.829 0 0 0 1.715 1.645c.724.373 1.482.56 2.275.56Zm13.636 3.885c-.63 0-1.097-.105-1.4-.315a1.185 1.185 0 0 1-.525-.735 5.188 5.188 0 0 1-.105-1.085v-13.09c0-.373.035-.712.105-1.015.07-.303.257-.537.56-.7.303-.187.77-.28 1.4-.28.56 0 .98.07 1.26.21.28.14.467.315.56.525.093.21.14.42.14.63.023.21.047.373.07.49l-.14 1.12c.14-.373.373-.735.7-1.085.327-.35.723-.665 1.19-.945a5.899 5.899 0 0 1 1.505-.7 5.382 5.382 0 0 1 1.715-.28c1.097 0 2.077.198 2.94.595a6.258 6.258 0 0 1 2.205 1.68c.63.723 1.108 1.587 1.435 2.59.327.98.49 2.088.49 3.325v6.965c0 .397-.047.758-.14 1.085-.07.303-.245.548-.525.735-.28.187-.758.28-1.435.28-.653 0-1.132-.105-1.435-.315-.303-.187-.49-.432-.56-.735a5.188 5.188 0 0 1-.105-1.085v-6.965c0-.84-.152-1.563-.455-2.17a3.064 3.064 0 0 0-1.26-1.4c-.537-.327-1.225-.49-2.065-.49-.817 0-1.528.175-2.135.525a3.374 3.374 0 0 0-1.4 1.4c-.327.607-.49 1.318-.49 2.135v7c0 .397-.035.758-.105 1.085-.07.303-.257.548-.56.735-.28.187-.758.28-1.435.28Zm24.94 0a7.163 7.163 0 0 1-3.045-.665 8.086 8.086 0 0 1-2.52-1.82 9.052 9.052 0 0 1-1.715-2.765 9.328 9.328 0 0 1-.63-3.43c0-1.167.21-2.263.63-3.29.42-1.05.992-1.96 1.715-2.73a8.248 8.248 0 0 1 2.555-1.855 7.083 7.083 0 0 1 3.01-.665c1.12 0 2.123.222 3.01.665a6.375 6.375 0 0 1 2.24 1.855c.63.77 1.108 1.68 1.435 2.73a11.65 11.65 0 0 1 .525 3.325c0 1.19-.163 2.31-.49 3.36a7.961 7.961 0 0 1-1.4 2.73 6.645 6.645 0 0 1-2.275 1.89c-.887.443-1.902.665-3.045.665Zm.56-4.095c.817 0 1.54-.187 2.17-.56a4.254 4.254 0 0 0 1.54-1.61c.397-.677.595-1.447.595-2.31 0-.887-.198-1.668-.595-2.345a4.254 4.254 0 0 0-1.54-1.61c-.63-.397-1.353-.595-2.17-.595s-1.552.198-2.205.595c-.653.373-1.178.91-1.575 1.61-.373.677-.56 1.458-.56 2.345 0 .863.187 1.633.56 2.31a4.535 4.535 0 0 0 1.575 1.61c.677.373 1.412.56 2.205.56Zm6.475 4.095c-.653 0-1.132-.105-1.435-.315-.303-.233-.502-.595-.595-1.085v-21.56c0-.397.023-.747.07-1.05.07-.327.245-.583.525-.77.303-.21.77-.315 1.4-.315.677 0 1.155.093 1.435.28.28.187.455.443.525.77.093.303.14.653.14 1.05v20.86c0 .397-.035.758-.105 1.085-.07.327-.257.583-.56.77-.28.187-.747.28-1.4.28Zm7.917.035c-.63 0-1.097-.105-1.4-.315-.303-.187-.49-.432-.56-.735a5.188 5.188 0 0 1-.105-1.085v-13.02c0-.373.035-.712.105-1.015.093-.327.28-.583.56-.77.303-.187.782-.28 1.435-.28s1.12.093 1.4.28c.303.187.49.443.56.77.07.327.105.688.105 1.085v12.985c0 .397-.035.758-.105 1.085-.07.303-.257.548-.56.735-.28.187-.758.28-1.435.28Zm0-20.615c-.677 0-1.178-.093-1.505-.28a1.447 1.447 0 0 1-.595-.84 5.9 5.9 0 0 1-.105-1.155c0-.443.035-.828.105-1.155.093-.327.303-.583.63-.77.327-.21.828-.315 1.505-.315.7 0 1.202.105 1.505.315.303.21.502.49.595.84.093.327.14.712.14 1.155 0 .397-.047.77-.14 1.12-.093.35-.292.618-.595.805-.303.187-.817.28-1.54.28Zm14.259 20.825c-1.517 0-2.847-.245-3.99-.735-1.12-.49-2.065-1.155-2.835-1.995a9.475 9.475 0 0 1-1.715-2.87 10.059 10.059 0 0 1-.56-3.325c0-1.68.385-3.173 1.155-4.48a8.251 8.251 0 0 1 3.185-3.08c1.377-.747 2.952-1.12 4.725-1.12 1.26 0 2.368.198 3.325.595.957.397 1.75.922 2.38 1.575a6.368 6.368 0 0 1 1.47 2.1c.35.77.525 1.517.525 2.24 0 1.237-.303 2.135-.91 2.695-.583.56-1.318.84-2.205.84h-9.24c.023.793.268 1.482.735 2.065a5.07 5.07 0 0 0 1.82 1.365 6.004 6.004 0 0 0 2.275.455 9.98 9.98 0 0 0 1.54-.105c.467-.07.863-.152 1.19-.245.327-.117.607-.233.84-.35.257-.117.49-.222.7-.315a2.12 2.12 0 0 1 .595-.175c.257-.023.513.035.77.175.257.14.467.385.63.735.14.233.233.455.28.665.07.187.105.373.105.56 0 .467-.28.91-.84 1.33-.56.397-1.353.723-2.38.98-1.003.28-2.193.42-3.57.42Zm-4.69-10.045h7.175c.397 0 .7-.058.91-.175.21-.14.315-.42.315-.84 0-.537-.163-1.015-.49-1.435-.327-.443-.77-.782-1.33-1.015-.56-.257-1.213-.385-1.96-.385-.863 0-1.645.175-2.345.525-.7.327-1.26.782-1.68 1.365a3.404 3.404 0 0 0-.595 1.96Zm17.292 9.8c-.63 0-1.097-.105-1.4-.315a1.185 1.185 0 0 1-.525-.735 5.188 5.188 0 0 1-.105-1.085v-13.09c0-.373.035-.712.105-1.015.07-.303.257-.537.56-.7.303-.187.77-.28 1.4-.28.56 0 .98.07 1.26.21.28.14.467.315.56.525.093.21.14.42.14.63.023.21.047.373.07.49l-.14 1.12c.14-.373.373-.735.7-1.085.327-.35.723-.665 1.19-.945a5.899 5.899 0 0 1 1.505-.7 5.382 5.382 0 0 1 1.715-.28c1.097 0 2.077.198 2.94.595a6.258 6.258 0 0 1 2.205 1.68c.63.723 1.108 1.587 1.435 2.59.327.98.49 2.088.49 3.325v6.965c0 .397-.047.758-.14 1.085-.07.303-.245.548-.525.735-.28.187-.758.28-1.435.28-.653 0-1.132-.105-1.435-.315-.303-.187-.49-.432-.56-.735a5.188 5.188 0 0 1-.105-1.085v-6.965c0-.84-.152-1.563-.455-2.17a3.064 3.064 0 0 0-1.26-1.4c-.537-.327-1.225-.49-2.065-.49-.817 0-1.528.175-2.135.525a3.374 3.374 0 0 0-1.4 1.4c-.327.607-.49 1.318-.49 2.135v7c0 .397-.035.758-.105 1.085-.07.303-.257.548-.56.735-.28.187-.758.28-1.435.28Zm25.683.035c-1.143 0-2.123-.117-2.94-.35-.816-.233-1.481-.595-1.995-1.085-.513-.49-.898-1.12-1.155-1.89-.233-.793-.35-1.727-.35-2.8v-14.84c0-.42.035-.782.105-1.085.094-.303.28-.537.56-.7.304-.187.77-.28 1.4-.28.654 0 1.12.093 1.4.28.304.187.49.443.56.77.094.303.14.642.14 1.015v14.7c0 .49.035.887.105 1.19.094.303.222.537.385.7.187.14.42.245.7.315.304.047.665.07 1.085.07.444 0 .817.035 1.12.105.327.07.572.245.735.525.164.257.245.688.245 1.295 0 .653-.105 1.132-.315 1.435-.186.28-.443.455-.77.525-.303.07-.641.105-1.015.105Zm-7.875-16.905 3.605.035 4.83-.14c.397 0 .747.047 1.05.14.327.07.584.257.77.56.187.28.28.747.28 1.4 0 .607-.093 1.062-.28 1.365-.186.303-.431.502-.735.595-.303.07-.653.105-1.05.105l-4.69-.07-3.885.035c-.583-.023-.991-.187-1.225-.49-.21-.327-.315-.852-.315-1.575 0-.677.129-1.167.385-1.47.28-.327.7-.49 1.26-.49Zm21.475 17.115c-1.517 0-2.847-.245-3.99-.735-1.12-.49-2.065-1.155-2.835-1.995a9.454 9.454 0 0 1-1.715-2.87 10.033 10.033 0 0 1-.56-3.325c0-1.68.385-3.173 1.155-4.48a8.245 8.245 0 0 1 3.185-3.08c1.376-.747 2.951-1.12 4.725-1.12 1.26 0 2.368.198 3.325.595.956.397 1.75.922 2.38 1.575a6.368 6.368 0 0 1 1.47 2.1c.35.77.525 1.517.525 2.24 0 1.237-.304 2.135-.91 2.695-.584.56-1.319.84-2.205.84h-9.24c.023.793.268 1.482.735 2.065a5.062 5.062 0 0 0 1.82 1.365 6 6 0 0 0 2.275.455c.583 0 1.096-.035 1.54-.105.466-.07.863-.152 1.19-.245a7.77 7.77 0 0 0 .84-.35 65.1 65.1 0 0 1 .7-.315 2.12 2.12 0 0 1 .595-.175c.256-.023.513.035.77.175.256.14.466.385.63.735.14.233.233.455.28.665.07.187.105.373.105.56 0 .467-.28.91-.84 1.33-.56.397-1.354.723-2.38.98-1.004.28-2.194.42-3.57.42Zm-4.69-10.045h7.175c.396 0 .7-.058.91-.175.21-.14.315-.42.315-.84 0-.537-.164-1.015-.49-1.435-.327-.443-.77-.782-1.33-1.015-.56-.257-1.214-.385-1.96-.385-.864 0-1.645.175-2.345.525-.7.327-1.26.782-1.68 1.365a3.404 3.404 0 0 0-.595 1.96Zm17.152 9.835c-.863 0-1.47-.163-1.82-.49-.35-.35-.525-.957-.525-1.82 0-.607.07-1.073.21-1.4.163-.35.42-.607.77-.77.35-.163.817-.245 1.4-.245.863 0 1.47.175 1.82.525.35.35.525.968.525 1.855 0 .583-.082 1.05-.245 1.4-.14.35-.385.595-.735.735-.327.14-.793.21-1.4.21Z"/>
</svg>
