<svg xmlns="http://www.w3.org/2000/svg" width="256" height="66" fill="none" viewBox="0 0 256 66">
  <path fill="#fff" d="m47.125 56-5.59-13.13h-27.3L8.645 56H.65l18.395-41.6c1.04-2.34 2.145-4.247 3.315-5.72 1.213-1.517 3.077-2.275 5.59-2.275 2.47 0 4.312.715 5.525 2.145 1.257 1.43 2.318 3.142 3.185 5.135L55.25 56h-8.125Zm-21.19-40.69L17.16 35.98h21.45l-8.775-20.605c-.303-.78-.607-1.3-.91-1.56-.303-.303-.65-.455-1.04-.455s-.737.13-1.04.39c-.26.217-.563.737-.91 1.56Zm35.838-8.06h7.15V56h-7.15V7.25Zm55.382 31.72h-30.68v3.185c0 2.6.802 4.528 2.405 5.785 1.647 1.257 4.139 1.885 7.475 1.885h19.565V56H97.33c-2.686 0-5.156-.282-7.41-.845-2.253-.607-4.181-1.538-5.785-2.795-1.603-1.257-2.86-2.86-3.77-4.81C79.455 45.6 79 43.26 79 40.53v-6.825c0-5.72 1.495-10.032 4.485-12.935 3.034-2.903 7.41-4.355 13.13-4.355h3.575c5.677 0 9.924 1.278 12.74 3.835 2.817 2.557 4.225 6.392 4.225 11.505v7.215ZM101.1 22.59h-5.46c-3.293 0-5.655.737-7.085 2.21-1.386 1.473-2.08 4.117-2.08 7.93v.325h23.205V30.78c0-2.903-.585-4.983-1.755-6.24-1.17-1.3-3.445-1.95-6.825-1.95Zm43.747 43.16h-17.81v-6.175h18.98c3.294 0 5.504-.433 6.63-1.3 1.127-.867 1.69-2.318 1.69-4.355v-1.17h-13.975c-5.2 0-9.186-1.387-11.96-4.16-2.73-2.773-4.095-6.782-4.095-12.025v-3.38c0-5.243 1.365-9.252 4.095-12.025 2.774-2.773 6.76-4.16 11.96-4.16h21.125v35.165c0 4.81-1.386 8.277-4.16 10.4-2.73 2.123-6.89 3.185-12.48 3.185Zm-3.835-19.5h13.325V23.5h-13.325c-3.38 0-5.763.65-7.15 1.95-1.386 1.3-2.08 3.575-2.08 6.825v5.265c0 3.25.694 5.525 2.08 6.825 1.387 1.257 3.77 1.885 7.15 1.885Zm30.877-17.225c0-3.943 1.235-6.933 3.705-8.97 2.514-2.037 5.677-3.055 9.49-3.055h11.31v6.175h-11.635c-2.036 0-3.51.39-4.42 1.17-.866.737-1.3 2.102-1.3 4.095V56h-7.15V29.025ZM203.516 56V17h7.15v39h-7.15Zm.715-43.68L208.781.1h6.89l-5.07 12.22h-6.37Zm51.483 18.785V56h-24.05c-3.727 0-6.652-.758-8.775-2.275-2.08-1.517-3.12-3.857-3.12-7.02 0-2.123.758-3.987 2.275-5.59 1.56-1.647 3.705-3.488 6.435-5.525l16.445-12.415h-24.7V17h20.735c4.94 0 8.623 1.278 11.05 3.835 2.47 2.557 3.705 5.98 3.705 10.27ZM231.339 49.5h17.225V28.245l-17.485 13.26c-1.214.91-2.167 1.69-2.86 2.34-.694.607-1.04 1.473-1.04 2.6 0 1.083.411 1.863 1.235 2.34.823.477 1.798.715 2.925.715Z"/>
</svg>
