<svg xmlns="http://www.w3.org/2000/svg" width="630" height="60" fill="none" viewBox="0 0 630 60">
  <path fill="#fff" d="m47.125 50-5.59-13.13h-27.3L8.645 50H.65L19.045 8.4c1.04-2.34 2.145-4.247 3.315-5.72C23.573 1.163 25.437.405 27.95.405c2.47 0 4.312.715 5.525 2.145 1.257 1.43 2.318 3.142 3.185 5.135L55.25 50h-8.125ZM25.935 9.31 17.16 29.98h21.45L29.835 9.375c-.303-.78-.607-1.3-.91-1.56-.303-.303-.65-.455-1.04-.455s-.737.13-1.04.39c-.26.217-.563.737-.91 1.56Zm54.103 25.155-9.555-2.015c-3.64-.78-6.5-1.993-8.58-3.64-2.037-1.69-3.055-4.052-3.055-7.085 0-3.207 1.191-5.785 3.575-7.735C64.806 11.997 68.38 11 73.148 11h19.63v6.175h-20.93c-2.21 0-3.705.412-4.485 1.235-.78.823-1.17 1.798-1.17 2.925 0 1.213.412 2.188 1.235 2.925.823.693 2.318 1.257 4.485 1.69l9.425 1.95c4.03.823 7.15 2.037 9.36 3.64 2.253 1.56 3.38 3.965 3.38 7.215 0 3.38-1.235 6.11-3.705 8.19-2.47 2.037-6.5 3.055-12.09 3.055H59.498v-6.175h20.475c2.73 0 4.572-.412 5.525-1.235.953-.867 1.43-1.972 1.43-3.315 0-1.3-.498-2.275-1.495-2.925-.997-.693-2.795-1.322-5.395-1.885Zm37.957-17.29c-3.424 0-5.894.672-7.41 2.015-1.474 1.3-2.21 3.683-2.21 7.15v8.255c0 3.51.736 5.937 2.21 7.28 1.516 1.3 3.986 1.95 7.41 1.95h16.835V50h-17.16c-4.984 0-9.035-1.365-12.155-4.095-3.077-2.73-4.615-6.803-4.615-12.22v-6.37c0-5.417 1.538-9.49 4.615-12.22 3.12-2.73 7.171-4.095 12.155-4.095h17.16v6.175h-16.835Zm63.444 10.14v6.37c0 5.417-1.495 9.642-4.485 12.675-2.99 2.99-7.366 4.485-13.13 4.485h-4.875c-6.066 0-10.53-1.495-13.39-4.485-2.816-3.033-4.225-7.258-4.225-12.675v-6.37c0-5.417 1.409-9.62 4.225-12.61 2.86-3.033 7.324-4.55 13.39-4.55h4.875c5.764 0 10.14 1.517 13.13 4.55 2.99 2.99 4.485 7.193 4.485 12.61Zm-7.475-.975c0-3.467-.671-6.002-2.015-7.605-1.3-1.603-3.705-2.405-7.215-2.405h-6.76c-3.293 0-5.655.802-7.085 2.405-1.386 1.603-2.08 4.138-2.08 7.605v8.32c0 3.467.694 6.002 2.08 7.605 1.43 1.603 3.792 2.405 7.085 2.405h6.76c3.51 0 5.915-.802 7.215-2.405 1.344-1.603 2.015-4.138 2.015-7.605v-8.32Zm42.24-25.09h7.15l-13 55.9h-7.15l13-55.9Zm52.64 0c7.28 0 12.891 1.798 16.835 5.395 3.943 3.597 5.915 8.623 5.915 15.08v7.8c0 6.457-1.95 11.483-5.85 15.08-3.857 3.597-9.599 5.395-17.225 5.395h-21.775V1.25h22.1Zm.975 6.5h-15.6V43.5h15.275c4.506 0 7.951-.932 10.335-2.795 2.426-1.907 3.64-5.048 3.64-9.425V19.905c0-4.377-1.192-7.497-3.575-9.36-2.34-1.863-5.699-2.795-10.075-2.795Zm66.457 25.22h-30.68v3.185c0 2.6.802 4.528 2.405 5.785 1.647 1.257 4.139 1.885 7.475 1.885h19.565V50h-18.59c-2.686 0-5.156-.282-7.41-.845-2.253-.607-4.181-1.538-5.785-2.795-1.603-1.257-2.86-2.86-3.77-4.81-.91-1.95-1.365-4.29-1.365-7.02v-6.825c0-5.72 1.495-10.032 4.485-12.935 3.034-2.903 7.41-4.355 13.13-4.355h3.575c5.677 0 9.924 1.278 12.74 3.835 2.817 2.557 4.225 6.392 4.225 11.505v7.215Zm-16.055-16.38h-5.46c-3.293 0-5.655.737-7.085 2.21-1.386 1.473-2.08 4.117-2.08 7.93v.325h23.205V24.78c0-2.903-.585-4.983-1.755-6.24-1.17-1.3-3.445-1.95-6.825-1.95Zm43.748 17.875-9.555-2.015c-3.64-.78-6.5-1.993-8.58-3.64-2.037-1.69-3.055-4.052-3.055-7.085 0-3.207 1.105-5.785 3.315-7.735 2.253-1.993 5.915-2.99 10.985-2.99h27.43v6.175h-28.73c-2.21 0-3.705.412-4.485 1.235-.78.823-1.17 1.798-1.17 2.925 0 1.213.411 2.188 1.235 2.925.823.693 2.318 1.257 4.485 1.69l9.425 1.95c4.03.823 7.15 2.037 9.36 3.64 2.253 1.56 3.38 3.965 3.38 7.215 0 3.38-1.192 6.11-3.575 8.19-2.384 2.037-6.457 3.055-12.22 3.055h-18.135v-6.175h19.825c2.73 0 4.571-.412 5.525-1.235.953-.867 1.43-1.972 1.43-3.315 0-1.3-.499-2.275-1.495-2.925-.997-.693-2.795-1.322-5.395-1.885Zm55.197-9.36V50h-24.05c-3.727 0-6.652-.758-8.775-2.275-2.08-1.517-3.12-3.857-3.12-7.02 0-2.123.758-3.987 2.275-5.59 1.56-1.647 3.705-3.488 6.435-5.525l16.445-12.415h-24.7V11h20.735c4.94 0 8.623 1.278 11.05 3.835 2.47 2.557 3.705 5.98 3.705 10.27ZM394.791 43.5h17.225V22.245l-17.485 13.26c-1.214.91-2.167 1.69-2.86 2.34-.694.607-1.04 1.473-1.04 2.6 0 1.083.411 1.863 1.235 2.34.823.477 1.798.715 2.925.715Zm53.665 16.25h-17.81v-6.175h18.98c3.293 0 5.503-.433 6.63-1.3 1.126-.867 1.69-2.318 1.69-4.355v-1.17h-13.975c-5.2 0-9.187-1.387-11.96-4.16-2.73-2.773-4.095-6.782-4.095-12.025v-3.38c0-5.243 1.365-9.252 4.095-12.025 2.773-2.773 6.76-4.16 11.96-4.16h21.125v35.165c0 4.81-1.387 8.277-4.16 10.4-2.73 2.123-6.89 3.185-12.48 3.185Zm-3.835-19.5h13.325V17.5h-13.325c-3.38 0-5.764.65-7.15 1.95-1.387 1.3-2.08 3.575-2.08 6.825v5.265c0 3.25.693 5.525 2.08 6.825 1.386 1.257 3.77 1.885 7.15 1.885Zm30.877-17.225c0-3.943 1.235-6.933 3.705-8.97 2.513-2.037 5.677-3.055 9.49-3.055h10.01v6.175h-10.335c-2.037 0-3.51.39-4.42 1.17-.867.737-1.3 2.102-1.3 4.095V50h-7.15V23.025Zm57.735 2.08V50h-24.05c-3.727 0-6.652-.758-8.775-2.275-2.08-1.517-3.12-3.857-3.12-7.02 0-2.123.758-3.987 2.275-5.59 1.56-1.647 3.705-3.488 6.435-5.525l16.445-12.415h-24.7V11h20.735c4.94 0 8.623 1.278 11.05 3.835 2.47 2.557 3.705 5.98 3.705 10.27ZM508.858 43.5h17.225V22.245l-17.485 13.26c-1.213.91-2.167 1.69-2.86 2.34-.693.607-1.04 1.473-1.04 2.6 0 1.083.412 1.863 1.235 2.34.823.477 1.798.715 2.925.715Zm71.605-42.25V50h-21.775c-5.2 0-9.186-1.452-11.96-4.355-2.73-2.903-4.095-7.063-4.095-12.48v-5.33c0-5.417 1.365-9.577 4.095-12.48 2.774-2.903 6.76-4.355 11.96-4.355h14.625V1.25h7.15Zm-21.125 42.575h13.975v-26.65h-13.975c-3.38 0-5.763.758-7.15 2.275-1.386 1.473-2.08 3.943-2.08 7.41v7.215c0 3.51.694 6.023 2.08 7.54 1.387 1.473 3.77 2.21 7.15 2.21Zm70.627-16.51v6.37c0 5.417-1.495 9.642-4.485 12.675-2.99 2.99-7.367 4.485-13.13 4.485h-4.875c-6.067 0-10.53-1.495-13.39-4.485-2.817-3.033-4.225-7.258-4.225-12.675v-6.37c0-5.417 1.408-9.62 4.225-12.61 2.86-3.033 7.323-4.55 13.39-4.55h4.875c5.763 0 10.14 1.517 13.13 4.55 2.99 2.99 4.485 7.193 4.485 12.61Zm-7.475-.975c0-3.467-.672-6.002-2.015-7.605-1.3-1.603-3.705-2.405-7.215-2.405h-6.76c-3.294 0-5.655.802-7.085 2.405-1.387 1.603-2.08 4.138-2.08 7.605v8.32c0 3.467.693 6.002 2.08 7.605 1.43 1.603 3.791 2.405 7.085 2.405h6.76c3.51 0 5.915-.802 7.215-2.405 1.343-1.603 2.015-4.138 2.015-7.605v-8.32Z"/>
</svg>
