<svg xmlns="http://www.w3.org/2000/svg" width="78" height="49" fill="none" viewBox="0 0 78 49">
  <path fill="#fff" d="M.5 49V.25h7.475V49H.5Zm19.203-26.975c0-3.943 1.235-6.933 3.705-8.97C25.92 11.018 29.085 10 32.898 10h10.01v6.175H32.573c-2.037 0-3.51.39-4.42 1.17-.867.737-1.3 2.102-1.3 4.095V49h-7.15V22.025Zm57.735 2.08V49h-24.05c-3.727 0-6.651-.758-8.775-2.275-2.08-1.517-3.12-3.857-3.12-7.02 0-2.123.758-3.987 2.275-5.59 1.56-1.647 3.705-3.488 6.435-5.525l16.445-12.415h-24.7V10h20.735c4.94 0 8.623 1.278 11.05 3.835 2.47 2.557 3.705 5.98 3.705 10.27ZM53.063 42.5h17.225V21.245l-17.485 13.26c-1.213.91-2.166 1.69-2.86 2.34-.693.607-1.04 1.473-1.04 2.6 0 1.083.412 1.863 1.235 2.34.824.477 1.799.715 2.925.715Z"/>
</svg>
