<svg xmlns="http://www.w3.org/2000/svg" width="229" height="51" fill="none" viewBox="0 0 229 51">
  <path fill="#fff" d="M.925 50 8.4 9.05c.52-2.86 1.43-5.005 2.73-6.435 1.3-1.473 3.185-2.21 5.655-2.21 2.73 0 4.745.888 6.045 2.665 1.343 1.733 2.318 3.9 2.925 6.5l7.93 33.475c.13.563.26 1.018.39 1.365a.844.844 0 0 0 .78.455c.39 0 .65-.152.78-.455.13-.303.26-.737.39-1.3l8.06-33.54c.607-2.6 1.625-4.767 3.055-6.5C48.57 1.293 50.563.405 53.12.405c2.687 0 4.68.737 5.98 2.21 1.343 1.43 2.275 3.575 2.795 6.435L69.24 50h-7.93L54.55 8.725c-.087-.65-.238-1.105-.455-1.365a1.048 1.048 0 0 0-.845-.39c-.39 0-.715.13-.975.39s-.477.737-.65 1.43l-7.93 33.41c-.65 2.773-1.625 4.918-2.925 6.435-1.257 1.473-3.228 2.21-5.915 2.21-2.773 0-4.767-.802-5.98-2.405-1.213-1.647-2.102-3.64-2.665-5.98L18.345 8.855c-.173-.737-.368-1.235-.585-1.495-.217-.26-.52-.39-.91-.39-.347 0-.65.13-.91.39s-.433.715-.52 1.365L8.53 50H.925ZM85.141 7.62h-7.15V1.25h7.15v6.37ZM77.99 50V11h7.15v39h-7.15Zm55.382-17.03h-30.68v3.185c0 2.6.802 4.528 2.405 5.785 1.647 1.257 4.138 1.885 7.475 1.885h19.565V50h-18.59c-2.687 0-5.157-.282-7.41-.845-2.253-.607-4.182-1.538-5.785-2.795-1.603-1.257-2.86-2.86-3.77-4.81-.91-1.95-1.365-4.29-1.365-7.02v-6.825c0-5.72 1.495-10.032 4.485-12.935 3.033-2.903 7.41-4.355 13.13-4.355h3.575c5.677 0 9.923 1.278 12.74 3.835s4.225 6.392 4.225 11.505v7.215Zm-16.055-16.38h-5.46c-3.293 0-5.655.737-7.085 2.21-1.387 1.473-2.08 4.117-2.08 7.93v.325h23.205V24.78c0-2.903-.585-4.983-1.755-6.24-1.17-1.3-3.445-1.95-6.825-1.95Zm61.687-15.34V50H157.23c-5.2 0-9.186-1.452-11.96-4.355-2.73-2.903-4.095-7.063-4.095-12.48v-5.33c0-5.417 1.365-9.577 4.095-12.48 2.774-2.903 6.76-4.355 11.96-4.355h14.625V1.25h7.15ZM157.88 43.825h13.975v-26.65H157.88c-3.38 0-5.763.758-7.15 2.275-1.386 1.473-2.08 3.943-2.08 7.41v7.215c0 3.51.694 6.023 2.08 7.54 1.387 1.473 3.77 2.21 7.15 2.21Zm70.627-16.51v6.37c0 5.417-1.495 9.642-4.485 12.675-2.99 2.99-7.367 4.485-13.13 4.485h-4.875c-6.067 0-10.53-1.495-13.39-4.485-2.817-3.033-4.225-7.258-4.225-12.675v-6.37c0-5.417 1.408-9.62 4.225-12.61 2.86-3.033 7.323-4.55 13.39-4.55h4.875c5.763 0 10.14 1.517 13.13 4.55 2.99 2.99 4.485 7.193 4.485 12.61Zm-7.475-.975c0-3.467-.672-6.002-2.015-7.605-1.3-1.603-3.705-2.405-7.215-2.405h-6.76c-3.294 0-5.655.802-7.085 2.405-1.387 1.603-2.08 4.138-2.08 7.605v8.32c0 3.467.693 6.002 2.08 7.605 1.43 1.603 3.791 2.405 7.085 2.405h6.76c3.51 0 5.915-.802 7.215-2.405 1.343-1.603 2.015-4.138 2.015-7.605v-8.32Z"/>
</svg>
