<svg xmlns="http://www.w3.org/2000/svg" width="566" height="79" fill="none" viewBox="0 0 566 79">
  <g filter="url(#a)">
    <mask id="b" fill="#fff">
      <path d="M37.7 2.5c4.68 0 8.82.27 12.42.81 3.6.48 6.57 1.35 8.91 2.61 2.4 1.26 4.2 2.97 5.4 5.13 1.26 2.16 1.89 4.92 1.89 8.28v2.97c0 2.76-.78 5.34-2.34 7.74-1.56 2.34-4.41 4.17-8.55 5.49 4.56 1.32 7.8 3.21 9.72 5.67 1.92 2.4 2.88 5.04 2.88 7.92v3.15c0 6.36-2.22 10.92-6.66 13.68C56.93 68.65 49.4 70 38.78 70H4.85V2.5H37.7Zm1.26 12.78H22.85v13.86h15.66c3.84 0 6.36-.45 7.56-1.35 1.2-.9 1.8-2.37 1.8-4.41v-2.07c0-2.04-.6-3.54-1.8-4.5-1.14-1.02-3.51-1.53-7.11-1.53Zm1.71 27.18H22.85v14.76h17.37c3.96 0 6.51-.51 7.65-1.53 1.14-1.02 1.71-2.55 1.71-4.59v-2.16c0-2.04-.57-3.63-1.71-4.77-1.08-1.14-3.48-1.71-7.2-1.71Zm51.649-31.14h-17.1V.7h17.1v10.62ZM75.219 70V16h17.1v54h-17.1Zm80.917-21.96h-38.61v.36c0 3.42.75 5.7 2.25 6.84 1.5 1.14 4.08 1.71 7.74 1.71h27.36V70h-26.37c-5.28 0-9.75-.57-13.41-1.71-3.6-1.2-6.51-2.85-8.73-4.95-2.16-2.16-3.75-4.74-4.77-7.74-.96-3-1.44-6.3-1.44-9.9v-6.84c0-7.14 2.07-12.84 6.21-17.1 4.14-4.32 10.92-6.48 20.34-6.48h3.6c5.04 0 9.24.6 12.6 1.8 3.36 1.2 6 2.91 7.92 5.13 1.98 2.16 3.36 4.77 4.14 7.83.78 3.06 1.17 6.45 1.17 10.17v7.83Zm-23.85-20.7h-7.02c-2.88 0-4.89.63-6.03 1.89-1.14 1.26-1.71 3.36-1.71 6.3v1.17h22.41v-1.17c0-2.94-.6-5.04-1.8-6.3-1.14-1.26-3.09-1.89-5.85-1.89ZM163.175 70V16h33.48c7.86 0 13.56 1.98 17.1 5.94 3.54 3.96 5.31 9.33 5.31 16.11V70h-17.1V37.6c0-2.76-.48-4.71-1.44-5.85-.9-1.2-2.67-1.8-5.31-1.8h-14.94V70h-17.1Zm74.364-54 12.06 37.89c.36 1.14.69 1.89.99 2.25.3.3.72.45 1.26.45.42 0 .78-.18 1.08-.54.3-.42.63-1.2.99-2.34L265.889 16h17.1l-14.58 40.86c-1.74 4.86-3.93 8.43-6.57 10.71-2.64 2.22-5.97 3.33-9.99 3.33-4.32 0-7.86-1.08-10.62-3.24-2.76-2.22-4.95-5.58-6.57-10.08L219.899 16h17.64Zm101.195 32.04h-38.61v.36c0 3.42.75 5.7 2.25 6.84 1.5 1.14 4.08 1.71 7.74 1.71h27.36V70h-26.37c-5.28 0-9.75-.57-13.41-1.71-3.6-1.2-6.51-2.85-8.73-4.95-2.16-2.16-3.75-4.74-4.77-7.74-.96-3-1.44-6.3-1.44-9.9v-6.84c0-7.14 2.07-12.84 6.21-17.1 4.14-4.32 10.92-6.48 20.34-6.48h3.6c5.04 0 9.24.6 12.6 1.8 3.36 1.2 6 2.91 7.92 5.13 1.98 2.16 3.36 4.77 4.14 7.83.78 3.06 1.17 6.45 1.17 10.17v7.83Zm-23.85-20.7h-7.02c-2.88 0-4.89.63-6.03 1.89-1.14 1.26-1.71 3.36-1.71 6.3v1.17h22.41v-1.17c0-2.94-.6-5.04-1.8-6.3-1.14-1.26-3.09-1.89-5.85-1.89ZM345.774 70V16h33.48c7.86 0 13.56 1.98 17.1 5.94 3.54 3.96 5.31 9.33 5.31 16.11V70h-17.1V37.6c0-2.76-.48-4.71-1.44-5.85-.9-1.2-2.67-1.8-5.31-1.8h-14.94V70h-17.1Zm82.737-58.68h-17.1V.7h17.1v10.62ZM411.411 70V16h17.1v54h-17.1Zm84.607-67.5V70h-38.34c-6.66 0-11.88-2.22-15.66-6.66-3.78-4.44-5.67-10.32-5.67-17.64v-5.4c0-7.32 1.89-13.2 5.67-17.64 3.78-4.44 9-6.66 15.66-6.66h21.24V2.5h17.1Zm-32.49 54.18h15.39V29.32h-15.39c-3.66 0-6.18.84-7.56 2.52-1.38 1.68-2.07 4.29-2.07 7.83v7.11c0 3.54.69 6.09 2.07 7.65 1.38 1.5 3.9 2.25 7.56 2.25Zm97.993-16.92v6.48c0 7.5-2.28 13.5-6.84 18-4.5 4.44-10.95 6.66-19.35 6.66h-6.3c-8.4 0-14.88-2.22-19.44-6.66-4.56-4.5-6.84-10.5-6.84-18v-6.48c0-7.5 2.28-13.47 6.84-17.91 4.56-4.5 11.04-6.75 19.44-6.75h6.3c8.4 0 14.85 2.25 19.35 6.75 4.56 4.44 6.84 10.41 6.84 17.91Zm-17.55-1.44c0-3.48-.66-6.06-1.98-7.74-1.26-1.74-3.54-2.61-6.84-2.61h-5.94c-3.3 0-5.61.87-6.93 2.61-1.32 1.68-1.98 4.26-1.98 7.74v9.27c0 3.54.66 6.18 1.98 7.92 1.32 1.68 3.63 2.52 6.93 2.52h5.94c3.3 0 5.58-.84 6.84-2.52 1.32-1.74 1.98-4.38 1.98-7.92v-9.27Z"/>
    </mask>
    <path fill="#fff" d="m50.12 3.31-.297 1.978.017.002.016.002.264-1.982Zm8.91 2.61-.948 1.76.009.006.01.005.929-1.771Zm5.4 5.13-1.748.971.01.019.01.018 1.728-1.008Zm-.45 18.99 1.664 1.11.007-.01.006-.01-1.677-1.09Zm-8.55 5.49-.608-1.906-6.266 1.998 6.318 1.83.556-1.922Zm9.72 5.67-1.577 1.23.008.01.007.01 1.562-1.25Zm-3.78 24.75 1.04 1.709.008-.005.008-.005-1.056-1.699ZM4.85 70h-2v2h2v-2Zm0-67.5v-2h-2v2h2Zm18 12.78v-2h-2v2h2Zm0 13.86h-2v2h2v-2Zm23.22-1.35-1.2-1.6 1.2 1.6Zm0-10.98-1.334 1.49.042.037.043.035 1.249-1.562ZM22.85 42.46v-2h-2v2h2Zm0 14.76h-2v2h2v-2Zm25.02-13.05-1.452 1.375.019.02.019.02 1.414-1.415ZM37.7 4.5c4.607 0 8.645.266 12.123.788l.594-3.956C46.695.774 42.453.5 37.7.5v4Zm12.156.792c3.442.46 6.16 1.277 8.226 2.389l1.896-3.522c-2.615-1.408-5.836-2.33-9.594-2.831l-.528 3.964ZM58.1 7.691c2.09 1.097 3.59 2.544 4.582 4.33l3.496-1.942c-1.407-2.534-3.508-4.507-6.218-5.93L58.1 7.691Zm4.602 4.367c1.03 1.766 1.618 4.149 1.618 7.272h4c0-3.597-.673-6.734-2.162-9.288l-3.456 2.016Zm1.618 7.272v2.97h4v-2.97h-4Zm0 2.97c0 2.358-.66 4.562-2.017 6.65l3.354 2.18c1.763-2.712 2.663-5.668 2.663-8.83h-4Zm-2.004 6.63c-1.204 1.806-3.563 3.441-7.494 4.694l1.216 3.811c4.349-1.386 7.69-3.41 9.606-6.286l-3.328-2.218Zm-7.442 8.521c4.354 1.26 7.142 2.984 8.7 4.98l3.153-2.462c-2.283-2.924-5.975-4.98-10.74-6.36l-1.113 3.842Zm8.714 4.998c1.657 2.071 2.442 4.277 2.442 6.671h4c0-3.366-1.135-6.44-3.318-9.17l-3.124 2.5Zm2.442 6.671v3.15h4v-3.15h-4Zm0 3.15c0 5.842-1.997 9.67-5.716 11.981l2.112 3.398c5.16-3.209 7.604-8.501 7.604-15.379h-4Zm-5.7 11.971C56.393 66.637 49.345 68 38.78 68v4c10.676 0 18.688-1.337 23.63-4.341l-2.08-3.418ZM38.78 68H4.85v4h33.93v-4ZM6.85 70V2.5h-4V70h4Zm-2-65.5H37.7v-4H4.85v4Zm34.11 8.78H22.85v4h16.11v-4Zm-18.11 2v13.86h4V15.28h-4Zm2 15.86h15.66v-4H22.85v4Zm15.66 0c1.986 0 3.704-.115 5.122-.369 1.378-.246 2.67-.655 3.638-1.381l-2.4-3.2c-.232.174-.8.44-1.942.644-1.101.196-2.564.306-4.418.306v4Zm8.76-1.75c1.871-1.403 2.6-3.585 2.6-6.01h-4c0 1.655-.471 2.413-1 2.81l2.4 3.2Zm2.6-6.01v-2.07h-4v2.07h4Zm0-2.07c0-2.434-.731-4.606-2.55-6.062l-2.5 3.124c.581.464 1.05 1.292 1.05 2.938h4Zm-2.466-5.99c-.938-.84-2.2-1.323-3.546-1.613-1.372-.295-3.018-.427-4.898-.427v4c1.72 0 3.06.123 4.057.338 1.025.22 1.517.502 1.72.683l2.667-2.981ZM40.67 40.46H22.85v4h17.82v-4Zm-19.82 2v14.76h4V42.46h-4Zm2 16.76h17.37v-4H22.85v4Zm17.37 0c2.051 0 3.822-.13 5.275-.421 1.409-.282 2.746-.757 3.709-1.618L46.536 54.2c-.177.158-.685.448-1.826.676-1.097.22-2.581.344-4.49.344v4Zm8.984-2.04c1.693-1.514 2.376-3.67 2.376-6.08h-4c0 1.67-.457 2.574-1.044 3.1l2.668 2.98Zm2.376-6.08v-2.16h-4v2.16h4Zm0-2.16c0-2.422-.688-4.576-2.296-6.184l-2.828 2.828c.672.672 1.124 1.698 1.124 3.356h4Zm-2.258-6.145c-.92-.971-2.22-1.526-3.6-1.853-1.407-.335-3.107-.482-5.052-.482v4c1.774 0 3.135.138 4.128.373 1.02.243 1.46.543 1.62.712l2.904-2.75ZM92.319 11.32v2h2v-2h-2Zm-17.1 0h-2v2h2v-2Zm0-10.62v-2h-2v2h2Zm17.1 0h2v-2h-2v2ZM75.219 70h-2v2h2v-2Zm0-54v-2h-2v2h2Zm17.1 0h2v-2h-2v2Zm0 54v2h2v-2h-2Zm0-60.68h-17.1v4h17.1v-4Zm-15.1 2V.7h-4v10.62h4Zm-2-8.62h17.1v-4h-17.1v4Zm15.1-2v10.62h4V.7h-4ZM77.219 70V16h-4v54h4Zm-2-52h17.1v-4h-17.1v4Zm15.1-2v54h4V16h-4Zm2 52h-17.1v4h17.1v-4Zm63.817-19.96v2h2v-2h-2Zm-38.61 0v-2h-2v2h2Zm2.25 7.2 1.21-1.592-1.21 1.592Zm35.1 1.71h2v-2h-2v2Zm0 13.05v2h2v-2h-2Zm-39.78-1.71-.633 1.897.019.007.019.005.595-1.909Zm-8.73-4.95-1.414 1.414.019.02.02.019 1.375-1.453Zm-4.77-7.74-1.905.61.005.017.006.017 1.894-.644Zm4.77-33.84 1.434 1.394.01-.01-1.444-1.384Zm36.54-4.68-.673 1.884.673-1.884Zm7.92 5.13-1.513 1.308.019.022.019.021 1.475-1.351Zm4.14 7.83 1.938-.494-1.938.494Zm-35.73-.81 1.483 1.342-1.483-1.342Zm-1.71 7.47h-2v2h2v-2Zm22.41 0v2h2v-2h-2Zm-1.8-7.47-1.483 1.342.017.019.018.018 1.448-1.379Zm18 16.81h-38.61v4h38.61v-4Zm-40.61 2v.36h4v-.36h-4Zm0 .36c0 3.56.754 6.695 3.04 8.432l2.42-3.184c-.714-.543-1.46-1.969-1.46-5.248h-4Zm3.04 8.432c2.05 1.558 5.203 2.118 8.95 2.118v-4c-3.573 0-5.58-.58-6.53-1.302l-2.42 3.184Zm8.95 2.118h27.36v-4h-27.36v4Zm25.36-2V70h4V56.95h-4Zm2 11.05h-26.37v4h26.37v-4Zm-26.37 0c-5.149 0-9.405-.557-12.815-1.62l-1.19 3.82c3.91 1.217 8.593 1.8 14.005 1.8v-4Zm-12.778-1.607c-3.388-1.13-6.025-2.649-7.988-4.506l-2.749 2.906c2.477 2.343 5.661 4.124 9.472 5.394l1.265-3.794Zm-7.948-4.467c-1.935-1.935-3.366-4.249-4.291-6.97l-3.787 1.288c1.115 3.279 2.865 6.125 5.25 8.51l2.828-2.828Zm-4.279-6.936c-.889-2.777-1.345-5.868-1.345-9.29h-4c0 3.778.504 7.287 1.535 10.51l3.81-1.22Zm-1.345-9.29v-6.84h-4v6.84h4Zm0-6.84c0-6.731 1.938-11.893 5.644-15.706l-2.868-2.788c-4.574 4.707-6.776 10.945-6.776 18.494h4Zm5.654-15.716c3.594-3.75 9.716-5.864 18.896-5.864v-4c-9.66 0-17.098 2.206-21.784 7.096l2.888 2.768Zm18.896-5.864h3.6v-4h-3.6v4Zm3.6 0c4.898 0 8.852.585 11.927 1.683l1.345-3.767c-3.644-1.301-8.09-1.916-13.272-1.916v4Zm11.927 1.683c3.105 1.11 5.43 2.647 7.08 4.555l3.026-2.616c-2.19-2.532-5.145-4.414-8.761-5.706l-1.345 3.768Zm7.118 4.598c1.74 1.899 2.972 4.207 3.677 6.973l3.876-.988c-.855-3.354-2.384-6.266-4.604-8.688l-2.949 2.703Zm3.677 6.973c.732 2.873 1.108 6.094 1.108 9.676h4c0-3.858-.405-7.417-1.232-10.664l-3.876.988Zm1.108 9.676v7.83h4v-7.83h-4Zm-21.85-14.87h-7.02v4h7.02v-4Zm-7.02 0c-3.071 0-5.8.655-7.513 2.548l2.966 2.684c.567-.627 1.858-1.232 4.547-1.232v-4Zm-7.513 2.548c-1.643 1.816-2.227 4.538-2.227 7.642h4c0-2.776.556-4.254 1.193-4.958l-2.966-2.684Zm-2.227 7.642v1.17h4v-1.17h-4Zm2 3.17h22.41v-4h-22.41v4Zm24.41-2v-1.17h-4v1.17h4Zm0-1.17c0-3.123-.622-5.862-2.352-7.68l-2.896 2.76c.669.702 1.248 2.163 1.248 4.92h4Zm-2.317-7.642c-1.7-1.88-4.351-2.548-7.333-2.548v4c2.537 0 3.787.591 4.367 1.232l2.966-2.684ZM163.175 70h-2v2h2v-2Zm0-54v-2h-2v2h2Zm50.58 5.94-1.491 1.333 1.491-1.333Zm5.31 48.06v2h2v-2h-2Zm-17.1 0h-2v2h2v-2Zm-1.44-38.25-1.6 1.2.034.045.037.043 1.529-1.288Zm-20.25-1.8v-2h-2v2h2Zm0 40.05v2h2v-2h-2Zm-15.1 0V16h-4v54h4Zm-2-52h33.48v-4h-33.48v4Zm33.48 0c7.567 0 12.601 1.907 15.609 5.273l2.983-2.666C211.175 16.053 204.809 14 196.655 14v4Zm15.609 5.273c3.13 3.5 4.801 8.349 4.801 14.777h4c0-7.131-1.868-13.024-5.818-17.443l-2.983 2.666Zm4.801 14.777V70h4V38.05h-4Zm2 29.95h-17.1v4h17.1v-4Zm-15.1 2V37.6h-4V70h4Zm0-32.4c0-2.878-.477-5.437-1.91-7.138l-3.059 2.576c.487.58.969 1.92.969 4.562h4Zm-1.84-7.05c-1.488-1.984-4.102-2.6-6.91-2.6v4c2.473 0 3.399.584 3.71 1l3.2-2.4Zm-6.91-2.6h-14.94v4h14.94v-4Zm-16.94 2V70h4V29.95h-4Zm2 38.05h-17.1v4h17.1v-4Zm57.264-52 1.906-.607-.443-1.393h-1.463v2Zm12.06 37.89 1.908-.602-.002-.005-1.906.607Zm.99 2.25-1.536 1.28.058.07.064.064 1.414-1.414Zm2.34-.09 1.537 1.28.048-.057.043-.06-1.628-1.163Zm.99-2.34-1.906-.605-.001.003 1.907.602ZM265.889 16v-2h-1.463l-.443 1.395 1.906.605Zm17.1 0 1.884.672.954-2.672h-2.838v2Zm-14.58 40.86 1.883.674.001-.002-1.884-.672Zm-6.57 10.71 1.288 1.53.01-.008.01-.008-1.308-1.514Zm-20.61.09-1.253 1.558.01.009.011.008 1.232-1.575Zm-6.57-10.08-1.884.67.003.007 1.881-.677ZM219.899 16v-2h-2.832l.948 2.67 1.884-.67Zm15.735.607 12.06 37.89 3.811-1.214-12.06-37.89-3.811 1.214Zm12.058 37.885c.353 1.118.778 2.229 1.361 2.928l3.073-2.56c.027.032-.042-.047-.178-.358a12.287 12.287 0 0 1-.441-1.214l-3.815 1.204Zm1.483 3.062c.771.77 1.756 1.036 2.674 1.036v-4c-.087 0-.093-.012-.047.004a.49.49 0 0 1 .095.047.654.654 0 0 1 .107.085l-2.829 2.828Zm2.674 1.036c1.087 0 1.986-.503 2.617-1.26l-3.073-2.56c-.002.002.043-.052.147-.104a.713.713 0 0 1 .309-.076v4Zm2.708-1.378c.501-.701.907-1.753 1.27-2.9l-3.815-1.204c-.358 1.133-.611 1.641-.71 1.78l3.255 2.325Zm1.269-2.897 11.97-37.71-3.813-1.21-11.97 37.71 3.813 1.21ZM265.889 18h17.1v-4h-17.1v4Zm15.217-2.672-14.58 40.86 3.767 1.344 14.58-40.86-3.767-1.344Zm-14.58 40.858c-1.675 4.68-3.711 7.899-5.994 9.87l2.615 3.028c2.997-2.589 5.341-6.51 7.145-11.55l-3.766-1.348Zm-5.974 9.853c-2.221 1.868-5.072 2.861-8.703 2.861v4c4.409 0 8.219-1.227 11.278-3.8l-2.575-3.06Zm-8.703 2.861c-3.979 0-7.054-.99-9.387-2.815l-2.465 3.15c3.187 2.495 7.192 3.665 11.852 3.665v-4Zm-9.366-2.798c-2.39-1.923-4.404-4.928-5.942-9.2l-3.763 1.355c1.702 4.73 4.068 8.444 7.198 10.961l2.507-3.116Zm-5.939-9.191-14.76-41.58-3.769 1.338 14.76 41.58 3.769-1.338ZM219.899 18h17.64v-4h-17.64v4Zm118.835 30.04v2h2v-2h-2Zm-38.61 0v-2h-2v2h2Zm2.25 7.2 1.21-1.592-1.21 1.592Zm35.1 1.71h2v-2h-2v2Zm0 13.05v2h2v-2h-2Zm-39.78-1.71-.633 1.897.019.007.019.005.595-1.909Zm-8.73-4.95-1.414 1.414.019.02.02.019 1.375-1.453Zm-4.77-7.74-1.905.61.005.017.006.017 1.894-.644Zm4.77-33.84 1.434 1.394.01-.01-1.444-1.384Zm36.54-4.68-.673 1.884.673-1.884Zm7.92 5.13-1.513 1.308.019.022.02.021 1.474-1.351Zm4.14 7.83 1.938-.494-1.938.494Zm-35.73-.81 1.483 1.342-1.483-1.342Zm-1.71 7.47h-2v2h2v-2Zm22.41 0v2h2v-2h-2Zm-1.8-7.47-1.483 1.342.017.019.018.018 1.448-1.379Zm18 16.81h-38.61v4h38.61v-4Zm-40.61 2v.36h4v-.36h-4Zm0 .36c0 3.56.754 6.695 3.04 8.432l2.42-3.184c-.714-.543-1.46-1.969-1.46-5.248h-4Zm3.04 8.432c2.05 1.558 5.203 2.118 8.95 2.118v-4c-3.573 0-5.58-.58-6.53-1.302l-2.42 3.184Zm8.95 2.118h27.36v-4h-27.36v4Zm25.36-2V70h4V56.95h-4Zm2 11.05h-26.37v4h26.37v-4Zm-26.37 0c-5.149 0-9.405-.557-12.815-1.62l-1.19 3.82c3.91 1.217 8.593 1.8 14.005 1.8v-4Zm-12.778-1.607c-3.388-1.13-6.025-2.649-7.988-4.506l-2.749 2.906c2.477 2.343 5.661 4.124 9.472 5.394l1.265-3.794Zm-7.948-4.467c-1.935-1.935-3.365-4.249-4.291-6.97l-3.787 1.288c1.115 3.279 2.865 6.125 5.25 8.51l2.828-2.828Zm-4.279-6.936c-.889-2.777-1.345-5.868-1.345-9.29h-4c0 3.778.504 7.287 1.535 10.51l3.81-1.22Zm-1.345-9.29v-6.84h-4v6.84h4Zm0-6.84c0-6.731 1.938-11.893 5.644-15.706l-2.868-2.788c-4.574 4.707-6.776 10.945-6.776 18.494h4Zm5.654-15.716c3.594-3.75 9.716-5.864 18.896-5.864v-4c-9.66 0-17.098 2.206-21.784 7.096l2.888 2.768Zm18.896-5.864h3.6v-4h-3.6v4Zm3.6 0c4.898 0 8.852.585 11.927 1.683l1.346-3.767c-3.645-1.301-8.091-1.916-13.273-1.916v4Zm11.927 1.683c3.105 1.11 5.43 2.647 7.08 4.555l3.026-2.616c-2.19-2.532-5.145-4.414-8.76-5.706l-1.346 3.768Zm7.119 4.598c1.739 1.899 2.971 4.207 3.676 6.973l3.876-.988c-.855-3.354-2.384-6.266-4.604-8.688l-2.948 2.703Zm3.676 6.973c.732 2.873 1.108 6.094 1.108 9.676h4c0-3.858-.404-7.417-1.232-10.664l-3.876.988Zm1.108 9.676v7.83h4v-7.83h-4Zm-21.85-14.87h-7.02v4h7.02v-4Zm-7.02 0c-3.071 0-5.8.655-7.513 2.548l2.966 2.684c.567-.627 1.858-1.232 4.547-1.232v-4Zm-7.513 2.548c-1.643 1.816-2.227 4.538-2.227 7.642h4c0-2.776.556-4.254 1.193-4.958l-2.966-2.684Zm-2.227 7.642v1.17h4v-1.17h-4Zm2 3.17h22.41v-4h-22.41v4Zm24.41-2v-1.17h-4v1.17h4Zm0-1.17c0-3.123-.621-5.862-2.352-7.68l-2.896 2.76c.669.702 1.248 2.163 1.248 4.92h4Zm-2.317-7.642c-1.7-1.88-4.351-2.548-7.333-2.548v4c2.537 0 3.787.591 4.367 1.232l2.966-2.684ZM345.774 70h-2v2h2v-2Zm0-54v-2h-2v2h2Zm50.58 5.94-1.492 1.333 1.492-1.333Zm5.31 48.06v2h2v-2h-2Zm-17.1 0h-2v2h2v-2Zm-1.44-38.25-1.6 1.2.033.045.037.043 1.53-1.288Zm-20.25-1.8v-2h-2v2h2Zm0 40.05v2h2v-2h-2Zm-15.1 0V16h-4v54h4Zm-2-52h33.48v-4h-33.48v4Zm33.48 0c7.566 0 12.6 1.907 15.608 5.273l2.983-2.666C393.773 16.053 387.407 14 379.254 14v4Zm15.608 5.273c3.13 3.5 4.802 8.349 4.802 14.777h4c0-7.131-1.869-13.024-5.819-17.443l-2.983 2.666Zm4.802 14.777V70h4V38.05h-4Zm2 29.95h-17.1v4h17.1v-4Zm-15.1 2V37.6h-4V70h4Zm0-32.4c0-2.878-.478-5.437-1.911-7.138l-3.059 2.576c.487.58.97 1.92.97 4.562h4Zm-1.84-7.05c-1.489-1.984-4.103-2.6-6.91-2.6v4c2.472 0 3.398.584 3.71 1l3.2-2.4Zm-6.91-2.6h-14.94v4h14.94v-4Zm-16.94 2V70h4V29.95h-4Zm2 38.05h-17.1v4h17.1v-4Zm65.637-56.68v2h2v-2h-2Zm-17.1 0h-2v2h2v-2Zm0-10.62v-2h-2v2h2Zm17.1 0h2v-2h-2v2Zm-17.1 69.3h-2v2h2v-2Zm0-54v-2h-2v2h2Zm17.1 0h2v-2h-2v2Zm0 54v2h2v-2h-2Zm0-60.68h-17.1v4h17.1v-4Zm-15.1 2V.7h-4v10.62h4Zm-2-8.62h17.1v-4h-17.1v4Zm15.1-2v10.62h4V.7h-4Zm-13.1 69.3V16h-4v54h4Zm-2-52h17.1v-4h-17.1v4Zm15.1-2v54h4V16h-4Zm2 52h-17.1v4h17.1v-4Zm67.507-65.5h2v-2h-2v2Zm0 67.5v2h2v-2h-2Zm-17.1-54v2h2v-2h-2Zm0-13.5v-2h-2v2h2Zm0 54.18v2h2v-2h-2Zm0-27.36h2v-2h-2v2Zm-22.95 2.52 1.545 1.27-1.545-1.27Zm0 22.59-1.498 1.325.013.015.013.014 1.472-1.354Zm38.05-51.93V70h4V2.5h-4Zm2 65.5h-38.34v4h38.34v-4Zm-38.34 0c-6.167 0-10.794-2.03-14.137-5.956l-3.046 2.593c4.217 4.952 10.03 7.363 17.183 7.363v-4Zm-14.137-5.956c-3.4-3.994-5.193-9.374-5.193-16.344h-4c0 7.67 1.987 14.05 6.147 18.936l3.046-2.592ZM438.348 45.7v-5.4h-4v5.4h4Zm0-5.4c0-6.97 1.793-12.35 5.193-16.343l-3.046-2.594c-4.16 4.887-6.147 11.267-6.147 18.937h4Zm5.193-16.343c3.343-3.928 7.97-5.957 14.137-5.957v-4c-7.153 0-12.966 2.41-17.183 7.363l3.046 2.593ZM457.678 18h21.24v-4h-21.24v4Zm23.24-2V2.5h-4V16h4Zm-2-11.5h17.1v-4h-17.1v4Zm-15.39 54.18h15.39v-4h-15.39v4Zm17.39-2V29.32h-4v27.36h4Zm-2-29.36h-15.39v4h15.39v-4Zm-15.39 0c-3.861 0-7.15.87-9.105 3.25l3.09 2.54c.805-.98 2.556-1.79 6.015-1.79v-4Zm-9.105 3.25c-1.809 2.203-2.525 5.367-2.525 9.1h4c0-3.347.664-5.403 1.615-6.56l-3.09-2.54Zm-2.525 9.1v7.11h4v-7.11h-4Zm0 7.11c0 3.713.708 6.868 2.572 8.975l2.996-2.65c-.896-1.013-1.568-2.958-1.568-6.325h-4Zm2.598 9.004c1.969 2.14 5.225 2.896 9.032 2.896v-4c-3.513 0-5.297-.744-6.088-1.604l-2.944 2.708Zm100.185 8.456 1.405 1.424-1.405-1.424Zm-45.09 0-1.405 1.424.01.009 1.395-1.433Zm0-42.39 1.395 1.433.01-.01-1.405-1.423Zm45.09 0-1.414 1.414.009.01.01.009 1.395-1.433Zm-12.69 8.73-1.62 1.173.023.032.024.03 1.573-1.235Zm-19.71 0 1.573 1.236.01-.014.01-.013-1.593-1.209Zm0 24.93-1.593 1.209.01.013.01.014 1.573-1.236Zm19.71 0-1.593-1.209-.007.009 1.6 1.2Zm17.53-15.75v6.48h4v-6.48h-4Zm0 6.48c0 7.064-2.13 12.516-6.245 16.576l2.81 2.848c5.006-4.94 7.435-11.488 7.435-19.424h-4Zm-6.245 16.576c-4.015 3.962-9.892 6.084-17.945 6.084v4c8.747 0 15.77-2.318 20.755-7.236l-2.81-2.848ZM535.331 68.9h-6.3v4h6.3v-4Zm-6.3 0c-8.051 0-13.966-2.121-18.045-6.093l-2.79 2.866c5.041 4.908 12.086 7.227 20.835 7.227v-4Zm-18.035-6.084c-4.114-4.06-6.245-9.512-6.245-16.576h-4c0 7.936 2.43 14.484 7.435 19.424l2.81-2.848Zm-6.245-16.576v-6.48h-4v6.48h4Zm0-6.48c0-7.064 2.131-12.48 6.235-16.477l-2.79-2.866c-5.016 4.883-7.445 11.407-7.445 19.343h4Zm6.245-16.486c4.08-4.027 9.991-6.174 18.035-6.174v-4c-8.756 0-15.805 2.353-20.845 7.326l2.81 2.848Zm18.035-6.174h6.3v-4h-6.3v4Zm6.3 0c8.046 0 13.919 2.148 17.936 6.164l2.828-2.828c-4.983-4.984-12.009-7.336-20.764-7.336v4Zm17.955 6.183c4.105 3.997 6.235 9.413 6.235 16.477h4c0-7.936-2.429-14.46-7.445-19.343l-2.79 2.866Zm-7.315 15.037c0-3.668-.684-6.782-2.407-8.976l-3.146 2.472c.917 1.166 1.553 3.212 1.553 6.504h4Zm-2.36-8.913c-1.805-2.492-4.874-3.437-8.46-3.437v4c3.014 0 4.505.795 5.22 1.783l3.24-2.346Zm-8.46-3.437h-5.94v4h5.94v-4Zm-5.94 0c-3.596 0-6.663.949-8.523 3.401l3.186 2.418c.78-1.027 2.333-1.819 5.337-1.819v-4Zm-8.503 3.374c-1.723 2.194-2.407 5.308-2.407 8.976h4c0-3.292.636-5.338 1.553-6.504l-3.146-2.472Zm-2.407 8.976v9.27h4v-9.27h-4Zm0 9.27c0 3.727.684 6.884 2.387 9.129l3.186-2.418c-.937-1.235-1.573-3.358-1.573-6.711h-4Zm2.407 9.156c1.869 2.378 4.929 3.284 8.503 3.284v-4c-3.026 0-4.586-.774-5.357-1.756l-3.146 2.472Zm8.503 3.284h5.94v-4h-5.94v4Zm5.94 0c3.564 0 6.627-.902 8.44-3.32l-3.2-2.4c-.707.942-2.204 1.72-5.24 1.72v4Zm8.433-3.311c1.703-2.245 2.387-5.402 2.387-9.129h-4c0 3.353-.636 5.476-1.573 6.711l3.186 2.418Zm2.387-9.129v-9.27h-4v9.27h4Z" mask="url(#b)"/>
  </g>
  <defs>
    <filter id="a" width="564.671" height="78.2" x=".85" y=".7" color-interpolation-filters="sRGB" filterUnits="userSpaceOnUse">
      <feFlood flood-opacity="0" result="BackgroundImageFix"/>
      <feColorMatrix in="SourceAlpha" result="hardAlpha" values="0 0 0 0 0 0 0 0 0 0 0 0 0 0 0 0 0 0 127 0"/>
      <feOffset dy="4"/>
      <feGaussianBlur stdDeviation="2"/>
      <feComposite in2="hardAlpha" operator="out"/>
      <feColorMatrix values="0 0 0 0 0 0 0 0 0 0 0 0 0 0 0 0 0 0 0.25 0"/>
      <feBlend in2="BackgroundImageFix" result="effect1_dropShadow_304_319"/>
      <feBlend in="SourceGraphic" in2="effect1_dropShadow_304_319" result="shape"/>
    </filter>
  </defs>
</svg>
