<svg xmlns="http://www.w3.org/2000/svg" width="761" height="168" fill="none" viewBox="0 0 761 168">
  <path fill="#fff" d="M.168 49V.25h13v38.025h24.765V49H.168Zm83.281-21.84v4.68c0 5.417-1.647 9.75-4.94 13-3.25 3.207-7.908 4.81-13.975 4.81h-4.55c-6.067 0-10.747-1.603-14.04-4.81-3.293-3.25-4.94-7.583-4.94-13v-4.68c0-5.417 1.647-9.728 4.94-12.935 3.293-3.25 7.973-4.875 14.04-4.875h4.55c6.067 0 10.725 1.625 13.975 4.875 3.293 3.207 4.94 7.518 4.94 12.935Zm-12.675-1.04c0-2.513-.477-4.377-1.43-5.59-.91-1.257-2.556-1.885-4.94-1.885h-4.29c-2.383 0-4.051.628-5.005 1.885-.953 1.213-1.43 3.077-1.43 5.59v6.695c0 2.557.477 4.463 1.43 5.72.953 1.213 2.622 1.82 5.005 1.82h4.29c2.383 0 4.03-.607 4.94-1.82.954-1.257 1.43-3.163 1.43-5.72V26.12Zm38.777 32.63H90.896v-9.23h18.785c3.336 0 5.503-.39 6.5-1.17.996-.78 1.495-1.95 1.495-3.51v-.845h-14.365c-4.594 0-8.255-1.408-10.985-4.225-2.73-2.817-4.095-6.717-4.095-11.7v-1.495c0-5.157 1.365-9.208 4.095-12.155 2.73-2.947 6.391-4.42 10.985-4.42h26.715v33.67c0 5.417-1.582 9.273-4.745 11.57-3.164 2.34-8.407 3.51-15.73 3.51Zm-2.405-23.595h10.53V19.49h-10.53c-2.34 0-3.965.477-4.875 1.43-.91.91-1.365 2.492-1.365 4.745v2.99c0 2.21.455 3.857 1.365 4.94.91 1.04 2.535 1.56 4.875 1.56Zm30.438-10.66c0-1.863.282-3.662.845-5.395a12.633 12.633 0 0 1 2.665-4.615c1.213-1.343 2.773-2.427 4.68-3.25 1.95-.823 4.268-1.235 6.955-1.235h11.44v9.425h-8.645c-2.21 0-3.705.39-4.485 1.17-.737.78-1.105 2.123-1.105 4.03V49h-12.35V24.495Zm71.168 2.665v4.68c0 5.417-1.647 9.75-4.94 13-3.25 3.207-7.908 4.81-13.975 4.81h-4.55c-6.067 0-10.747-1.603-14.04-4.81-3.293-3.25-4.94-7.583-4.94-13v-4.68c0-5.417 1.647-9.728 4.94-12.935 3.293-3.25 7.973-4.875 14.04-4.875h4.55c6.067 0 10.725 1.625 13.975 4.875 3.293 3.207 4.94 7.518 4.94 12.935Zm-12.675-1.04c0-2.513-.477-4.377-1.43-5.59-.91-1.257-2.557-1.885-4.94-1.885h-4.29c-2.383 0-4.052.628-5.005 1.885-.953 1.213-1.43 3.077-1.43 5.59v6.695c0 2.557.477 4.463 1.43 5.72.953 1.213 2.622 1.82 5.005 1.82h4.29c2.383 0 4.03-.607 4.94-1.82.953-1.257 1.43-3.163 1.43-5.72V26.12ZM272.244.25V49h-27.69c-4.81 0-8.58-1.603-11.31-4.81-2.73-3.207-4.095-7.453-4.095-12.74v-3.9c0-5.287 1.365-9.533 4.095-12.74 2.73-3.207 6.5-4.81 11.31-4.81h15.34V.25h12.35Zm-23.465 39.13h11.115V19.62h-11.115c-2.644 0-4.464.607-5.46 1.82-.997 1.213-1.495 3.098-1.495 5.655v5.135c0 2.557.498 4.398 1.495 5.525.996 1.083 2.816 1.625 5.46 1.625Zm70.057-6.24h-27.885v.26c0 2.47.542 4.117 1.625 4.94 1.084.823 2.947 1.235 5.59 1.235h19.76V49h-19.045c-3.813 0-7.041-.412-9.685-1.235-2.6-.867-4.701-2.058-6.305-3.575-1.56-1.56-2.708-3.423-3.445-5.59-.693-2.167-1.04-4.55-1.04-7.15v-4.94c0-5.157 1.495-9.273 4.485-12.35 2.99-3.12 7.887-4.68 14.69-4.68h2.6c3.64 0 6.674.433 9.1 1.3 2.427.867 4.334 2.102 5.72 3.705 1.43 1.56 2.427 3.445 2.99 5.655.564 2.21.845 4.658.845 7.345v5.655Zm-17.225-14.95h-5.07c-2.08 0-3.531.455-4.355 1.365-.823.91-1.235 2.427-1.235 4.55v.845h16.185v-.845c0-2.123-.433-3.64-1.3-4.55-.823-.91-2.231-1.365-4.225-1.365Zm43.729 17.16-10.595-2.08c-3.9-.78-6.89-2.145-8.97-4.095-2.036-1.95-3.055-4.55-3.055-7.8 0-1.517.282-2.968.845-4.355.607-1.387 1.517-2.6 2.73-3.64 1.257-1.04 2.839-1.863 4.745-2.47 1.95-.607 4.247-.91 6.89-.91h19.37v9.425h-20.345c-1.3 0-2.166.195-2.6.585-.433.347-.65.802-.65 1.365s.195 1.018.585 1.365c.39.347 1.062.607 2.015.78l9.62 1.885c4.767.953 8.169 2.383 10.205 4.29 2.08 1.863 3.12 4.355 3.12 7.475 0 3.51-1.343 6.37-4.03 8.58-2.643 2.167-6.673 3.25-12.09 3.25h-32.11v-9.425h33.865c1.387 0 2.34-.195 2.86-.585.52-.433.78-.953.78-1.56 0-.65-.303-1.105-.91-1.365-.563-.303-1.321-.542-2.275-.715ZM365.274 49V.25h12.35v9.1h15.34c4.81 0 8.58 1.603 11.31 4.81 2.73 3.207 4.095 7.453 4.095 12.74v4.55c0 5.287-1.365 9.533-4.095 12.74-2.73 3.207-6.5 4.81-11.31 4.81h-27.69Zm23.465-30.03h-11.115v20.41h11.115c2.644 0 4.464-.607 5.46-1.82.997-1.213 1.495-3.098 1.495-5.655V26.12c0-2.557-.498-4.377-1.495-5.46-.996-1.127-2.816-1.69-5.46-1.69ZM415.312.25h12.35V49h-12.35V.25Zm61.755 26.91v4.68c0 5.417-1.646 9.75-4.94 13-3.25 3.207-7.908 4.81-13.975 4.81h-4.55c-6.066 0-10.746-1.603-14.04-4.81-3.293-3.25-4.94-7.583-4.94-13v-4.68c0-5.417 1.647-9.728 4.94-12.935 3.294-3.25 7.974-4.875 14.04-4.875h4.55c6.067 0 10.725 1.625 13.975 4.875 3.294 3.207 4.94 7.518 4.94 12.935Zm-12.675-1.04c0-2.513-.476-4.377-1.43-5.59-.91-1.257-2.556-1.885-4.94-1.885h-4.29c-2.383 0-4.051.628-5.005 1.885-.953 1.213-1.43 3.077-1.43 5.59v6.695c0 2.557.477 4.463 1.43 5.72.954 1.213 2.622 1.82 5.005 1.82h4.29c2.384 0 4.03-.607 4.94-1.82.954-1.257 1.43-3.163 1.43-5.72V26.12ZM524.944 10v48.75h-12.35V49h-15.34c-4.81 0-8.58-1.603-11.31-4.81-2.73-3.207-4.095-7.453-4.095-12.74v-3.9c0-5.287 1.365-9.533 4.095-12.74 2.73-3.207 6.5-4.81 11.31-4.81h27.69Zm-23.465 29.38h11.115V19.62h-11.115c-2.643 0-4.463.607-5.46 1.82-.997 1.213-1.495 3.098-1.495 5.655v5.135c0 2.557.498 4.398 1.495 5.525.997 1.083 2.817 1.625 5.46 1.625Zm59.008-.455V10h12.35v39h-24.18c-5.677 0-9.794-1.43-12.35-4.29-2.557-2.86-3.835-6.738-3.835-11.635V10h12.35v23.4c0 1.993.325 3.423.975 4.29.693.823 1.993 1.235 3.9 1.235h10.79Zm58.974-5.785h-27.885v.26c0 2.47.542 4.117 1.625 4.94 1.084.823 2.947 1.235 5.59 1.235h19.76V49h-19.045c-3.813 0-7.041-.412-9.685-1.235-2.6-.867-4.701-2.058-6.305-3.575-1.56-1.56-2.708-3.423-3.445-5.59-.693-2.167-1.04-4.55-1.04-7.15v-4.94c0-5.157 1.495-9.273 4.485-12.35 2.99-3.12 7.887-4.68 14.69-4.68h2.6c3.64 0 6.674.433 9.1 1.3 2.427.867 4.334 2.102 5.72 3.705 1.43 1.56 2.427 3.445 2.99 5.655.564 2.21.845 4.658.845 7.345v5.655Zm-17.225-14.95h-5.07c-2.08 0-3.531.455-4.355 1.365-.823.91-1.235 2.427-1.235 4.55v.845h16.185v-.845c0-2.123-.433-3.64-1.3-4.55-.823-.91-2.231-1.365-4.225-1.365Zm60.595 9.685V49h-26.715c-3.9 0-6.89-.845-8.97-2.535-2.08-1.69-3.12-3.9-3.12-6.63 0-2.99 1.018-5.373 3.055-7.15 2.036-1.82 4.485-3.705 7.345-5.655l11.05-7.605h-20.54V10h17.095c7.453 0 12.783 1.582 15.99 4.745 3.206 3.12 4.81 7.497 4.81 13.13Zm-23.205 11.7h11.505V26.64l-11.765 9.165c-.737.563-1.257.997-1.56 1.3-.304.26-.455.607-.455 1.04 0 .477.173.845.52 1.105.346.217.931.325 1.755.325ZM712.073.25V49h-27.69c-4.81 0-8.58-1.603-11.31-4.81-2.73-3.207-4.095-7.453-4.095-12.74v-3.9c0-5.287 1.365-9.533 4.095-12.74 2.73-3.207 6.5-4.81 11.31-4.81h15.34V.25h12.35Zm-23.465 39.13h11.115V19.62h-11.115c-2.644 0-4.464.607-5.46 1.82-.997 1.213-1.495 3.098-1.495 5.655v5.135c0 2.557.498 4.398 1.495 5.525.996 1.083 2.816 1.625 5.46 1.625Zm72.073-12.22v4.68c0 5.417-1.647 9.75-4.94 13-3.25 3.207-7.909 4.81-13.975 4.81h-4.55c-6.067 0-10.747-1.603-14.04-4.81-3.294-3.25-4.94-7.583-4.94-13v-4.68c0-5.417 1.646-9.728 4.94-12.935 3.293-3.25 7.973-4.875 14.04-4.875h4.55c6.066 0 10.725 1.625 13.975 4.875 3.293 3.207 4.94 7.518 4.94 12.935Zm-12.675-1.04c0-2.513-.477-4.377-1.43-5.59-.91-1.257-2.557-1.885-4.94-1.885h-4.29c-2.384 0-4.052.628-5.005 1.885-.954 1.213-1.43 3.077-1.43 5.59v6.695c0 2.557.476 4.463 1.43 5.72.953 1.213 2.621 1.82 5.005 1.82h4.29c2.383 0 4.03-.607 4.94-1.82.953-1.257 1.43-3.163 1.43-5.72V26.12ZM48.43 126.315c-.653 0-1.132-.093-1.435-.28a1.165 1.165 0 0 1-.56-.77 5.522 5.522 0 0 1-.105-1.085v-20.195c0-.373.035-.723.105-1.05.093-.327.28-.583.56-.77.303-.187.794-.28 1.47-.28.653 0 1.12.093 1.4.28.303.187.49.443.56.77.094.327.14.688.14 1.085v20.195c0 .373-.046.723-.14 1.05-.07.327-.256.583-.56.77-.303.187-.782.28-1.435.28Zm-15.33 0c-.653 0-1.132-.093-1.435-.28a1.339 1.339 0 0 1-.56-.77A5.522 5.522 0 0 1 31 124.18v-20.195c0-.373.035-.723.105-1.05a1.3 1.3 0 0 1 .595-.77c.304-.187.782-.28 1.435-.28.677 0 1.155.093 1.435.28.303.187.49.443.56.77.07.327.105.688.105 1.085v20.195c0 .373-.047.723-.14 1.05-.07.327-.256.583-.56.77-.28.187-.758.28-1.435.28Zm1.015-10.535V112H46.89l-.035 3.78h-12.74Zm34.643 10.5c-.676 0-1.178-.128-1.505-.385-.326-.257-.49-.607-.49-1.05l.245-1.155c-.186.303-.501.665-.945 1.085-.443.397-1.026.758-1.75 1.085-.723.303-1.598.455-2.625.455a7.476 7.476 0 0 1-3.115-.665 8.771 8.771 0 0 1-2.555-1.89 10.292 10.292 0 0 1-1.75-2.765 8.962 8.962 0 0 1-.63-3.36c0-1.143.21-2.217.63-3.22a9.355 9.355 0 0 1 1.785-2.73 8.247 8.247 0 0 1 2.555-1.855c.98-.467 2.007-.7 3.08-.7.957 0 1.762.128 2.415.385.677.257 1.249.583 1.715.98.467.373.852.77 1.155 1.19l-.21-1.015c0-.513.164-.898.49-1.155.327-.28.84-.42 1.54-.42.654 0 1.12.105 1.4.315.28.187.455.455.525.805.07.327.105.7.105 1.12v12.81c0 .397-.035.758-.105 1.085-.07.327-.256.583-.56.77-.28.187-.746.28-1.4.28Zm-6.44-4.06c.794 0 1.505-.198 2.135-.595a4.346 4.346 0 0 0 1.505-1.61 4.6 4.6 0 0 0 .595-2.31c0-.91-.198-1.703-.595-2.38a4.246 4.246 0 0 0-1.575-1.575c-.63-.397-1.341-.595-2.135-.595-.863 0-1.633.21-2.31.63a4.362 4.362 0 0 0-1.61 1.645c-.373.677-.56 1.447-.56 2.31 0 .84.199 1.598.595 2.275a4.438 4.438 0 0 0 1.61 1.61c.7.397 1.482.595 2.345.595Zm18.002 4.34c-.606 0-1.248-.07-1.925-.21a11.081 11.081 0 0 1-1.96-.525 8.365 8.365 0 0 1-1.645-.875c-.443-.35-.723-.735-.84-1.155a1.372 1.372 0 0 1-.105-.665 2.01 2.01 0 0 1 .21-.7 3.03 3.03 0 0 1 .525-.77c.21-.257.42-.397.63-.42.234-.047.525.023.875.21.303.117.63.268.98.455l1.12.56a8.29 8.29 0 0 0 1.19.455c.42.117.829.175 1.225.175.864 0 1.552-.14 2.065-.42.513-.303.77-.723.77-1.26 0-.303-.082-.572-.245-.805a1.748 1.748 0 0 0-.665-.56 3.985 3.985 0 0 0-.945-.42 7.441 7.441 0 0 0-1.155-.35 69.484 69.484 0 0 1-1.26-.385 17.203 17.203 0 0 1-1.75-.595 6.175 6.175 0 0 1-1.575-.91 4.336 4.336 0 0 1-1.085-1.4c-.28-.56-.42-1.26-.42-2.1 0-1.05.245-1.937.735-2.66.514-.747 1.249-1.318 2.205-1.715.957-.397 2.112-.595 3.465-.595.467 0 .91.035 1.33.105.444.07.864.175 1.26.315a6.6 6.6 0 0 1 1.19.455c.397.187.77.397 1.12.63.584.327.887.712.91 1.155.023.42-.14.875-.49 1.365-.257.327-.513.56-.77.7a.967.967 0 0 1-.805 0 62.107 62.107 0 0 0-1.225-.595 8.544 8.544 0 0 0-1.33-.595 4.025 4.025 0 0 0-1.4-.245c-.466 0-.886.07-1.26.21-.373.14-.653.338-.84.595-.187.257-.28.56-.28.91 0 .327.093.595.28.805a2.2 2.2 0 0 0 .735.525c.303.14.665.268 1.085.385.42.093.864.187 1.33.28.654.14 1.319.315 1.995.525.677.21 1.295.502 1.855.875.583.373 1.05.875 1.4 1.505.35.607.525 1.4.525 2.38 0 1.703-.63 3.022-1.89 3.955-1.237.933-2.952 1.4-5.145 1.4Zm24.746 0c-.606 0-1.248-.07-1.925-.21a11.095 11.095 0 0 1-1.96-.525 8.366 8.366 0 0 1-1.645-.875c-.443-.35-.723-.735-.84-1.155a1.372 1.372 0 0 1-.105-.665 2.01 2.01 0 0 1 .21-.7 3.03 3.03 0 0 1 .525-.77c.21-.257.42-.397.63-.42.234-.047.525.023.875.21.304.117.63.268.98.455l1.12.56a8.33 8.33 0 0 0 1.19.455c.42.117.829.175 1.225.175.864 0 1.552-.14 2.065-.42.514-.303.77-.723.77-1.26 0-.303-.081-.572-.245-.805a1.746 1.746 0 0 0-.665-.56 3.963 3.963 0 0 0-.945-.42 7.441 7.441 0 0 0-1.155-.35 72.538 72.538 0 0 1-1.26-.385 17.278 17.278 0 0 1-1.75-.595 6.185 6.185 0 0 1-1.575-.91 4.34 4.34 0 0 1-1.085-1.4c-.28-.56-.42-1.26-.42-2.1 0-1.05.245-1.937.735-2.66.514-.747 1.249-1.318 2.205-1.715.957-.397 2.112-.595 3.465-.595.467 0 .91.035 1.33.105.444.07.864.175 1.26.315a6.6 6.6 0 0 1 1.19.455c.397.187.77.397 1.12.63.584.327.887.712.91 1.155.024.42-.14.875-.49 1.365-.256.327-.513.56-.77.7a.967.967 0 0 1-.805 0 59.74 59.74 0 0 0-1.225-.595 8.532 8.532 0 0 0-1.33-.595 4.024 4.024 0 0 0-1.4-.245c-.466 0-.886.07-1.26.21-.373.14-.653.338-.84.595a1.51 1.51 0 0 0-.28.91c0 .327.094.595.28.805.187.21.432.385.735.525.304.14.665.268 1.085.385.42.093.864.187 1.33.28.654.14 1.319.315 1.995.525.677.21 1.295.502 1.855.875a4.13 4.13 0 0 1 1.4 1.505c.35.607.525 1.4.525 2.38 0 1.703-.63 3.022-1.89 3.955-1.236.933-2.951 1.4-5.145 1.4Zm17.22-.245c-1.074 0-2.065-.187-2.975-.56a7.224 7.224 0 0 1-2.345-1.68c-.677-.723-1.202-1.587-1.575-2.59-.374-1.003-.56-2.112-.56-3.325v-6.965c0-.397.035-.747.105-1.05.07-.327.256-.583.56-.77.303-.187.77-.28 1.4-.28.676 0 1.155.093 1.435.28.303.187.49.443.56.77.07.327.105.688.105 1.085v6.93c0 .84.14 1.563.42 2.17a3.499 3.499 0 0 0 1.295 1.435c.56.327 1.248.49 2.065.49.84 0 1.551-.163 2.135-.49a3.604 3.604 0 0 0 1.4-1.435c.326-.63.49-1.353.49-2.17v-7c0-.397.035-.747.105-1.05a1.05 1.05 0 0 1 .56-.735c.303-.187.781-.28 1.435-.28.653 0 1.12.093 1.4.28.28.187.455.443.525.77.093.327.14.677.14 1.05v13.125c0 .35-.047.677-.14.98-.07.303-.257.548-.56.735-.28.187-.747.28-1.4.28-.467 0-.84-.058-1.12-.175a1.386 1.386 0 0 1-.595-.385 1.925 1.925 0 0 1-.245-.56 4.386 4.386 0 0 1-.035-.56l.28-.945c-.14.21-.35.467-.63.77-.28.28-.63.572-1.05.875-.397.28-.864.513-1.4.7a5.4 5.4 0 0 1-1.785.28Zm20.992-.21c-1.143 0-2.17-.21-3.08-.63a6.881 6.881 0 0 1-2.275-1.82 8.879 8.879 0 0 1-1.4-2.73c-.303-1.027-.455-2.135-.455-3.325a11.65 11.65 0 0 1 .525-3.325c.327-1.05.793-1.96 1.4-2.73a6.881 6.881 0 0 1 2.275-1.82c.887-.443 1.89-.665 3.01-.665a6.93 6.93 0 0 1 3.01.665 7.839 7.839 0 0 1 2.52 1.855 8.703 8.703 0 0 1 1.75 2.765c.42 1.027.63 2.135.63 3.325 0 1.213-.21 2.333-.63 3.36a8.714 8.714 0 0 1-1.715 2.695 7.88 7.88 0 0 1-2.52 1.75c-.957.42-1.972.63-3.045.63Zm-7 7.28c-.63 0-1.097-.093-1.4-.28-.303-.187-.49-.432-.56-.735a4.695 4.695 0 0 1-.105-1.05v-20.125c0-.397.035-.747.105-1.05.07-.303.245-.548.525-.735.303-.21.77-.315 1.4-.315.607 0 1.085.093 1.435.28.35.187.583.502.7.945v20.965c.023.397-.012.747-.105 1.05-.07.327-.257.583-.56.77-.303.187-.782.28-1.435.28Zm6.44-11.2c.817 0 1.552-.187 2.205-.56a4.254 4.254 0 0 0 1.54-1.61c.397-.7.595-1.482.595-2.345 0-.887-.198-1.668-.595-2.345a3.996 3.996 0 0 0-1.54-1.575c-.653-.397-1.388-.595-2.205-.595-.793 0-1.517.198-2.17.595a4.535 4.535 0 0 0-1.575 1.61c-.373.653-.56 1.423-.56 2.31 0 .863.187 1.645.56 2.345a4.535 4.535 0 0 0 1.575 1.61 4.3 4.3 0 0 0 2.17.56Zm19.757 4.375c-1.517 0-2.847-.245-3.99-.735-1.12-.49-2.065-1.155-2.835-1.995a9.454 9.454 0 0 1-1.715-2.87 10.033 10.033 0 0 1-.56-3.325c0-1.68.385-3.173 1.155-4.48a8.245 8.245 0 0 1 3.185-3.08c1.376-.747 2.951-1.12 4.725-1.12 1.26 0 2.368.198 3.325.595.956.397 1.75.922 2.38 1.575a6.368 6.368 0 0 1 1.47 2.1c.35.77.525 1.517.525 2.24 0 1.237-.304 2.135-.91 2.695-.584.56-1.319.84-2.205.84h-9.24c.023.793.268 1.482.735 2.065a5.062 5.062 0 0 0 1.82 1.365 6 6 0 0 0 2.275.455c.583 0 1.096-.035 1.54-.105.466-.07.863-.152 1.19-.245a7.77 7.77 0 0 0 .84-.35 65.1 65.1 0 0 1 .7-.315 2.12 2.12 0 0 1 .595-.175c.256-.023.513.035.77.175.256.14.466.385.63.735.14.233.233.455.28.665.07.187.105.373.105.56 0 .467-.28.91-.84 1.33-.56.397-1.354.723-2.38.98-1.004.28-2.194.42-3.57.42Zm-4.69-10.045h7.175c.396 0 .7-.058.91-.175.21-.14.315-.42.315-.84 0-.537-.164-1.015-.49-1.435-.327-.443-.77-.782-1.33-1.015-.56-.257-1.214-.385-1.96-.385-.864 0-1.645.175-2.345.525-.7.327-1.26.782-1.68 1.365a3.404 3.404 0 0 0-.595 1.96Zm17.292 9.835c-.63 0-1.097-.105-1.4-.315a1.194 1.194 0 0 1-.525-.77 5.188 5.188 0 0 1-.105-1.085v-12.985c0-.42.035-.782.105-1.085.07-.327.245-.572.525-.735.303-.187.782-.28 1.435-.28.63 0 1.085.082 1.365.245.303.163.49.373.56.63.093.233.14.467.14.7l-.28.63c.117-.187.28-.408.49-.665.21-.28.49-.548.84-.805.35-.28.77-.502 1.26-.665.49-.187 1.073-.28 1.75-.28.28 0 .572.035.875.105.327.047.642.128.945.245.327.093.618.222.875.385s.455.362.595.595c.14.21.21.455.21.735 0 .747-.187 1.377-.56 1.89-.373.513-.817.77-1.33.77-.35 0-.607-.035-.77-.105a1.835 1.835 0 0 1-.42-.245c-.093-.093-.245-.175-.455-.245-.187-.07-.49-.105-.91-.105-.35 0-.712.058-1.085.175-.35.117-.677.292-.98.525a2.591 2.591 0 0 0-.735.91c-.187.35-.28.758-.28 1.225v8.505c0 .397-.035.758-.105 1.085-.07.303-.257.548-.56.735-.303.187-.793.28-1.47.28Zm25.41-.07c-.677 0-1.178-.128-1.505-.385-.327-.257-.49-.607-.49-1.05l.245-1.155c-.187.303-.502.665-.945 1.085-.443.397-1.027.758-1.75 1.085-.723.303-1.598.455-2.625.455a7.475 7.475 0 0 1-3.115-.665 8.772 8.772 0 0 1-2.555-1.89 10.295 10.295 0 0 1-1.75-2.765 8.962 8.962 0 0 1-.63-3.36c0-1.143.21-2.217.63-3.22a9.343 9.343 0 0 1 1.785-2.73 8.248 8.248 0 0 1 2.555-1.855c.98-.467 2.007-.7 3.08-.7.957 0 1.762.128 2.415.385.677.257 1.248.583 1.715.98.467.373.852.77 1.155 1.19l-.21-1.015c0-.513.163-.898.49-1.155.327-.28.84-.42 1.54-.42.653 0 1.12.105 1.4.315.28.187.455.455.525.805.07.327.105.7.105 1.12v12.81c0 .397-.035.758-.105 1.085-.07.327-.257.583-.56.77-.28.187-.747.28-1.4.28Zm-6.44-4.06c.793 0 1.505-.198 2.135-.595a4.343 4.343 0 0 0 1.505-1.61 4.6 4.6 0 0 0 .595-2.31c0-.91-.198-1.703-.595-2.38a4.25 4.25 0 0 0-1.575-1.575c-.63-.397-1.342-.595-2.135-.595-.863 0-1.633.21-2.31.63a4.363 4.363 0 0 0-1.61 1.645c-.373.677-.56 1.447-.56 2.31 0 .84.198 1.598.595 2.275a4.438 4.438 0 0 0 1.61 1.61c.7.397 1.482.595 2.345.595Zm19.437 4.095a7.156 7.156 0 0 1-3.045-.665 8.086 8.086 0 0 1-2.52-1.82 9.033 9.033 0 0 1-1.715-2.765 9.328 9.328 0 0 1-.63-3.43c0-1.167.21-2.263.63-3.29a8.6 8.6 0 0 1 1.715-2.73 8.237 8.237 0 0 1 2.555-1.855 7.08 7.08 0 0 1 3.01-.665c1.12 0 2.123.222 3.01.665a6.384 6.384 0 0 1 2.24 1.855c.63.77 1.108 1.68 1.435 2.73a11.72 11.72 0 0 1 .525 3.325c0 1.19-.164 2.31-.49 3.36a7.979 7.979 0 0 1-1.4 2.73 6.645 6.645 0 0 1-2.275 1.89c-.887.443-1.902.665-3.045.665Zm.56-4.095c.816 0 1.54-.187 2.17-.56a4.261 4.261 0 0 0 1.54-1.61c.396-.677.595-1.447.595-2.31 0-.887-.199-1.668-.595-2.345a4.261 4.261 0 0 0-1.54-1.61c-.63-.397-1.354-.595-2.17-.595-.817 0-1.552.198-2.205.595-.654.373-1.179.91-1.575 1.61-.374.677-.56 1.458-.56 2.345 0 .863.186 1.633.56 2.31a4.518 4.518 0 0 0 1.575 1.61 4.49 4.49 0 0 0 2.205.56Zm6.475 4.095c-.654 0-1.132-.105-1.435-.315-.304-.233-.502-.595-.595-1.085v-21.56c0-.397.023-.747.07-1.05.07-.327.245-.583.525-.77.303-.21.77-.315 1.4-.315.676 0 1.155.093 1.435.28.28.187.455.443.525.77.093.303.14.653.14 1.05v20.86c0 .397-.035.758-.105 1.085-.07.327-.257.583-.56.77-.28.187-.747.28-1.4.28Zm13.556.245c-1.12 0-2.217-.21-3.29-.63a9.917 9.917 0 0 1-2.87-1.855 9.372 9.372 0 0 1-2.03-2.8c-.49-1.073-.735-2.252-.735-3.535 0-1.237.233-2.392.7-3.465a9.096 9.096 0 0 1 1.925-2.835 8.71 8.71 0 0 1 2.8-1.89 8.5 8.5 0 0 1 3.43-.7c1.633 0 3.115.397 4.445 1.19a8.775 8.775 0 0 1 3.185 3.15c.793 1.33 1.19 2.835 1.19 4.515 0 1.33-.245 2.543-.735 3.64a8.888 8.888 0 0 1-1.995 2.8 9.244 9.244 0 0 1-2.835 1.785 8.34 8.34 0 0 1-3.185.63Zm-.07-4.13c.77 0 1.505-.187 2.205-.56a4.66 4.66 0 0 0 1.75-1.68c.466-.723.7-1.575.7-2.555 0-.91-.21-1.715-.63-2.415a4.29 4.29 0 0 0-1.645-1.645c-.7-.397-1.505-.595-2.415-.595-.864 0-1.645.21-2.345.63-.7.397-1.26.957-1.68 1.68-.397.7-.595 1.493-.595 2.38 0 .98.221 1.832.665 2.555a4.82 4.82 0 0 0 1.715 1.645c.723.373 1.481.56 2.275.56Zm28.582 4.13c-1.517 0-2.847-.245-3.99-.735-1.12-.49-2.065-1.155-2.835-1.995a9.475 9.475 0 0 1-1.715-2.87 10.059 10.059 0 0 1-.56-3.325c0-1.68.385-3.173 1.155-4.48a8.251 8.251 0 0 1 3.185-3.08c1.377-.747 2.952-1.12 4.725-1.12 1.26 0 2.368.198 3.325.595.957.397 1.75.922 2.38 1.575a6.368 6.368 0 0 1 1.47 2.1c.35.77.525 1.517.525 2.24 0 1.237-.303 2.135-.91 2.695-.583.56-1.318.84-2.205.84h-9.24c.023.793.268 1.482.735 2.065a5.07 5.07 0 0 0 1.82 1.365 6.004 6.004 0 0 0 2.275.455 9.98 9.98 0 0 0 1.54-.105c.467-.07.863-.152 1.19-.245.327-.117.607-.233.84-.35.257-.117.49-.222.7-.315a2.12 2.12 0 0 1 .595-.175c.257-.023.513.035.77.175.257.14.467.385.63.735.14.233.233.455.28.665.07.187.105.373.105.56 0 .467-.28.91-.84 1.33-.56.397-1.353.723-2.38.98-1.003.28-2.193.42-3.57.42Zm-4.69-10.045h7.175c.397 0 .7-.058.91-.175.21-.14.315-.42.315-.84 0-.537-.163-1.015-.49-1.435-.327-.443-.77-.782-1.33-1.015-.56-.257-1.213-.385-1.96-.385-.863 0-1.645.175-2.345.525-.7.327-1.26.782-1.68 1.365a3.404 3.404 0 0 0-.595 1.96Zm21.212 10.045c-.606 0-1.248-.07-1.925-.21a11.095 11.095 0 0 1-1.96-.525 8.374 8.374 0 0 1-1.645-.875c-.443-.35-.723-.735-.84-1.155a1.38 1.38 0 0 1-.105-.665c.024-.233.094-.467.21-.7a3.03 3.03 0 0 1 .525-.77c.21-.257.42-.397.63-.42.234-.047.525.023.875.21.304.117.63.268.98.455l1.12.56a8.33 8.33 0 0 0 1.19.455c.42.117.829.175 1.225.175.864 0 1.552-.14 2.065-.42.514-.303.77-.723.77-1.26 0-.303-.081-.572-.245-.805a1.746 1.746 0 0 0-.665-.56 3.963 3.963 0 0 0-.945-.42 7.441 7.441 0 0 0-1.155-.35 72.538 72.538 0 0 1-1.26-.385 17.278 17.278 0 0 1-1.75-.595 6.185 6.185 0 0 1-1.575-.91 4.34 4.34 0 0 1-1.085-1.4c-.28-.56-.42-1.26-.42-2.1 0-1.05.245-1.937.735-2.66.514-.747 1.249-1.318 2.205-1.715.957-.397 2.112-.595 3.465-.595.467 0 .91.035 1.33.105.444.07.864.175 1.26.315a6.6 6.6 0 0 1 1.19.455c.397.187.77.397 1.12.63.584.327.887.712.91 1.155.024.42-.14.875-.49 1.365-.256.327-.513.56-.77.7a.967.967 0 0 1-.805 0 59.74 59.74 0 0 0-1.225-.595 8.532 8.532 0 0 0-1.33-.595 4.024 4.024 0 0 0-1.4-.245c-.466 0-.886.07-1.26.21-.373.14-.653.338-.84.595a1.51 1.51 0 0 0-.28.91c0 .327.094.595.28.805.187.21.432.385.735.525.304.14.665.268 1.085.385.42.093.864.187 1.33.28.654.14 1.319.315 1.995.525.677.21 1.295.502 1.855.875a4.13 4.13 0 0 1 1.4 1.505c.35.607.525 1.4.525 2.38 0 1.703-.63 3.022-1.89 3.955-1.236.933-2.951 1.4-5.145 1.4Zm18.038-.21c-1.144 0-2.124-.117-2.94-.35-.817-.233-1.482-.595-1.995-1.085-.514-.49-.899-1.12-1.155-1.89-.234-.793-.35-1.727-.35-2.8v-14.84c0-.42.035-.782.105-1.085.093-.303.28-.537.56-.7.303-.187.77-.28 1.4-.28.653 0 1.12.093 1.4.28.303.187.49.443.56.77.093.303.14.642.14 1.015v14.7c0 .49.035.887.105 1.19.093.303.221.537.385.7.186.14.42.245.7.315.303.047.665.07 1.085.07.443 0 .816.035 1.12.105.326.07.571.245.735.525.163.257.245.688.245 1.295 0 .653-.105 1.132-.315 1.435-.187.28-.444.455-.77.525-.304.07-.642.105-1.015.105Zm-7.875-16.905 3.605.035 4.83-.14c.396 0 .746.047 1.05.14.326.07.583.257.77.56.186.28.28.747.28 1.4 0 .607-.094 1.062-.28 1.365-.187.303-.432.502-.735.595-.304.07-.654.105-1.05.105l-4.69-.07-3.885.035c-.584-.023-.992-.187-1.225-.49-.21-.327-.315-.852-.315-1.575 0-.677.128-1.167.385-1.47.28-.327.7-.49 1.26-.49Zm27.494 16.835c-.676 0-1.178-.128-1.505-.385-.326-.257-.49-.607-.49-1.05l.245-1.155c-.186.303-.501.665-.945 1.085-.443.397-1.026.758-1.75 1.085-.723.303-1.598.455-2.625.455a7.478 7.478 0 0 1-3.115-.665 8.786 8.786 0 0 1-2.555-1.89 10.32 10.32 0 0 1-1.75-2.765 8.962 8.962 0 0 1-.63-3.36c0-1.143.21-2.217.63-3.22a9.383 9.383 0 0 1 1.785-2.73 8.26 8.26 0 0 1 2.555-1.855c.98-.467 2.007-.7 3.08-.7.957 0 1.762.128 2.415.385.677.257 1.249.583 1.715.98.467.373.852.77 1.155 1.19l-.21-1.015c0-.513.164-.898.49-1.155.327-.28.84-.42 1.54-.42.654 0 1.12.105 1.4.315.28.187.455.455.525.805.07.327.105.7.105 1.12v12.81c0 .397-.035.758-.105 1.085-.07.327-.256.583-.56.77-.28.187-.746.28-1.4.28Zm-6.44-4.06c.794 0 1.505-.198 2.135-.595a4.343 4.343 0 0 0 1.505-1.61 4.6 4.6 0 0 0 .595-2.31c0-.91-.198-1.703-.595-2.38a4.236 4.236 0 0 0-1.575-1.575c-.63-.397-1.341-.595-2.135-.595-.863 0-1.633.21-2.31.63a4.37 4.37 0 0 0-1.61 1.645c-.373.677-.56 1.447-.56 2.31 0 .84.199 1.598.595 2.275a4.446 4.446 0 0 0 1.61 1.61c.7.397 1.482.595 2.345.595Zm28.311 4.2a9.955 9.955 0 0 1-3.29-.56 9.475 9.475 0 0 1-2.87-1.715 8.527 8.527 0 0 1-2.03-2.73c-.49-1.097-.735-2.333-.735-3.71 0-1.377.245-2.602.735-3.675a8.527 8.527 0 0 1 2.03-2.73 9.042 9.042 0 0 1 2.835-1.715 9.13 9.13 0 0 1 3.255-.595c.816 0 1.586.117 2.31.35.746.233 1.388.513 1.925.84.536.327.921.653 1.155.98.303.28.56.548.77.805.21.257.28.572.21.945-.07.233-.175.455-.315.665-.14.187-.315.385-.525.595-.56.63-1.109.863-1.645.7a17.285 17.285 0 0 1-.91-.525 12.308 12.308 0 0 0-.945-.525 5.063 5.063 0 0 0-.945-.455 3.203 3.203 0 0 0-1.085-.175c-.887 0-1.68.198-2.38.595a4.164 4.164 0 0 0-1.61 1.575c-.374.677-.56 1.458-.56 2.345 0 .887.186 1.68.56 2.38a4.43 4.43 0 0 0 1.61 1.61c.676.373 1.446.56 2.31.56.42 0 .816-.047 1.19-.14a5.548 5.548 0 0 0 1.05-.42c.303-.187.548-.373.735-.56.256-.163.49-.315.7-.455.21-.14.431-.21.665-.21.28 0 .548.105.805.315.28.187.583.49.91.91.303.35.466.688.49 1.015.046.327-.024.642-.21.945-.164.303-.444.583-.84.84-.28.28-.7.572-1.26.875-.537.28-1.167.525-1.89.735-.7.21-1.435.315-2.205.315Zm16.549-.105c-1.073 0-2.065-.187-2.975-.56a7.234 7.234 0 0 1-2.345-1.68c-.677-.723-1.202-1.587-1.575-2.59s-.56-2.112-.56-3.325v-6.965c0-.397.035-.747.105-1.05.07-.327.257-.583.56-.77.303-.187.77-.28 1.4-.28.677 0 1.155.093 1.435.28.303.187.49.443.56.77.07.327.105.688.105 1.085v6.93c0 .84.14 1.563.42 2.17a3.499 3.499 0 0 0 1.295 1.435c.56.327 1.248.49 2.065.49.84 0 1.552-.163 2.135-.49a3.598 3.598 0 0 0 1.4-1.435c.327-.63.49-1.353.49-2.17v-7c0-.397.035-.747.105-1.05.07-.327.257-.572.56-.735.303-.187.782-.28 1.435-.28s1.12.093 1.4.28c.28.187.455.443.525.77.093.327.14.677.14 1.05v13.125c0 .35-.047.677-.14.98-.07.303-.257.548-.56.735-.28.187-.747.28-1.4.28-.467 0-.84-.058-1.12-.175a1.386 1.386 0 0 1-.595-.385 1.952 1.952 0 0 1-.245-.56 4.576 4.576 0 0 1-.035-.56l.28-.945c-.14.21-.35.467-.63.77-.28.28-.63.572-1.05.875a5.62 5.62 0 0 1-1.4.7 5.4 5.4 0 0 1-1.785.28Zm14.202.035c-.63 0-1.096-.105-1.4-.315a1.194 1.194 0 0 1-.525-.77 5.188 5.188 0 0 1-.105-1.085v-12.985c0-.42.035-.782.105-1.085.07-.327.245-.572.525-.735.304-.187.782-.28 1.435-.28.63 0 1.085.082 1.365.245.304.163.49.373.56.63.094.233.14.467.14.7l-.28.63c.117-.187.28-.408.49-.665.21-.28.49-.548.84-.805.35-.28.77-.502 1.26-.665.49-.187 1.074-.28 1.75-.28.28 0 .572.035.875.105.327.047.642.128.945.245.327.093.619.222.875.385.257.163.455.362.595.595.14.21.21.455.21.735 0 .747-.186 1.377-.56 1.89-.373.513-.816.77-1.33.77-.35 0-.606-.035-.77-.105a1.835 1.835 0 0 1-.42-.245c-.093-.093-.245-.175-.455-.245-.186-.07-.49-.105-.91-.105-.35 0-.711.058-1.085.175-.35.117-.676.292-.98.525a2.591 2.591 0 0 0-.735.91c-.186.35-.28.758-.28 1.225v8.505c0 .397-.035.758-.105 1.085-.07.303-.256.548-.56.735-.303.187-.793.28-1.47.28Zm20.267.07c-.49 0-.899-.082-1.225-.245-.327-.163-.584-.432-.77-.805l-6.37-13.335c-.35-.7-.444-1.26-.28-1.68.163-.42.583-.793 1.26-1.12.7-.35 1.26-.467 1.68-.35.42.117.793.548 1.12 1.295l4.585 10.745 4.515-10.535c.326-.77.7-1.248 1.12-1.435.42-.21 1.026-.117 1.82.28.793.397 1.213.84 1.26 1.33.046.467-.082 1.003-.385 1.61l-6.335 13.195c-.187.35-.444.607-.77.77-.327.187-.735.28-1.225.28Zm24.421-.14c-.677 0-1.179-.128-1.505-.385-.327-.257-.49-.607-.49-1.05l.245-1.155c-.187.303-.502.665-.945 1.085-.444.397-1.027.758-1.75 1.085-.724.303-1.599.455-2.625.455a7.475 7.475 0 0 1-3.115-.665 8.76 8.76 0 0 1-2.555-1.89 10.27 10.27 0 0 1-1.75-2.765 8.962 8.962 0 0 1-.63-3.36c0-1.143.21-2.217.63-3.22a9.343 9.343 0 0 1 1.785-2.73 8.237 8.237 0 0 1 2.555-1.855c.98-.467 2.006-.7 3.08-.7.956 0 1.761.128 2.415.385.676.257 1.248.583 1.715.98.466.373.851.77 1.155 1.19l-.21-1.015c0-.513.163-.898.49-1.155.326-.28.84-.42 1.54-.42.653 0 1.12.105 1.4.315.28.187.455.455.525.805.07.327.105.7.105 1.12v12.81c0 .397-.035.758-.105 1.085-.07.327-.257.583-.56.77-.28.187-.747.28-1.4.28Zm-6.44-4.06c.793 0 1.505-.198 2.135-.595a4.351 4.351 0 0 0 1.505-1.61c.396-.7.595-1.47.595-2.31 0-.91-.199-1.703-.595-2.38a4.25 4.25 0 0 0-1.575-1.575c-.63-.397-1.342-.595-2.135-.595-.864 0-1.634.21-2.31.63a4.356 4.356 0 0 0-1.61 1.645c-.374.677-.56 1.447-.56 2.31 0 .84.198 1.598.595 2.275a4.43 4.43 0 0 0 1.61 1.61c.7.397 1.481.595 2.345.595Zm28.31 4.2a9.96 9.96 0 0 1-3.29-.56 9.487 9.487 0 0 1-2.87-1.715 8.542 8.542 0 0 1-2.03-2.73c-.49-1.097-.735-2.333-.735-3.71 0-1.377.245-2.602.735-3.675a8.542 8.542 0 0 1 2.03-2.73 9.042 9.042 0 0 1 2.835-1.715 9.13 9.13 0 0 1 3.255-.595c.817 0 1.587.117 2.31.35.747.233 1.389.513 1.925.84.537.327.922.653 1.155.98.304.28.56.548.77.805.21.257.28.572.21.945-.07.233-.175.455-.315.665-.14.187-.315.385-.525.595-.56.63-1.108.863-1.645.7a18.136 18.136 0 0 1-.91-.525 11.942 11.942 0 0 0-.945-.525 5.004 5.004 0 0 0-.945-.455 3.195 3.195 0 0 0-1.085-.175c-.886 0-1.68.198-2.38.595a4.177 4.177 0 0 0-1.61 1.575c-.373.677-.56 1.458-.56 2.345 0 .887.187 1.68.56 2.38a4.446 4.446 0 0 0 1.61 1.61c.677.373 1.447.56 2.31.56.42 0 .817-.047 1.19-.14a5.495 5.495 0 0 0 1.05-.42 3.97 3.97 0 0 0 .735-.56c.257-.163.49-.315.7-.455.21-.14.432-.21.665-.21.28 0 .549.105.805.315.28.187.584.49.91.91.304.35.467.688.49 1.015a1.38 1.38 0 0 1-.21.945c-.163.303-.443.583-.84.84-.28.28-.7.572-1.26.875a10.27 10.27 0 0 1-1.89.735c-.7.21-1.435.315-2.205.315Zm17.46.14c-1.12 0-2.217-.21-3.29-.63a9.917 9.917 0 0 1-2.87-1.855 9.372 9.372 0 0 1-2.03-2.8c-.49-1.073-.735-2.252-.735-3.535 0-1.237.233-2.392.7-3.465a9.096 9.096 0 0 1 1.925-2.835 8.71 8.71 0 0 1 2.8-1.89 8.5 8.5 0 0 1 3.43-.7c1.633 0 3.115.397 4.445 1.19a8.775 8.775 0 0 1 3.185 3.15c.793 1.33 1.19 2.835 1.19 4.515 0 1.33-.245 2.543-.735 3.64a8.888 8.888 0 0 1-1.995 2.8 9.244 9.244 0 0 1-2.835 1.785 8.34 8.34 0 0 1-3.185.63Zm-.07-4.13c.77 0 1.505-.187 2.205-.56a4.66 4.66 0 0 0 1.75-1.68c.466-.723.7-1.575.7-2.555 0-.91-.21-1.715-.63-2.415a4.29 4.29 0 0 0-1.645-1.645c-.7-.397-1.505-.595-2.415-.595-.864 0-1.645.21-2.345.63-.7.397-1.26.957-1.68 1.68-.397.7-.595 1.493-.595 2.38 0 .98.221 1.832.665 2.555a4.82 4.82 0 0 0 1.715 1.645c.723.373 1.481.56 2.275.56Zm13.6 3.885c-.63 0-1.096-.093-1.4-.28a1.194 1.194 0 0 1-.525-.77 5.01 5.01 0 0 1-.105-1.05v-13.09c0-.373.035-.712.105-1.015.07-.303.257-.548.56-.735.304-.187.782-.28 1.435-.28.677 0 1.167.14 1.47.42.327.28.49.723.49 1.33l-.315.98c.117-.257.315-.537.595-.84.28-.303.619-.607 1.015-.91.42-.303.887-.548 1.4-.735a4.67 4.67 0 0 1 1.61-.28c.77 0 1.47.128 2.1.385.654.257 1.225.63 1.715 1.12.514.49.957 1.085 1.33 1.785.397-.607.84-1.155 1.33-1.645a5.161 5.161 0 0 1 1.715-1.19c.654-.303 1.389-.455 2.205-.455 1.354 0 2.485.338 3.395 1.015.934.677 1.634 1.645 2.1 2.905.49 1.237.735 2.718.735 4.445v6.79c0 .397-.046.758-.14 1.085-.07.303-.256.548-.56.735-.28.187-.746.28-1.4.28-.653 0-1.131-.105-1.435-.315-.303-.187-.49-.432-.56-.735a5.188 5.188 0 0 1-.105-1.085v-6.79c0-.863-.105-1.61-.315-2.24-.21-.63-.525-1.12-.945-1.47-.396-.35-.921-.525-1.575-.525-.7 0-1.306.175-1.82.525-.49.327-.875.805-1.155 1.435s-.42 1.4-.42 2.31v6.825c0 .397-.058.77-.175 1.12-.116.327-.35.572-.7.735-.326.187-.805.257-1.435.21-.583-.023-1.015-.14-1.295-.35a1.38 1.38 0 0 1-.49-.77 7.275 7.275 0 0 1-.07-1.015v-6.79c0-.863-.105-1.61-.315-2.24-.21-.653-.525-1.143-.945-1.47-.396-.35-.933-.525-1.61-.525-.723 0-1.341.187-1.855.56-.49.373-.863.875-1.12 1.505-.256.63-.385 1.353-.385 2.17v6.86c0 .373-.046.723-.14 1.05a1.05 1.05 0 0 1-.56.735c-.28.187-.758.28-1.435.28Zm34.526.245a8.96 8.96 0 0 1-3.29-.63 9.93 9.93 0 0 1-2.87-1.855 9.389 9.389 0 0 1-2.03-2.8c-.49-1.073-.735-2.252-.735-3.535 0-1.237.234-2.392.7-3.465a9.13 9.13 0 0 1 1.925-2.835 8.721 8.721 0 0 1 2.8-1.89 8.507 8.507 0 0 1 3.43-.7c1.634 0 3.115.397 4.445 1.19a8.768 8.768 0 0 1 3.185 3.15c.794 1.33 1.19 2.835 1.19 4.515 0 1.33-.245 2.543-.735 3.64a8.888 8.888 0 0 1-1.995 2.8 9.244 9.244 0 0 1-2.835 1.785 8.332 8.332 0 0 1-3.185.63Zm-.07-4.13c.77 0 1.505-.187 2.205-.56a4.645 4.645 0 0 0 1.75-1.68c.467-.723.7-1.575.7-2.555 0-.91-.21-1.715-.63-2.415a4.284 4.284 0 0 0-1.645-1.645c-.7-.397-1.505-.595-2.415-.595a4.47 4.47 0 0 0-2.345.63c-.7.397-1.26.957-1.68 1.68-.396.7-.595 1.493-.595 2.38 0 .98.222 1.832.665 2.555a4.829 4.829 0 0 0 1.715 1.645c.724.373 1.482.56 2.275.56Zm27.393 3.885c-1.074 0-2.065-.187-2.975-.56a7.224 7.224 0 0 1-2.345-1.68c-.677-.723-1.202-1.587-1.575-2.59-.374-1.003-.56-2.112-.56-3.325v-6.965c0-.397.035-.747.105-1.05.07-.327.256-.583.56-.77.303-.187.77-.28 1.4-.28.676 0 1.155.093 1.435.28.303.187.49.443.56.77.07.327.105.688.105 1.085v6.93c0 .84.14 1.563.42 2.17a3.499 3.499 0 0 0 1.295 1.435c.56.327 1.248.49 2.065.49.84 0 1.551-.163 2.135-.49a3.604 3.604 0 0 0 1.4-1.435c.326-.63.49-1.353.49-2.17v-7c0-.397.035-.747.105-1.05a1.05 1.05 0 0 1 .56-.735c.303-.187.781-.28 1.435-.28.653 0 1.12.093 1.4.28.28.187.455.443.525.77.093.327.14.677.14 1.05v13.125c0 .35-.047.677-.14.98-.07.303-.257.548-.56.735-.28.187-.747.28-1.4.28-.467 0-.84-.058-1.12-.175a1.386 1.386 0 0 1-.595-.385 1.925 1.925 0 0 1-.245-.56 4.386 4.386 0 0 1-.035-.56l.28-.945c-.14.21-.35.467-.63.77-.28.28-.63.572-1.05.875-.397.28-.864.513-1.4.7a5.4 5.4 0 0 1-1.785.28Zm14.202 0c-.63 0-1.097-.105-1.4-.315a1.185 1.185 0 0 1-.525-.735 5.188 5.188 0 0 1-.105-1.085v-13.09c0-.373.035-.712.105-1.015.07-.303.257-.537.56-.7.303-.187.77-.28 1.4-.28.56 0 .98.07 1.26.21.28.14.467.315.56.525.093.21.14.42.14.63.023.21.047.373.07.49l-.14 1.12c.14-.373.373-.735.7-1.085.327-.35.723-.665 1.19-.945a5.899 5.899 0 0 1 1.505-.7 5.382 5.382 0 0 1 1.715-.28c1.097 0 2.077.198 2.94.595a6.258 6.258 0 0 1 2.205 1.68c.63.723 1.108 1.587 1.435 2.59.327.98.49 2.088.49 3.325v6.965c0 .397-.047.758-.14 1.085-.07.303-.245.548-.525.735-.28.187-.758.28-1.435.28-.653 0-1.132-.105-1.435-.315-.303-.187-.49-.432-.56-.735a5.188 5.188 0 0 1-.105-1.085v-6.965c0-.84-.152-1.563-.455-2.17a3.064 3.064 0 0 0-1.26-1.4c-.537-.327-1.225-.49-2.065-.49-.817 0-1.528.175-2.135.525a3.374 3.374 0 0 0-1.4 1.4c-.327.607-.49 1.318-.49 2.135v7c0 .397-.035.758-.105 1.085-.07.303-.257.548-.56.735-.28.187-.758.28-1.435.28Zm34.007.105c-.49 0-.899-.082-1.225-.245-.327-.163-.584-.432-.77-.805l-6.37-13.335c-.35-.7-.444-1.26-.28-1.68.163-.42.583-.793 1.26-1.12.7-.35 1.26-.467 1.68-.35.42.117.793.548 1.12 1.295l4.585 10.745 4.515-10.535c.326-.77.7-1.248 1.12-1.435.42-.21 1.026-.117 1.82.28.793.397 1.213.84 1.26 1.33.046.467-.082 1.003-.385 1.61l-6.335 13.195c-.187.35-.444.607-.77.77-.327.187-.735.28-1.225.28Zm18.742.14c-1.516 0-2.846-.245-3.99-.735-1.12-.49-2.065-1.155-2.835-1.995a9.495 9.495 0 0 1-1.715-2.87 10.059 10.059 0 0 1-.56-3.325c0-1.68.385-3.173 1.155-4.48a8.251 8.251 0 0 1 3.185-3.08c1.377-.747 2.952-1.12 4.725-1.12 1.26 0 2.369.198 3.325.595.957.397 1.75.922 2.38 1.575a6.339 6.339 0 0 1 1.47 2.1c.35.77.525 1.517.525 2.24 0 1.237-.303 2.135-.91 2.695-.583.56-1.318.84-2.205.84h-9.24c.024.793.269 1.482.735 2.065a5.07 5.07 0 0 0 1.82 1.365 6.004 6.004 0 0 0 2.275.455 9.97 9.97 0 0 0 1.54-.105 9.6 9.6 0 0 0 1.19-.245c.327-.117.607-.233.84-.35.257-.117.49-.222.7-.315a2.13 2.13 0 0 1 .595-.175c.257-.023.514.035.77.175.257.14.467.385.63.735.14.233.234.455.28.665.07.187.105.373.105.56 0 .467-.28.91-.84 1.33-.56.397-1.353.723-2.38.98-1.003.28-2.193.42-3.57.42Zm-4.69-10.045h7.175c.397 0 .7-.058.91-.175.21-.14.315-.42.315-.84 0-.537-.163-1.015-.49-1.435-.326-.443-.77-.782-1.33-1.015-.56-.257-1.213-.385-1.96-.385-.863 0-1.645.175-2.345.525-.7.327-1.26.782-1.68 1.365a3.412 3.412 0 0 0-.595 1.96Zm17.293 9.835c-.63 0-1.097-.105-1.4-.315a1.194 1.194 0 0 1-.525-.77 5.188 5.188 0 0 1-.105-1.085v-12.985c0-.42.035-.782.105-1.085.07-.327.245-.572.525-.735.303-.187.781-.28 1.435-.28.63 0 1.085.082 1.365.245.303.163.49.373.56.63.093.233.14.467.14.7l-.28.63c.116-.187.28-.408.49-.665.21-.28.49-.548.84-.805.35-.28.77-.502 1.26-.665.49-.187 1.073-.28 1.75-.28.28 0 .571.035.875.105.326.047.641.128.945.245.326.093.618.222.875.385.256.163.455.362.595.595.14.21.21.455.21.735 0 .747-.187 1.377-.56 1.89-.374.513-.817.77-1.33.77-.35 0-.607-.035-.77-.105a1.793 1.793 0 0 1-.42-.245c-.094-.093-.245-.175-.455-.245-.187-.07-.49-.105-.91-.105-.35 0-.712.058-1.085.175-.35.117-.677.292-.98.525a2.57 2.57 0 0 0-.735.91c-.187.35-.28.758-.28 1.225v8.505c0 .397-.035.758-.105 1.085-.07.303-.257.548-.56.735-.304.187-.794.28-1.47.28Zm18.821-.035a7.163 7.163 0 0 1-3.045-.665 8.109 8.109 0 0 1-2.52-1.82 9.052 9.052 0 0 1-1.715-2.765 9.328 9.328 0 0 1-.63-3.43c0-1.167.21-2.263.63-3.29.42-1.05.992-1.96 1.715-2.73a8.26 8.26 0 0 1 2.555-1.855 7.083 7.083 0 0 1 3.01-.665c1.12 0 2.124.222 3.01.665a6.367 6.367 0 0 1 2.24 1.855c.63.77 1.109 1.68 1.435 2.73a11.65 11.65 0 0 1 .525 3.325c0 1.19-.163 2.31-.49 3.36a7.961 7.961 0 0 1-1.4 2.73 6.636 6.636 0 0 1-2.275 1.89c-.886.443-1.901.665-3.045.665Zm.56-4.095c.817 0 1.54-.187 2.17-.56a4.246 4.246 0 0 0 1.54-1.61c.397-.677.595-1.447.595-2.31 0-.887-.198-1.668-.595-2.345a4.246 4.246 0 0 0-1.54-1.61c-.63-.397-1.353-.595-2.17-.595-.816 0-1.551.198-2.205.595-.653.373-1.178.91-1.575 1.61-.373.677-.56 1.458-.56 2.345 0 .863.187 1.633.56 2.31a4.535 4.535 0 0 0 1.575 1.61c.677.373 1.412.56 2.205.56Zm6.475 4.095c-.653 0-1.131-.105-1.435-.315-.303-.233-.501-.595-.595-1.085v-21.56c0-.397.024-.747.07-1.05.07-.327.245-.583.525-.77.304-.21.77-.315 1.4-.315.677 0 1.155.093 1.435.28.28.187.455.443.525.77.094.303.14.653.14 1.05v20.86c0 .397-.035.758-.105 1.085-.07.327-.256.583-.56.77-.28.187-.746.28-1.4.28Zm19.685-.035c-.676 0-1.178-.128-1.505-.385-.326-.257-.49-.607-.49-1.05l.245-1.155c-.186.303-.501.665-.945 1.085-.443.397-1.026.758-1.75 1.085-.723.303-1.598.455-2.625.455a7.478 7.478 0 0 1-3.115-.665 8.786 8.786 0 0 1-2.555-1.89 10.32 10.32 0 0 1-1.75-2.765 8.962 8.962 0 0 1-.63-3.36c0-1.143.21-2.217.63-3.22a9.383 9.383 0 0 1 1.785-2.73 8.26 8.26 0 0 1 2.555-1.855c.98-.467 2.007-.7 3.08-.7.957 0 1.762.128 2.415.385.677.257 1.249.583 1.715.98.467.373.852.77 1.155 1.19l-.21-1.015c0-.513.164-.898.49-1.155.327-.28.84-.42 1.54-.42.654 0 1.12.105 1.4.315.28.187.455.455.525.805.07.327.105.7.105 1.12v12.81c0 .397-.035.758-.105 1.085-.07.327-.256.583-.56.77-.28.187-.746.28-1.4.28Zm-6.44-4.06c.794 0 1.505-.198 2.135-.595a4.343 4.343 0 0 0 1.505-1.61 4.6 4.6 0 0 0 .595-2.31c0-.91-.198-1.703-.595-2.38a4.236 4.236 0 0 0-1.575-1.575c-.63-.397-1.341-.595-2.135-.595-.863 0-1.633.21-2.31.63a4.37 4.37 0 0 0-1.61 1.645c-.373.677-.56 1.447-.56 2.31 0 .84.199 1.598.595 2.275a4.446 4.446 0 0 0 1.61 1.61c.7.397 1.482.595 2.345.595Zm19.437 4.095a7.163 7.163 0 0 1-3.045-.665 8.109 8.109 0 0 1-2.52-1.82 9.052 9.052 0 0 1-1.715-2.765 9.328 9.328 0 0 1-.63-3.43c0-1.167.21-2.263.63-3.29.42-1.05.992-1.96 1.715-2.73a8.26 8.26 0 0 1 2.555-1.855 7.083 7.083 0 0 1 3.01-.665c1.12 0 2.124.222 3.01.665a6.367 6.367 0 0 1 2.24 1.855c.63.77 1.109 1.68 1.435 2.73a11.65 11.65 0 0 1 .525 3.325c0 1.19-.163 2.31-.49 3.36a7.961 7.961 0 0 1-1.4 2.73 6.636 6.636 0 0 1-2.275 1.89c-.886.443-1.901.665-3.045.665Zm.56-4.095c.817 0 1.54-.187 2.17-.56a4.246 4.246 0 0 0 1.54-1.61c.397-.677.595-1.447.595-2.31 0-.887-.198-1.668-.595-2.345a4.246 4.246 0 0 0-1.54-1.61c-.63-.397-1.353-.595-2.17-.595-.816 0-1.551.198-2.205.595-.653.373-1.178.91-1.575 1.61-.373.677-.56 1.458-.56 2.345 0 .863.187 1.633.56 2.31a4.535 4.535 0 0 0 1.575 1.61c.677.373 1.412.56 2.205.56Zm6.475 4.095c-.653 0-1.131-.105-1.435-.315-.303-.233-.501-.595-.595-1.085v-21.56c0-.397.024-.747.07-1.05.07-.327.245-.583.525-.77.304-.21.77-.315 1.4-.315.677 0 1.155.093 1.435.28.28.187.455.443.525.77.094.303.14.653.14 1.05v20.86c0 .397-.035.758-.105 1.085-.07.327-.256.583-.56.77-.28.187-.746.28-1.4.28Zm14.007.245c-1.517 0-2.847-.245-3.99-.735-1.12-.49-2.065-1.155-2.835-1.995a9.475 9.475 0 0 1-1.715-2.87 10.059 10.059 0 0 1-.56-3.325c0-1.68.385-3.173 1.155-4.48a8.251 8.251 0 0 1 3.185-3.08c1.377-.747 2.952-1.12 4.725-1.12 1.26 0 2.368.198 3.325.595.957.397 1.75.922 2.38 1.575a6.368 6.368 0 0 1 1.47 2.1c.35.77.525 1.517.525 2.24 0 1.237-.303 2.135-.91 2.695-.583.56-1.318.84-2.205.84h-9.24c.023.793.268 1.482.735 2.065a5.07 5.07 0 0 0 1.82 1.365 6.004 6.004 0 0 0 2.275.455 9.98 9.98 0 0 0 1.54-.105c.467-.07.863-.152 1.19-.245.327-.117.607-.233.84-.35.257-.117.49-.222.7-.315a2.12 2.12 0 0 1 .595-.175c.257-.023.513.035.77.175.257.14.467.385.63.735.14.233.233.455.28.665.07.187.105.373.105.56 0 .467-.28.91-.84 1.33-.56.397-1.353.723-2.38.98-1.003.28-2.193.42-3.57.42Zm-4.69-10.045h7.175c.397 0 .7-.058.91-.175.21-.14.315-.42.315-.84 0-.537-.163-1.015-.49-1.435-.327-.443-.77-.782-1.33-1.015-.56-.257-1.213-.385-1.96-.385-.863 0-1.645.175-2.345.525-.7.327-1.26.782-1.68 1.365a3.404 3.404 0 0 0-.595 1.96Zm17.292 9.835c-.63 0-1.096-.105-1.4-.315a1.194 1.194 0 0 1-.525-.77 5.188 5.188 0 0 1-.105-1.085v-12.985c0-.42.035-.782.105-1.085.07-.327.245-.572.525-.735.304-.187.782-.28 1.435-.28.63 0 1.085.082 1.365.245.304.163.49.373.56.63.094.233.14.467.14.7l-.28.63c.117-.187.28-.408.49-.665.21-.28.49-.548.84-.805.35-.28.77-.502 1.26-.665.49-.187 1.074-.28 1.75-.28.28 0 .572.035.875.105.327.047.642.128.945.245.327.093.619.222.875.385.257.163.455.362.595.595.14.21.21.455.21.735 0 .747-.186 1.377-.56 1.89-.373.513-.816.77-1.33.77-.35 0-.606-.035-.77-.105a1.835 1.835 0 0 1-.42-.245c-.093-.093-.245-.175-.455-.245-.186-.07-.49-.105-.91-.105-.35 0-.711.058-1.085.175-.35.117-.676.292-.98.525a2.591 2.591 0 0 0-.735.91c-.186.35-.28.758-.28 1.225v8.505c0 .397-.035.758-.105 1.085-.07.303-.256.548-.56.735-.303.187-.793.28-1.47.28Zm19.828.21c-1.12 0-2.217-.21-3.29-.63a9.917 9.917 0 0 1-2.87-1.855 9.372 9.372 0 0 1-2.03-2.8c-.49-1.073-.735-2.252-.735-3.535 0-1.237.233-2.392.7-3.465a9.113 9.113 0 0 1 1.925-2.835 8.721 8.721 0 0 1 2.8-1.89 8.503 8.503 0 0 1 3.43-.7c1.633 0 3.115.397 4.445 1.19a8.768 8.768 0 0 1 3.185 3.15c.793 1.33 1.19 2.835 1.19 4.515 0 1.33-.245 2.543-.735 3.64a8.888 8.888 0 0 1-1.995 2.8 9.244 9.244 0 0 1-2.835 1.785 8.336 8.336 0 0 1-3.185.63Zm-.07-4.13c.77 0 1.505-.187 2.205-.56a4.652 4.652 0 0 0 1.75-1.68c.467-.723.7-1.575.7-2.555 0-.91-.21-1.715-.63-2.415a4.29 4.29 0 0 0-1.645-1.645c-.7-.397-1.505-.595-2.415-.595a4.47 4.47 0 0 0-2.345.63c-.7.397-1.26.957-1.68 1.68-.397.7-.595 1.493-.595 2.38 0 .98.222 1.832.665 2.555a4.82 4.82 0 0 0 1.715 1.645 4.9 4.9 0 0 0 2.275.56ZM40.893 160.105c-1.144 0-2.17-.21-3.08-.63a6.884 6.884 0 0 1-2.275-1.82 8.877 8.877 0 0 1-1.4-2.73c-.304-1.027-.455-2.135-.455-3.325a11.65 11.65 0 0 1 .525-3.325c.326-1.05.793-1.96 1.4-2.73a6.884 6.884 0 0 1 2.275-1.82c.886-.443 1.89-.665 3.01-.665a6.93 6.93 0 0 1 3.01.665 7.847 7.847 0 0 1 2.52 1.855 8.71 8.71 0 0 1 1.75 2.765c.42 1.027.63 2.135.63 3.325 0 1.213-.21 2.333-.63 3.36a8.709 8.709 0 0 1-1.715 2.695 7.888 7.888 0 0 1-2.52 1.75c-.957.42-1.972.63-3.045.63Zm-7 7.28c-.63 0-1.097-.093-1.4-.28-.304-.187-.49-.432-.56-.735a4.695 4.695 0 0 1-.105-1.05v-20.125c0-.397.035-.747.105-1.05.07-.303.245-.548.525-.735.303-.21.77-.315 1.4-.315.606 0 1.085.093 1.435.28.35.187.583.502.7.945v20.965c.023.397-.012.747-.105 1.05-.07.327-.257.583-.56.77-.304.187-.782.28-1.435.28Zm6.44-11.2c.816 0 1.551-.187 2.205-.56a4.254 4.254 0 0 0 1.54-1.61c.396-.7.595-1.482.595-2.345 0-.887-.199-1.668-.595-2.345a3.997 3.997 0 0 0-1.54-1.575c-.654-.397-1.389-.595-2.205-.595-.794 0-1.517.198-2.17.595a4.528 4.528 0 0 0-1.575 1.61c-.374.653-.56 1.423-.56 2.31 0 .863.186 1.645.56 2.345a4.528 4.528 0 0 0 1.575 1.61 4.3 4.3 0 0 0 2.17.56Zm13.666 4.165c-.63 0-1.096-.105-1.4-.315-.303-.187-.49-.432-.56-.735a5.188 5.188 0 0 1-.105-1.085v-13.02c0-.373.035-.712.105-1.015.094-.327.28-.583.56-.77.304-.187.782-.28 1.436-.28.653 0 1.12.093 1.4.28.303.187.49.443.56.77.07.327.105.688.105 1.085v12.985c0 .397-.035.758-.105 1.085-.07.303-.257.548-.56.735-.28.187-.759.28-1.436.28Zm0-20.615c-.676 0-1.178-.093-1.505-.28a1.447 1.447 0 0 1-.594-.84 5.9 5.9 0 0 1-.105-1.155c0-.443.035-.828.105-1.155.093-.327.303-.583.63-.77.326-.21.828-.315 1.505-.315.7 0 1.201.105 1.505.315.303.21.501.49.595.84.093.327.14.712.14 1.155 0 .397-.047.77-.14 1.12-.094.35-.292.618-.596.805-.303.187-.816.28-1.54.28Zm11.95 20.615a13.66 13.66 0 0 1-2.31-.175c-.654-.117-1.226-.315-1.716-.595a3.525 3.525 0 0 1-1.155-1.12c-.303-.49-.536-1.085-.7-1.785-.14-.7-.21-1.54-.21-2.52v-16.87c0-.397.035-.747.105-1.05.094-.327.28-.583.56-.77.304-.21.782-.315 1.435-.315.654 0 1.12.093 1.4.28.304.187.49.443.56.77.094.303.14.653.14 1.05v16.73c0 .443.024.817.07 1.12.07.28.175.513.315.7a1.4 1.4 0 0 0 .595.35c.257.07.56.105.91.105.304 0 .572.035.805.105.257.07.455.245.595.525.164.28.245.735.245 1.365 0 .653-.081 1.132-.245 1.435-.14.303-.338.49-.595.56-.256.07-.525.105-.805.105Zm12.215.21c-1.12 0-2.217-.21-3.29-.63a9.922 9.922 0 0 1-2.87-1.855 9.378 9.378 0 0 1-2.03-2.8c-.49-1.073-.735-2.252-.735-3.535 0-1.237.233-2.392.7-3.465a9.115 9.115 0 0 1 1.925-2.835 8.718 8.718 0 0 1 2.8-1.89 8.504 8.504 0 0 1 3.43-.7c1.633 0 3.115.397 4.445 1.19a8.77 8.77 0 0 1 3.185 3.15c.793 1.33 1.19 2.835 1.19 4.515 0 1.33-.245 2.543-.735 3.64a8.888 8.888 0 0 1-1.995 2.8 9.244 9.244 0 0 1-2.835 1.785 8.335 8.335 0 0 1-3.185.63Zm-.07-4.13c.77 0 1.505-.187 2.205-.56a4.651 4.651 0 0 0 1.75-1.68c.467-.723.7-1.575.7-2.555 0-.91-.21-1.715-.63-2.415a4.288 4.288 0 0 0-1.645-1.645c-.7-.397-1.505-.595-2.415-.595a4.47 4.47 0 0 0-2.345.63c-.7.397-1.26.957-1.68 1.68-.397.7-.595 1.493-.595 2.38 0 .98.222 1.832.665 2.555a4.824 4.824 0 0 0 1.715 1.645 4.9 4.9 0 0 0 2.275.56Zm19.563 3.92c-1.143 0-2.123-.117-2.94-.35-.817-.233-1.482-.595-1.995-1.085-.513-.49-.898-1.12-1.155-1.89-.233-.793-.35-1.727-.35-2.8v-14.84c0-.42.035-.782.105-1.085.093-.303.28-.537.56-.7.303-.187.77-.28 1.4-.28.653 0 1.12.093 1.4.28.303.187.49.443.56.77.093.303.14.642.14 1.015v14.7c0 .49.035.887.105 1.19.093.303.222.537.385.7.187.14.42.245.7.315.303.047.665.07 1.085.07.443 0 .817.035 1.12.105.327.07.572.245.735.525.163.257.245.688.245 1.295 0 .653-.105 1.132-.315 1.435-.187.28-.443.455-.77.525-.303.07-.642.105-1.015.105Zm-7.875-16.905 3.605.035 4.83-.14c.397 0 .747.047 1.05.14.327.07.583.257.77.56.187.28.28.747.28 1.4 0 .607-.093 1.062-.28 1.365-.187.303-.432.502-.735.595-.303.07-.653.105-1.05.105l-4.69-.07-3.885.035c-.583-.023-.992-.187-1.225-.49-.21-.327-.315-.852-.315-1.575 0-.677.128-1.167.385-1.47.28-.327.7-.49 1.26-.49Zm21.194 17.115a8.96 8.96 0 0 1-3.29-.63 9.93 9.93 0 0 1-2.87-1.855 9.389 9.389 0 0 1-2.03-2.8c-.49-1.073-.735-2.252-.735-3.535 0-1.237.234-2.392.7-3.465a9.13 9.13 0 0 1 1.925-2.835 8.721 8.721 0 0 1 2.8-1.89 8.507 8.507 0 0 1 3.43-.7c1.634 0 3.115.397 4.445 1.19a8.768 8.768 0 0 1 3.185 3.15c.794 1.33 1.19 2.835 1.19 4.515 0 1.33-.245 2.543-.735 3.64a8.888 8.888 0 0 1-1.995 2.8 9.244 9.244 0 0 1-2.835 1.785 8.332 8.332 0 0 1-3.185.63Zm-.07-4.13c.77 0 1.505-.187 2.205-.56a4.645 4.645 0 0 0 1.75-1.68c.467-.723.7-1.575.7-2.555 0-.91-.21-1.715-.63-2.415a4.284 4.284 0 0 0-1.645-1.645c-.7-.397-1.505-.595-2.415-.595a4.47 4.47 0 0 0-2.345.63c-.7.397-1.26.957-1.68 1.68-.396.7-.595 1.493-.595 2.38 0 .98.222 1.832.665 2.555a4.829 4.829 0 0 0 1.715 1.645c.724.373 1.482.56 2.275.56Zm27.673 3.885a7.163 7.163 0 0 1-3.045-.665 8.086 8.086 0 0 1-2.52-1.82 9.052 9.052 0 0 1-1.715-2.765 9.328 9.328 0 0 1-.63-3.43c0-1.167.21-2.263.63-3.29.42-1.05.992-1.96 1.715-2.73a8.248 8.248 0 0 1 2.555-1.855 7.083 7.083 0 0 1 3.01-.665c1.12 0 2.123.222 3.01.665a6.375 6.375 0 0 1 2.24 1.855c.63.77 1.108 1.68 1.435 2.73a11.65 11.65 0 0 1 .525 3.325c0 1.19-.163 2.31-.49 3.36a7.961 7.961 0 0 1-1.4 2.73 6.645 6.645 0 0 1-2.275 1.89c-.887.443-1.902.665-3.045.665Zm.56-4.095c.817 0 1.54-.187 2.17-.56a4.254 4.254 0 0 0 1.54-1.61c.397-.677.595-1.447.595-2.31 0-.887-.198-1.668-.595-2.345a4.254 4.254 0 0 0-1.54-1.61c-.63-.397-1.353-.595-2.17-.595s-1.552.198-2.205.595c-.653.373-1.178.91-1.575 1.61-.373.677-.56 1.458-.56 2.345 0 .863.187 1.633.56 2.31a4.535 4.535 0 0 0 1.575 1.61c.677.373 1.412.56 2.205.56Zm6.475 4.095c-.653 0-1.132-.105-1.435-.315-.303-.233-.502-.595-.595-1.085v-21.56c0-.397.023-.747.07-1.05.07-.327.245-.583.525-.77.303-.21.77-.315 1.4-.315.677 0 1.155.093 1.435.28.28.187.455.443.525.77.093.303.14.653.14 1.05v20.86c0 .397-.035.758-.105 1.085-.07.327-.257.583-.56.77-.28.187-.747.28-1.4.28Zm14.007.245c-1.517 0-2.847-.245-3.99-.735-1.12-.49-2.065-1.155-2.835-1.995a9.454 9.454 0 0 1-1.715-2.87 10.033 10.033 0 0 1-.56-3.325c0-1.68.385-3.173 1.155-4.48a8.245 8.245 0 0 1 3.185-3.08c1.376-.747 2.951-1.12 4.725-1.12 1.26 0 2.368.198 3.325.595.956.397 1.75.922 2.38 1.575a6.368 6.368 0 0 1 1.47 2.1c.35.77.525 1.517.525 2.24 0 1.237-.304 2.135-.91 2.695-.584.56-1.319.84-2.205.84h-9.24c.023.793.268 1.482.735 2.065a5.062 5.062 0 0 0 1.82 1.365 6 6 0 0 0 2.275.455c.583 0 1.096-.035 1.54-.105.466-.07.863-.152 1.19-.245a7.77 7.77 0 0 0 .84-.35 65.1 65.1 0 0 1 .7-.315 2.12 2.12 0 0 1 .595-.175c.256-.023.513.035.77.175.256.14.466.385.63.735.14.233.233.455.28.665.07.187.105.373.105.56 0 .467-.28.91-.84 1.33-.56.397-1.354.723-2.38.98-1.004.28-2.194.42-3.57.42Zm-4.69-10.045h7.175c.396 0 .7-.058.91-.175.21-.14.315-.42.315-.84 0-.537-.164-1.015-.49-1.435-.327-.443-.77-.782-1.33-1.015-.56-.257-1.214-.385-1.96-.385-.864 0-1.645.175-2.345.525-.7.327-1.26.782-1.68 1.365a3.404 3.404 0 0 0-.595 1.96Zm26.429 9.835c-.654 0-1.132-.105-1.435-.315a1.163 1.163 0 0 1-.56-.77 5.188 5.188 0 0 1-.105-1.085v-20.195c0-.793.151-1.342.455-1.645.326-.303.91-.455 1.75-.455h13.65c.396 0 .746.047 1.05.14.303.07.548.257.735.56.186.28.28.758.28 1.435 0 .653-.105 1.132-.315 1.435-.187.303-.444.49-.77.56-.304.07-.654.105-1.05.105h-11.55V146h7.945c.396 0 .735.047 1.015.14a.95.95 0 0 1 .665.525c.163.257.245.688.245 1.295 0 .56-.082.98-.245 1.26-.164.257-.397.42-.7.49-.28.047-.619.07-1.015.07h-7.91v8.435c0 .397-.047.758-.14 1.085-.07.303-.257.548-.56.735-.304.21-.782.315-1.435.315Zm27.545.035c-.77 0-1.307-.152-1.61-.455-.304-.327-.455-.887-.455-1.68v-20.3c0-.77.151-1.307.455-1.61.303-.303.851-.455 1.645-.455.77 0 1.306.163 1.61.49.303.303.455.852.455 1.645v20.265c0 .77-.152 1.318-.455 1.645-.304.303-.852.455-1.645.455Zm-5.39-15.365c-.537.49-1.015.735-1.435.735-.42-.023-.887-.315-1.4-.875-.49-.537-.724-1.038-.7-1.505.046-.467.373-.968.98-1.505l5.985-5.285c.536-.467 1.015-.677 1.435-.63.443.023.91.303 1.4.84.513.537.746 1.038.7 1.505-.047.467-.385.968-1.015 1.505l-5.95 5.215Zm12.694 15.33c-.863 0-1.47-.163-1.82-.49-.35-.35-.525-.957-.525-1.82 0-.607.07-1.073.21-1.4.163-.35.42-.607.77-.77.35-.163.817-.245 1.4-.245.863 0 1.47.175 1.82.525.35.35.525.968.525 1.855 0 .583-.082 1.05-.245 1.4-.14.35-.385.595-.735.735-.327.14-.793.21-1.4.21Zm16.587-10.22c.653 0 1.12.093 1.4.28.303.163.49.397.56.7.093.28.14.607.14.98v13.16c0 .35-.047.677-.14.98-.07.303-.257.537-.56.7-.28.187-.747.28-1.4.28-.653 0-1.132-.093-1.435-.28-.303-.163-.49-.397-.56-.7a4.35 4.35 0 0 1-.105-.98v-13.195c0-.35.035-.665.105-.945.07-.303.257-.537.56-.7.303-.187.782-.28 1.435-.28Zm0-7.455c.723 0 1.248.105 1.575.315.327.21.525.49.595.84.093.35.14.747.14 1.19 0 .863-.152 1.47-.455 1.82-.303.35-.922.525-1.855.525-.723 0-1.248-.105-1.575-.315a1.405 1.405 0 0 1-.63-.84 4.907 4.907 0 0 1-.14-1.19c0-.863.152-1.47.455-1.82.327-.35.957-.525 1.89-.525Zm13.626 17.99c-1.05 0-2.007-.128-2.87-.385a9.832 9.832 0 0 1-2.24-.98 10.37 10.37 0 0 1-1.61-1.225c-.444-.42-.77-.805-.98-1.155-.304-.42-.502-.793-.595-1.12a1.317 1.317 0 0 1 .07-.945c.163-.327.455-.665.875-1.015.42-.373.805-.56 1.155-.56.373-.023.723.082 1.05.315.35.233.688.56 1.015.98.56.747 1.19 1.283 1.89 1.61.7.303 1.4.455 2.1.455.91 0 1.703-.117 2.38-.35.676-.257 1.201-.63 1.575-1.12.396-.49.595-1.12.595-1.89 0-.63-.199-1.143-.595-1.54-.374-.42-.875-.77-1.505-1.05a14.107 14.107 0 0 0-2.135-.805 58.178 58.178 0 0 1-2.345-.84 16.73 16.73 0 0 1-1.68-.665c-.56-.28-1.085-.595-1.575-.945a6.917 6.917 0 0 1-1.26-1.225c-.35-.49-.63-1.05-.84-1.68-.21-.63-.315-1.365-.315-2.205 0-1.33.326-2.497.98-3.5.653-1.027 1.563-1.832 2.73-2.415 1.166-.607 2.496-.91 3.99-.91.956 0 1.808.093 2.555.28.77.163 1.423.385 1.96.665.56.257 1.015.525 1.365.805.373.257.641.478.805.665.536.537.828.992.875 1.365.07.35-.14.828-.63 1.435-.49.63-.969.98-1.435 1.05-.444.047-.945-.14-1.505-.56a5.747 5.747 0 0 0-1.12-.945 3.864 3.864 0 0 0-1.26-.56c-.444-.117-.992-.175-1.645-.175-.467 0-.922.07-1.365.21-.42.117-.782.303-1.085.56a2.66 2.66 0 0 0-.735.875c-.164.35-.245.747-.245 1.19 0 .607.163 1.108.49 1.505.35.373.816.688 1.4.945.583.233 1.236.455 1.96.665.723.21 1.458.432 2.205.665.77.257 1.528.56 2.275.91.746.35 1.411.793 1.995 1.33.583.513 1.05 1.167 1.4 1.96.35.77.525 1.715.525 2.835 0 1.283-.245 2.403-.735 3.36a6.496 6.496 0 0 1-1.995 2.345 8.607 8.607 0 0 1-2.8 1.33 10.954 10.954 0 0 1-3.115.455Zm13.818-.315c-.63 0-1.097-.105-1.4-.315-.304-.187-.49-.432-.56-.735a5.188 5.188 0 0 1-.105-1.085v-13.02c0-.373.035-.712.105-1.015.093-.327.28-.583.56-.77.303-.187.781-.28 1.435-.28.653 0 1.12.093 1.4.28.303.187.49.443.56.77.07.327.105.688.105 1.085v12.985c0 .397-.035.758-.105 1.085-.07.303-.257.548-.56.735-.28.187-.759.28-1.435.28Zm0-20.615c-.677 0-1.179-.093-1.505-.28a1.443 1.443 0 0 1-.595-.84 5.9 5.9 0 0 1-.105-1.155c0-.443.035-.828.105-1.155.093-.327.303-.583.63-.77.326-.21.828-.315 1.505-.315.7 0 1.201.105 1.505.315.303.21.501.49.595.84.093.327.14.712.14 1.155 0 .397-.047.77-.14 1.12a1.31 1.31 0 0 1-.595.805c-.304.187-.817.28-1.54.28Zm13.454 27.615c-.84 0-1.645-.105-2.415-.315a9.31 9.31 0 0 1-2.1-.77c-.607-.327-1.097-.677-1.47-1.05-.35-.373-.525-.723-.525-1.05 0-.327.046-.607.14-.84.116-.233.28-.467.49-.7.28-.28.501-.49.665-.63.186-.14.431-.21.735-.21.256 0 .501.093.735.28.256.187.548.397.875.63a5.67 5.67 0 0 0 1.19.63c.466.187 1.061.28 1.785.28a4.4 4.4 0 0 0 1.68-.315c.513-.21.945-.525 1.295-.945.373-.397.665-.875.875-1.435.21-.56.315-1.19.315-1.89l-.035-14.49c.046-.537.233-.91.56-1.12.326-.233.828-.35 1.505-.35.63 0 1.085.093 1.365.28.28.163.455.408.525.735.07.303.105.642.105 1.015v14.175c0 1.283-.222 2.427-.665 3.43-.444 1.003-1.05 1.843-1.82 2.52a7.665 7.665 0 0 1-2.66 1.575 8.78 8.78 0 0 1-3.15.56Zm-.385-7.455a7.573 7.573 0 0 1-3.08-.63 7.736 7.736 0 0 1-2.485-1.785 9.202 9.202 0 0 1-1.68-2.66c-.397-1.027-.595-2.135-.595-3.325 0-1.167.198-2.252.595-3.255.42-1.003.98-1.89 1.68-2.66a7.736 7.736 0 0 1 2.485-1.785 7.156 7.156 0 0 1 3.045-.665c1.05 0 1.96.21 2.73.63a5.14 5.14 0 0 1 1.96 1.715c.513.747.898 1.633 1.155 2.66.28 1.027.42 2.158.42 3.395 0 1.703-.234 3.185-.7 4.445-.467 1.26-1.155 2.228-2.065 2.905-.91.677-2.065 1.015-3.465 1.015Zm.385-3.955c.793 0 1.493-.187 2.1-.56a4.08 4.08 0 0 0 1.47-1.61c.373-.677.56-1.435.56-2.275 0-.863-.187-1.622-.56-2.275a3.831 3.831 0 0 0-1.47-1.575c-.63-.373-1.342-.56-2.135-.56-.794 0-1.505.198-2.135.595a3.969 3.969 0 0 0-1.435 1.54c-.35.653-.525 1.412-.525 2.275s.175 1.633.525 2.31a4.54 4.54 0 0 0 1.47 1.575c.63.373 1.341.56 2.135.56Zm19.165 4.375c-1.073 0-2.065-.187-2.975-.56a7.245 7.245 0 0 1-2.345-1.68c-.676-.723-1.201-1.587-1.575-2.59-.373-1.003-.56-2.112-.56-3.325v-6.965c0-.397.035-.747.105-1.05.07-.327.257-.583.56-.77.304-.187.77-.28 1.4-.28.677 0 1.155.093 1.435.28.304.187.49.443.56.77.07.327.105.688.105 1.085v6.93c0 .84.14 1.563.42 2.17a3.506 3.506 0 0 0 1.295 1.435c.56.327 1.249.49 2.065.49.84 0 1.552-.163 2.135-.49a3.591 3.591 0 0 0 1.4-1.435c.327-.63.49-1.353.49-2.17v-7c0-.397.035-.747.105-1.05.07-.327.257-.572.56-.735.304-.187.782-.28 1.435-.28.654 0 1.12.093 1.4.28.28.187.455.443.525.77.094.327.14.677.14 1.05v13.125c0 .35-.046.677-.14.98-.07.303-.256.548-.56.735-.28.187-.746.28-1.4.28-.466 0-.84-.058-1.12-.175a1.392 1.392 0 0 1-.595-.385 1.98 1.98 0 0 1-.245-.56 4.576 4.576 0 0 1-.035-.56l.28-.945c-.14.21-.35.467-.63.77-.28.28-.63.572-1.05.875-.396.28-.863.513-1.4.7a5.391 5.391 0 0 1-1.785.28Zm20.468.245c-1.517 0-2.847-.245-3.99-.735-1.12-.49-2.065-1.155-2.835-1.995a9.454 9.454 0 0 1-1.715-2.87 10.033 10.033 0 0 1-.56-3.325c0-1.68.385-3.173 1.155-4.48a8.245 8.245 0 0 1 3.185-3.08c1.376-.747 2.951-1.12 4.725-1.12 1.26 0 2.368.198 3.325.595.956.397 1.75.922 2.38 1.575a6.368 6.368 0 0 1 1.47 2.1c.35.77.525 1.517.525 2.24 0 1.237-.304 2.135-.91 2.695-.584.56-1.319.84-2.205.84h-9.24c.023.793.268 1.482.735 2.065a5.062 5.062 0 0 0 1.82 1.365 6 6 0 0 0 2.275.455c.583 0 1.096-.035 1.54-.105.466-.07.863-.152 1.19-.245a7.77 7.77 0 0 0 .84-.35 65.1 65.1 0 0 1 .7-.315 2.12 2.12 0 0 1 .595-.175c.256-.023.513.035.77.175.256.14.466.385.63.735.14.233.233.455.28.665.07.187.105.373.105.56 0 .467-.28.91-.84 1.33-.56.397-1.354.723-2.38.98-1.004.28-2.194.42-3.57.42Zm-4.69-10.045h7.175c.396 0 .7-.058.91-.175.21-.14.315-.42.315-.84 0-.537-.164-1.015-.49-1.435-.327-.443-.77-.782-1.33-1.015-.56-.257-1.214-.385-1.96-.385-.864 0-1.645.175-2.345.525-.7.327-1.26.782-1.68 1.365a3.404 3.404 0 0 0-.595 1.96Zm37.917 9.765c-.677 0-1.179-.128-1.505-.385-.327-.257-.49-.607-.49-1.05l.245-1.155c-.187.303-.502.665-.945 1.085-.444.397-1.027.758-1.75 1.085-.724.303-1.599.455-2.625.455a7.475 7.475 0 0 1-3.115-.665 8.76 8.76 0 0 1-2.555-1.89 10.27 10.27 0 0 1-1.75-2.765 8.962 8.962 0 0 1-.63-3.36c0-1.143.21-2.217.63-3.22a9.343 9.343 0 0 1 1.785-2.73 8.237 8.237 0 0 1 2.555-1.855c.98-.467 2.006-.7 3.08-.7.956 0 1.761.128 2.415.385.676.257 1.248.583 1.715.98.466.373.851.77 1.155 1.19l-.21-1.015c0-.513.163-.898.49-1.155.326-.28.84-.42 1.54-.42.653 0 1.12.105 1.4.315.28.187.455.455.525.805.07.327.105.7.105 1.12v12.81c0 .397-.035.758-.105 1.085-.07.327-.257.583-.56.77-.28.187-.747.28-1.4.28Zm-6.44-4.06c.793 0 1.505-.198 2.135-.595a4.351 4.351 0 0 0 1.505-1.61c.396-.7.595-1.47.595-2.31 0-.91-.199-1.703-.595-2.38a4.25 4.25 0 0 0-1.575-1.575c-.63-.397-1.342-.595-2.135-.595-.864 0-1.634.21-2.31.63a4.356 4.356 0 0 0-1.61 1.645c-.374.677-.56 1.447-.56 2.31 0 .84.198 1.598.595 2.275a4.43 4.43 0 0 0 1.61 1.61c.7.397 1.481.595 2.345.595Zm20.347 4.2a9.955 9.955 0 0 1-3.29-.56 9.475 9.475 0 0 1-2.87-1.715 8.527 8.527 0 0 1-2.03-2.73c-.49-1.097-.735-2.333-.735-3.71 0-1.377.245-2.602.735-3.675a8.527 8.527 0 0 1 2.03-2.73 9.042 9.042 0 0 1 2.835-1.715 9.13 9.13 0 0 1 3.255-.595c.816 0 1.586.117 2.31.35.746.233 1.388.513 1.925.84.536.327.921.653 1.155.98.303.28.56.548.77.805.21.257.28.572.21.945-.07.233-.175.455-.315.665-.14.187-.315.385-.525.595-.56.63-1.109.863-1.645.7a17.285 17.285 0 0 1-.91-.525 12.308 12.308 0 0 0-.945-.525 5.063 5.063 0 0 0-.945-.455 3.203 3.203 0 0 0-1.085-.175c-.887 0-1.68.198-2.38.595a4.164 4.164 0 0 0-1.61 1.575c-.374.677-.56 1.458-.56 2.345 0 .887.186 1.68.56 2.38a4.43 4.43 0 0 0 1.61 1.61c.676.373 1.446.56 2.31.56.42 0 .816-.047 1.19-.14a5.548 5.548 0 0 0 1.05-.42c.303-.187.548-.373.735-.56.256-.163.49-.315.7-.455.21-.14.431-.21.665-.21.28 0 .548.105.805.315.28.187.583.49.91.91.303.35.466.688.49 1.015.046.327-.024.642-.21.945-.164.303-.444.583-.84.84-.28.28-.7.572-1.26.875-.537.28-1.167.525-1.89.735-.7.21-1.435.315-2.205.315Zm17.739.14c-1.517 0-2.847-.245-3.99-.735-1.12-.49-2.065-1.155-2.835-1.995a9.454 9.454 0 0 1-1.715-2.87 10.033 10.033 0 0 1-.56-3.325c0-1.68.385-3.173 1.155-4.48a8.245 8.245 0 0 1 3.185-3.08c1.376-.747 2.951-1.12 4.725-1.12 1.26 0 2.368.198 3.325.595.956.397 1.75.922 2.38 1.575a6.368 6.368 0 0 1 1.47 2.1c.35.77.525 1.517.525 2.24 0 1.237-.304 2.135-.91 2.695-.584.56-1.319.84-2.205.84h-9.24c.023.793.268 1.482.735 2.065a5.062 5.062 0 0 0 1.82 1.365 6 6 0 0 0 2.275.455c.583 0 1.096-.035 1.54-.105.466-.07.863-.152 1.19-.245a7.77 7.77 0 0 0 .84-.35 65.1 65.1 0 0 1 .7-.315 2.12 2.12 0 0 1 .595-.175c.256-.023.513.035.77.175.256.14.466.385.63.735.14.233.233.455.28.665.07.187.105.373.105.56 0 .467-.28.91-.84 1.33-.56.397-1.354.723-2.38.98-1.004.28-2.194.42-3.57.42Zm-4.69-10.045h7.175c.396 0 .7-.058.91-.175.21-.14.315-.42.315-.84 0-.537-.164-1.015-.49-1.435-.327-.443-.77-.782-1.33-1.015-.56-.257-1.214-.385-1.96-.385-.864 0-1.645.175-2.345.525-.7.327-1.26.782-1.68 1.365a3.404 3.404 0 0 0-.595 1.96Zm21.247 9.835c-.863 0-1.633-.058-2.31-.175-.653-.117-1.225-.315-1.715-.595a3.52 3.52 0 0 1-1.155-1.12c-.303-.49-.537-1.085-.7-1.785-.14-.7-.21-1.54-.21-2.52v-16.87c0-.397.035-.747.105-1.05.093-.327.28-.583.56-.77.303-.21.782-.315 1.435-.315s1.12.093 1.4.28c.303.187.49.443.56.77.093.303.14.653.14 1.05v16.73c0 .443.023.817.07 1.12.07.28.175.513.315.7.163.163.362.28.595.35.257.07.56.105.91.105.303 0 .572.035.805.105.257.07.455.245.595.525.163.28.245.735.245 1.365 0 .653-.082 1.132-.245 1.435-.14.303-.338.49-.595.56-.257.07-.525.105-.805.105Zm12.496.21c-1.517 0-2.847-.245-3.99-.735-1.12-.49-2.065-1.155-2.835-1.995a9.454 9.454 0 0 1-1.715-2.87 10.033 10.033 0 0 1-.56-3.325c0-1.68.385-3.173 1.155-4.48a8.245 8.245 0 0 1 3.185-3.08c1.376-.747 2.951-1.12 4.725-1.12 1.26 0 2.368.198 3.325.595.956.397 1.75.922 2.38 1.575a6.368 6.368 0 0 1 1.47 2.1c.35.77.525 1.517.525 2.24 0 1.237-.304 2.135-.91 2.695-.584.56-1.319.84-2.205.84h-9.24c.023.793.268 1.482.735 2.065a5.062 5.062 0 0 0 1.82 1.365 6 6 0 0 0 2.275.455c.583 0 1.096-.035 1.54-.105.466-.07.863-.152 1.19-.245a7.77 7.77 0 0 0 .84-.35 65.1 65.1 0 0 1 .7-.315 2.12 2.12 0 0 1 .595-.175c.256-.023.513.035.77.175.256.14.466.385.63.735.14.233.233.455.28.665.07.187.105.373.105.56 0 .467-.28.91-.84 1.33-.56.397-1.354.723-2.38.98-1.004.28-2.194.42-3.57.42Zm-4.69-10.045h7.175c.396 0 .7-.058.91-.175.21-.14.315-.42.315-.84 0-.537-.164-1.015-.49-1.435-.327-.443-.77-.782-1.33-1.015-.56-.257-1.214-.385-1.96-.385-.864 0-1.645.175-2.345.525-.7.327-1.26.782-1.68 1.365a3.404 3.404 0 0 0-.595 1.96Zm17.292 9.835c-.63 0-1.097-.105-1.4-.315a1.194 1.194 0 0 1-.525-.77 5.188 5.188 0 0 1-.105-1.085v-12.985c0-.42.035-.782.105-1.085.07-.327.245-.572.525-.735.303-.187.781-.28 1.435-.28.63 0 1.085.082 1.365.245.303.163.49.373.56.63.093.233.14.467.14.7l-.28.63c.116-.187.28-.408.49-.665.21-.28.49-.548.84-.805.35-.28.77-.502 1.26-.665.49-.187 1.073-.28 1.75-.28.28 0 .571.035.875.105.326.047.641.128.945.245.326.093.618.222.875.385.256.163.455.362.595.595.14.21.21.455.21.735 0 .747-.187 1.377-.56 1.89-.374.513-.817.77-1.33.77-.35 0-.607-.035-.77-.105a1.793 1.793 0 0 1-.42-.245c-.094-.093-.245-.175-.455-.245-.187-.07-.49-.105-.91-.105-.35 0-.712.058-1.085.175-.35.117-.677.292-.98.525a2.57 2.57 0 0 0-.735.91c-.187.35-.28.758-.28 1.225v8.505c0 .397-.035.758-.105 1.085-.07.303-.257.548-.56.735-.304.187-.794.28-1.47.28Zm25.41-.07c-.677 0-1.179-.128-1.505-.385-.327-.257-.49-.607-.49-1.05l.245-1.155c-.187.303-.502.665-.945 1.085-.444.397-1.027.758-1.75 1.085-.724.303-1.599.455-2.625.455a7.475 7.475 0 0 1-3.115-.665 8.76 8.76 0 0 1-2.555-1.89 10.27 10.27 0 0 1-1.75-2.765 8.962 8.962 0 0 1-.63-3.36c0-1.143.21-2.217.63-3.22a9.343 9.343 0 0 1 1.785-2.73 8.237 8.237 0 0 1 2.555-1.855c.98-.467 2.006-.7 3.08-.7.956 0 1.761.128 2.415.385.676.257 1.248.583 1.715.98.466.373.851.77 1.155 1.19l-.21-1.015c0-.513.163-.898.49-1.155.326-.28.84-.42 1.54-.42.653 0 1.12.105 1.4.315.28.187.455.455.525.805.07.327.105.7.105 1.12v12.81c0 .397-.035.758-.105 1.085-.07.327-.257.583-.56.77-.28.187-.747.28-1.4.28Zm-6.44-4.06c.793 0 1.505-.198 2.135-.595a4.351 4.351 0 0 0 1.505-1.61c.396-.7.595-1.47.595-2.31 0-.91-.199-1.703-.595-2.38a4.25 4.25 0 0 0-1.575-1.575c-.63-.397-1.342-.595-2.135-.595-.864 0-1.634.21-2.31.63a4.356 4.356 0 0 0-1.61 1.645c-.374.677-.56 1.447-.56 2.31 0 .84.198 1.598.595 2.275a4.43 4.43 0 0 0 1.61 1.61c.7.397 1.481.595 2.345.595Zm14.081 4.095c-.63 0-1.096-.105-1.4-.315a1.185 1.185 0 0 1-.525-.735 5.188 5.188 0 0 1-.105-1.085v-13.09c0-.373.035-.712.105-1.015.07-.303.257-.537.56-.7.304-.187.77-.28 1.4-.28.56 0 .98.07 1.26.21.28.14.467.315.56.525.094.21.14.42.14.63.024.21.047.373.07.49l-.14 1.12c.14-.373.374-.735.7-1.085a5.47 5.47 0 0 1 1.19-.945 5.915 5.915 0 0 1 1.505-.7 5.382 5.382 0 0 1 1.715-.28c1.097 0 2.077.198 2.94.595a6.24 6.24 0 0 1 2.205 1.68c.63.723 1.109 1.587 1.435 2.59.327.98.49 2.088.49 3.325v6.965c0 .397-.046.758-.14 1.085-.07.303-.245.548-.525.735-.28.187-.758.28-1.435.28-.653 0-1.131-.105-1.435-.315-.303-.187-.49-.432-.56-.735a5.188 5.188 0 0 1-.105-1.085v-6.965c0-.84-.151-1.563-.455-2.17a3.064 3.064 0 0 0-1.26-1.4c-.536-.327-1.225-.49-2.065-.49-.816 0-1.528.175-2.135.525a3.38 3.38 0 0 0-1.4 1.4c-.326.607-.49 1.318-.49 2.135v7c0 .397-.035.758-.105 1.085-.07.303-.256.548-.56.735-.28.187-.758.28-1.435.28Zm24.94 0a7.163 7.163 0 0 1-3.045-.665 8.109 8.109 0 0 1-2.52-1.82 9.052 9.052 0 0 1-1.715-2.765 9.328 9.328 0 0 1-.63-3.43c0-1.167.21-2.263.63-3.29.42-1.05.992-1.96 1.715-2.73a8.26 8.26 0 0 1 2.555-1.855 7.083 7.083 0 0 1 3.01-.665c1.12 0 2.124.222 3.01.665a6.367 6.367 0 0 1 2.24 1.855c.63.77 1.109 1.68 1.435 2.73a11.65 11.65 0 0 1 .525 3.325c0 1.19-.163 2.31-.49 3.36a7.961 7.961 0 0 1-1.4 2.73 6.636 6.636 0 0 1-2.275 1.89c-.886.443-1.901.665-3.045.665Zm.56-4.095c.817 0 1.54-.187 2.17-.56a4.246 4.246 0 0 0 1.54-1.61c.397-.677.595-1.447.595-2.31 0-.887-.198-1.668-.595-2.345a4.246 4.246 0 0 0-1.54-1.61c-.63-.397-1.353-.595-2.17-.595-.816 0-1.551.198-2.205.595-.653.373-1.178.91-1.575 1.61-.373.677-.56 1.458-.56 2.345 0 .863.187 1.633.56 2.31a4.535 4.535 0 0 0 1.575 1.61c.677.373 1.412.56 2.205.56Zm6.475 4.095c-.653 0-1.131-.105-1.435-.315-.303-.233-.501-.595-.595-1.085v-21.56c0-.397.024-.747.07-1.05.07-.327.245-.583.525-.77.304-.21.77-.315 1.4-.315.677 0 1.155.093 1.435.28.28.187.455.443.525.77.094.303.14.653.14 1.05v20.86c0 .397-.035.758-.105 1.085-.07.327-.256.583-.56.77-.28.187-.746.28-1.4.28Zm13.556.245a8.96 8.96 0 0 1-3.29-.63 9.93 9.93 0 0 1-2.87-1.855 9.389 9.389 0 0 1-2.03-2.8c-.49-1.073-.735-2.252-.735-3.535 0-1.237.234-2.392.7-3.465a9.13 9.13 0 0 1 1.925-2.835 8.721 8.721 0 0 1 2.8-1.89 8.507 8.507 0 0 1 3.43-.7c1.634 0 3.115.397 4.445 1.19a8.768 8.768 0 0 1 3.185 3.15c.794 1.33 1.19 2.835 1.19 4.515 0 1.33-.245 2.543-.735 3.64a8.888 8.888 0 0 1-1.995 2.8 9.244 9.244 0 0 1-2.835 1.785 8.332 8.332 0 0 1-3.185.63Zm-.07-4.13c.77 0 1.505-.187 2.205-.56a4.645 4.645 0 0 0 1.75-1.68c.467-.723.7-1.575.7-2.555 0-.91-.21-1.715-.63-2.415a4.284 4.284 0 0 0-1.645-1.645c-.7-.397-1.505-.595-2.415-.595a4.47 4.47 0 0 0-2.345.63c-.7.397-1.26.957-1.68 1.68-.396.7-.595 1.493-.595 2.38 0 .98.222 1.832.665 2.555a4.829 4.829 0 0 0 1.715 1.645c.724.373 1.482.56 2.275.56Zm22.143 3.92c-.654 0-1.132-.105-1.435-.315a1.194 1.194 0 0 1-.525-.77 5.01 5.01 0 0 1-.105-1.05V137.32c0-.397.035-.747.105-1.05.093-.327.28-.583.56-.77.303-.187.781-.28 1.435-.28.653 0 1.12.105 1.4.315.303.187.49.443.56.77.093.303.14.653.14 1.05v7.91c.466-.537 1.061-1.027 1.785-1.47.746-.467 1.645-.7 2.695-.7 1.423 0 2.695.35 3.815 1.05 1.12.677 2.006 1.622 2.66 2.835.653 1.213.98 2.637.98 4.27v7c0 .373-.035.723-.105 1.05-.07.303-.257.548-.56.735-.28.187-.747.28-1.4.28-.654 0-1.132-.093-1.435-.28-.304-.187-.49-.432-.56-.735-.07-.327-.105-.7-.105-1.12v-6.965c0-.817-.14-1.528-.42-2.135a3.064 3.064 0 0 0-1.26-1.4c-.537-.35-1.214-.525-2.03-.525-1.097 0-2.019.327-2.765.98-.747.63-1.179 1.447-1.295 2.45v7.665c0 .373-.047.723-.14 1.05-.07.327-.257.583-.56.77-.28.187-.759.28-1.435.28Zm31.19-.07c-.676 0-1.178-.128-1.505-.385-.326-.257-.49-.607-.49-1.05l.245-1.155c-.186.303-.501.665-.945 1.085-.443.397-1.026.758-1.75 1.085-.723.303-1.598.455-2.625.455a7.478 7.478 0 0 1-3.115-.665 8.786 8.786 0 0 1-2.555-1.89 10.32 10.32 0 0 1-1.75-2.765 8.962 8.962 0 0 1-.63-3.36c0-1.143.21-2.217.63-3.22a9.383 9.383 0 0 1 1.785-2.73 8.26 8.26 0 0 1 2.555-1.855c.98-.467 2.007-.7 3.08-.7.957 0 1.762.128 2.415.385.677.257 1.249.583 1.715.98.467.373.852.77 1.155 1.19l-.21-1.015c0-.513.164-.898.49-1.155.327-.28.84-.42 1.54-.42.654 0 1.12.105 1.4.315.28.187.455.455.525.805.07.327.105.7.105 1.12v12.81c0 .397-.035.758-.105 1.085-.07.327-.256.583-.56.77-.28.187-.746.28-1.4.28Zm-6.44-4.06c.794 0 1.505-.198 2.135-.595a4.343 4.343 0 0 0 1.505-1.61 4.6 4.6 0 0 0 .595-2.31c0-.91-.198-1.703-.595-2.38a4.236 4.236 0 0 0-1.575-1.575c-.63-.397-1.341-.595-2.135-.595-.863 0-1.633.21-2.31.63a4.37 4.37 0 0 0-1.61 1.645c-.373.677-.56 1.447-.56 2.31 0 .84.199 1.598.595 2.275a4.446 4.446 0 0 0 1.61 1.61c.7.397 1.482.595 2.345.595Zm20.347 4.2a9.955 9.955 0 0 1-3.29-.56 9.475 9.475 0 0 1-2.87-1.715 8.527 8.527 0 0 1-2.03-2.73c-.49-1.097-.735-2.333-.735-3.71 0-1.377.245-2.602.735-3.675a8.527 8.527 0 0 1 2.03-2.73 9.042 9.042 0 0 1 2.835-1.715 9.13 9.13 0 0 1 3.255-.595c.817 0 1.587.117 2.31.35.747.233 1.388.513 1.925.84.537.327.922.653 1.155.98.303.28.56.548.77.805.21.257.28.572.21.945-.07.233-.175.455-.315.665-.14.187-.315.385-.525.595-.56.63-1.108.863-1.645.7a17.7 17.7 0 0 1-.91-.525 11.942 11.942 0 0 0-.945-.525 5.004 5.004 0 0 0-.945-.455 3.199 3.199 0 0 0-1.085-.175c-.887 0-1.68.198-2.38.595a4.17 4.17 0 0 0-1.61 1.575c-.373.677-.56 1.458-.56 2.345 0 .887.187 1.68.56 2.38a4.438 4.438 0 0 0 1.61 1.61c.677.373 1.447.56 2.31.56.42 0 .817-.047 1.19-.14a5.495 5.495 0 0 0 1.05-.42c.303-.187.548-.373.735-.56.257-.163.49-.315.7-.455.21-.14.432-.21.665-.21.28 0 .548.105.805.315.28.187.583.49.91.91.303.35.467.688.49 1.015a1.38 1.38 0 0 1-.21.945c-.163.303-.443.583-.84.84-.28.28-.7.572-1.26.875-.537.28-1.167.525-1.89.735-.7.21-1.435.315-2.205.315Zm11.649-.07c-.63 0-1.096-.105-1.4-.315-.303-.187-.49-.432-.56-.735a5.188 5.188 0 0 1-.105-1.085v-13.02c0-.373.035-.712.105-1.015.094-.327.28-.583.56-.77.304-.187.782-.28 1.435-.28.654 0 1.12.093 1.4.28.304.187.49.443.56.77.07.327.105.688.105 1.085v12.985c0 .397-.035.758-.105 1.085-.07.303-.256.548-.56.735-.28.187-.758.28-1.435.28Zm0-20.615c-.676 0-1.178-.093-1.505-.28a1.452 1.452 0 0 1-.595-.84 5.9 5.9 0 0 1-.105-1.155c0-.443.035-.828.105-1.155.094-.327.304-.583.63-.77.327-.21.829-.315 1.505-.315.7 0 1.202.105 1.505.315.304.21.502.49.595.84.094.327.14.712.14 1.155 0 .397-.046.77-.14 1.12-.093.35-.291.618-.595.805-.303.187-.816.28-1.54.28Zm19.937 20.545c-.676 0-1.178-.128-1.505-.385-.326-.257-.49-.607-.49-1.05l.245-1.155c-.186.303-.501.665-.945 1.085-.443.397-1.026.758-1.75 1.085-.723.303-1.598.455-2.625.455a7.478 7.478 0 0 1-3.115-.665 8.786 8.786 0 0 1-2.555-1.89 10.32 10.32 0 0 1-1.75-2.765 8.962 8.962 0 0 1-.63-3.36c0-1.143.21-2.217.63-3.22a9.383 9.383 0 0 1 1.785-2.73 8.26 8.26 0 0 1 2.555-1.855c.98-.467 2.007-.7 3.08-.7.957 0 1.762.128 2.415.385.677.257 1.249.583 1.715.98.467.373.852.77 1.155 1.19l-.21-1.015c0-.513.164-.898.49-1.155.327-.28.84-.42 1.54-.42.654 0 1.12.105 1.4.315.28.187.455.455.525.805.07.327.105.7.105 1.12v12.81c0 .397-.035.758-.105 1.085-.07.327-.256.583-.56.77-.28.187-.746.28-1.4.28Zm-6.44-4.06c.794 0 1.505-.198 2.135-.595a4.343 4.343 0 0 0 1.505-1.61 4.6 4.6 0 0 0 .595-2.31c0-.91-.198-1.703-.595-2.38a4.236 4.236 0 0 0-1.575-1.575c-.63-.397-1.341-.595-2.135-.595-.863 0-1.633.21-2.31.63a4.37 4.37 0 0 0-1.61 1.645c-.373.677-.56 1.447-.56 2.31 0 .84.199 1.598.595 2.275a4.446 4.446 0 0 0 1.61 1.61c.7.397 1.482.595 2.345.595Zm26.719 4.13c-.863 0-1.633-.058-2.31-.175-.653-.117-1.225-.315-1.715-.595a3.52 3.52 0 0 1-1.155-1.12c-.303-.49-.537-1.085-.7-1.785-.14-.7-.21-1.54-.21-2.52v-16.87c0-.397.035-.747.105-1.05.093-.327.28-.583.56-.77.303-.21.782-.315 1.435-.315s1.12.093 1.4.28c.303.187.49.443.56.77.093.303.14.653.14 1.05v16.73c0 .443.023.817.07 1.12.07.28.175.513.315.7.163.163.362.28.595.35.257.07.56.105.91.105.303 0 .572.035.805.105.257.07.455.245.595.525.163.28.245.735.245 1.365 0 .653-.082 1.132-.245 1.435-.14.303-.338.49-.595.56-.257.07-.525.105-.805.105Zm18.515-.07c-.676 0-1.178-.128-1.505-.385-.326-.257-.49-.607-.49-1.05l.245-1.155c-.186.303-.501.665-.945 1.085-.443.397-1.026.758-1.75 1.085-.723.303-1.598.455-2.625.455a7.478 7.478 0 0 1-3.115-.665 8.786 8.786 0 0 1-2.555-1.89 10.32 10.32 0 0 1-1.75-2.765 8.962 8.962 0 0 1-.63-3.36c0-1.143.21-2.217.63-3.22a9.383 9.383 0 0 1 1.785-2.73 8.26 8.26 0 0 1 2.555-1.855c.98-.467 2.007-.7 3.08-.7.957 0 1.762.128 2.415.385.677.257 1.249.583 1.715.98.467.373.852.77 1.155 1.19l-.21-1.015c0-.513.164-.898.49-1.155.327-.28.84-.42 1.54-.42.654 0 1.12.105 1.4.315.28.187.455.455.525.805.07.327.105.7.105 1.12v12.81c0 .397-.035.758-.105 1.085-.07.327-.256.583-.56.77-.28.187-.746.28-1.4.28Zm-6.44-4.06c.794 0 1.505-.198 2.135-.595a4.343 4.343 0 0 0 1.505-1.61 4.6 4.6 0 0 0 .595-2.31c0-.91-.198-1.703-.595-2.38a4.236 4.236 0 0 0-1.575-1.575c-.63-.397-1.341-.595-2.135-.595-.863 0-1.633.21-2.31.63a4.37 4.37 0 0 0-1.61 1.645c-.373.677-.56 1.447-.56 2.31 0 .84.199 1.598.595 2.275a4.446 4.446 0 0 0 1.61 1.61c.7.397 1.482.595 2.345.595Zm22.729 4.095c-.63 0-1.097-.093-1.4-.28a1.194 1.194 0 0 1-.525-.77 5.01 5.01 0 0 1-.105-1.05v-13.09c0-.373.035-.712.105-1.015.07-.303.256-.548.56-.735.303-.187.781-.28 1.435-.28.676 0 1.166.14 1.47.42.326.28.49.723.49 1.33l-.315.98c.116-.257.315-.537.595-.84.28-.303.618-.607 1.015-.91.42-.303.886-.548 1.4-.735a4.665 4.665 0 0 1 1.61-.28c.77 0 1.47.128 2.1.385.653.257 1.225.63 1.715 1.12a7.01 7.01 0 0 1 1.33 1.785c.396-.607.84-1.155 1.33-1.645a5.151 5.151 0 0 1 1.715-1.19c.653-.303 1.388-.455 2.205-.455 1.353 0 2.485.338 3.395 1.015.933.677 1.633 1.645 2.1 2.905.49 1.237.735 2.718.735 4.445v6.79c0 .397-.047.758-.14 1.085-.07.303-.257.548-.56.735-.28.187-.747.28-1.4.28-.654 0-1.132-.105-1.435-.315-.304-.187-.49-.432-.56-.735a5.188 5.188 0 0 1-.105-1.085v-6.79c0-.863-.105-1.61-.315-2.24-.21-.63-.525-1.12-.945-1.47-.397-.35-.922-.525-1.575-.525-.7 0-1.307.175-1.82.525-.49.327-.875.805-1.155 1.435s-.42 1.4-.42 2.31v6.825c0 .397-.059.77-.175 1.12-.117.327-.35.572-.7.735-.327.187-.805.257-1.435.21-.584-.023-1.015-.14-1.295-.35a1.375 1.375 0 0 1-.49-.77 7.126 7.126 0 0 1-.07-1.015v-6.79c0-.863-.105-1.61-.315-2.24-.21-.653-.525-1.143-.945-1.47-.397-.35-.934-.525-1.61-.525-.724 0-1.342.187-1.855.56-.49.373-.864.875-1.12 1.505-.257.63-.385 1.353-.385 2.17v6.86c0 .373-.047.723-.14 1.05-.07.327-.257.572-.56.735-.28.187-.759.28-1.435.28Zm34.806.245c-1.517 0-2.847-.245-3.99-.735-1.12-.49-2.065-1.155-2.835-1.995a9.454 9.454 0 0 1-1.715-2.87 10.033 10.033 0 0 1-.56-3.325c0-1.68.385-3.173 1.155-4.48a8.245 8.245 0 0 1 3.185-3.08c1.376-.747 2.951-1.12 4.725-1.12 1.26 0 2.368.198 3.325.595.956.397 1.75.922 2.38 1.575a6.368 6.368 0 0 1 1.47 2.1c.35.77.525 1.517.525 2.24 0 1.237-.304 2.135-.91 2.695-.584.56-1.319.84-2.205.84h-9.24c.023.793.268 1.482.735 2.065a5.062 5.062 0 0 0 1.82 1.365 6 6 0 0 0 2.275.455c.583 0 1.096-.035 1.54-.105.466-.07.863-.152 1.19-.245a7.77 7.77 0 0 0 .84-.35 65.1 65.1 0 0 1 .7-.315 2.12 2.12 0 0 1 .595-.175c.256-.023.513.035.77.175.256.14.466.385.63.735.14.233.233.455.28.665.07.187.105.373.105.56 0 .467-.28.91-.84 1.33-.56.397-1.354.723-2.38.98-1.004.28-2.194.42-3.57.42Zm-4.69-10.045h7.175c.396 0 .7-.058.91-.175.21-.14.315-.42.315-.84 0-.537-.164-1.015-.49-1.435-.327-.443-.77-.782-1.33-1.015-.56-.257-1.214-.385-1.96-.385-.864 0-1.645.175-2.345.525-.7.327-1.26.782-1.68 1.365a3.404 3.404 0 0 0-.595 1.96Zm23.39 9.835c-1.143 0-2.123-.117-2.94-.35-.817-.233-1.482-.595-1.995-1.085-.513-.49-.898-1.12-1.155-1.89-.233-.793-.35-1.727-.35-2.8v-14.84c0-.42.035-.782.105-1.085.093-.303.28-.537.56-.7.303-.187.77-.28 1.4-.28.653 0 1.12.093 1.4.28.303.187.49.443.56.77.093.303.14.642.14 1.015v14.7c0 .49.035.887.105 1.19.093.303.222.537.385.7.187.14.42.245.7.315.303.047.665.07 1.085.07.443 0 .817.035 1.12.105.327.07.572.245.735.525.163.257.245.688.245 1.295 0 .653-.105 1.132-.315 1.435-.187.28-.443.455-.77.525-.303.07-.642.105-1.015.105Zm-7.875-16.905 3.605.035 4.83-.14c.397 0 .747.047 1.05.14.327.07.583.257.77.56.187.28.28.747.28 1.4 0 .607-.093 1.062-.28 1.365-.187.303-.432.502-.735.595-.303.07-.653.105-1.05.105l-4.69-.07-3.885.035c-.583-.023-.992-.187-1.225-.49-.21-.327-.315-.852-.315-1.575 0-.677.128-1.167.385-1.47.28-.327.7-.49 1.26-.49Zm27.494 16.835c-.676 0-1.178-.128-1.505-.385-.326-.257-.49-.607-.49-1.05l.245-1.155c-.186.303-.501.665-.945 1.085-.443.397-1.026.758-1.75 1.085-.723.303-1.598.455-2.625.455a7.478 7.478 0 0 1-3.115-.665 8.786 8.786 0 0 1-2.555-1.89 10.32 10.32 0 0 1-1.75-2.765 8.962 8.962 0 0 1-.63-3.36c0-1.143.21-2.217.63-3.22a9.383 9.383 0 0 1 1.785-2.73 8.26 8.26 0 0 1 2.555-1.855c.98-.467 2.007-.7 3.08-.7.957 0 1.762.128 2.415.385.677.257 1.249.583 1.715.98.467.373.852.77 1.155 1.19l-.21-1.015c0-.513.164-.898.49-1.155.327-.28.84-.42 1.54-.42.654 0 1.12.105 1.4.315.28.187.455.455.525.805.07.327.105.7.105 1.12v12.81c0 .397-.035.758-.105 1.085-.07.327-.256.583-.56.77-.28.187-.746.28-1.4.28Zm-6.44-4.06c.794 0 1.505-.198 2.135-.595a4.343 4.343 0 0 0 1.505-1.61 4.6 4.6 0 0 0 .595-2.31c0-.91-.198-1.703-.595-2.38a4.236 4.236 0 0 0-1.575-1.575c-.63-.397-1.341-.595-2.135-.595-.863 0-1.633.21-2.31.63a4.37 4.37 0 0 0-1.61 1.645c-.373.677-.56 1.447-.56 2.31 0 .84.199 1.598.595 2.275a4.446 4.446 0 0 0 1.61 1.61c.7.397 1.482.595 2.345.595Zm14.362-3.325c-.653 0-1.131-.082-1.435-.245-.303-.187-.49-.42-.56-.7a4.35 4.35 0 0 1-.105-.98v-13.195c0-.35.035-.677.105-.98.07-.303.257-.537.56-.7.304-.187.782-.28 1.435-.28.654 0 1.12.093 1.4.28.304.163.49.397.56.7.094.303.14.63.14.98v13.16c0 .373-.046.712-.14 1.015-.07.28-.256.513-.56.7-.28.163-.746.245-1.4.245Zm0 7.455c-.933 0-1.563-.175-1.89-.525-.303-.35-.455-.957-.455-1.82 0-.42.047-.805.14-1.155a1.42 1.42 0 0 1 .63-.875c.327-.21.852-.315 1.575-.315.934 0 1.552.175 1.855.525.304.35.455.957.455 1.82 0 .42-.046.817-.14 1.19-.07.35-.268.63-.595.84-.326.21-.851.315-1.575.315Z"/>
</svg>
