<svg xmlns="http://www.w3.org/2000/svg" width="317" height="57" fill="none" viewBox="0 0 317 57">
  <path fill="#323030" fill-opacity=".67" d="M.5.5H290c14.636 0 26.5 11.864 26.5 26.5v29.5H27C12.364 56.5.5 44.636.5 30V.5Z" style="mix-blend-mode:multiply"/>
  <path stroke="#fff" d="M.5.5H290c14.636 0 26.5 11.864 26.5 26.5v29.5H27C12.364 56.5.5 44.636.5 30V.5Z"/>
  <path fill="#fff" d="M40.827 19c2.24 0 3.966.553 5.18 1.66 1.213 1.107 1.82 2.653 1.82 4.64v2.4c0 1.987-.6 3.533-1.8 4.64-1.187 1.107-2.954 1.66-5.3 1.66h-6.7V19h6.8Zm.3 2h-4.8v11h4.7c1.386 0 2.446-.287 3.18-.86.746-.587 1.12-1.553 1.12-2.9v-3.5c0-1.347-.367-2.307-1.1-2.88-.72-.573-1.754-.86-3.1-.86Zm19.468 5.34V34h-7.4c-1.147 0-2.047-.233-2.7-.7-.64-.467-.96-1.187-.96-2.16 0-.653.234-1.227.7-1.72.48-.507 1.14-1.073 1.98-1.7l5.06-3.82h-7.6V22h6.38c1.52 0 2.654.393 3.4 1.18.76.787 1.14 1.84 1.14 3.16Zm-7.5 5.66h5.3v-6.54l-5.38 4.08c-.373.28-.666.52-.88.72-.213.187-.32.453-.32.8 0 .333.127.573.38.72.254.147.553.22.9.22Zm20.848-8.1c-1.053 0-1.814.207-2.28.62-.453.4-.68 1.133-.68 2.2v2.54c0 1.08.227 1.827.68 2.24.466.4 1.227.6 2.28.6h5.18V34h-5.28c-1.534 0-2.78-.42-3.74-1.26-.947-.84-1.42-2.093-1.42-3.76v-1.96c0-1.667.473-2.92 1.42-3.76.96-.84 2.207-1.26 3.74-1.26h5.28v1.9h-5.18Zm8.072-4.9h2.2v15h-2.2V19Zm8 1.96h-2.2V19h2.2v1.96ZM87.816 34V22h2.2v12h-2.2Zm10.561-10.1c-1.053 0-1.813.207-2.28.62-.453.4-.68 1.133-.68 2.2v2.54c0 1.08.227 1.827.68 2.24.467.4 1.227.6 2.28.6h5.18V34h-5.28c-1.533 0-2.78-.42-3.74-1.26-.946-.84-1.42-2.093-1.42-3.76v-1.96c0-1.667.474-2.92 1.42-3.76.96-.84 2.207-1.26 3.74-1.26h5.28v1.9h-5.18ZM111.644 37V22h6.7c1.586 0 2.806.447 3.66 1.34.853.893 1.28 2.173 1.28 3.84v1.64c0 1.667-.427 2.947-1.28 3.84-.854.893-2.074 1.34-3.66 1.34h-4.5v3h-2.2Zm6.5-13h-4.3v8h4.3c1.04 0 1.773-.213 2.2-.64.426-.427.64-1.18.64-2.26v-2.22c0-1.067-.214-1.813-.64-2.24-.427-.427-1.16-.64-2.2-.64Zm18.506 2.34V34h-7.4c-1.147 0-2.047-.233-2.7-.7-.64-.467-.96-1.187-.96-2.16 0-.653.233-1.227.7-1.72.48-.507 1.14-1.073 1.98-1.7l5.06-3.82h-7.6V22h6.38c1.52 0 2.653.393 3.4 1.18.76.787 1.14 1.84 1.14 3.16Zm-7.5 5.66h5.3v-6.54l-5.38 4.08a10.8 10.8 0 0 0-.88.72c-.213.187-.32.453-.32.8 0 .333.127.573.38.72.253.147.553.22.9.22Zm10.692-6.3c0-1.213.38-2.133 1.14-2.76.774-.627 1.747-.94 2.92-.94h3.08v1.9h-3.18c-.626 0-1.08.12-1.36.36-.266.227-.4.647-.4 1.26V34h-2.2v-8.3Zm17.765.64V34h-7.4c-1.147 0-2.047-.233-2.7-.7-.64-.467-.96-1.187-.96-2.16 0-.653.233-1.227.7-1.72.48-.507 1.14-1.073 1.98-1.7l5.06-3.82h-7.6V22h6.38c1.52 0 2.653.393 3.4 1.18.76.787 1.14 1.84 1.14 3.16Zm-7.5 5.66h5.3v-6.54l-5.38 4.08a10.8 10.8 0 0 0-.88.72c-.213.187-.32.453-.32.8 0 .333.127.573.38.72.253.147.553.22.9.22Zm20.848-8.1c-1.054 0-1.814.207-2.28.62-.454.4-.68 1.133-.68 2.2v2.54c0 1.08.226 1.827.68 2.24.466.4 1.226.6 2.28.6h5.18V34h-5.28c-1.534 0-2.78-.42-3.74-1.26-.947-.84-1.42-2.093-1.42-3.76v-1.96c0-1.667.473-2.92 1.42-3.76.96-.84 2.206-1.26 3.74-1.26h5.28v1.9h-5.18Zm19.521 3.12v1.96c0 1.667-.46 2.967-1.38 3.9-.92.92-2.267 1.38-4.04 1.38h-1.5c-1.867 0-3.24-.46-4.12-1.38-.867-.933-1.3-2.233-1.3-3.9v-1.96c0-1.667.433-2.96 1.3-3.88.88-.933 2.253-1.4 4.12-1.4h1.5c1.773 0 3.12.467 4.04 1.4.92.92 1.38 2.213 1.38 3.88Zm-2.3-.3c0-1.067-.207-1.847-.62-2.34-.4-.493-1.14-.74-2.22-.74h-2.08c-1.013 0-1.74.247-2.18.74-.427.493-.64 1.273-.64 2.34v2.56c0 1.067.213 1.847.64 2.34.44.493 1.167.74 2.18.74h2.08c1.08 0 1.82-.247 2.22-.74.413-.493.62-1.273.62-2.34v-2.56Zm5.201 7.28V22h13.88c1.494 0 2.587.38 3.28 1.14.694.76 1.04 1.733 1.04 2.92V34h-2.2v-8.04c0-.747-.153-1.26-.46-1.54-.306-.28-.813-.42-1.52-.42h-3.82v10h-2.2V24h-5.8v10h-2.2Zm32.847-5.24h-9.44v.98c0 .8.246 1.393.74 1.78.506.387 1.273.58 2.3.58h6.02V34h-5.72a9.39 9.39 0 0 1-2.28-.26c-.694-.187-1.287-.473-1.78-.86a3.984 3.984 0 0 1-1.16-1.48c-.28-.6-.42-1.32-.42-2.16v-2.1c0-1.76.46-3.087 1.38-3.98.933-.893 2.28-1.34 4.04-1.34h1.1c1.746 0 3.053.393 3.92 1.18.866.787 1.3 1.967 1.3 3.54v2.22Zm-4.94-5.04h-1.68c-1.014 0-1.74.227-2.18.68-.427.453-.64 1.267-.64 2.44v.1h7.14v-.7c0-.893-.18-1.533-.54-1.92-.36-.4-1.06-.6-2.1-.6Zm7.64 10.28V22h6.76c1.507 0 2.607.367 3.3 1.1.694.733 1.04 1.8 1.04 3.2V34h-2.2v-7.94c0-.787-.153-1.327-.46-1.62-.306-.293-.813-.44-1.52-.44h-4.72v10h-2.2Zm24.577 0h-8.4c-.893 0-1.56-.187-2-.56a1.782 1.782 0 0 1-.64-1.4c0-.453.113-.853.34-1.2.227-.347.627-.733 1.2-1.16l6.58-4.9a.712.712 0 0 0 .2-.2.495.495 0 0 0 .08-.28c0-.133-.047-.233-.14-.3-.08-.067-.207-.1-.38-.1h-7.48V22h7.46c.893 0 1.607.153 2.14.46.533.293.8.813.8 1.56 0 .413-.147.82-.44 1.22-.28.387-.747.827-1.4 1.32l-6.26 4.72a1.68 1.68 0 0 0-.22.22.374.374 0 0 0-.08.24c0 .133.047.227.14.28.093.053.213.08.36.08h8.14V34Zm13.149-7.66V34h-7.4c-1.147 0-2.047-.233-2.7-.7-.64-.467-.96-1.187-.96-2.16 0-.653.233-1.227.7-1.72.48-.507 1.14-1.073 1.98-1.7l5.06-3.82h-7.6V22h6.38c1.52 0 2.653.393 3.4 1.18.76.787 1.14 1.84 1.14 3.16Zm-7.5 5.66h5.3v-6.54l-5.38 4.08a10.8 10.8 0 0 0-.88.72c-.213.187-.32.453-.32.8 0 .333.127.573.38.72.253.147.553.22.9.22Zm10.692-6.3c0-1.213.38-2.133 1.14-2.76.774-.627 1.747-.94 2.92-.94h3.48v1.9h-3.58c-.626 0-1.08.12-1.36.36-.266.227-.4.647-.4 1.26V34h-2.2v-8.3Z"/>
</svg>
