<svg xmlns="http://www.w3.org/2000/svg" width="553" height="79" fill="none" viewBox="0 0 553 79">
  <path fill="#fff" d="M35.993 58.825V78H11.744c-3.54 0-6.254-.767-8.142-2.301C1.714 74.165.77 72.159.77 69.681c0-2.714.924-4.877 2.773-6.49 1.849-1.652 4.071-3.363 6.667-5.133l10.03-6.903H1.596V42.6h15.517c6.765 0 11.603 1.436 14.514 4.307 2.91 2.832 4.366 6.805 4.366 11.918ZM14.93 69.445h10.443V57.704l-10.679 8.319c-.669.511-1.14.905-1.416 1.18-.275.236-.413.55-.413.944 0 .433.157.767.472 1.003.315.197.846.295 1.593.295ZM43.52 33.75h11.21V78H43.52V33.75ZM82.823 78V24h64.08c8.22 0 14.16 1.98 17.82 5.94 3.66 3.96 5.49 9.33 5.49 16.11V78h-17.1V45.6c0-2.76-.48-4.71-1.44-5.85-.9-1.2-2.67-1.8-5.31-1.8h-11.34V78h-17.1V37.95h-18V78h-17.1Zm154.79-30.24v6.48c0 7.5-2.28 13.5-6.84 18-4.5 4.44-10.95 6.66-19.35 6.66h-6.3c-8.4 0-14.88-2.22-19.44-6.66-4.56-4.5-6.84-10.5-6.84-18v-6.48c0-7.5 2.28-13.47 6.84-17.91 4.56-4.5 11.04-6.75 19.44-6.75h6.3c8.4 0 14.85 2.25 19.35 6.75 4.56 4.44 6.84 10.41 6.84 17.91Zm-17.55-1.44c0-3.48-.66-6.06-1.98-7.74-1.26-1.74-3.54-2.61-6.84-2.61h-5.94c-3.3 0-5.61.87-6.93 2.61-1.32 1.68-1.98 4.26-1.98 7.74v9.27c0 3.54.66 6.18 1.98 7.92 1.32 1.68 3.63 2.52 6.93 2.52h5.94c3.3 0 5.58-.84 6.84-2.52 1.32-1.74 1.98-4.38 1.98-7.92v-9.27Zm-18.27-28.8L207.643.6h13.95l-6.3 16.92h-13.5Zm102.11-7.02V78h-38.34c-6.66 0-11.88-2.22-15.66-6.66-3.78-4.44-5.67-10.32-5.67-17.64v-5.4c0-7.32 1.89-13.2 5.67-17.64 3.78-4.44 9-6.66 15.66-6.66h21.24V10.5h17.1Zm-32.49 54.18h15.39V37.32h-15.39c-3.66 0-6.18.84-7.56 2.52-1.38 1.68-2.07 4.29-2.07 7.83v7.11c0 3.54.69 6.09 2.07 7.65 1.38 1.5 3.9 2.25 7.56 2.25Zm81.703-.63V24h17.1v54h-33.48c-7.86 0-13.56-1.98-17.1-5.94-3.54-3.96-5.31-9.33-5.31-16.11V24h17.1v32.4c0 2.76.45 4.74 1.35 5.94.96 1.14 2.76 1.71 5.4 1.71h14.94Zm28.648-53.55h17.1V78h-17.1V10.5Zm85.507 37.26v6.48c0 7.5-2.28 13.5-6.84 18-4.5 4.44-10.95 6.66-19.35 6.66h-6.3c-8.4 0-14.88-2.22-19.44-6.66-4.56-4.5-6.84-10.5-6.84-18v-6.48c0-7.5 2.28-13.47 6.84-17.91 4.56-4.5 11.04-6.75 19.44-6.75h6.3c8.4 0 14.85 2.25 19.35 6.75 4.56 4.44 6.84 10.41 6.84 17.91Zm-17.55-1.44c0-3.48-.66-6.06-1.98-7.74-1.26-1.74-3.54-2.61-6.84-2.61h-5.94c-3.3 0-5.61.87-6.93 2.61-1.32 1.68-1.98 4.26-1.98 7.74v9.27c0 3.54.66 6.18 1.98 7.92 1.32 1.68 3.63 2.52 6.93 2.52h5.94c3.3 0 5.58-.84 6.84-2.52 1.32-1.74 1.98-4.38 1.98-7.92v-9.27Zm61.632-9.09 16.47-12.33h-31.59V10.5h56.61v11.7l-23.22 16.83h.81c4.26 0 7.83.42 10.71 1.26 2.88.78 5.19 1.86 6.93 3.24 1.74 1.32 2.97 2.88 3.69 4.68.78 1.8 1.17 3.69 1.17 5.67v6.57c0 5.94-2.19 10.35-6.57 13.23-4.38 2.88-10.83 4.32-19.35 4.32h-29.43V63.6h31.77c1.92 0 3.3-.33 4.14-.99.9-.72 1.35-2.1 1.35-4.14v-2.43c0-2.04-.48-3.36-1.44-3.96-.9-.66-2.19-.99-3.87-.99h-16.65c-2.28 0-4.02-.6-5.22-1.8-1.2-1.2-1.8-2.73-1.8-4.59 0-1.56.48-2.88 1.44-3.96 1.02-1.14 2.37-2.31 4.05-3.51Z"/>
</svg>
