<svg xmlns="http://www.w3.org/2000/svg" width="575" height="155" fill="none" viewBox="0 0 575 155">
  <path fill="#fff" d="m.72 72 4.371-49.848c.62-7.44 2.635-12.803 6.045-16.089 3.472-3.286 7.843-4.929 13.113-4.929 5.642 0 10.106 1.736 13.392 5.208 3.348 3.41 5.487 8.091 6.417 14.043l5.487 34.689c.124.744.31 1.302.558 1.674.31.372.775.558 1.395.558s1.085-.217 1.395-.651c.31-.434.496-1.023.558-1.767l5.301-34.596c.868-5.89 2.945-10.54 6.231-13.95 3.348-3.472 7.812-5.208 13.392-5.208 5.89 0 10.261 1.674 13.113 5.022 2.914 3.286 4.681 8.618 5.301 15.996L101.16 72H83.211l-3.72-52.545c-.062-.62-.186-1.147-.372-1.581-.124-.434-.496-.651-1.116-.651-.496 0-.899.217-1.209.651-.31.372-.496.837-.558 1.395l-6.231 37.293c-.806 4.96-2.821 8.959-6.045 11.997-3.162 3.038-7.347 4.557-12.555 4.557-5.394 0-9.703-1.55-12.927-4.65-3.224-3.162-5.239-7.161-6.045-11.997l-6.51-37.107c-.124-.682-.341-1.209-.651-1.581a1.5 1.5 0 0 0-1.209-.558c-.62 0-1.054.217-1.302.651-.186.434-.31.992-.372 1.674L18.669 72H.72Zm162.486-30.225V72h-38.223c-5.58 0-9.858-1.209-12.834-3.627-2.976-2.418-4.464-5.58-4.464-9.486 0-4.278 1.457-7.688 4.371-10.23 2.914-2.604 6.417-5.301 10.509-8.091l15.81-10.881h-29.388V16.2h24.459c10.664 0 18.29 2.263 22.878 6.789 4.588 4.464 6.882 10.726 6.882 18.786Zm-33.201 16.74h16.461V40.008l-16.833 13.113c-1.054.806-1.798 1.426-2.232 1.86-.434.372-.651.868-.651 1.488 0 .682.248 1.209.744 1.581.496.31 1.333.465 2.511.465ZM173.954 72V16.2h34.596c8.122 0 14.012 2.046 17.67 6.138 3.658 4.092 5.487 9.641 5.487 16.647V72h-17.67V38.52c0-2.852-.496-4.867-1.488-6.045-.93-1.24-2.759-1.86-5.487-1.86h-15.438V72h-17.67Zm124.462-22.692h-39.897v.372c0 3.534.775 5.89 2.325 7.068 1.55 1.178 4.216 1.767 7.998 1.767h28.272V72h-27.249c-5.456 0-10.075-.589-13.857-1.767-3.72-1.24-6.727-2.945-9.021-5.115-2.232-2.232-3.875-4.898-4.929-7.998-.992-3.1-1.488-6.51-1.488-10.23v-7.068c0-7.378 2.139-13.268 6.417-17.67 4.278-4.464 11.284-6.696 21.018-6.696h3.72c5.208 0 9.548.62 13.02 1.86 3.472 1.24 6.2 3.007 8.184 5.301 2.046 2.232 3.472 4.929 4.278 8.091.806 3.162 1.209 6.665 1.209 10.509v8.091Zm-24.645-21.39h-7.254c-2.976 0-5.053.651-6.231 1.953s-1.767 3.472-1.767 6.51v1.209h23.157v-1.209c0-3.038-.62-5.208-1.86-6.51-1.178-1.302-3.193-1.953-6.045-1.953Zm51.635-16.554h-17.67V.39h17.67v10.974Zm-17.67 4.836h17.67v51.429c0 6.138-1.674 10.726-5.022 13.764-3.286 3.038-7.812 4.557-13.578 4.557h-7.44V73.953h4.278c1.302 0 2.294-.372 2.976-1.116.744-.682 1.116-1.922 1.116-3.72V16.2Zm87.925 24.552v6.696c0 7.75-2.356 13.95-7.068 18.6-4.65 4.588-11.315 6.882-19.995 6.882h-6.51c-8.68 0-15.376-2.294-20.088-6.882-4.712-4.65-7.068-10.85-7.068-18.6v-6.696c0-7.75 2.356-13.919 7.068-18.507 4.712-4.65 11.408-6.975 20.088-6.975h6.51c8.68 0 15.345 2.325 19.995 6.975 4.712 4.588 7.068 10.757 7.068 18.507Zm-18.135-1.488c0-3.596-.682-6.262-2.046-7.998-1.302-1.798-3.658-2.697-7.068-2.697h-6.138c-3.41 0-5.797.899-7.161 2.697-1.364 1.736-2.046 4.402-2.046 7.998v9.579c0 3.658.682 6.386 2.046 8.184 1.364 1.736 3.751 2.604 7.161 2.604h6.138c3.41 0 5.766-.868 7.068-2.604 1.364-1.798 2.046-4.526 2.046-8.184v-9.579ZM486.503 2.25V72h-39.618c-6.882 0-12.276-2.294-16.182-6.882-3.906-4.588-5.859-10.664-5.859-18.228v-5.58c0-7.564 1.953-13.64 5.859-18.228 3.906-4.588 9.3-6.882 16.182-6.882h21.948V2.25h17.67ZM452.93 58.236h15.903V29.964H452.93c-3.782 0-6.386.868-7.812 2.604-1.426 1.736-2.139 4.433-2.139 8.091v7.347c0 3.658.713 6.293 2.139 7.905 1.426 1.55 4.03 2.325 7.812 2.325Zm100.237-8.928H513.27v.372c0 3.534.775 5.89 2.325 7.068 1.55 1.178 4.216 1.767 7.998 1.767h28.272V72h-27.249c-5.456 0-10.075-.589-13.857-1.767-3.72-1.24-6.727-2.945-9.021-5.115-2.232-2.232-3.875-4.898-4.929-7.998-.992-3.1-1.488-6.51-1.488-10.23v-7.068c0-7.378 2.139-13.268 6.417-17.67 4.278-4.464 11.284-6.696 21.018-6.696h3.72c5.208 0 9.548.62 13.02 1.86 3.472 1.24 6.2 3.007 8.184 5.301 2.046 2.232 3.472 4.929 4.278 8.091.806 3.162 1.209 6.665 1.209 10.509v8.091Zm-24.645-21.39h-7.254c-2.976 0-5.053.651-6.231 1.953s-1.767 3.472-1.767 6.51v1.209h23.157v-1.209c0-3.038-.62-5.208-1.86-6.51-1.178-1.302-3.193-1.953-6.045-1.953ZM58.287 131.308H18.39v.372c0 3.534.775 5.89 2.325 7.068 1.55 1.178 4.216 1.767 7.998 1.767h28.272V154H29.736c-5.456 0-10.075-.589-13.857-1.767-3.72-1.24-6.727-2.945-9.021-5.115-2.232-2.232-3.875-4.898-4.929-7.998-.992-3.1-1.488-6.51-1.488-10.23v-7.068c0-7.378 2.139-13.268 6.417-17.67 4.278-4.464 11.284-6.696 21.018-6.696h3.72c5.208 0 9.548.62 13.02 1.86 3.472 1.24 6.2 3.007 8.184 5.301 2.046 2.232 3.472 4.929 4.278 8.091.806 3.162 1.209 6.665 1.209 10.509v8.091Zm-24.645-21.39h-7.254c-2.976 0-5.053.651-6.231 1.953s-1.767 3.472-1.767 6.51v1.209h23.157v-1.209c0-3.038-.62-5.208-1.86-6.51-1.178-1.302-3.193-1.953-6.045-1.953ZM67.422 154V98.2h66.215c8.494 0 14.632 2.046 18.414 6.138 3.782 4.092 5.673 9.641 5.673 16.647V154h-17.67v-33.48c0-2.852-.496-4.867-1.488-6.045-.93-1.24-2.759-1.86-5.487-1.86h-11.718V154h-17.67v-41.385h-18.6V154h-17.67Zm159.949-31.248v6.696c0 7.75-2.356 13.95-7.068 18.6-4.65 4.588-11.315 6.882-19.995 6.882h-6.51c-8.68 0-15.376-2.294-20.088-6.882-4.712-4.65-7.068-10.85-7.068-18.6v-6.696c0-7.75 2.356-13.919 7.068-18.507 4.712-4.65 11.408-6.975 20.088-6.975h6.51c8.68 0 15.345 2.325 19.995 6.975 4.712 4.588 7.068 10.757 7.068 18.507Zm-18.135-1.488c0-3.596-.682-6.262-2.046-7.998-1.302-1.798-3.658-2.697-7.068-2.697h-6.138c-3.41 0-5.797.899-7.161 2.697-1.364 1.736-2.046 4.402-2.046 7.998v9.579c0 3.658.682 6.386 2.046 8.184 1.364 1.736 3.751 2.604 7.161 2.604h6.138c3.41 0 5.766-.868 7.068-2.604 1.364-1.798 2.046-4.526 2.046-8.184v-9.579Zm53.713-9.579c-3.658 0-6.355.837-8.091 2.511-1.674 1.612-2.511 4.092-2.511 7.44v9.579c0 3.72.837 6.2 2.511 7.44 1.736 1.24 4.433 1.86 8.091 1.86h20.925V154h-21.483c-9.982 0-17.174-2.17-21.576-6.51-4.402-4.34-6.603-10.323-6.603-17.949v-6.789c0-7.626 2.201-13.609 6.603-17.949 4.402-4.402 11.594-6.603 21.576-6.603h21.483v13.485h-20.925Zm49.764-18.321h-17.67V82.39h17.67v10.974ZM295.043 154V98.2h17.67V154h-17.67Zm88.357-31.248v6.696c0 7.75-2.356 13.95-7.068 18.6-4.65 4.588-11.315 6.882-19.995 6.882h-6.51c-8.68 0-15.376-2.294-20.088-6.882-4.712-4.65-7.068-10.85-7.068-18.6v-6.696c0-7.75 2.356-13.919 7.068-18.507 4.712-4.65 11.408-6.975 20.088-6.975h6.51c8.68 0 15.345 2.325 19.995 6.975 4.712 4.588 7.068 10.757 7.068 18.507Zm-18.135-1.488c0-3.596-.682-6.262-2.046-7.998-1.302-1.798-3.658-2.697-7.068-2.697h-6.138c-3.41 0-5.797.899-7.161 2.697-1.364 1.736-2.046 4.402-2.046 7.998v9.579c0 3.658.682 6.386 2.046 8.184 1.364 1.736 3.751 2.604 7.161 2.604h6.138c3.41 0 5.766-.868 7.068-2.604 1.364-1.798 2.046-4.526 2.046-8.184v-9.579ZM392.195 154V98.2h34.596c8.122 0 14.012 2.046 17.67 6.138 3.658 4.092 5.487 9.641 5.487 16.647V154h-17.67v-33.48c0-2.852-.496-4.867-1.488-6.045-.93-1.24-2.759-1.86-5.487-1.86h-15.438V154h-17.67Zm124.462-22.692H476.76v.372c0 3.534.775 5.89 2.325 7.068 1.55 1.178 4.216 1.767 7.998 1.767h28.272V154h-27.249c-5.456 0-10.075-.589-13.857-1.767-3.72-1.24-6.727-2.945-9.021-5.115-2.232-2.232-3.875-4.898-4.929-7.998-.992-3.1-1.488-6.51-1.488-10.23v-7.068c0-7.378 2.139-13.268 6.417-17.67 4.278-4.464 11.284-6.696 21.018-6.696h3.72c5.208 0 9.548.62 13.02 1.86 3.472 1.24 6.2 3.007 8.184 5.301 2.046 2.232 3.472 4.929 4.278 8.091.806 3.162 1.209 6.665 1.209 10.509v8.091Zm-24.645-21.39h-7.254c-2.976 0-5.053.651-6.231 1.953s-1.767 3.472-1.767 6.51v1.209h23.157v-1.209c0-3.038-.62-5.208-1.86-6.51-1.178-1.302-3.193-1.953-6.045-1.953Zm62.566 24.552-15.159-2.976c-5.58-1.116-9.858-3.069-12.834-5.859-2.914-2.79-4.371-6.51-4.371-11.16a16.4 16.4 0 0 1 1.209-6.231c.868-1.984 2.17-3.72 3.906-5.208 1.798-1.488 4.061-2.666 6.789-3.534 2.79-.868 6.076-1.302 9.858-1.302h27.714v13.485h-29.109c-1.86 0-3.1.279-3.72.837-.62.496-.93 1.147-.93 1.953s.279 1.457.837 1.953c.558.496 1.519.868 2.883 1.116l13.764 2.697c6.82 1.364 11.687 3.41 14.601 6.138 2.976 2.666 4.464 6.231 4.464 10.695 0 5.022-1.922 9.114-5.766 12.276-3.782 3.1-9.548 4.65-17.298 4.65h-45.942v-13.485h48.453c1.984 0 3.348-.279 4.092-.837.744-.62 1.116-1.364 1.116-2.232 0-.93-.434-1.581-1.302-1.953-.806-.434-1.891-.775-3.255-1.023Z"/>
</svg>
