<svg xmlns="http://www.w3.org/2000/svg" width="558" height="127" fill="none" viewBox="0 0 558 127">
  <path fill="#fff" d="M20.475 49V6.75H.975V.25H47.45v6.5h-19.5V49h-7.475Zm65.132-17.03h-30.68v3.185c0 2.6.802 4.528 2.406 5.785 1.646 1.257 4.138 1.885 7.475 1.885h19.564V49h-18.59c-2.686 0-5.156-.282-7.41-.845-2.253-.607-4.181-1.538-5.785-2.795-1.603-1.257-2.86-2.86-3.77-4.81-.91-1.95-1.364-4.29-1.364-7.02v-6.825c0-5.72 1.494-10.032 4.484-12.935 3.034-2.903 7.41-4.355 13.13-4.355h3.576c5.676 0 9.923 1.278 12.74 3.835 2.816 2.557 4.225 6.392 4.225 11.505v7.215ZM69.552 15.59h-5.46c-3.293 0-5.654.737-7.084 2.21-1.387 1.473-2.08 4.117-2.08 7.93v.325h23.204V23.78c0-2.903-.585-4.983-1.755-6.24-1.17-1.3-3.444-1.95-6.825-1.95ZM94.385 49V10h45.11c4.853 0 8.406 1.235 10.66 3.705 2.253 2.47 3.38 5.633 3.38 9.49V49h-7.15V22.87c0-2.427-.499-4.095-1.495-5.005-.997-.91-2.644-1.365-4.94-1.365h-12.415V49h-7.15V16.5h-18.85V49h-7.15Zm70.22 9.75V10h21.775c5.157 0 9.122 1.452 11.895 4.355 2.773 2.903 4.16 7.063 4.16 12.48v5.33c0 5.417-1.387 9.577-4.16 12.48C195.502 47.548 191.537 49 186.38 49h-14.625v9.75h-7.15ZM185.73 16.5h-13.975v26h13.975c3.38 0 5.763-.693 7.15-2.08 1.387-1.387 2.08-3.835 2.08-7.345V25.86c0-3.467-.693-5.893-2.08-7.28-1.387-1.387-3.77-2.08-7.15-2.08Zm63.33 15.47h-30.68v3.185c0 2.6.801 4.528 2.405 5.785 1.646 1.257 4.138 1.885 7.475 1.885h19.565V49h-18.59c-2.687 0-5.157-.282-7.41-.845-2.254-.607-4.182-1.538-5.785-2.795-1.604-1.257-2.86-2.86-3.77-4.81-.91-1.95-1.365-4.29-1.365-7.02v-6.825c0-5.72 1.495-10.032 4.485-12.935 3.033-2.903 7.41-4.355 13.13-4.355h3.575c5.676 0 9.923 1.278 12.74 3.835 2.816 2.557 4.225 6.392 4.225 11.505v7.215Zm-16.055-16.38h-5.46c-3.294 0-5.655.737-7.085 2.21-1.387 1.473-2.08 4.117-2.08 7.93v.325h23.205V23.78c0-2.903-.585-4.983-1.755-6.24-1.17-1.3-3.445-1.95-6.825-1.95Zm24.832 6.435c0-3.943 1.235-6.933 3.705-8.97 2.513-2.037 5.676-3.055 9.49-3.055h10.01v6.175h-10.335c-2.037 0-3.51.39-4.42 1.17-.867.737-1.3 2.102-1.3 4.095V49h-7.15V22.025Zm57.735 2.08V49h-24.05c-3.727 0-6.652-.758-8.775-2.275-2.08-1.517-3.12-3.857-3.12-7.02 0-2.123.758-3.987 2.275-5.59 1.56-1.647 3.705-3.488 6.435-5.525l16.445-12.415h-24.7V10h20.735c4.94 0 8.623 1.278 11.05 3.835 2.47 2.557 3.705 5.98 3.705 10.27ZM291.197 42.5h17.225V21.245l-17.485 13.26c-1.213.91-2.167 1.69-2.86 2.34-.693.607-1.04 1.473-1.04 2.6 0 1.083.412 1.863 1.235 2.34.823.477 1.798.715 2.925.715Zm34.75 6.5V10h45.11c4.853 0 8.407 1.235 10.66 3.705 2.253 2.47 3.38 5.633 3.38 9.49V49h-7.15V22.87c0-2.427-.498-4.095-1.495-5.005-.997-.91-2.643-1.365-4.94-1.365h-12.415V49h-7.15V16.5h-18.85V49h-7.15Zm106.75-17.03h-30.68v3.185c0 2.6.802 4.528 2.405 5.785 1.647 1.257 4.139 1.885 7.475 1.885h19.565V49h-18.59c-2.686 0-5.156-.282-7.41-.845-2.253-.607-4.181-1.538-5.785-2.795-1.603-1.257-2.86-2.86-3.77-4.81-.91-1.95-1.365-4.29-1.365-7.02v-6.825c0-5.72 1.495-10.032 4.485-12.935 3.034-2.903 7.41-4.355 13.13-4.355h3.575c5.677 0 9.924 1.278 12.74 3.835 2.817 2.557 4.225 6.392 4.225 11.505v7.215Zm-16.055-16.38h-5.46c-3.293 0-5.655.737-7.085 2.21-1.386 1.473-2.08 4.117-2.08 7.93v.325h23.205V23.78c0-2.903-.585-4.983-1.755-6.24-1.17-1.3-3.445-1.95-6.825-1.95ZM441.474 49V10h21.97c4.897 0 8.472 1.192 10.725 3.575 2.254 2.383 3.38 5.85 3.38 10.4V49h-7.15V23.195c0-2.557-.498-4.312-1.495-5.265-.996-.953-2.643-1.43-4.94-1.43h-15.34V49h-7.15Zm42.24-32.825V10h6.5V2.395h6.955V10h14.495v6.175h-14.495V38.47c0 1.647.347 2.795 1.04 3.445.694.607 1.82.91 3.38.91h10.075V49h-10.01c-3.64 0-6.5-.91-8.58-2.73-2.036-1.82-3.055-4.55-3.055-8.19V16.175h-6.305Zm73.951 10.14v6.37c0 5.417-1.495 9.642-4.485 12.675-2.99 2.99-7.367 4.485-13.13 4.485h-4.875c-6.067 0-10.53-1.495-13.39-4.485-2.817-3.033-4.225-7.258-4.225-12.675v-6.37c0-5.417 1.408-9.62 4.225-12.61 2.86-3.033 7.323-4.55 13.39-4.55h4.875c5.763 0 10.14 1.517 13.13 4.55 2.99 2.99 4.485 7.193 4.485 12.61Zm-7.475-.975c0-3.467-.672-6.002-2.015-7.605-1.3-1.603-3.705-2.405-7.215-2.405h-6.76c-3.293 0-5.655.802-7.085 2.405-1.387 1.603-2.08 4.138-2.08 7.605v8.32c0 3.467.693 6.002 2.08 7.605 1.43 1.603 3.792 2.405 7.085 2.405h6.76c3.51 0 5.915-.802 7.215-2.405 1.343-1.603 2.015-4.138 2.015-7.605v-8.32ZM3.25 110.62v-6.5h15.34v6.5H3.25Zm82.01 9.88v6.5H63.747c-3.814 0-7.085-.498-9.815-1.495-2.73-.997-4.962-2.427-6.695-4.29-1.69-1.863-2.947-4.095-3.77-6.695-.78-2.643-1.17-5.59-1.17-8.84v-6.11c0-3.25.39-6.175 1.17-8.775.823-2.643 2.08-4.897 3.77-6.76 1.733-1.863 3.965-3.293 6.695-4.29 2.73-.997 6.001-1.495 9.815-1.495h21.19v6.5H62.77c-4.507 0-7.692 1.083-9.555 3.25-1.864 2.123-2.795 5.373-2.795 9.75v9.75c0 4.377.931 7.648 2.795 9.815 1.863 2.123 5.048 3.185 9.555 3.185h22.49Zm41.787-18.395V127h-24.05c-3.727 0-6.652-.758-8.775-2.275-2.08-1.517-3.12-3.857-3.12-7.02 0-2.123.758-3.987 2.275-5.59 1.56-1.647 3.705-3.488 6.435-5.525l16.445-12.415h-24.7V88h20.735c4.94 0 8.623 1.278 11.05 3.835 2.47 2.557 3.705 5.98 3.705 10.27ZM102.672 120.5h17.225V99.245l-17.485 13.26c-1.214.91-2.167 1.69-2.86 2.34-.694.607-1.04 1.473-1.04 2.6 0 1.083.411 1.863 1.235 2.34.823.477 1.798.715 2.925.715Zm34.75-20.475c0-3.943 1.235-6.933 3.705-8.97 2.513-2.037 5.676-3.055 9.49-3.055h10.01v6.175h-10.335c-2.037 0-3.51.39-4.42 1.17-.867.737-1.3 2.102-1.3 4.095V127h-7.15v-26.975Zm57.735 2.08V127h-24.05c-3.727 0-6.652-.758-8.775-2.275-2.08-1.517-3.12-3.857-3.12-7.02 0-2.123.758-3.987 2.275-5.59 1.56-1.647 3.705-3.488 6.435-5.525l16.445-12.415h-24.7V88h20.735c4.94 0 8.623 1.278 11.05 3.835 2.47 2.557 3.705 5.98 3.705 10.27ZM170.782 120.5h17.225V99.245l-17.485 13.26c-1.213.91-2.167 1.69-2.86 2.34-.693.607-1.04 1.473-1.04 2.6 0 1.083.412 1.863 1.235 2.34.823.477 1.798.715 2.925.715Zm4.42-37.18 4.55-12.22h6.89l-5.07 12.22h-6.37Zm45.8 10.855c-3.423 0-5.893.672-7.41 2.015-1.473 1.3-2.21 3.683-2.21 7.15v8.255c0 3.51.737 5.937 2.21 7.28 1.517 1.3 3.987 1.95 7.41 1.95h16.835V127h-17.16c-4.983 0-9.035-1.365-12.155-4.095-3.077-2.73-4.615-6.803-4.615-12.22v-6.37c0-5.417 1.538-9.49 4.615-12.22 3.12-2.73 7.172-4.095 12.155-4.095h25.61v6.175h-25.285Zm17.82 0V88h6.5v-7.605h6.955V88h14.495v6.175h-14.495v22.295c0 1.647.346 2.795 1.04 3.445.693.607 1.82.91 3.38.91h10.075V127h-10.01c-3.64 0-6.5-.91-8.58-2.73-2.037-1.82-3.055-4.55-3.055-8.19V94.175h-6.305Zm72 15.795h-30.68v3.185c0 2.6.802 4.528 2.405 5.785 1.647 1.257 4.139 1.885 7.475 1.885h19.565V127h-18.59c-2.686 0-5.156-.282-7.41-.845-2.253-.607-4.181-1.538-5.785-2.795-1.603-1.257-2.86-2.86-3.77-4.81-.91-1.95-1.365-4.29-1.365-7.02v-6.825c0-5.72 1.495-10.032 4.485-12.935 3.034-2.903 7.41-4.355 13.13-4.355h3.575c5.677 0 9.924 1.278 12.74 3.835 2.817 2.557 4.225 6.392 4.225 11.505v7.215Zm-16.055-16.38h-5.46c-3.293 0-5.655.737-7.085 2.21-1.386 1.473-2.08 4.117-2.08 7.93v.325h23.205v-2.275c0-2.903-.585-4.983-1.755-6.24-1.17-1.3-3.445-1.95-6.825-1.95Zm24.832 6.435c0-3.943 1.235-6.933 3.705-8.97 2.514-2.037 5.677-3.055 9.49-3.055h11.31v6.175h-11.635c-2.036 0-3.51.39-4.42 1.17-.866.737-1.3 2.102-1.3 4.095V127h-7.15v-26.975Z"/>
</svg>
