<svg xmlns="http://www.w3.org/2000/svg" width="1202" height="278" fill="none" viewBox="0 0 1202 278">
  <path fill="url(#a)" d="M-301 37h1412.73l-68.5 240.563H-301V37Z"/>
  <path fill="url(#b)" d="M1126 37h42.81l-34.25 122.161-31.4 118.402h-42.81L1126 37Z"/>
  <path fill="url(#c)" d="M1183.07 37h18.56l-29.97 116.523-32.82 124.04h-18.55L1183.07 37Z"/>
  <path fill="#fff" d="m919.38 129.22 1.453 2.034.023-.016.022-.017-1.498-2.001Zm47.58-35.62 1.498 2.001 6.013-4.501h-7.511v2.5Zm-91.26 0h-2.5v2.5h2.5v-2.5Zm0-41.6v-2.5h-2.5V52h2.5Zm163.54 0h2.5v-2.5h-2.5V52Zm0 33.8 1.47 2.024 1.03-.748V85.8h-2.5Zm-67.08 48.62-1.467-2.024-6.242 4.524h7.709v-2.5Zm33.28 3.64-.7 2.4.02.007.03.006.65-2.413Zm20.02 9.36-1.55 1.959.02.016.02.017 1.51-1.992Zm10.66 13.52-2.32.928.01.033.02.033 2.29-.994Zm-15.6 73.58 1.37 2.089-1.37-2.089ZM879.6 247h-2.5v2.5h2.5V247Zm0-41.6v-2.5h-2.5v2.5h2.5Zm103.74-2.86 1.545 1.966.008-.007.009-.007-1.562-1.952Zm-.26-30.42-1.478 2.016.074.055.079.049 1.325-2.12Zm-74.36-8.06-1.768 1.768 1.768-1.768Zm-1.04-24.7-1.863-1.667-.006.006 1.869 1.661Zm11.7-10.14 1.498 2.001 47.58-35.62-1.498-2.001-1.498-2.001-47.58 35.62 1.498 2.001Zm47.58-35.62v-2.5H875.7v5h91.26v-2.5Zm-91.26 0h2.5V52h-5v41.6h2.5Zm0-41.6v2.5h163.54v-5H875.7V52Zm163.54 0h-2.5v33.8h5V52h-2.5Zm0 33.8-1.47-2.024-67.077 48.62 1.467 2.024 1.467 2.024 67.083-48.62-1.47-2.024Zm-67.08 48.62v2.5h2.34v-5h-2.34v2.5Zm2.34 0v2.5c12.16 0 22.221 1.201 30.24 3.54l.7-2.4.7-2.4c-8.621-2.514-19.187-3.74-31.64-3.74v2.5Zm30.94 3.64-.65 2.413c8.1 2.193 14.43 5.189 19.12 8.906l1.55-1.959 1.55-1.959c-5.36-4.257-12.38-7.501-20.92-9.814l-.65 2.413Zm20.02 9.36-1.51 1.992c4.71 3.574 7.96 7.729 9.85 12.456l2.32-.928 2.32-.928c-2.27-5.673-6.13-10.532-11.47-14.584l-1.51 1.992Zm10.66 13.52-2.29.994c2.11 4.883 3.17 10.005 3.17 15.386h5c0-6.059-1.2-11.857-3.59-17.374l-2.29.994Zm3.38 16.38h-2.5v18.98h5v-18.98h-2.5Zm0 18.98h-2.5c0 16.45-6.01 28.341-17.85 36.131l1.37 2.089 1.37 2.089c13.46-8.85 20.11-22.439 20.11-40.309h-2.5Zm-18.98 38.22-1.37-2.089c-12.07 7.932-30.128 12.069-54.53 12.069v5c24.825 0 44.03-4.183 57.27-12.891l-1.37-2.089ZM964.62 247v-2.5H879.6v5h85.02V247Zm-85.02 0h2.5v-41.6h-5V247h2.5Zm0-41.6v2.5h91.78v-5H879.6v2.5Zm91.78 0v2.5c5.712 0 10.404-.958 13.505-3.394l-1.545-1.966-1.545-1.966c-1.752 1.377-5.033 2.326-10.415 2.326v2.5Zm11.96-2.86 1.562 1.952c3.522-2.818 4.838-7.817 4.838-13.912h-5c0 5.691-1.284 8.666-2.962 10.008l1.562 1.952Zm3.9-11.96h2.5v-7.02h-5v7.02h2.5Zm0-7.02h2.5c0-6.073-1.396-11.098-5.335-13.56l-1.325 2.12-1.325 2.12c1.608 1.005 2.985 3.607 2.985 9.32h2.5Zm-4.16-11.44 1.478-2.016c-3.196-2.344-7.527-3.344-12.658-3.344v5c4.576 0 7.698.907 9.702 2.376l1.478-2.016Zm-11.18-2.86v-2.5h-48.1v5h48.1v-2.5Zm-48.1 0v-2.5c-6.158 0-10.458-1.613-13.312-4.468l-1.768 1.768-1.768 1.768c4.079 4.079 9.833 5.932 16.848 5.932v-2.5Zm-15.08-5.2 1.768-1.768c-2.951-2.95-4.468-6.712-4.468-11.492h-5c0 5.966 1.949 11.045 5.932 15.028l1.768-1.768Zm-5.2-13.26h2.5c0-3.947 1.196-7.155 3.529-9.779l-1.869-1.661-1.869-1.661c-3.213 3.616-4.791 8.035-4.791 13.101h2.5Zm4.16-11.44 1.863 1.667c2.79-3.118 6.538-6.378 11.29-9.773l-1.453-2.034-1.453-2.034c-4.955 3.539-9.007 7.038-12.11 10.507l1.863 1.667ZM45.2 237l-2.49-.218-.239 2.718H45.2V237Zm8.46-96.48 2.49.218.001-.01-2.491-.208Zm11.7-31.14-1.718-1.816-.009.008-.008.008 1.735 1.8Zm51.3.54-1.816 1.718.016.017.016.016 1.784-1.751Zm12.42 27.18-2.47.386.001.005 2.469-.391Zm10.62 67.14-2.469.391.001.01.002.01 2.466-.411Zm1.08 3.24-2.08 1.387.074.111.085.102 1.921-1.6Zm6.48-3.6-2.471-.379-.013.086-.007.085 2.491.208Zm10.26-66.96 2.471.379.001-.007.001-.008-2.473-.364Zm12.06-27-1.8-1.735 1.8 1.735Zm51.3-.36-1.903 1.621.016.019.017.019 1.87-1.659Zm10.26 30.96-2.491.209.001.009 2.49-.218ZM239.6 237v2.5h2.729l-.239-2.718-2.49.218Zm-34.74 0-2.494.177.165 2.323h2.329V237Zm-7.2-101.7 2.494-.177-.003-.036-.003-.036-2.488.249Zm-.72-3.06-2.404.687.044.152.062.146 2.298-.985Zm-4.5 0 1.921 1.6.059-.071.054-.076-2.034-1.453Zm-1.08 2.7 2.466.412.011-.068.008-.068-2.485-.276Zm-12.06 72.18-2.466-.412-.002.011 2.468.401Zm-11.7 23.22-1.714-1.819-.009.008-.009.008 1.732 1.803Zm-49.32-.18-1.751 1.785.009.009.009.008 1.733-1.802Zm-11.7-23.22 2.466-.411-.002-.011-.002-.01-2.462.432Zm-12.6-71.82 2.462-.432v-.008l-.002-.007-2.46.447Zm-1.26-3.06-1.92 1.6 1.92-1.6Zm-4.86.18L85.69 131l-.072.124-.056.131 2.298.985Zm-.72 3.24-2.49-.226-.002.024-.002.025 2.494.177ZM79.94 237v2.5h2.329l.165-2.323L79.94 237Zm-34.74 0 2.49.218 8.46-96.48-2.49-.218-2.49-.218-8.46 96.48 2.49.218Zm8.46-96.48 2.491.208c1.178-14.127 4.972-23.794 10.944-29.548l-1.735-1.8-1.735-1.8c-7.228 6.966-11.234 18.059-12.456 32.732l2.491.208Zm11.7-31.14 1.719 1.816c6.206-5.874 14.029-8.856 23.661-8.856v-5c-10.768 0-19.865 3.378-27.098 10.224l1.718 1.816Zm25.38-9.54v2.5c10.367 0 18.301 3.167 24.104 9.298l1.816-1.718 1.816-1.718c-6.917-7.309-16.263-10.862-27.736-10.862v2.5Zm25.92 10.08-1.784 1.751c6.029 6.141 9.993 14.675 11.734 25.815l2.47-.386 2.47-.386c-1.859-11.9-6.175-21.486-13.106-28.545l-1.784 1.751Zm12.42 27.18-2.469.391 10.62 67.14 2.469-.391 2.469-.391-10.62-67.14-2.469.391Zm10.62 67.14-2.466.411c.264 1.581.699 3.066 1.466 4.216l2.08-1.387 2.08-1.387c-.193-.29-.478-.965-.694-2.264l-2.466.411Zm1.08 3.24-1.921 1.6c1.203 1.443 2.904 1.98 4.621 1.98v-5c-.355 0-.553-.054-.647-.091a.294.294 0 0 1-.132-.089l-1.921 1.6Zm2.7 1.08v2.5c1.857 0 3.584-.696 4.734-2.307l-2.034-1.453-2.034-1.453c-.05.069-.123.213-.666.213v2.5Zm2.7-1.26 2.034 1.453c.946-1.324 1.394-2.948 1.537-4.665l-2.491-.208-2.491-.208c-.097 1.163-.369 1.819-.623 2.175l2.034 1.453Zm1.08-3.42 2.471.379 10.26-66.96-2.471-.379-2.471-.379-10.26 66.96 2.471.379Zm10.26-66.96 2.473.364c1.624-11.017 5.473-19.491 11.387-25.629l-1.8-1.735-1.8-1.735c-6.806 7.062-10.997 16.588-12.733 28.371l2.473.364Zm12.06-27 1.8 1.735c5.934-6.153 13.883-9.315 24.12-9.315v-5c-11.363 0-20.694 3.558-27.72 10.845l1.8 1.735Zm25.92-10.08v2.5c10.931 0 18.579 3.092 23.477 8.841l1.903-1.621 1.903-1.621c-6.142-7.211-15.414-10.599-27.283-10.599v2.5Zm25.38 9.72-1.87 1.659c5.11 5.762 8.456 15.434 9.639 29.51l2.491-.209 2.491-.209c-1.217-14.484-4.711-25.452-10.881-32.41l-1.87 1.659Zm10.26 30.96-2.49.218 8.46 96.48 2.49-.218 2.49-.218-8.46-96.48-2.49.218ZM239.6 237v-2.5h-34.74v5h34.74V237Zm-34.74 0 2.494-.177-7.2-101.7-2.494.177-2.494.177 7.2 101.7 2.494-.177Zm-7.2-101.7 2.488-.249c-.138-1.377-.424-2.66-.91-3.796l-2.298.985-2.298.985c.234.544.428 1.301.53 2.324l2.488-.249Zm-.72-3.06 2.404-.687a4.034 4.034 0 0 0-1.864-2.417c-.875-.511-1.841-.656-2.7-.656v5c.341 0 .335.065.18-.026a.995.995 0 0 1-.279-.25.887.887 0 0 1-.145-.277l2.404-.687Zm-2.16-1.26v-2.5c-1.836 0-3.346.868-4.374 2.307l2.034 1.453 2.034 1.453c.115-.16.184-.196.186-.197a.103.103 0 0 1 .02-.007.427.427 0 0 1 .1-.009v-2.5Zm-2.34 1.26-1.921-1.6c-.961 1.153-1.478 2.536-1.644 4.024l2.485.276 2.485.276c.074-.672.277-1.089.516-1.376l-1.921-1.6Zm-1.08 2.7-2.466-.412-12.06 72.18 2.466.412 2.466.412 12.06-72.18-2.466-.412Zm-12.06 72.18-2.468-.401c-1.484 9.134-5.16 16.349-10.946 21.802l1.714 1.819 1.715 1.819c6.693-6.307 10.817-14.572 12.453-24.638l-2.468-.401Zm-11.7 23.22-1.732-1.803c-5.569 5.351-13.004 8.123-22.568 8.123v5c10.596 0 19.361-3.108 26.032-9.517l-1.732-1.803Zm-24.3 8.82v-2.5c-9.935 0-17.606-2.839-23.287-8.302l-1.733 1.802-1.733 1.802c6.799 6.537 15.808 9.698 26.753 9.698v-2.5Zm-25.02-9 1.751-1.785c-5.83-5.717-9.504-12.961-10.985-21.846l-2.466.411-2.466.411c1.639 9.835 5.765 18.071 12.415 24.594l1.751-1.785Zm-11.7-23.22 2.462-.432-12.6-71.82-2.462.432-2.462.432 12.6 71.82 2.462-.432Zm-12.6-71.82 2.46-.447c-.286-1.572-.83-3.049-1.8-4.213l-1.92 1.6-1.92 1.6c.23.276.526.839.72 1.907l2.46-.447Zm-1.26-3.06 1.92-1.6c-1.088-1.306-2.579-1.98-4.26-1.98v5c.161 0 .233.028.257.04a.476.476 0 0 1 .162.14l1.921-1.6Zm-2.34-1.08v-2.5c-1.845 0-3.653.704-4.69 2.52l2.17 1.24 2.17 1.24c.008-.012.004-.002-.016.017a.194.194 0 0 1-.046.034c-.01.005.096-.051.412-.051v-2.5Zm-2.52 1.26-2.298-.985c-.498 1.163-.778 2.524-.912 3.999l2.49.226 2.49.226c.106-1.165.306-1.964.528-2.481l-2.298-.985Zm-.72 3.24-2.494-.177-7.2 101.52 2.494.177 2.494.177 7.2-101.52-2.494-.177ZM79.94 237v-2.5H45.2v5h34.74V237Zm275.65-11.52 1.756 1.78v-.001l-1.756-1.779Zm-90.18 0-1.756 1.779.006.006.006.006 1.744-1.791Zm0-84.78 1.744 1.791.006-.006.006-.006-1.756-1.779Zm90.18 0-1.767 1.768.011.012.012.011 1.744-1.791Zm-25.38 17.46-2.025 1.466.029.04.031.039 1.965-1.545Zm-39.42 0 1.966 1.545.013-.017.013-.017-1.992-1.511Zm0 49.86-1.991 1.511.012.017.014.017 1.965-1.545Zm39.42 0-1.991-1.511-.009.011 2 1.5Zm-32.58-91.98-2.362-.817-1.147 3.317h3.509v-2.5Zm11.7-33.84v-2.5h-1.781l-.581 1.683 2.362.817Zm27.9 0 2.343.872 1.256-3.372h-3.599v2.5Zm-12.6 33.84v2.5h1.737l.606-1.628-2.343-.872Zm44.64 60.48h-2.5v12.96h5v-12.96h-2.5Zm0 12.96h-2.5c0 14.455-4.373 25.77-12.936 34.221l1.756 1.779 1.756 1.779c9.678-9.549 14.424-22.234 14.424-37.779h-2.5Zm-13.68 36-1.756-1.78c-8.394 8.283-20.578 12.6-36.944 12.6v5c17.235 0 30.85-4.563 40.456-14.04l-1.756-1.78Zm-38.7 13.32v-2.5h-12.6v5h12.6v-2.5Zm-12.6 0v-2.5c-16.363 0-28.617-4.316-37.136-12.611l-1.744 1.791-1.744 1.791c9.721 9.465 23.388 14.029 40.624 14.029v-2.5Zm-38.88-13.32 1.756-1.779c-8.562-8.451-12.936-19.766-12.936-34.221h-5c0 15.545 4.747 28.23 14.424 37.779l1.756-1.779Zm-13.68-36h2.5v-12.96h-5v12.96h2.5Zm0-12.96h2.5c0-14.456 4.374-25.703 12.924-34.029l-1.744-1.791-1.744-1.791c-9.689 9.434-14.436 22.066-14.436 37.611h2.5Zm13.68-35.82 1.756 1.779c8.521-8.408 20.77-12.779 37.124-12.779v-5c-17.245 0-30.916 4.629-40.636 14.221l1.756 1.779Zm38.88-13.5v2.5h12.6v-5h-12.6v2.5Zm12.6 0v2.5c16.357 0 28.537 4.372 36.933 12.768l1.767-1.768 1.768-1.768c-9.604-9.604-23.225-14.232-40.468-14.232v2.5Zm38.7 13.5-1.744 1.791c8.551 8.326 12.924 19.573 12.924 34.029h5c0-15.545-4.746-28.177-14.436-37.611l-1.744 1.791Zm-21.42 32.94h2.5c0-7.195-1.35-13.023-4.494-17.025l-1.966 1.545-1.965 1.545c2.135 2.718 3.425 7.21 3.425 13.935h2.5Zm-3.96-15.48 2.025-1.466c-3.201-4.421-8.747-6.254-15.705-6.254v5c6.243 0 9.816 1.647 11.655 4.186l2.025-1.466Zm-13.68-5.22v-2.5h-11.88v5h11.88v-2.5Zm-11.88 0v-2.5c-6.97 0-12.536 1.838-15.851 6.209l1.991 1.511 1.992 1.511c1.964-2.589 5.638-4.231 11.868-4.231v-2.5Zm-13.86 5.22-1.965-1.545c-3.145 4.002-4.495 9.83-4.495 17.025h5c0-6.725 1.29-11.217 3.426-13.935l-1.966-1.545Zm-3.96 15.48h-2.5v18.54h5v-18.54h-2.5Zm0 18.54h-2.5c0 7.313 1.35 13.24 4.469 17.351l1.991-1.511 1.992-1.511c-2.161-2.849-3.452-7.482-3.452-14.329h-2.5Zm3.96 15.84-1.965 1.545c3.325 4.232 8.883 5.995 15.825 5.995v-5c-6.257 0-9.939-1.597-11.894-4.085l-1.966 1.545Zm13.86 5.04v2.5h11.88v-5h-11.88v2.5Zm11.88 0v2.5c6.93 0 12.469-1.758 15.68-6.04l-2-1.5-2-1.5c-1.828 2.438-5.409 4.04-11.68 4.04v2.5Zm13.68-5.04 1.992 1.511c3.119-4.111 4.468-10.038 4.468-17.351h-5c0 6.847-1.29 11.48-3.451 14.329l1.991 1.511Zm3.96-15.84h2.5v-18.54h-5v18.54h2.5Zm-36.54-76.14 2.363.817 11.7-33.84-2.363-.817-2.362-.817-11.7 33.84 2.362.817Zm11.7-33.84v2.5h27.9v-5h-27.9v2.5Zm27.9 0-2.343-.872-12.6 33.84 2.343.872 2.343.872 12.6-33.84-2.343-.872Zm-12.6 33.84v-2.5h-27v5h27v-2.5ZM501.852 102h2.5v-2.5h-2.5v2.5Zm0 135v2.5h2.5V237h-2.5Zm-34.2-108v2.5h2.5V129h-2.5Zm0-27v-2.5h-2.5v2.5h2.5Zm0 108.36v2.5h2.5v-2.5h-2.5Zm0-54.72h2.5v-2.5h-2.5v2.5Zm-45.9 5.04 1.931 1.587-1.931-1.587Zm0 45.18-1.873 1.656.016.019.017.018 1.84-1.693Zm80.1-103.86h-2.5v135h5V102h-2.5Zm0 135v-2.5h-76.68v5h76.68V237Zm-76.68 0v-2.5c-12.704 0-22.402-4.201-29.417-12.441l-1.903 1.621-1.904 1.621c8.105 9.52 19.287 14.199 33.224 14.199V237Zm-31.32-13.32 1.903-1.621c-7.084-8.321-10.743-19.457-10.743-33.659h-5c0 15.078 3.901 27.462 11.936 36.901l1.904-1.621Zm-11.34-35.28h2.5v-10.8h-5v10.8h2.5Zm0-10.8h2.5c0-14.202 3.659-25.338 10.743-33.659l-1.903-1.621-1.904-1.621c-8.035 9.439-11.936 21.823-11.936 36.901h2.5Zm11.34-35.28 1.903 1.621c7.015-8.24 16.713-12.441 29.417-12.441v-5c-13.937 0-25.119 4.679-33.224 14.199l1.904 1.621Zm31.32-13.32v2.5h42.48v-5h-42.48v2.5Zm42.48 0h2.5v-27h-5v27h2.5Zm0-27v2.5h34.2v-5h-34.2v2.5Zm-30.78 108.36v2.5h30.78v-5h-30.78v2.5Zm30.78 0h2.5v-54.72h-5v54.72h2.5Zm0-54.72v-2.5h-30.78v5h30.78v-2.5Zm-30.78 0v-2.5c-7.572 0-13.573 1.718-17.052 5.953l1.932 1.587 1.931 1.587c2.041-2.485 6.12-4.127 13.189-4.127v-2.5Zm-15.12 5.04-1.932-1.587c-3.296 4.013-4.708 9.926-4.708 17.247h5c0-6.839 1.348-11.366 3.571-14.073l-1.931-1.587Zm-4.14 15.66h-2.5v14.22h5v-14.22h-2.5Zm0 14.22h-2.5c0 7.297 1.402 13.152 4.767 16.956l1.873-1.656 1.872-1.656c-2.155-2.436-3.512-6.781-3.512-13.644h-2.5Zm4.14 15.3-1.84 1.693c3.495 3.799 9.455 5.307 16.96 5.307v-5c-7.136 0-11.256-1.492-13.281-3.693l-1.839 1.693Zm178.526 3.24v2.5h2.5v-2.5h-2.5Zm0-80.1v-2.5h-2.5v2.5h2.5Zm34.2 0h2.5v-2.5h-2.5v2.5Zm0 108v2.5h2.5V237h-2.5Zm-101.16-11.88-1.864 1.666 1.864-1.666ZM522.698 129v-2.5h-2.5v2.5h2.5Zm34.2 0h2.5v-2.5h-2.5v2.5Zm2.7 76.68-2 1.5.042.056.046.054 1.912-1.61Zm40.68 3.42h2.5V129h-5v80.1h2.5Zm0-80.1v2.5h34.2v-5h-34.2v2.5Zm34.2 0h-2.5v108h5V129h-2.5Zm0 108v-2.5h-66.96v5h66.96V237Zm-66.96 0v-2.5c-15.354 0-25.92-3.869-32.336-11.046l-1.864 1.666-1.864 1.666c7.744 8.663 19.977 12.714 36.064 12.714V237Zm-34.2-11.88 1.864-1.666c-6.567-7.346-9.984-17.433-9.984-30.554h-5c0 13.999 3.663 25.392 11.256 33.886l1.864-1.666Zm-10.62-32.22h2.5V129h-5v63.9h2.5Zm0-63.9v2.5h34.2v-5h-34.2v2.5Zm34.2 0h-2.5v64.8h5V129h-2.5Zm0 64.8h-2.5c0 5.665.899 10.312 3.2 13.38l2-1.5 2-1.5c-1.299-1.732-2.2-5.005-2.2-10.38h-2.5Zm2.7 11.88-1.912 1.61c2.657 3.156 7.232 4.31 12.712 4.31v-5c-5.08 0-7.705-1.126-8.888-2.53l-1.912 1.61Zm10.8 3.42v2.5h29.88v-5h-29.88v2.5ZM657.573 102v-2.5h-2.5v2.5h2.5Zm34.2 0h2.5v-2.5h-2.5v2.5Zm0 135v2.5h2.5V237h-2.5Zm-34.2 0h-2.5v2.5h2.5V237Zm0-135v2.5h34.2v-5h-34.2v2.5Zm34.2 0h-2.5v135h5V102h-2.5Zm0 135v-2.5h-34.2v5h34.2V237Zm-34.2 0h2.5V102h-5v135h2.5Zm157.334-11.52 1.756 1.78v-.001l-1.756-1.779Zm-90.18 0-1.756 1.779.006.006.006.006 1.744-1.791Zm0-84.78 1.744 1.791.006-.006.006-.006-1.756-1.779Zm90.18 0-1.768 1.768.012.012.012.011 1.744-1.791Zm-25.38 17.46-2.025 1.466.029.04.03.039 1.966-1.545Zm-39.42 0 1.966 1.545.013-.017.012-.017-1.991-1.511Zm0 49.86-1.992 1.511.013.017.013.017 1.966-1.545Zm39.42 0-1.992-1.511-.008.011 2 1.5Zm39.06-31.5h-2.5v12.96h5v-12.96h-2.5Zm0 12.96h-2.5c0 14.455-4.373 25.77-12.936 34.221l1.756 1.779 1.756 1.779c9.677-9.549 14.424-22.234 14.424-37.779h-2.5Zm-13.68 36-1.756-1.78c-8.394 8.283-20.578 12.6-36.944 12.6v5c17.234 0 30.85-4.563 40.456-14.04l-1.756-1.78Zm-38.7 13.32v-2.5h-12.6v5h12.6v-2.5Zm-12.6 0v-2.5c-16.364 0-28.617-4.316-37.136-12.611l-1.744 1.791-1.744 1.791c9.721 9.465 23.387 14.029 40.624 14.029v-2.5Zm-38.88-13.32 1.756-1.779c-8.563-8.451-12.936-19.766-12.936-34.221h-5c0 15.545 4.747 28.23 14.424 37.779l1.756-1.779Zm-13.68-36h2.5v-12.96h-5v12.96h2.5Zm0-12.96h2.5c0-14.456 4.373-25.703 12.924-34.029l-1.744-1.791-1.744-1.791c-9.69 9.434-14.436 22.066-14.436 37.611h2.5Zm13.68-35.82 1.756 1.779c8.52-8.408 20.769-12.779 37.124-12.779v-5c-17.245 0-30.916 4.629-40.636 14.221l1.756 1.779Zm38.88-13.5v2.5h12.6v-5h-12.6v2.5Zm12.6 0v2.5c16.357 0 28.536 4.372 36.932 12.768l1.768-1.768 1.767-1.768c-9.604-9.604-23.224-14.232-40.467-14.232v2.5Zm38.7 13.5-1.744 1.791c8.55 8.326 12.924 19.573 12.924 34.029h5c0-15.545-4.747-28.177-14.436-37.611l-1.744 1.791Zm-21.42 32.94h2.5c0-7.195-1.35-13.023-4.494-17.025l-1.966 1.545-1.966 1.545c2.136 2.718 3.426 7.21 3.426 13.935h2.5Zm-3.96-15.48 2.025-1.466c-3.201-4.421-8.748-6.254-15.705-6.254v5c6.242 0 9.816 1.647 11.655 4.186l2.025-1.466Zm-13.68-5.22v-2.5h-11.88v5h11.88v-2.5Zm-11.88 0v-2.5c-6.97 0-12.536 1.838-15.852 6.209l1.992 1.511 1.991 1.511c1.965-2.589 5.639-4.231 11.869-4.231v-2.5Zm-13.86 5.22-1.966-1.545c-3.144 4.002-4.494 9.83-4.494 17.025h5c0-6.725 1.29-11.217 3.426-13.935l-1.966-1.545Zm-3.96 15.48h-2.5v18.54h5v-18.54h-2.5Zm0 18.54h-2.5c0 7.313 1.349 13.24 4.468 17.351l1.992-1.511 1.991-1.511c-2.161-2.849-3.451-7.482-3.451-14.329h-2.5Zm3.96 15.84-1.966 1.545c3.326 4.232 8.883 5.995 15.826 5.995v-5c-6.257 0-9.94-1.597-11.894-4.085l-1.966 1.545Zm13.86 5.04v2.5h11.88v-5h-11.88v2.5Zm11.88 0v2.5c6.929 0 12.468-1.758 15.68-6.04l-2-1.5-2-1.5c-1.829 2.438-5.41 4.04-11.68 4.04v2.5Zm13.68-5.04 1.991 1.511c3.119-4.111 4.469-10.038 4.469-17.351h-5c0 6.847-1.291 11.48-3.452 14.329l1.992 1.511Zm3.96-15.84h2.5v-18.54h-5v18.54h2.5Z"/>
  <defs>
    <linearGradient id="a" x1="-301" x2="1113.65" y1="157.281" y2="157.281" gradientUnits="userSpaceOnUse">
      <stop offset=".08" stop-color="#3F466C" stop-opacity=".43"/>
      <stop offset=".825" stop-color="#7B88D2"/>
    </linearGradient>
    <linearGradient id="b" x1="1131.7" x2="1074.59" y1="162.919" y2="146.942" gradientUnits="userSpaceOnUse">
      <stop offset=".08" stop-color="#3F466C" stop-opacity=".43"/>
      <stop offset=".825" stop-color="#7B88D2"/>
    </linearGradient>
    <linearGradient id="c" x1="1180.22" x2="1131.05" y1="136.608" y2="124.162" gradientUnits="userSpaceOnUse">
      <stop offset=".115" stop-color="#3F466C" stop-opacity=".43"/>
      <stop offset=".595" stop-color="#7B88D2"/>
    </linearGradient>
  </defs>
</svg>
