<svg xmlns="http://www.w3.org/2000/svg" width="292" height="49" fill="none" viewBox="0 0 292 49">
  <path fill="#fff" d="M20.475 49V6.75H.975V.25H47.45v6.5h-19.5V49h-7.475Zm27.953-26.975c0-3.943 1.235-6.933 3.705-8.97C54.645 11.018 57.809 10 61.623 10h11.31v6.175H61.297c-2.036 0-3.51.39-4.42 1.17-.866.737-1.3 2.102-1.3 4.095V49h-7.15V22.025ZM87.204 6.62h-7.15V.25h7.15v6.37ZM80.054 49V10h7.15v39h-7.15Zm37.118-15.535-9.555-2.015c-3.64-.78-6.5-1.993-8.58-3.64-2.037-1.69-3.055-4.052-3.055-7.085 0-3.207 1.105-5.785 3.315-7.735 2.253-1.993 5.915-2.99 10.985-2.99h27.43v6.175h-28.73c-2.21 0-3.705.412-4.485 1.235-.78.823-1.17 1.798-1.17 2.925 0 1.213.411 2.188 1.235 2.925.823.693 2.318 1.257 4.485 1.69l9.425 1.95c4.03.823 7.15 2.037 9.36 3.64 2.253 1.56 3.38 3.965 3.38 7.215 0 3.38-1.192 6.11-3.575 8.19-2.384 2.037-6.457 3.055-12.22 3.055H97.282v-6.175h19.825c2.73 0 4.571-.412 5.525-1.235.953-.867 1.43-1.972 1.43-3.315 0-1.3-.499-2.275-1.495-2.925-.997-.693-2.795-1.322-5.395-1.885Zm16.977-17.29V10h6.5V2.395h6.955V10h14.495v6.175h-14.495V38.47c0 1.647.346 2.795 1.04 3.445.693.607 1.82.91 3.38.91h10.075V49h-10.01c-3.64 0-6.5-.91-8.58-2.73-2.037-1.82-3.055-4.55-3.055-8.19V16.175h-6.305ZM206.15 31.97h-30.68v3.185c0 2.6.801 4.528 2.405 5.785 1.646 1.257 4.138 1.885 7.475 1.885h19.565V49h-18.59c-2.687 0-5.157-.282-7.41-.845-2.254-.607-4.182-1.538-5.785-2.795-1.604-1.257-2.86-2.86-3.77-4.81-.91-1.95-1.365-4.29-1.365-7.02v-6.825c0-5.72 1.495-10.032 4.485-12.935 3.033-2.903 7.41-4.355 13.13-4.355h3.575c5.676 0 9.923 1.278 12.74 3.835 2.816 2.557 4.225 6.392 4.225 11.505v7.215Zm-16.055-16.38h-5.46c-3.294 0-5.655.737-7.085 2.21-1.387 1.473-2.08 4.117-2.08 7.93v.325h23.205V23.78c0-2.903-.585-4.983-1.755-6.24-1.17-1.3-3.445-1.95-6.825-1.95ZM248.337 49h-27.3c-2.904 0-5.07-.607-6.5-1.82-1.387-1.213-2.08-2.73-2.08-4.55 0-1.473.368-2.773 1.105-3.9.736-1.127 2.036-2.383 3.9-3.77l21.385-15.925c.303-.217.52-.433.65-.65.173-.26.26-.563.26-.91 0-.433-.152-.758-.455-.975-.26-.217-.672-.325-1.235-.325h-24.31V10h24.245c2.903 0 5.221.498 6.955 1.495 1.733.953 2.6 2.643 2.6 5.07 0 1.343-.477 2.665-1.43 3.965-.91 1.257-2.427 2.687-4.55 4.29l-20.345 15.34c-.304.26-.542.498-.715.715-.174.217-.26.477-.26.78 0 .433.151.737.455.91.303.173.693.26 1.17.26h26.455V49Zm42.733-24.895V49h-24.05c-3.727 0-6.652-.758-8.775-2.275-2.08-1.517-3.12-3.857-3.12-7.02 0-2.123.758-3.987 2.275-5.59 1.56-1.647 3.705-3.488 6.435-5.525l16.445-12.415h-24.7V10h20.735c4.94 0 8.623 1.278 11.05 3.835 2.47 2.557 3.705 5.98 3.705 10.27ZM266.695 42.5h17.225V21.245l-17.485 13.26c-1.213.91-2.167 1.69-2.86 2.34-.693.607-1.04 1.473-1.04 2.6 0 1.083.412 1.863 1.235 2.34.823.477 1.798.715 2.925.715Z"/>
</svg>
