<svg xmlns="http://www.w3.org/2000/svg" width="614" height="174" fill="none" viewBox="0 0 614 174">
  <path fill="#D0D5F0" fill-opacity=".83" d="m1.6 70.764 1.88-21.44c.267-3.2 1.133-5.506 2.6-6.92 1.493-1.413 3.373-2.12 5.64-2.12 2.427 0 4.347.747 5.76 2.24 1.44 1.467 2.36 3.48 2.76 6.04l2.36 14.92c.053.32.133.56.24.72.133.16.333.24.6.24.267 0 .467-.093.6-.28.133-.187.213-.44.24-.76l2.28-14.88c.373-2.533 1.267-4.533 2.68-6 1.44-1.493 3.36-2.24 5.76-2.24 2.533 0 4.413.72 5.64 2.16 1.253 1.413 2.013 3.707 2.28 6.88l1.88 21.44h-7.72l-1.6-22.6a2.318 2.318 0 0 0-.16-.68c-.053-.187-.213-.28-.48-.28a.612.612 0 0 0-.52.28c-.133.16-.213.36-.24.6l-2.68 16.04c-.347 2.133-1.213 3.854-2.6 5.16-1.36 1.307-3.16 1.96-5.4 1.96-2.32 0-4.173-.666-5.56-2-1.387-1.36-2.253-3.08-2.6-5.16l-2.8-15.96c-.053-.293-.147-.52-.28-.68a.645.645 0 0 0-.52-.24c-.267 0-.453.093-.56.28a2.42 2.42 0 0 0-.16.72l-1.6 22.56H1.6Zm72.016-13.44v2.88c0 3.334-1.014 6-3.04 8-2 1.974-4.867 2.96-8.6 2.96h-2.8c-3.734 0-6.614-.987-8.64-2.96-2.027-2-3.04-4.666-3.04-8v-2.88c0-3.333 1.013-5.986 3.04-7.96 2.026-2 4.906-3 8.64-3h2.8c3.733 0 6.6 1 8.6 3 2.026 1.974 3.04 4.627 3.04 7.96Zm-7.8-.64c0-1.546-.294-2.693-.88-3.44-.56-.773-1.574-1.16-3.04-1.16h-2.64c-1.467 0-2.494.387-3.08 1.16-.587.747-.88 1.894-.88 3.44v4.12c0 1.573.293 2.747.88 3.52.586.747 1.613 1.12 3.08 1.12h2.64c1.466 0 2.48-.373 3.04-1.12.586-.773.88-1.947.88-3.52v-4.12Zm-8.12-12.8 2.6-7.52h6.2l-2.8 7.52h-6Zm45.382-3.12v30h-17.04c-2.96 0-5.28-.986-6.96-2.96-1.68-1.973-2.52-4.587-2.52-7.84v-2.4c0-3.253.84-5.867 2.52-7.84 1.68-1.973 4-2.96 6.96-2.96h9.44v-6h7.6Zm-14.44 24.08h6.84v-12.16h-6.84c-1.627 0-2.747.373-3.36 1.12-.613.747-.92 1.907-.92 3.48v3.16c0 1.573.307 2.707.92 3.4.613.667 1.733 1 3.36 1Zm36.313-.28v-17.8h7.6v24h-14.88c-3.494 0-6.027-.88-7.6-2.64-1.574-1.76-2.36-4.146-2.36-7.16v-14.2h7.6v14.4c0 1.227.2 2.107.6 2.64.426.507 1.226.76 2.4.76h6.64Zm12.732-23.8h7.6v30h-7.6v-30Zm38.003 16.56v2.88c0 3.334-1.013 6-3.04 8-2 1.974-4.867 2.96-8.6 2.96h-2.8c-3.733 0-6.613-.987-8.64-2.96-2.027-2-3.04-4.666-3.04-8v-2.88c0-3.333 1.013-5.986 3.04-7.96 2.027-2 4.907-3 8.64-3h2.8c3.733 0 6.6 1 8.6 3 2.027 1.974 3.04 4.627 3.04 7.96Zm-7.8-.64c0-1.546-.293-2.693-.88-3.44-.56-.773-1.573-1.16-3.04-1.16h-2.64c-1.467 0-2.493.387-3.08 1.16-.587.747-.88 1.894-.88 3.44v4.12c0 1.573.293 2.747.88 3.52.587.747 1.613 1.12 3.08 1.12h2.64c1.467 0 2.48-.373 3.04-1.12.587-.773.88-1.947.88-3.52v-4.12Z"/>
  <path fill="#B4BEF3" d="M314.006 133.312h-1v1h1v-1Zm0-21.42v-1h-1v1h1Zm26.46 0v1h1v-1h-1Zm-1.12-59.64-.79.613.039.05.044.044.707-.708Zm-23.94-1.26h-1v1h1v-1Zm0-22.68v-1h-1v1h1Zm45.92 7.28-.714.7.007.007.707-.707Zm7.14 76.3h-1v1h1v-1Zm22.82 0h1v-1h-1v1Zm0 21.42v1h1v-1h-1Zm-77.28 0h1v-21.42h-2v21.42h1Zm0-21.42v1h26.46v-2h-26.46v1Zm26.46 0h1v-56.28h-2v56.28h1Zm0-56.28h1c0-1.648-.413-3.067-1.413-4.068l-.707.708-.707.707c.493.493.827 1.313.827 2.652h1Zm-1.12-3.36.789-.614c-.899-1.157-2.266-1.646-3.869-1.646v2c1.197 0 1.883.35 2.29.873l.79-.614Zm-3.08-1.26v-1h-20.86v2h20.86v-1Zm-20.86 0h1v-22.68h-2v22.68h1Zm0-22.68v1h26.88v-2h-26.88v1Zm26.88 0v1c7.713 0 13.785 2.35 18.326 6.98l.714-.7.714-.7c-4.98-5.078-11.601-7.58-19.754-7.58v1Zm19.04 7.28-.707.707c4.553 4.553 6.847 10.357 6.847 17.492h2c0-7.61-2.467-13.94-7.433-18.907l-.707.708Zm7.14 18.2h-1v58.1h2v-58.1h-1Zm0 58.1v1h22.82v-2h-22.82v1Zm22.82 0h-1v21.42h2v-21.42h-1Zm0 21.42v-1h-77.28v2h77.28v-1Z"/>
  <path fill="#B5B7EB" fill-opacity=".9" d="M6.332 108.443v-26.25h21.91v5.775H13.157v4.55h15.085v5.6H13.157v4.55h15.085v5.775H6.332Zm37.486-7.35-5.705-1.12c-2.1-.42-3.71-1.155-4.83-2.205-1.096-1.05-1.645-2.45-1.645-4.2 0-.816.152-1.598.455-2.345.327-.746.817-1.4 1.47-1.96.677-.56 1.529-1.003 2.555-1.33 1.05-.326 2.287-.49 3.71-.49h17.43v5.075H39.303c-.7 0-1.166.105-1.4.315-.233.21-.35.444-.35.7 0 .28.105.525.315.735.21.21.572.362 1.085.455l5.18 1.015c2.567.514 4.399 1.284 5.495 2.31 1.12 1.004 1.68 2.345 1.68 4.025 0 1.89-.723 3.43-2.17 4.62-1.423 1.167-3.593 1.75-6.51 1.75h-10.29v-5.075h11.235c.747 0 1.26-.105 1.54-.315.28-.21.42-.478.42-.805 0-.35-.163-.606-.49-.77-.303-.163-.711-.291-1.225-.385Zm8.004-8.575v-5.075h3.395v-4.27h6.125v4.27h11.375v5.075H61.342v8.505c0 .887.187 1.505.56 1.855.373.327.98.49 1.82.49h3.395v5.075h-4.165c-2.893 0-4.97-.606-6.23-1.82-1.237-1.236-1.855-3.103-1.855-5.6v-8.505h-3.045Zm26.31-6.895h-6.65v-4.13h6.65v4.13Zm-6.65 22.82v-21h6.65v21h-6.65Zm11.553-26.25h6.65v26.25h-6.65v-26.25Zm33.253 14.49v2.52c0 2.917-.887 5.25-2.66 7-1.75 1.727-4.259 2.59-7.525 2.59h-2.45c-3.267 0-5.787-.863-7.56-2.59-1.774-1.75-2.66-4.083-2.66-7v-2.52c0-2.916.886-5.238 2.66-6.965 1.773-1.75 4.293-2.625 7.56-2.625h2.45c3.266 0 5.775.875 7.525 2.625 1.773 1.727 2.66 4.049 2.66 6.965Zm-6.825-.56c0-1.353-.257-2.356-.77-3.01-.49-.676-1.377-1.015-2.66-1.015h-2.31c-1.284 0-2.182.339-2.695 1.015-.514.654-.77 1.657-.77 3.01v3.605c0 1.377.256 2.404.77 3.08.513.654 1.411.98 2.695.98h2.31c1.283 0 2.17-.326 2.66-.98.513-.676.77-1.703.77-3.08v-3.605Zm21.684 4.97-5.705-1.12c-2.1-.42-3.71-1.155-4.83-2.205-1.096-1.05-1.645-2.45-1.645-4.2 0-.816.152-1.598.455-2.345.327-.746.817-1.4 1.47-1.96.677-.56 1.529-1.003 2.555-1.33 1.05-.326 2.287-.49 3.71-.49h10.43v5.075h-10.955c-.7 0-1.166.105-1.4.315-.233.21-.35.444-.35.7 0 .28.105.525.315.735.21.21.572.362 1.085.455l5.18 1.015c2.567.514 4.399 1.284 5.495 2.31 1.12 1.004 1.68 2.345 1.68 4.025 0 1.89-.723 3.43-2.17 4.62-1.423 1.167-3.593 1.75-6.51 1.75h-10.29v-5.075h11.41c.747 0 1.225-.105 1.435-.315.234-.21.35-.478.35-.805 0-.35-.163-.606-.49-.77-.303-.163-.711-.291-1.225-.385Zm41.614-18.9v26.25h-14.91c-2.59 0-4.62-.863-6.09-2.59-1.47-1.726-2.205-4.013-2.205-6.86v-2.1c0-2.846.735-5.133 2.205-6.86 1.47-1.726 3.5-2.59 6.09-2.59h8.26v-5.25h6.65Zm-12.635 21.07h5.985v-10.64h-5.985c-1.424 0-2.404.327-2.94.98-.537.654-.805 1.669-.805 3.045v2.765c0 1.377.268 2.369.805 2.975.536.584 1.516.875 2.94.875Zm37.723-3.36h-15.015v.14c0 1.33.292 2.217.875 2.66.584.444 1.587.665 3.01.665h10.64v5.075h-10.255c-2.053 0-3.791-.221-5.215-.665-1.4-.466-2.531-1.108-3.395-1.925a7.697 7.697 0 0 1-1.855-3.01c-.373-1.166-.56-2.45-.56-3.85v-2.66c0-2.776.805-4.993 2.415-6.65 1.61-1.68 4.247-2.52 7.91-2.52h1.4c1.96 0 3.594.234 4.9.7 1.307.467 2.334 1.132 3.08 1.995.77.84 1.307 1.855 1.61 3.045.304 1.19.455 2.509.455 3.955v3.045Zm-9.275-8.05h-2.73c-1.12 0-1.901.245-2.345.735-.443.49-.665 1.307-.665 2.45v.455h8.715v-.455c0-1.143-.233-1.96-.7-2.45-.443-.49-1.201-.735-2.275-.735ZM16.167 121.518c-1.377 0-2.392.315-3.045.945-.63.607-.945 1.54-.945 2.8v3.605c0 1.4.315 2.334.945 2.8.653.467 1.668.7 3.045.7h7.875v5.075h-8.085c-3.757 0-6.464-.816-8.12-2.45-1.657-1.633-2.485-3.885-2.485-6.755v-2.555c0-2.87.828-5.121 2.485-6.755 1.656-1.656 4.363-2.485 8.12-2.485h8.085v5.075h-7.875Zm33.094 4.165v2.52c0 2.917-.886 5.25-2.66 7-1.75 1.727-4.258 2.59-7.525 2.59h-2.45c-3.266 0-5.786-.863-7.56-2.59-1.773-1.75-2.66-4.083-2.66-7v-2.52c0-2.916.887-5.238 2.66-6.965 1.774-1.75 4.294-2.625 7.56-2.625h2.45c3.267 0 5.775.875 7.525 2.625 1.774 1.727 2.66 4.049 2.66 6.965Zm-6.825-.56c0-1.353-.256-2.356-.77-3.01-.49-.676-1.376-1.015-2.66-1.015h-2.31c-1.283 0-2.181.339-2.695 1.015-.513.654-.77 1.657-.77 3.01v3.605c0 1.377.257 2.404.77 3.08.514.654 1.412.98 2.695.98h2.31c1.284 0 2.17-.326 2.66-.98.514-.676.77-1.703.77-3.08v-3.605Zm10.135 12.32v-21h24.92c3.197 0 5.507.77 6.93 2.31s2.135 3.629 2.135 6.265v12.425h-6.65v-12.6c0-1.073-.187-1.831-.56-2.275-.35-.466-1.038-.7-2.065-.7h-4.41v15.575h-6.65v-15.575h-7v15.575h-6.65Zm53.161-5.425v-15.575h6.65v21h-13.02c-3.056 0-5.273-.77-6.65-2.31-1.377-1.54-2.065-3.628-2.065-6.265v-12.425h6.65v12.6c0 1.074.175 1.844.525 2.31.373.444 1.073.665 2.1.665h5.81Zm10.721 5.425v-21h13.02c3.057 0 5.273.77 6.65 2.31 1.377 1.54 2.065 3.629 2.065 6.265v12.425h-6.65v-12.6c0-1.073-.187-1.831-.56-2.275-.35-.466-1.038-.7-2.065-.7h-5.81v15.575h-6.65Zm32.876-22.82h-6.65v-4.13h6.65v4.13Zm-6.65 22.82v-21h6.65v21h-6.65Zm21.212-15.925c-1.376 0-2.391.315-3.045.945-.63.607-.945 1.54-.945 2.8v3.605c0 1.4.315 2.334.945 2.8.654.467 1.669.7 3.045.7h6.825v5.075h-7.035c-3.756 0-6.463-.816-8.12-2.45-1.656-1.633-2.485-3.885-2.485-6.755v-2.555c0-2.87.829-5.121 2.485-6.755 1.657-1.656 4.364-2.485 8.12-2.485h15.085v5.075h-14.875Zm30.514 4.55v11.375H180.02c-2.1 0-3.71-.455-4.83-1.365-1.12-.91-1.68-2.1-1.68-3.57 0-1.61.548-2.893 1.645-3.85 1.097-.98 2.415-1.995 3.955-3.045l5.95-4.095H174v-5.075h9.205c4.013 0 6.883.852 8.61 2.555 1.727 1.68 2.59 4.037 2.59 7.07Zm-12.495 6.3h6.195v-6.965l-6.335 4.935a9.286 9.286 0 0 0-.84.7.702.702 0 0 0-.245.56c0 .257.093.455.28.595.187.117.502.175.945.175Zm26.62-10.85c-1.377 0-2.392.315-3.045.945-.63.607-.945 1.54-.945 2.8v3.605c0 1.4.315 2.334.945 2.8.653.467 1.668.7 3.045.7h7.875v5.075h-8.085c-3.757 0-6.463-.816-8.12-2.45-1.657-1.633-2.485-3.885-2.485-6.755v-2.555c0-2.87.828-5.121 2.485-6.755 1.657-1.656 4.363-2.485 8.12-2.485h8.085v5.075h-7.875Zm18.728-6.895h-6.65v-4.13h6.65v4.13Zm-6.65 22.82v-21h6.65v21h-6.65Zm33.253-11.76v2.52c0 2.917-.887 5.25-2.66 7-1.75 1.727-4.258 2.59-7.525 2.59h-2.45c-3.267 0-5.787-.863-7.56-2.59-1.773-1.75-2.66-4.083-2.66-7v-2.52c0-2.916.887-5.238 2.66-6.965 1.773-1.75 4.293-2.625 7.56-2.625h2.45c3.267 0 5.775.875 7.525 2.625 1.773 1.727 2.66 4.049 2.66 6.965Zm-6.825-.56c0-1.353-.257-2.356-.77-3.01-.49-.676-1.377-1.015-2.66-1.015h-2.31c-1.283 0-2.182.339-2.695 1.015-.513.654-.77 1.657-.77 3.01v3.605c0 1.377.257 2.404.77 3.08.513.654 1.412.98 2.695.98h2.31c1.283 0 2.17-.326 2.66-.98.513-.676.77-1.703.77-3.08v-3.605Zm-7.105-11.2 2.275-6.58h5.425l-2.45 6.58h-5.25Zm17.24 23.52v-21h13.02c3.056 0 5.273.77 6.65 2.31 1.376 1.54 2.065 3.629 2.065 6.265v12.425h-6.65v-12.6c0-1.073-.187-1.831-.56-2.275-.35-.466-1.039-.7-2.065-.7h-5.81v15.575h-6.65Z"/>
</svg>
