<svg xmlns="http://www.w3.org/2000/svg" width="614" height="174" fill="none" viewBox="0 0 614 174">
  <path fill="#B4BEF3" d="m338.226 69.58.581.814.009-.007.009-.007-.599-.8Zm25.62-19.18.599.8 2.405-1.8h-3.004v1Zm-49.14 0h-1v1h1v-1Zm0-22.4v-1h-1v1h1Zm88.06 0h1v-1h-1v1Zm0 18.2.587.81.413-.3v-.51h-1Zm-36.12 26.18-.587-.81-2.497 1.81h3.084v-1Zm17.92 1.96-.28.96.009.003.009.002.262-.965Zm10.78 5.04-.622.784.009.006.008.007.605-.797Zm5.74 7.28-.929.371.006.014.005.013.918-.398Zm-8.4 39.62.549.836-.549-.836Zm-75.88 6.72h-1v1h1v-1Zm0-22.4v-1h-1v1h1Zm55.86-1.54.618.786.006-.005-.624-.781Zm-.14-16.38-.592.806.03.022.032.02.53-.848Zm-40.04-4.34-.707.707.707-.707Zm-.56-13.3-.745-.667-.003.003.748.664Zm6.3-5.46.599.8 25.62-19.18-.599-.8-.6-.8-25.62 19.18.6.8Zm25.62-19.18v-1h-49.14v2h49.14v-1Zm-49.14 0h1V28h-2v22.4h1Zm0-22.4v1h88.06v-2h-88.06v1Zm88.06 0h-1v18.2h2V28h-1Zm0 18.2-.587-.81-36.12 26.18.587.81.587.81 36.12-26.18-.587-.81Zm-36.12 26.18v1h1.26v-2h-1.26v1Zm1.26 0v1c6.568 0 12.02.648 16.38 1.92l.28-.96.28-.96c-4.6-1.342-10.255-2-16.94-2v1Zm16.66 1.96-.262.965c4.392 1.19 7.85 2.82 10.42 4.858l.622-.783.621-.783c-2.843-2.255-6.571-3.985-11.14-5.222l-.261.965Zm10.78 5.04-.605.797c2.581 1.957 4.372 4.243 5.416 6.854l.929-.371.928-.371c-1.195-2.99-3.231-5.557-6.064-7.706l-.604.797Zm5.74 7.28-.918.398a20.941 20.941 0 0 1 1.738 8.422h2c0-3.216-.634-6.29-1.903-9.218l-.917.398Zm1.82 8.82h-1v10.22h2V95.48h-1Zm0 10.22h-1c0 8.956-3.279 15.477-9.77 19.744l.55.836.549.836c7.136-4.693 10.671-11.892 10.671-21.416h-1Zm-10.22 20.58-.55-.836c-6.577 4.325-16.381 6.556-29.55 6.556v2c13.338 0 23.6-2.249 30.649-6.884l-.549-.836Zm-30.1 6.72v-1h-45.78v2h45.78v-1Zm-45.78 0h1v-22.4h-2V133h1Zm0-22.4v1h49.42v-2h-49.42v1Zm49.42 0v1c3.052 0 5.481-.515 7.058-1.754l-.618-.786-.618-.786c-1.037.815-2.902 1.326-5.822 1.326v1Zm6.44-1.54.624.781c1.769-1.415 2.476-3.967 2.476-7.221h-2c0 3.093-.694 4.834-1.725 5.659l.625.781Zm2.1-6.44h1v-3.78h-2v3.78h1Zm0-3.78h1c0-3.245-.751-5.783-2.71-7.008l-.53.848-.53.848c1.027.642 1.77 2.21 1.77 5.312h1Zm-2.24-6.16.591-.806c-1.638-1.202-3.887-1.734-6.611-1.734v2c2.502 0 4.267.495 5.428 1.346l.592-.806Zm-6.02-1.54v-1h-25.9v2h25.9v-1Zm-25.9 0v-1c-3.376 0-5.791-.885-7.413-2.507l-.707.707-.707.707c2.111 2.112 5.109 3.093 8.827 3.093v-1Zm-8.12-2.8.707-.707c-1.66-1.66-2.507-3.777-2.507-6.433h-2c0 3.13 1.02 5.774 3.093 7.847l.707-.707Zm-2.8-7.14h1c0-2.203.67-4.014 1.987-5.496l-.747-.664-.748-.664c-1.669 1.878-2.492 4.174-2.492 6.824h1Zm2.24-6.16.745.667c1.524-1.703 3.563-3.476 6.136-5.313l-.581-.814-.581-.814c-2.654 1.896-4.815 3.764-6.464 5.607l.745.667Z"/>
  <path fill="#B5B7EB" fill-opacity=".9" d="M6.332 108.132v-26.25h21.91v5.775H13.157v4.55h15.085v5.6H13.157v4.55h15.085v5.775H6.332Zm37.486-7.35-5.705-1.12c-2.1-.42-3.71-1.155-4.83-2.205-1.096-1.05-1.645-2.45-1.645-4.2 0-.817.152-1.599.455-2.345.327-.747.817-1.4 1.47-1.96.677-.56 1.529-1.004 2.555-1.33 1.05-.327 2.287-.49 3.71-.49h17.43v5.075H39.303c-.7 0-1.166.105-1.4.315-.233.21-.35.443-.35.7 0 .28.105.525.315.735.21.21.572.362 1.085.455l5.18 1.015c2.567.513 4.399 1.283 5.495 2.31 1.12 1.003 1.68 2.345 1.68 4.025 0 1.89-.723 3.43-2.17 4.62-1.423 1.167-3.593 1.75-6.51 1.75h-10.29v-5.075h11.235c.747 0 1.26-.105 1.54-.315.28-.21.42-.478.42-.805 0-.35-.163-.607-.49-.77-.303-.163-.711-.292-1.225-.385Zm8.004-8.575v-5.075h3.395v-4.27h6.125v4.27h11.375v5.075H61.342v8.505c0 .887.187 1.505.56 1.855.373.327.98.49 1.82.49h3.395v5.075h-4.165c-2.893 0-4.97-.607-6.23-1.82-1.237-1.237-1.855-3.103-1.855-5.6v-8.505h-3.045Zm26.31-6.895h-6.65v-4.13h6.65v4.13Zm-6.65 22.82v-21h6.65v21h-6.65Zm11.553-26.25h6.65v26.25h-6.65v-26.25Zm33.253 14.49v2.52c0 2.917-.887 5.25-2.66 7-1.75 1.727-4.259 2.59-7.525 2.59h-2.45c-3.267 0-5.787-.863-7.56-2.59-1.774-1.75-2.66-4.083-2.66-7v-2.52c0-2.917.886-5.239 2.66-6.965 1.773-1.75 4.293-2.625 7.56-2.625h2.45c3.266 0 5.775.875 7.525 2.625 1.773 1.727 2.66 4.048 2.66 6.965Zm-6.825-.56c0-1.353-.257-2.357-.77-3.01-.49-.677-1.377-1.015-2.66-1.015h-2.31c-1.284 0-2.182.338-2.695 1.015-.514.653-.77 1.656-.77 3.01v3.605c0 1.377.256 2.403.77 3.08.513.653 1.411.98 2.695.98h2.31c1.283 0 2.17-.327 2.66-.98.513-.677.77-1.703.77-3.08v-3.605Zm21.684 4.97-5.705-1.12c-2.1-.42-3.71-1.155-4.83-2.205-1.096-1.05-1.645-2.45-1.645-4.2 0-.817.152-1.599.455-2.345.327-.747.817-1.4 1.47-1.96.677-.56 1.529-1.004 2.555-1.33 1.05-.327 2.287-.49 3.71-.49h10.43v5.075h-10.955c-.7 0-1.166.105-1.4.315-.233.21-.35.443-.35.7 0 .28.105.525.315.735.21.21.572.362 1.085.455l5.18 1.015c2.567.513 4.399 1.283 5.495 2.31 1.12 1.003 1.68 2.345 1.68 4.025 0 1.89-.723 3.43-2.17 4.62-1.423 1.167-3.593 1.75-6.51 1.75h-10.29v-5.075h11.41c.747 0 1.225-.105 1.435-.315.234-.21.35-.478.35-.805 0-.35-.163-.607-.49-.77-.303-.163-.711-.292-1.225-.385Zm41.614-18.9v26.25h-14.91c-2.59 0-4.62-.863-6.09-2.59-1.47-1.727-2.205-4.013-2.205-6.86v-2.1c0-2.847.735-5.133 2.205-6.86 1.47-1.727 3.5-2.59 6.09-2.59h8.26v-5.25h6.65Zm-12.635 21.07h5.985v-10.64h-5.985c-1.424 0-2.404.326-2.94.98-.537.653-.805 1.668-.805 3.045v2.765c0 1.377.268 2.368.805 2.975.536.583 1.516.875 2.94.875Zm37.723-3.36h-15.015v.14c0 1.33.292 2.217.875 2.66.584.443 1.587.665 3.01.665h10.64v5.075h-10.255c-2.053 0-3.791-.222-5.215-.665-1.4-.467-2.531-1.108-3.395-1.925a7.697 7.697 0 0 1-1.855-3.01c-.373-1.167-.56-2.45-.56-3.85v-2.66c0-2.777.805-4.994 2.415-6.65 1.61-1.68 4.247-2.52 7.91-2.52h1.4c1.96 0 3.594.233 4.9.7 1.307.466 2.334 1.131 3.08 1.995.77.84 1.307 1.855 1.61 3.045.304 1.19.455 2.508.455 3.955v3.045Zm-9.275-8.05h-2.73c-1.12 0-1.901.245-2.345.735-.443.49-.665 1.306-.665 2.45v.455h8.715v-.455c0-1.144-.233-1.96-.7-2.45-.443-.49-1.201-.735-2.275-.735ZM16.167 121.207c-1.377 0-2.392.315-3.045.945-.63.607-.945 1.54-.945 2.8v3.605c0 1.4.315 2.333.945 2.8.653.467 1.668.7 3.045.7h7.875v5.075h-8.085c-3.757 0-6.464-.817-8.12-2.45-1.657-1.633-2.485-3.885-2.485-6.755v-2.555c0-2.87.828-5.122 2.485-6.755 1.656-1.657 4.363-2.485 8.12-2.485h8.085v5.075h-7.875Zm33.094 4.165v2.52c0 2.917-.886 5.25-2.66 7-1.75 1.727-4.258 2.59-7.525 2.59h-2.45c-3.266 0-5.786-.863-7.56-2.59-1.773-1.75-2.66-4.083-2.66-7v-2.52c0-2.917.887-5.238 2.66-6.965 1.774-1.75 4.294-2.625 7.56-2.625h2.45c3.267 0 5.775.875 7.525 2.625 1.774 1.727 2.66 4.048 2.66 6.965Zm-6.825-.56c0-1.353-.256-2.357-.77-3.01-.49-.677-1.376-1.015-2.66-1.015h-2.31c-1.283 0-2.181.338-2.695 1.015-.513.653-.77 1.657-.77 3.01v3.605c0 1.377.257 2.403.77 3.08.514.653 1.412.98 2.695.98h2.31c1.284 0 2.17-.327 2.66-.98.514-.677.77-1.703.77-3.08v-3.605Zm10.135 12.32v-21h24.92c3.197 0 5.507.77 6.93 2.31s2.135 3.628 2.135 6.265v12.425h-6.65v-12.6c0-1.073-.187-1.832-.56-2.275-.35-.467-1.038-.7-2.065-.7h-4.41v15.575h-6.65v-15.575h-7v15.575h-6.65Zm53.161-5.425v-15.575h6.65v21h-13.02c-3.056 0-5.273-.77-6.65-2.31-1.377-1.54-2.065-3.628-2.065-6.265v-12.425h6.65v12.6c0 1.073.175 1.843.525 2.31.373.443 1.073.665 2.1.665h5.81Zm10.721 5.425v-21h13.02c3.057 0 5.273.77 6.65 2.31 1.377 1.54 2.065 3.628 2.065 6.265v12.425h-6.65v-12.6c0-1.073-.187-1.832-.56-2.275-.35-.467-1.038-.7-2.065-.7h-5.81v15.575h-6.65Zm32.876-22.82h-6.65v-4.13h6.65v4.13Zm-6.65 22.82v-21h6.65v21h-6.65Zm21.212-15.925c-1.376 0-2.391.315-3.045.945-.63.607-.945 1.54-.945 2.8v3.605c0 1.4.315 2.333.945 2.8.654.467 1.669.7 3.045.7h6.825v5.075h-7.035c-3.756 0-6.463-.817-8.12-2.45-1.656-1.633-2.485-3.885-2.485-6.755v-2.555c0-2.87.829-5.122 2.485-6.755 1.657-1.657 4.364-2.485 8.12-2.485h15.085v5.075h-14.875Zm30.514 4.55v11.375H180.02c-2.1 0-3.71-.455-4.83-1.365-1.12-.91-1.68-2.1-1.68-3.57 0-1.61.548-2.893 1.645-3.85 1.097-.98 2.415-1.995 3.955-3.045l5.95-4.095H174v-5.075h9.205c4.013 0 6.883.852 8.61 2.555 1.727 1.68 2.59 4.037 2.59 7.07Zm-12.495 6.3h6.195v-6.965l-6.335 4.935a9.119 9.119 0 0 0-.84.7.702.702 0 0 0-.245.56c0 .257.093.455.28.595.187.117.502.175.945.175Zm26.62-10.85c-1.377 0-2.392.315-3.045.945-.63.607-.945 1.54-.945 2.8v3.605c0 1.4.315 2.333.945 2.8.653.467 1.668.7 3.045.7h7.875v5.075h-8.085c-3.757 0-6.463-.817-8.12-2.45-1.657-1.633-2.485-3.885-2.485-6.755v-2.555c0-2.87.828-5.122 2.485-6.755 1.657-1.657 4.363-2.485 8.12-2.485h8.085v5.075h-7.875Zm18.728-6.895h-6.65v-4.13h6.65v4.13Zm-6.65 22.82v-21h6.65v21h-6.65Zm33.253-11.76v2.52c0 2.917-.887 5.25-2.66 7-1.75 1.727-4.258 2.59-7.525 2.59h-2.45c-3.267 0-5.787-.863-7.56-2.59-1.773-1.75-2.66-4.083-2.66-7v-2.52c0-2.917.887-5.238 2.66-6.965 1.773-1.75 4.293-2.625 7.56-2.625h2.45c3.267 0 5.775.875 7.525 2.625 1.773 1.727 2.66 4.048 2.66 6.965Zm-6.825-.56c0-1.353-.257-2.357-.77-3.01-.49-.677-1.377-1.015-2.66-1.015h-2.31c-1.283 0-2.182.338-2.695 1.015-.513.653-.77 1.657-.77 3.01v3.605c0 1.377.257 2.403.77 3.08.513.653 1.412.98 2.695.98h2.31c1.283 0 2.17-.327 2.66-.98.513-.677.77-1.703.77-3.08v-3.605Zm-7.105-11.2 2.275-6.58h5.425l-2.45 6.58h-5.25Zm17.24 23.52v-21h13.02c3.056 0 5.273.77 6.65 2.31 1.376 1.54 2.065 3.628 2.065 6.265v12.425h-6.65v-12.6c0-1.073-.187-1.832-.56-2.275-.35-.467-1.039-.7-2.065-.7h-5.81v15.575h-6.65Z"/>
  <path fill="#D0D5F0" fill-opacity=".83" d="m1.6 72 1.88-21.44c.267-3.2 1.133-5.507 2.6-6.92 1.493-1.413 3.373-2.12 5.64-2.12 2.427 0 4.347.747 5.76 2.24 1.44 1.467 2.36 3.48 2.76 6.04l2.36 14.92c.053.32.133.56.24.72.133.16.333.24.6.24.267 0 .467-.093.6-.28.133-.187.213-.44.24-.76l2.28-14.88c.373-2.533 1.267-4.533 2.68-6 1.44-1.493 3.36-2.24 5.76-2.24 2.533 0 4.413.72 5.64 2.16 1.253 1.413 2.013 3.707 2.28 6.88L44.8 72h-7.72l-1.6-22.6a2.319 2.319 0 0 0-.16-.68c-.053-.187-.213-.28-.48-.28a.612.612 0 0 0-.52.28c-.133.16-.213.36-.24.6L31.4 65.36c-.347 2.133-1.213 3.853-2.6 5.16-1.36 1.307-3.16 1.96-5.4 1.96-2.32 0-4.173-.667-5.56-2-1.387-1.36-2.253-3.08-2.6-5.16l-2.8-15.96c-.053-.293-.147-.52-.28-.68a.645.645 0 0 0-.52-.24c-.267 0-.453.093-.56.28a2.42 2.42 0 0 0-.16.72L9.32 72H1.6Zm72.016-13.44v2.88c0 3.333-1.014 6-3.04 8-2 1.973-4.867 2.96-8.6 2.96h-2.8c-3.734 0-6.614-.987-8.64-2.96-2.027-2-3.04-4.667-3.04-8v-2.88c0-3.333 1.013-5.987 3.04-7.96 2.026-2 4.906-3 8.64-3h2.8c3.733 0 6.6 1 8.6 3 2.026 1.973 3.04 4.627 3.04 7.96Zm-7.8-.64c0-1.547-.294-2.693-.88-3.44-.56-.773-1.574-1.16-3.04-1.16h-2.64c-1.467 0-2.494.387-3.08 1.16-.587.747-.88 1.893-.88 3.44v4.12c0 1.573.293 2.747.88 3.52.586.747 1.613 1.12 3.08 1.12h2.64c1.466 0 2.48-.373 3.04-1.12.586-.773.88-1.947.88-3.52v-4.12Zm-8.12-12.8 2.6-7.52h6.2l-2.8 7.52h-6ZM103.078 42v30h-17.04c-2.96 0-5.28-.987-6.96-2.96-1.68-1.973-2.52-4.587-2.52-7.84v-2.4c0-3.253.84-5.867 2.52-7.84 1.68-1.973 4-2.96 6.96-2.96h9.44v-6h7.6Zm-14.44 24.08h6.84V53.92h-6.84c-1.627 0-2.747.373-3.36 1.12-.613.747-.92 1.907-.92 3.48v3.16c0 1.573.307 2.707.92 3.4.613.667 1.733 1 3.36 1Zm36.313-.28V48h7.6v24h-14.88c-3.494 0-6.027-.88-7.6-2.64-1.574-1.76-2.36-4.147-2.36-7.16V48h7.6v14.4c0 1.227.2 2.107.6 2.64.426.507 1.226.76 2.4.76h6.64ZM137.683 42h7.6v30h-7.6V42Zm38.003 16.56v2.88c0 3.333-1.013 6-3.04 8-2 1.973-4.867 2.96-8.6 2.96h-2.8c-3.733 0-6.613-.987-8.64-2.96-2.027-2-3.04-4.667-3.04-8v-2.88c0-3.333 1.013-5.987 3.04-7.96 2.027-2 4.907-3 8.64-3h2.8c3.733 0 6.6 1 8.6 3 2.027 1.973 3.04 4.627 3.04 7.96Zm-7.8-.64c0-1.547-.293-2.693-.88-3.44-.56-.773-1.573-1.16-3.04-1.16h-2.64c-1.467 0-2.493.387-3.08 1.16-.587.747-.88 1.893-.88 3.44v4.12c0 1.573.293 2.747.88 3.52.587.747 1.613 1.12 3.08 1.12h2.64c1.467 0 2.48-.373 3.04-1.12.587-.773.88-1.947.88-3.52v-4.12Z"/>
</svg>
