<svg xmlns="http://www.w3.org/2000/svg" width="981" height="298" fill="none" viewBox="0 0 981 298">
  <path fill="#fff" d="M80.368 225.86c-4.248 0-7.38.972-9.396 2.916-1.944 1.872-2.916 4.752-2.916 8.64v11.124c0 4.32.972 7.2 2.916 8.64 2.016 1.44 5.148 2.16 9.396 2.16h24.3V275H79.72c-11.592 0-19.944-2.52-25.056-7.56-5.112-5.04-7.668-11.988-7.668-20.844v-7.884c0-8.856 2.556-15.804 7.668-20.844 5.112-5.112 13.464-7.668 25.056-7.668h24.948v15.66h-24.3Zm102.121 12.852v7.776c0 9-2.736 16.2-8.208 21.6-5.4 5.328-13.14 7.992-23.22 7.992h-7.56c-10.08 0-17.856-2.664-23.328-7.992-5.472-5.4-8.208-12.6-8.208-21.6v-7.776c0-9 2.736-16.164 8.208-21.492 5.472-5.4 13.248-8.1 23.328-8.1h7.56c10.08 0 17.82 2.7 23.22 8.1 5.472 5.328 8.208 12.492 8.208 21.492Zm-21.06-1.728c0-4.176-.792-7.272-2.376-9.288-1.512-2.088-4.248-3.132-8.208-3.132h-7.128c-3.96 0-6.732 1.044-8.316 3.132-1.584 2.016-2.376 5.112-2.376 9.288v11.124c0 4.248.792 7.416 2.376 9.504 1.584 2.016 4.356 3.024 8.316 3.024h7.128c3.96 0 6.696-1.008 8.208-3.024 1.584-2.088 2.376-5.256 2.376-9.504v-11.124ZM192.702 275v-64.8h76.896c9.864 0 16.992 2.376 21.384 7.128 4.392 4.752 6.588 11.196 6.588 19.332V275h-20.52v-38.88c0-3.312-.576-5.652-1.728-7.02-1.08-1.44-3.204-2.16-6.372-2.16h-13.608V275h-20.52v-48.06h-21.6V275h-20.52Zm164.04-16.74V210.2h20.52V275h-40.176c-9.432 0-16.272-2.376-20.52-7.128-4.248-4.752-6.372-11.196-6.372-19.332V210.2h20.52v38.88c0 3.312.54 5.688 1.62 7.128 1.152 1.368 3.312 2.052 6.48 2.052h17.928ZM389.823 275v-64.8h40.176c9.432 0 16.272 2.376 20.52 7.128 4.248 4.752 6.372 11.196 6.372 19.332V275h-20.52v-38.88c0-3.312-.576-5.652-1.728-7.02-1.08-1.44-3.204-2.16-6.372-2.16h-17.928V275h-20.52Zm101.445-70.416h-20.521V191.84h20.521v12.744ZM470.747 275v-64.8h20.521V275h-20.521Zm65.457-49.14c-4.248 0-7.38.972-9.396 2.916-1.944 1.872-2.916 4.752-2.916 8.64v11.124c0 4.32.972 7.2 2.916 8.64 2.016 1.44 5.148 2.16 9.396 2.16h21.06V275h-21.708c-11.592 0-19.944-2.52-25.056-7.56-5.112-5.04-7.668-11.988-7.668-20.844v-7.884c0-8.856 2.556-15.804 7.668-20.844 5.112-5.112 13.464-7.668 25.056-7.668h46.548v15.66h-45.9Zm94.157 14.04V275h-44.388c-6.48 0-11.448-1.404-14.904-4.212-3.456-2.808-5.184-6.48-5.184-11.016 0-4.968 1.692-8.928 5.076-11.88 3.384-3.024 7.452-6.156 12.204-9.396l18.36-12.636h-34.128V210.2h28.404c12.384 0 21.24 2.628 26.568 7.884 5.328 5.184 7.992 12.456 7.992 21.816Zm-38.556 19.44h19.116v-21.492l-19.548 15.228c-1.224.936-2.088 1.656-2.592 2.16-.504.432-.756 1.008-.756 1.728 0 .792.288 1.404.864 1.836.576.36 1.548.54 2.916.54Zm82.141-33.48c-4.248 0-7.38.972-9.396 2.916-1.944 1.872-2.916 4.752-2.916 8.64v11.124c0 4.32.972 7.2 2.916 8.64 2.016 1.44 5.148 2.16 9.396 2.16h24.3V275h-24.948c-11.592 0-19.944-2.52-25.056-7.56-5.112-5.04-7.668-11.988-7.668-20.844v-7.884c0-8.856 2.556-15.804 7.668-20.844 5.112-5.112 13.464-7.668 25.056-7.668h24.948v15.66h-24.3Zm57.79-21.276h-20.52V191.84h20.52v12.744ZM711.216 275v-64.8h20.52V275h-20.52Zm102.609-36.288v7.776c0 9-2.736 16.2-8.208 21.6-5.4 5.328-13.14 7.992-23.22 7.992h-7.56c-10.08 0-17.856-2.664-23.328-7.992-5.472-5.4-8.208-12.6-8.208-21.6v-7.776c0-9 2.736-16.164 8.208-21.492 5.472-5.4 13.248-8.1 23.328-8.1h7.56c10.08 0 17.82 2.7 23.22 8.1 5.472 5.328 8.208 12.492 8.208 21.492Zm-21.06-1.728c0-4.176-.792-7.272-2.376-9.288-1.512-2.088-4.248-3.132-8.208-3.132h-7.128c-3.96 0-6.732 1.044-8.316 3.132-1.584 2.016-2.376 5.112-2.376 9.288v11.124c0 4.248.792 7.416 2.376 9.504 1.584 2.016 4.356 3.024 8.316 3.024h7.128c3.96 0 6.696-1.008 8.208-3.024 1.584-2.088 2.376-5.256 2.376-9.504v-11.124Zm-21.924-34.56 7.02-20.304h16.74l-7.56 20.304h-16.2ZM824.037 275v-64.8h40.176c9.432 0 16.272 2.376 20.52 7.128 4.248 4.752 6.372 11.196 6.372 19.332V275h-20.52v-38.88c0-3.312-.576-5.652-1.728-7.02-1.08-1.44-3.204-2.16-6.372-2.16h-17.928V275h-20.52ZM45.76 66l3.243-36.984c.46-5.52 1.955-9.499 4.485-11.937 2.576-2.438 5.819-3.657 9.729-3.657 4.186 0 7.498 1.288 9.936 3.864 2.484 2.53 4.071 6.003 4.761 10.419l4.071 25.737c.092.552.23.966.414 1.242.23.276.575.414 1.035.414.46 0 .805-.161 1.035-.483.23-.322.368-.759.414-1.311l3.933-25.668c.644-4.37 2.185-7.82 4.623-10.35 2.484-2.576 5.796-3.864 9.936-3.864 4.37 0 7.613 1.242 9.729 3.726 2.162 2.438 3.473 6.394 3.933 11.868L120.28 66h-13.317l-2.76-38.985a3.998 3.998 0 0 0-.276-1.173c-.092-.322-.368-.483-.828-.483-.368 0-.667.161-.897.483-.23.276-.368.621-.414 1.035l-4.623 27.669c-.598 3.68-2.093 6.647-4.485 8.901-2.346 2.254-5.451 3.381-9.315 3.381-4.002 0-7.199-1.15-9.591-3.45-2.392-2.346-3.887-5.313-4.485-8.901l-4.83-27.531c-.092-.506-.253-.897-.483-1.173a1.113 1.113 0 0 0-.897-.414c-.46 0-.782.161-.966.483-.138.322-.23.736-.276 1.242L59.077 66H45.76Zm95.231-44.988h-13.11V12.87h13.11v8.142ZM127.881 66V24.6h13.11V66h-13.11Zm88.686 0h-15.456L187.38 50.199c-1.15-1.334-1.955-2.645-2.415-3.933-.46-1.288-.69-2.438-.69-3.45 0-2.254.69-3.956 2.07-5.106 1.38-1.196 3.243-1.794 5.589-1.794h6.831c1.518 0 2.645-.414 3.381-1.242.736-.874 1.104-1.955 1.104-3.243v-2.277c0-1.38-.368-2.438-1.104-3.174-.69-.736-1.863-1.104-3.519-1.104h-17.94V66h-13.8V14.25h30.36c6.67 0 11.592 1.104 14.766 3.312 3.174 2.208 4.761 5.773 4.761 10.695v2.967c0 2.162-.437 4.094-1.311 5.796a12.955 12.955 0 0 1-3.519 4.209c-1.426 1.15-3.128 2.047-5.106 2.691-1.932.598-3.979.897-6.141.897h-1.656L216.567 66Zm35.302-10.695V24.6h13.11V66h-25.668c-6.026 0-10.396-1.518-13.11-4.554-2.714-3.036-4.071-7.153-4.071-12.351V24.6h13.11v24.84c0 2.116.345 3.634 1.035 4.554.736.874 2.116 1.311 4.14 1.311h11.454Zm18.513-20.7V24.6h6.693v-8.418h12.075V24.6h22.425v10.005H289.15v16.767c0 1.748.368 2.967 1.104 3.657.736.644 1.932.966 3.588.966h6.693V66h-8.211c-5.704 0-9.798-1.196-12.282-3.588-2.438-2.438-3.657-6.118-3.657-11.04V34.605h-6.003Zm77.192 8.97V66h-28.359c-4.14 0-7.314-.897-9.522-2.691-2.208-1.794-3.312-4.14-3.312-7.038 0-3.174 1.081-5.704 3.243-7.59 2.162-1.932 4.761-3.933 7.797-6.003l11.73-8.073h-21.804V24.6h18.147c7.912 0 13.57 1.679 16.974 5.037 3.404 3.312 5.106 7.958 5.106 13.938Zm-24.633 12.42h12.213V42.264l-12.489 9.729c-.782.598-1.334 1.058-1.656 1.38-.322.276-.483.644-.483 1.104 0 .506.184.897.552 1.173.368.23.989.345 1.863.345Z"/>
  <g filter="url(#a)">
    <mask id="b" fill="#fff">
      <path d="M50.8 172V82h75.12v19.8H74.2v15.6h51.72v19.2H74.2v15.6h51.72V172H50.8Zm126.126-25.2-19.56-3.84c-7.2-1.44-12.72-3.96-16.56-7.56-3.76-3.6-5.64-8.4-5.64-14.4 0-2.8.52-5.48 1.56-8.04 1.12-2.56 2.8-4.8 5.04-6.72 2.32-1.92 5.24-3.44 8.76-4.56 3.6-1.12 7.84-1.68 12.72-1.68h59.76v17.4h-61.56c-2.4 0-4 .36-4.8 1.08-.8.72-1.2 1.52-1.2 2.4 0 .96.36 1.8 1.08 2.52.72.72 1.96 1.24 3.72 1.56l17.76 3.48c8.8 1.76 15.08 4.4 18.84 7.92 3.84 3.44 5.76 8.04 5.76 13.8 0 6.48-2.48 11.76-7.44 15.84-4.88 4-12.32 6-22.32 6h-35.28v-17.4h38.52c2.56 0 4.32-.36 5.28-1.08.96-.72 1.44-1.64 1.44-2.76 0-1.2-.56-2.08-1.68-2.64-1.04-.56-2.44-1-4.2-1.32Zm47.841-29.4V100h11.64V85.36h21V100h39v17.4h-39v29.16c0 3.04.64 5.16 1.92 6.36 1.28 1.12 3.36 1.68 6.24 1.68h11.64V172h-14.28c-9.92 0-17.04-2.08-21.36-6.24-4.24-4.24-6.36-10.64-6.36-19.2V117.4h-10.44Zm102.206-23.64h-22.8V79.6h22.8v14.16Zm-22.8 78.24v-72h22.8v72h-22.8Zm37.21-90h22.8v90h-22.8V82Zm111.609 49.68v8.64c0 10-3.04 18-9.12 24-6 5.92-14.6 8.88-25.8 8.88h-8.4c-11.2 0-19.84-2.96-25.92-8.88-6.08-6-9.12-14-9.12-24v-8.64c0-10 3.04-17.96 9.12-23.88 6.08-6 14.72-9 25.92-9h8.4c11.2 0 19.8 3 25.8 9 6.08 5.92 9.12 13.88 9.12 23.88Zm-23.4-1.92c0-4.64-.88-8.08-2.64-10.32-1.68-2.32-4.72-3.48-9.12-3.48h-7.92c-4.4 0-7.48 1.16-9.24 3.48-1.76 2.24-2.64 5.68-2.64 10.32v12.36c0 4.72.88 8.24 2.64 10.56 1.76 2.24 4.84 3.36 9.24 3.36h7.92c4.4 0 7.44-1.12 9.12-3.36 1.76-2.32 2.64-5.84 2.64-10.56v-12.36Zm71.948 17.04-19.56-3.84c-7.2-1.44-12.72-3.96-16.56-7.56-3.76-3.6-5.64-8.4-5.64-14.4 0-2.8.52-5.48 1.56-8.04 1.12-2.56 2.8-4.8 5.04-6.72 2.32-1.92 5.24-3.44 8.76-4.56 3.6-1.12 7.84-1.68 12.72-1.68h35.76v17.4h-37.56c-2.4 0-4 .36-4.8 1.08-.8.72-1.2 1.52-1.2 2.4 0 .96.36 1.8 1.08 2.52.72.72 1.96 1.24 3.72 1.56l17.76 3.48c8.8 1.76 15.08 4.4 18.84 7.92 3.84 3.44 5.76 8.04 5.76 13.8 0 6.48-2.48 11.76-7.44 15.84-4.88 4-12.32 6-22.32 6h-35.28v-17.4h39.12c2.56 0 4.2-.36 4.92-1.08.8-.72 1.2-1.64 1.2-2.76 0-1.2-.56-2.08-1.68-2.64-1.04-.56-2.44-1-4.2-1.32ZM639.414 82v90h-51.12c-8.88 0-15.84-2.96-20.88-8.88-5.04-5.92-7.56-13.76-7.56-23.52v-7.2c0-9.76 2.52-17.6 7.56-23.52 5.04-5.92 12-8.88 20.88-8.88h28.32V82h22.8Zm-43.32 72.24h20.52v-36.48h-20.52c-4.88 0-8.24 1.12-10.08 3.36-1.84 2.24-2.76 5.72-2.76 10.44v9.48c0 4.72.92 8.12 2.76 10.2 1.84 2 5.2 3 10.08 3Zm126.938-11.52h-51.48v.48c0 4.56 1 7.6 3 9.12 2 1.52 5.44 2.28 10.32 2.28h36.48V172h-35.16c-7.04 0-13-.76-17.88-2.28-4.8-1.6-8.68-3.8-11.64-6.6-2.88-2.88-5-6.32-6.36-10.32-1.28-4-1.92-8.4-1.92-13.2v-9.12c0-9.52 2.76-17.12 8.28-22.8 5.52-5.76 14.56-8.64 27.12-8.64h4.8c6.72 0 12.32.8 16.8 2.4 4.48 1.6 8 3.88 10.56 6.84 2.64 2.88 4.48 6.36 5.52 10.44 1.04 4.08 1.56 8.6 1.56 13.56v10.44Zm-31.8-27.6h-9.36c-3.84 0-6.52.84-8.04 2.52-1.52 1.68-2.28 4.48-2.28 8.4v1.56h29.88v-1.56c0-3.92-.8-6.72-2.4-8.4-1.52-1.68-4.12-2.52-7.8-2.52Z"/>
    </mask>
    <path fill="#fff" d="M50.8 172h-2v2h2v-2Zm0-90v-2h-2v2h2Zm75.12 0h2v-2h-2v2Zm0 19.8v2h2v-2h-2Zm-51.72 0v-2h-2v2h2Zm0 15.6h-2v2h2v-2Zm51.72 0h2v-2h-2v2Zm0 19.2v2h2v-2h-2Zm-51.72 0v-2h-2v2h2Zm0 15.6h-2v2h2v-2Zm51.72 0h2v-2h-2v2Zm0 19.8v2h2v-2h-2Zm-75.12 0h2V82h-4v90h2Zm0-90v2h75.12v-4H50.8v2Zm75.12 0h-2v19.8h4V82h-2Zm0 19.8v-2H74.2v4h51.72v-2Zm-51.72 0h-2v15.6h4v-15.6h-2Zm0 15.6v2h51.72v-4H74.2v2Zm51.72 0h-2v19.2h4v-19.2h-2Zm0 19.2v-2H74.2v4h51.72v-2Zm-51.72 0h-2v15.6h4v-15.6h-2Zm0 15.6v2h51.72v-4H74.2v2Zm51.72 0h-2V172h4v-19.8h-2Zm0 19.8v-2H50.8v4h75.12v-2Zm51.006-25.2-.386 1.963.014.002.014.003.358-1.968Zm-19.56-3.84-.393 1.961.007.002.386-1.963Zm-16.56-7.56-1.384 1.445.008.007.008.007 1.368-1.459Zm-4.08-22.44-1.833-.802-.01.025-.01.024 1.853.753Zm5.04-6.72-1.276-1.541-.013.011-.013.011 1.302 1.519Zm8.76-4.56-.595-1.91-.012.004.607 1.906Zm72.48-1.68h2v-2h-2v2Zm0 17.4v2h2v-2h-2Zm-62.76 7.56.384-1.963-.013-.002-.014-.003-.357 1.968Zm17.76 3.48.392-1.961-.008-.002-.384 1.963Zm18.84 7.92-1.367 1.46.016.015.016.015 1.335-1.49Zm-1.68 29.64 1.267 1.547.003-.002-1.27-1.545Zm-57.6 6h-2v2h2v-2Zm0-17.4v-2h-2v2h2Zm43.8-1.08-1.2-1.6 1.2 1.6Zm-.24-5.4-.949 1.761.027.014.027.014.895-1.789Zm-4.2-1.32.385-1.963-19.56-3.84-.385 1.963-.386 1.963 19.56 3.84.386-1.963Zm-19.56-3.84.392-1.961c-6.973-1.395-12.104-3.795-15.584-7.058l-1.368 1.459-1.368 1.459c4.199 3.937 10.108 6.577 17.535 8.062l.393-1.961Zm-16.56-7.56 1.383-1.445c-3.305-3.164-5.023-7.41-5.023-12.955h-4c0 6.455 2.041 11.809 6.256 15.845l1.384-1.445Zm-5.64-14.4h2c0-2.545.471-4.97 1.413-7.287l-1.853-.753-1.853-.753a23.152 23.152 0 0 0-1.707 8.793h2Zm1.56-8.04 1.832.802c.993-2.269 2.485-4.268 4.509-6.003l-1.301-1.519-1.302-1.519c-2.456 2.105-4.323 4.586-5.571 7.437l1.833.802Zm5.04-6.72 1.275 1.541c2.083-1.724 4.762-3.136 8.091-4.195l-.606-1.906-.607-1.906c-3.71 1.181-6.872 2.809-9.429 4.925l1.276 1.541Zm8.76-4.56.594 1.91c3.36-1.046 7.391-1.59 12.126-1.59v-4c-5.026 0-9.475.576-13.315 1.77l.595 1.91Zm12.72-1.68v2h59.76v-4h-59.76v2Zm59.76 0h-2v17.4h4V100h-2Zm0 17.4v-2h-61.56v4h61.56v-2Zm-61.56 0v-2c-1.287 0-2.446.095-3.439.319-.974.219-1.945.595-2.699 1.274l1.338 1.487 1.338 1.487c.045-.041.274-.205.901-.346.606-.136 1.447-.221 2.561-.221v-2Zm-4.8 1.08-1.338-1.487c-1.12 1.008-1.862 2.316-1.862 3.887h4c0-.189.057-.481.538-.913l-1.338-1.487Zm-1.2 2.4h-2c0 1.525.596 2.864 1.665 3.934l1.415-1.414 1.414-1.414c-.37-.37-.494-.711-.494-1.106h-2Zm1.08 2.52-1.415 1.414c1.154 1.154 2.884 1.77 4.777 2.114l.358-1.968.357-1.968c-1.626-.296-2.376-.72-2.663-1.006l-1.414 1.414Zm3.72 1.56-.385 1.963 17.76 3.48.385-1.963.384-1.963-17.76-3.48-.384 1.963Zm17.76 3.48-.393 1.961c8.673 1.735 14.512 4.28 17.866 7.419l1.367-1.46 1.366-1.46c-4.166-3.901-10.886-6.636-19.814-8.421l-.392 1.961Zm18.84 7.92-1.335 1.49c3.364 3.013 5.095 7.044 5.095 12.31h4c0-6.254-2.11-11.423-6.426-15.29l-1.334 1.49Zm5.76 13.8h-2c0 5.888-2.218 10.599-6.711 14.295l1.271 1.545 1.27 1.545c5.427-4.464 8.17-10.313 8.17-17.385h-2Zm-7.44 15.84-1.268-1.547c-4.366 3.579-11.261 5.547-21.052 5.547v4c10.208 0 18.193-2.032 23.587-6.453L195.166 166Zm-22.32 6v-2h-35.28v4h35.28v-2Zm-35.28 0h2v-17.4h-4V172h2Zm0-17.4v2h38.52v-4h-38.52v2Zm38.52 0v2c2.595 0 4.953-.335 6.48-1.48l-1.2-1.6-1.2-1.6c-.394.295-1.556.68-4.08.68v2Zm5.28-1.08 1.2 1.6c1.421-1.066 2.24-2.56 2.24-4.36h-4c0 .44-.142.786-.64 1.16l1.2 1.6Zm1.44-2.76h2c0-.922-.22-1.827-.733-2.634-.51-.802-1.234-1.385-2.053-1.795l-.894 1.789-.895 1.789c.301.15.418.287.467.365.047.073.108.208.108.486h2Zm-1.68-2.64.948-1.761c-1.294-.697-2.919-1.186-4.791-1.527l-.357 1.968-.358 1.968c1.648.299 2.823.69 3.609 1.113l.949-1.761Zm43.641-30.72h-2v2h2v-2Zm0-17.4v-2h-2v2h2Zm11.64 0v2h2v-2h-2Zm0-14.64v-2h-2v2h2Zm21 0h2v-2h-2v2Zm0 14.64h-2v2h2v-2Zm39 0h2v-2h-2v2Zm0 17.4v2h2v-2h-2Zm-39 0v-2h-2v2h2Zm1.92 35.52-1.368 1.459.025.024.026.022 1.317-1.505Zm17.88 1.68h2v-2h-2v2Zm0 17.4v2h2v-2h-2Zm-35.64-6.24-1.414 1.414.013.014.014.013 1.387-1.441Zm-6.36-48.36h2v-2h-2v2Zm-10.44 0h2V100h-4v17.4h2Zm0-17.4v2h11.64v-4h-11.64v2Zm11.64 0h2V85.36h-4V100h2Zm0-14.64v2h21v-4h-21v2Zm21 0h-2V100h4V85.36h-2Zm0 14.64v2h39v-4h-39v2Zm39 0h-2v17.4h4V100h-2Zm0 17.4v-2h-39v4h39v-2Zm-39 0h-2v29.16h4V117.4h-2Zm0 29.16h-2c0 3.213.657 6.042 2.552 7.819l1.368-1.459 1.368-1.459c-.665-.623-1.288-2.034-1.288-4.901h-2Zm1.92 6.36-1.317 1.505c1.825 1.597 4.502 2.175 7.557 2.175v-4c-2.705 0-4.187-.542-4.923-1.185l-1.317 1.505Zm6.24 1.68v2h11.64v-4h-11.64v2Zm11.64 0h-2V172h4v-17.4h-2Zm0 17.4v-2h-14.28v4h14.28v-2Zm-14.28 0v-2c-9.722 0-16.205-2.052-19.973-5.681l-1.387 1.441-1.387 1.441c4.872 4.691 12.629 6.799 22.747 6.799v-2Zm-21.36-6.24 1.414-1.414c-3.729-3.73-5.774-9.528-5.774-17.786h-4c0 8.862 2.195 15.864 6.946 20.614l1.414-1.414Zm-6.36-19.2h2V117.4h-4v29.16h2Zm0-29.16v-2h-10.44v4h10.44v-2Zm91.766-23.64v2h2v-2h-2Zm-22.8 0h-2v2h2v-2Zm0-14.16v-2h-2v2h2Zm22.8 0h2v-2h-2v2Zm-22.8 92.4h-2v2h2v-2Zm0-72v-2h-2v2h2Zm22.8 0h2v-2h-2v2Zm0 72v2h2v-2h-2Zm0-78.24v-2h-22.8v4h22.8v-2Zm-22.8 0h2V79.6h-4v14.16h2Zm0-14.16v2h22.8v-4h-22.8v2Zm22.8 0h-2v14.16h4V79.6h-2Zm-22.8 92.4h2v-72h-4v72h2Zm0-72v2h22.8v-4h-22.8v2Zm22.8 0h-2v72h4v-72h-2Zm0 72v-2h-22.8v4h22.8v-2Zm14.41-90v-2h-2v2h2Zm22.8 0h2v-2h-2v2Zm0 90v2h2v-2h-2Zm-22.8 0h-2v2h2v-2Zm0-90v2h22.8v-4h-22.8v2Zm22.8 0h-2v90h4V82h-2Zm0 90v-2h-22.8v4h22.8v-2Zm-22.8 0h2V82h-4v90h2Zm102.489-7.68 1.405 1.424-1.405-1.424Zm-60.12 0-1.405 1.424.01.009 1.395-1.433Zm0-56.52 1.395 1.433.01-.009-1.405-1.424Zm60.12 0-1.414 1.414.009.01.01.009 1.395-1.433Zm-16.92 11.64-1.62 1.173.023.032.025.031 1.572-1.236Zm-26.28 0 1.573 1.236.01-.014.011-.013-1.594-1.209Zm0 33.24-1.593 1.209.01.013.011.014 1.572-1.236Zm26.28 0-1.593-1.209-.007.009 1.6 1.2Zm26.04-21h-2v8.64h4v-8.64h-2Zm0 8.64h-2c0 9.564-2.89 17.016-8.525 22.576l1.405 1.424 1.405 1.424c6.526-6.44 9.715-14.988 9.715-25.424h-2Zm-9.12 24-1.404-1.424c-5.516 5.442-13.543 8.304-24.396 8.304v4c11.548 0 20.72-3.058 27.205-9.456l-1.405-1.424Zm-25.8 8.88v-2h-8.4v4h8.4v-2Zm-8.4 0v-2c-10.851 0-18.925-2.861-24.525-8.313l-1.395 1.433-1.395 1.433c6.561 6.388 15.766 9.447 27.315 9.447v-2Zm-25.92-8.88 1.405-1.424c-5.634-5.56-8.525-13.012-8.525-22.576h-4c0 10.436 3.19 18.984 9.715 25.424l1.405-1.424Zm-9.12-24h2v-8.64h-4v8.64h2Zm0-8.64h2c0-9.564 2.891-16.97 8.515-22.447l-1.395-1.433-1.395-1.433c-6.535 6.363-9.725 14.877-9.725 25.313h2Zm9.12-23.88 1.405 1.424c5.6-5.527 13.671-8.424 24.515-8.424v-4c-11.556 0-20.765 3.103-27.325 9.576l1.405 1.424Zm25.92-9v2h8.4v-4h-8.4v2Zm8.4 0v2c10.846 0 18.869 2.898 24.386 8.414l1.414-1.414 1.414-1.414c-6.483-6.484-15.659-9.586-27.214-9.586v2Zm25.8 9-1.395 1.433c5.625 5.477 8.515 12.883 8.515 22.447h4c0-10.436-3.189-18.95-9.725-25.313l-1.395 1.433Zm-14.28 21.96h2c0-4.828-.904-8.802-3.067-11.556l-1.573 1.236-1.572 1.236c1.356 1.726 2.212 4.632 2.212 9.084h2Zm-2.64-10.32 1.62-1.173c-2.225-3.072-6.054-4.307-10.74-4.307v4c4.114 0 6.365 1.085 7.5 2.653l1.62-1.173Zm-9.12-3.48v-2h-7.92v4h7.92v-2Zm-7.92 0v-2c-4.696 0-8.532 1.239-10.833 4.271l1.593 1.209 1.594 1.209c1.219-1.608 3.542-2.689 7.646-2.689v-2Zm-9.24 3.48-1.572-1.236c-2.164 2.754-3.068 6.728-3.068 11.556h4c0-4.452.856-7.358 2.213-9.084l-1.573-1.236Zm-2.64 10.32h-2v12.36h4v-12.36h-2Zm0 12.36h-2c0 4.907.904 8.944 3.047 11.769l1.593-1.209 1.594-1.209c-1.378-1.815-2.234-4.818-2.234-9.351h-2Zm2.64 10.56-1.572 1.236c2.308 2.938 6.138 4.124 10.812 4.124v-4c-4.126 0-6.456-1.054-7.667-2.596l-1.573 1.236Zm9.24 3.36v2h7.92v-4h-7.92v2Zm7.92 0v2c4.664 0 8.487-1.182 10.72-4.16l-1.6-1.2-1.6-1.2c-1.126 1.502-3.384 2.56-7.52 2.56v2Zm9.12-3.36 1.594 1.209c2.143-2.825 3.046-6.862 3.046-11.769h-4c0 4.533-.856 7.536-2.233 9.351l1.593 1.209Zm2.64-10.56h2v-12.36h-4v12.36h2Zm71.948 4.68-.386 1.963.014.002.014.003.358-1.968Zm-19.56-3.84-.393 1.961.007.002.386-1.963Zm-16.56-7.56-1.383 1.445.007.007.008.007 1.368-1.459Zm-4.08-22.44-1.833-.802-.01.025-.01.024 1.853.753Zm5.04-6.72-1.275-1.541-.014.011-.013.011 1.302 1.519Zm8.76-4.56-.594-1.91-.013.004.607 1.906Zm48.48-1.68h2v-2h-2v2Zm0 17.4v2h2v-2h-2Zm-38.76 7.56.384-1.963-.013-.002-.014-.003-.357 1.968Zm17.76 3.48.392-1.961-.008-.002-.384 1.963Zm18.84 7.92-1.367 1.46.016.015.016.015 1.335-1.49ZM519.78 166l1.268 1.547.002-.002-1.27-1.545Zm-57.6 6h-2v2h2v-2Zm0-17.4v-2h-2v2h2Zm44.04-1.08-1.338-1.487-.039.036-.038.037 1.415 1.414Zm-.48-5.4-.949 1.761.027.014.027.014.895-1.789Zm-4.2-1.32.385-1.963-19.56-3.84-.385 1.963-.386 1.963 19.56 3.84.386-1.963Zm-19.56-3.84.392-1.961c-6.973-1.395-12.104-3.795-15.584-7.058l-1.368 1.459-1.368 1.459c4.199 3.937 10.108 6.577 17.535 8.062l.393-1.961Zm-16.56-7.56 1.383-1.445c-3.305-3.164-5.023-7.41-5.023-12.955h-4c0 6.455 2.041 11.809 6.257 15.845l1.383-1.445Zm-5.64-14.4h2c0-2.545.471-4.97 1.413-7.287l-1.853-.753-1.853-.753A23.152 23.152 0 0 0 457.78 121h2Zm1.56-8.04 1.832.802c.993-2.269 2.485-4.268 4.509-6.003l-1.301-1.519-1.302-1.519c-2.455 2.105-4.323 4.586-5.571 7.437l1.833.802Zm5.04-6.72 1.275 1.541c2.083-1.724 4.762-3.136 8.091-4.195l-.606-1.906-.607-1.906c-3.71 1.181-6.872 2.809-9.428 4.925l1.275 1.541Zm8.76-4.56.594 1.91c3.36-1.046 7.391-1.59 12.126-1.59v-4c-5.026 0-9.475.576-13.314 1.77l.594 1.91Zm12.72-1.68v2h35.76v-4h-35.76v2Zm35.76 0h-2v17.4h4V100h-2Zm0 17.4v-2h-37.56v4h37.56v-2Zm-37.56 0v-2c-1.287 0-2.446.095-3.439.319-.974.219-1.945.595-2.699 1.274l1.338 1.487 1.338 1.487c.045-.041.274-.205.901-.346.606-.136 1.447-.221 2.561-.221v-2Zm-4.8 1.08-1.338-1.487c-1.12 1.008-1.862 2.316-1.862 3.887h4c0-.189.057-.481.538-.913l-1.338-1.487Zm-1.2 2.4h-2c0 1.525.596 2.864 1.665 3.934l1.415-1.414 1.414-1.414c-.37-.37-.494-.711-.494-1.106h-2Zm1.08 2.52-1.415 1.414c1.154 1.154 2.884 1.77 4.777 2.114l.358-1.968.357-1.968c-1.626-.296-2.376-.72-2.663-1.006l-1.414 1.414Zm3.72 1.56-.385 1.963 17.76 3.48.385-1.963.384-1.963-17.76-3.48-.384 1.963Zm17.76 3.48-.393 1.961c8.673 1.735 14.512 4.28 17.866 7.419l1.367-1.46 1.367-1.46c-4.167-3.901-10.887-6.636-19.815-8.421l-.392 1.961Zm18.84 7.92-1.335 1.49c3.364 3.013 5.095 7.044 5.095 12.31h4c0-6.254-2.11-11.423-6.426-15.29l-1.334 1.49Zm5.76 13.8h-2c0 5.888-2.217 10.599-6.711 14.295L519.78 166l1.27 1.545c5.427-4.464 8.17-10.313 8.17-17.385h-2ZM519.78 166l-1.268-1.547c-4.366 3.579-11.261 5.547-21.052 5.547v4c10.208 0 18.193-2.032 23.588-6.453L519.78 166Zm-22.32 6v-2h-35.28v4h35.28v-2Zm-35.28 0h2v-17.4h-4V172h2Zm0-17.4v2h39.12v-4h-39.12v2Zm39.12 0v2c1.357 0 2.565-.094 3.578-.317.976-.214 2.002-.595 2.756-1.349l-1.414-1.414-1.415-1.414c.034-.034-.12.125-.784.271-.626.137-1.519.223-2.721.223v2Zm4.92-1.08 1.338 1.487c1.24-1.117 1.862-2.586 1.862-4.247h-4c0 .579-.179.95-.538 1.273l1.338 1.487Zm1.2-2.76h2c0-.922-.219-1.827-.733-2.634-.51-.802-1.234-1.385-2.053-1.795l-.894 1.789-.895 1.789c.301.15.418.287.467.365.047.073.108.208.108.486h2Zm-1.68-2.64.948-1.761c-1.294-.697-2.919-1.186-4.791-1.527l-.357 1.968-.358 1.968c1.648.299 2.823.69 3.609 1.113l.949-1.761ZM639.414 82h2v-2h-2v2Zm0 90v2h2v-2h-2Zm-22.8-72v2h2v-2h-2Zm0-18v-2h-2v2h2Zm0 72.24v2h2v-2h-2Zm0-36.48h2v-2h-2v2Zm-30.6 3.36 1.546 1.269-1.546-1.269Zm0 30.12-1.498 1.325.013.015.013.014 1.472-1.354Zm53.4-69.24h-2v90h4V82h-2Zm0 90v-2h-51.12v4h51.12v-2Zm-51.12 0v-2c-8.387 0-14.753-2.769-19.357-8.176l-1.523 1.296-1.523 1.296c5.477 6.433 13.03 9.584 22.403 9.584v-2Zm-20.88-8.88 1.523-1.296c-4.66-5.474-7.083-12.814-7.083-22.224h-4c0 10.11 2.617 18.45 8.037 24.816l1.523-1.296Zm-7.56-23.52h2v-7.2h-4v7.2h2Zm0-7.2h2c0-9.41 2.423-16.75 7.083-22.224l-1.523-1.296-1.523-1.296c-5.42 6.366-8.037 14.706-8.037 24.816h2Zm7.56-23.52 1.523 1.296c4.604-5.407 10.97-8.176 19.357-8.176v-4c-9.373 0-16.926 3.151-22.403 9.584l1.523 1.296Zm20.88-8.88v2h28.32v-4h-28.32v2Zm28.32 0h2V82h-4v18h2Zm0-18v2h22.8v-4h-22.8v2Zm-20.52 72.24v2h20.52v-4h-20.52v2Zm20.52 0h2v-36.48h-4v36.48h2Zm0-36.48v-2h-20.52v4h20.52v-2Zm-20.52 0v-2c-5.081 0-9.21 1.15-11.625 4.091l1.545 1.269 1.546 1.269c1.264-1.539 3.855-2.629 8.534-2.629v-2Zm-10.08 3.36-1.545-1.269c-2.269 2.762-3.215 6.796-3.215 11.709h4c0-4.527.894-7.453 2.306-9.171l-1.546-1.269Zm-2.76 10.44h-2v9.48h4v-9.48h-2Zm0 9.48h-2c0 4.894.938 8.898 3.262 11.525l1.498-1.325 1.498-1.325c-1.356-1.533-2.258-4.329-2.258-8.875h-2Zm2.76 10.2-1.472 1.354c2.429 2.64 6.525 3.646 11.552 3.646v-4c-4.733 0-7.356-.994-8.608-2.354l-1.472 1.354Zm137.018-8.52v2h2v-2h-2Zm-51.48 0v-2h-2v2h2Zm3 9.6 1.21-1.592-1.21 1.592Zm46.8 2.28h2v-2h-2v2Zm0 17.4v2h2v-2h-2Zm-53.04-2.28-.633 1.897.019.007.019.006.595-1.91Zm-11.64-6.6-1.415 1.414.02.02.02.019 1.375-1.453Zm-6.36-10.32-1.905.61.005.017.006.017 1.894-.644Zm6.36-45.12 1.434 1.394.01-.01-1.444-1.384Zm48.72-6.24-.673 1.883.673-1.883Zm10.56 6.84-1.513 1.308.019.022.019.021 1.475-1.351Zm5.52 10.44 1.938-.494-1.938.494Zm-47.64-1.08 1.483 1.342-1.483-1.342Zm-2.28 9.96h-2v2h2v-2Zm29.88 0v2h2v-2h-2Zm-2.4-9.96-1.484 1.342.018.019.017.018 1.449-1.379Zm24 25.08v-2h-51.48v4h51.48v-2Zm-51.48 0h-2v.48h4v-.48h-2Zm0 .48h-2c0 4.701 1.003 8.595 3.789 10.712l1.211-1.592 1.21-1.592c-1.214-.923-2.21-3.109-2.21-7.528h-2Zm3 9.12-1.211 1.592c2.55 1.938 6.564 2.688 11.531 2.688v-4c-4.793 0-7.66-.77-9.11-1.872l-1.21 1.592Zm10.32 2.28v2h36.48v-4h-36.48v2Zm36.48 0h-2V172h4v-17.4h-2Zm0 17.4v-2h-35.16v4h35.16v-2Zm-35.16 0v-2c-6.909 0-12.655-.747-17.286-2.19l-.594 1.91-.595 1.91c5.13 1.597 11.303 2.37 18.475 2.37v-2Zm-17.88-2.28.632-1.897c-4.588-1.53-8.195-3.599-10.898-6.156l-1.374 1.453-1.375 1.453c3.217 3.043 7.371 5.374 12.382 7.044l.633-1.897Zm-11.64-6.6 1.414-1.414c-2.655-2.655-4.616-5.829-5.881-9.55l-1.893.644-1.894.644c1.455 4.279 3.734 7.985 6.839 11.09l1.415-1.414Zm-6.36-10.32 1.904-.61c-1.208-3.777-1.824-7.968-1.824-12.59h-4c0 4.978.663 9.587 2.015 13.81l1.905-.61Zm-1.92-13.2h2v-9.12h-4v9.12h2Zm0-9.12h2c0-9.111 2.628-16.173 7.714-21.406l-1.434-1.394-1.435-1.394c-5.954 6.127-8.845 14.265-8.845 24.194h2Zm8.28-22.8 1.444 1.384c4.973-5.19 13.355-8.024 25.676-8.024v-4c-12.8 0-22.498 2.926-28.564 9.256l1.444 1.384Zm27.12-8.64v2h4.8v-4h-4.8v2Zm4.8 0v2c6.577 0 11.932.785 16.127 2.283l.673-1.883.672-1.883c-4.765-1.702-10.61-2.517-17.472-2.517v2Zm16.8 2.4-.673 1.883c4.225 1.509 7.429 3.617 9.72 6.265l1.513-1.308 1.512-1.308c-2.829-3.272-6.665-5.724-11.4-7.415l-.672 1.883Zm10.56 6.84-1.475 1.351c2.4 2.619 4.091 5.797 5.057 9.583l1.938-.494 1.938-.494c-1.115-4.374-3.104-8.156-5.984-11.297l-1.474 1.351Zm5.52 10.44-1.938.494c.992 3.893 1.498 8.244 1.498 13.066h4c0-5.098-.535-9.787-1.622-14.054l-1.938.494Zm1.56 13.56h-2v10.44h4v-10.44h-2Zm-31.8-17.16v-2h-9.36v4h9.36v-2Zm-9.36 0v-2c-4.031 0-7.43.865-9.524 3.178l1.484 1.342 1.483 1.342c.947-1.047 2.907-1.862 6.557-1.862v-2Zm-8.04 2.52-1.484-1.342c-2.023 2.236-2.796 5.658-2.796 9.742h4c0-3.756.746-5.934 1.763-7.058l-1.483-1.342Zm-2.28 8.4h-2v1.56h4v-1.56h-2Zm0 1.56v2h29.88v-4h-29.88v2Zm29.88 0h2v-1.56h-4v1.56h2Zm0-1.56h2c0-4.103-.822-7.542-2.952-9.779l-1.448 1.379-1.449 1.379c1.07 1.123 1.849 3.284 1.849 7.021h2Zm-2.4-8.4 1.483-1.342c-2.081-2.299-5.381-3.178-9.283-3.178v4c3.457 0 5.357.801 6.316 1.862l1.484-1.342Z" mask="url(#b)"/>
  </g>
  <defs>
    <filter id="a" width="772.232" height="193.601" x=".8" y="33.6" color-interpolation-filters="sRGB" filterUnits="userSpaceOnUse">
      <feFlood flood-opacity="0" result="BackgroundImageFix"/>
      <feColorMatrix in="SourceAlpha" result="hardAlpha" values="0 0 0 0 0 0 0 0 0 0 0 0 0 0 0 0 0 0 127 0"/>
      <feOffset dy="4"/>
      <feGaussianBlur stdDeviation="25"/>
      <feComposite in2="hardAlpha" operator="out"/>
      <feColorMatrix values="0 0 0 0 0 0 0 0 0 0 0 0 0 0 0 0 0 0 1 0"/>
      <feBlend in2="BackgroundImageFix" result="effect1_dropShadow_1637_83"/>
      <feBlend in="SourceGraphic" in2="effect1_dropShadow_1637_83" result="shape"/>
    </filter>
  </defs>
</svg>
