<svg width="780" height="221" viewBox="0 0 780 221" fill="none" xmlns="http://www.w3.org/2000/svg">
<path d="M26.988 133.51C23.92 133.51 21.658 134.212 20.202 135.616C18.798 136.968 18.096 139.048 18.096 141.856L18.096 149.89C18.096 153.01 18.798 155.09 20.202 156.13C21.658 157.17 23.92 157.69 26.988 157.69L44.538 157.69L44.538 169L26.52 169C18.148 169 12.116 167.18 8.424 163.54C4.732 159.9 2.886 154.882 2.886 148.486L2.886 142.792C2.886 136.396 4.732 131.378 8.424 127.738C12.116 124.046 18.148 122.2 26.52 122.2L44.538 122.2L44.538 133.51L26.988 133.51ZM100.742 142.792L100.742 148.408C100.742 154.908 98.7659 160.108 94.8139 164.008C90.9139 167.856 85.3239 169.78 78.0439 169.78L72.5839 169.78C65.3039 169.78 59.6879 167.856 55.7359 164.008C51.7839 160.108 49.8079 154.908 49.8079 148.408L49.8079 142.792C49.8079 136.292 51.7839 131.118 55.7359 127.27C59.6879 123.37 65.3039 121.42 72.5839 121.42L78.0439 121.42C85.3239 121.42 90.9139 123.37 94.8139 127.27C98.7659 131.118 100.742 136.292 100.742 142.792ZM85.5319 141.544C85.5319 138.528 84.9599 136.292 83.8159 134.836C82.7239 133.328 80.7479 132.574 77.8879 132.574L72.7399 132.574C69.8799 132.574 67.8779 133.328 66.7339 134.836C65.5899 136.292 65.0179 138.528 65.0179 141.544L65.0179 149.578C65.0179 152.646 65.5899 154.934 66.7339 156.442C67.8779 157.898 69.8799 158.626 72.7399 158.626L77.8879 158.626C80.7479 158.626 82.7239 157.898 83.8159 156.442C84.9599 154.934 85.5319 152.646 85.5319 149.578L85.5319 141.544ZM108.118 169L108.118 122.2L163.654 122.2C170.778 122.2 175.926 123.916 179.098 127.348C182.27 130.78 183.856 135.434 183.856 141.31L183.856 169L169.036 169L169.036 140.92C169.036 138.528 168.62 136.838 167.788 135.85C167.008 134.81 165.474 134.29 163.186 134.29L153.358 134.29L153.358 169L138.538 169L138.538 134.29L122.938 134.29L122.938 169L108.118 169ZM226.591 156.91L226.591 122.2L241.411 122.2L241.411 169L212.395 169C205.583 169 200.643 167.284 197.575 163.852C194.507 160.42 192.973 155.766 192.973 149.89L192.973 122.2L207.793 122.2L207.793 150.28C207.793 152.672 208.183 154.388 208.963 155.428C209.795 156.416 211.355 156.91 213.643 156.91L226.591 156.91ZM250.483 169L250.483 122.2L279.499 122.2C286.311 122.2 291.251 123.916 294.319 127.348C297.387 130.78 298.921 135.434 298.921 141.31L298.921 169L284.101 169L284.101 140.92C284.101 138.528 283.685 136.838 282.853 135.85C282.073 134.81 280.539 134.29 278.251 134.29L265.303 134.29L265.303 169L250.483 169ZM323.749 118.144L308.929 118.144L308.929 108.94L323.749 108.94L323.749 118.144ZM308.929 169L308.929 122.2L323.749 122.2L323.749 169L308.929 169ZM356.203 133.51C353.135 133.51 350.873 134.212 349.417 135.616C348.013 136.968 347.311 139.048 347.311 141.856L347.311 149.89C347.311 153.01 348.013 155.09 349.417 156.13C350.873 157.17 353.135 157.69 356.203 157.69L371.413 157.69L371.413 169L355.735 169C347.363 169 341.331 167.18 337.639 163.54C333.947 159.9 332.101 154.882 332.101 148.486L332.101 142.792C332.101 136.396 333.947 131.378 337.639 127.738C341.331 124.046 347.363 122.2 355.735 122.2L389.353 122.2L389.353 133.51L356.203 133.51ZM424.205 143.65L424.205 169L392.147 169C387.467 169 383.879 167.986 381.383 165.958C378.887 163.93 377.639 161.278 377.639 158.002C377.639 154.414 378.861 151.554 381.305 149.422C383.749 147.238 386.687 144.976 390.119 142.636L403.379 133.51L378.731 133.51L378.731 122.2L399.245 122.2C408.189 122.2 414.585 124.098 418.433 127.894C422.281 131.638 424.205 136.89 424.205 143.65ZM396.359 157.69L410.165 157.69L410.165 142.168L396.047 153.166C395.163 153.842 394.539 154.362 394.175 154.726C393.811 155.038 393.629 155.454 393.629 155.974C393.629 156.546 393.837 156.988 394.253 157.3C394.669 157.56 395.371 157.69 396.359 157.69ZM455.683 133.51C452.615 133.51 450.353 134.212 448.897 135.616C447.493 136.968 446.791 139.048 446.791 141.856L446.791 149.89C446.791 153.01 447.493 155.09 448.897 156.13C450.353 157.17 452.615 157.69 455.683 157.69L473.233 157.69L473.233 169L455.215 169C446.843 169 440.811 167.18 437.119 163.54C433.427 159.9 431.581 154.882 431.581 148.486L431.581 142.792C431.581 136.396 433.427 131.378 437.119 127.738C440.811 124.046 446.843 122.2 455.215 122.2L473.233 122.2L473.233 133.51L455.683 133.51ZM497.421 118.144L482.601 118.144L482.601 108.94L497.421 108.94L497.421 118.144ZM482.601 169L482.601 122.2L497.421 122.2L497.421 169L482.601 169ZM556.707 142.792L556.707 148.408C556.707 154.908 554.731 160.108 550.779 164.008C546.879 167.856 541.289 169.78 534.009 169.78L528.549 169.78C521.269 169.78 515.653 167.856 511.701 164.008C507.749 160.108 505.773 154.908 505.773 148.408L505.773 142.792C505.773 136.292 507.749 131.118 511.701 127.27C515.653 123.37 521.269 121.42 528.549 121.42L534.009 121.42C541.289 121.42 546.879 123.37 550.779 127.27C554.731 131.118 556.707 136.292 556.707 142.792ZM541.497 141.544C541.497 138.528 540.925 136.292 539.781 134.836C538.689 133.328 536.713 132.574 533.853 132.574L528.705 132.574C525.845 132.574 523.843 133.328 522.699 134.836C521.555 136.292 520.983 138.528 520.983 141.544L520.983 149.578C520.983 152.646 521.555 154.934 522.699 156.442C523.843 157.898 525.845 158.626 528.705 158.626L533.853 158.626C536.713 158.626 538.689 157.898 539.781 156.442C540.925 154.934 541.497 152.646 541.497 149.578L541.497 141.544ZM525.663 116.584L530.733 101.92L542.823 101.92L537.363 116.584L525.663 116.584ZM564.083 169L564.083 122.2L593.099 122.2C599.911 122.2 604.851 123.916 607.919 127.348C610.987 130.78 612.521 135.434 612.521 141.31L612.521 169L597.701 169L597.701 140.92C597.701 138.528 597.285 136.838 596.453 135.85C595.673 134.81 594.139 134.29 591.851 134.29L578.903 134.29L578.903 169L564.083 169Z" fill="white"/>
<g filter="url(#filter0_d_511_2)">
<mask id="path-2-inside-1_511_2" fill="white">
<path d="M5.85 86L5.85 18.5L62.19 18.5L62.19 33.35L23.4 33.35L23.4 45.05L62.19 45.05L62.19 59.45L23.4 59.45L23.4 71.15L62.19 71.15L62.19 86L5.85 86ZM100.444 67.1L85.7742 64.22C80.3742 63.14 76.2342 61.25 73.3542 58.55C70.5342 55.85 69.1242 52.25 69.1242 47.75C69.1242 45.65 69.5142 43.64 70.2942 41.72C71.1342 39.8 72.3942 38.12 74.0742 36.68C75.8142 35.24 78.0042 34.1 80.6442 33.26C83.3442 32.42 86.5242 32 90.1842 32L135.004 32L135.004 45.05L88.8342 45.05C87.0342 45.05 85.8342 45.32 85.2342 45.86C84.6342 46.4 84.3342 47 84.3342 47.66C84.3342 48.38 84.6042 49.01 85.1442 49.55C85.6842 50.09 86.6142 50.48 87.9342 50.72L101.254 53.33C107.854 54.65 112.564 56.63 115.384 59.27C118.264 61.85 119.704 65.3 119.704 69.62C119.704 74.48 117.844 78.44 114.124 81.5C110.464 84.5 104.884 86 97.3842 86L70.9242 86L70.9242 72.95L99.8142 72.95C101.734 72.95 103.054 72.68 103.774 72.14C104.494 71.6 104.854 70.91 104.854 70.07C104.854 69.17 104.434 68.51 103.594 68.09C102.814 67.67 101.764 67.34 100.444 67.1ZM136.325 45.05L136.325 32L145.055 32L145.055 21.02L160.805 21.02L160.805 32L190.055 32L190.055 45.05L160.805 45.05L160.805 66.92C160.805 69.2 161.285 70.79 162.245 71.69C163.205 72.53 164.765 72.95 166.925 72.95L175.655 72.95L175.655 86L164.945 86C157.505 86 152.165 84.44 148.925 81.32C145.745 78.14 144.155 73.34 144.155 66.92L144.155 45.05L136.325 45.05ZM212.98 27.32L195.88 27.32L195.88 16.7L212.98 16.7L212.98 27.32ZM195.88 86L195.88 32L212.98 32L212.98 86L195.88 86ZM223.787 18.5L240.887 18.5L240.887 86L223.787 86L223.787 18.5ZM307.494 55.76L307.494 62.24C307.494 69.74 305.214 75.74 300.654 80.24C296.154 84.68 289.704 86.9 281.304 86.9L275.004 86.9C266.604 86.9 260.124 84.68 255.564 80.24C251.004 75.74 248.724 69.74 248.724 62.24L248.724 55.76C248.724 48.26 251.004 42.29 255.564 37.85C260.124 33.35 266.604 31.1 275.004 31.1L281.304 31.1C289.704 31.1 296.154 33.35 300.654 37.85C305.214 42.29 307.494 48.26 307.494 55.76ZM289.944 54.32C289.944 50.84 289.284 48.26 287.964 46.58C286.704 44.84 284.424 43.97 281.124 43.97L275.184 43.97C271.884 43.97 269.574 44.84 268.254 46.58C266.934 48.26 266.274 50.84 266.274 54.32L266.274 63.59C266.274 67.13 266.934 69.77 268.254 71.51C269.574 73.19 271.884 74.03 275.184 74.03L281.124 74.03C284.424 74.03 286.704 73.19 287.964 71.51C289.284 69.77 289.944 67.13 289.944 63.59L289.944 54.32ZM343.905 67.1L329.235 64.22C323.835 63.14 319.695 61.25 316.815 58.55C313.995 55.85 312.585 52.25 312.585 47.75C312.585 45.65 312.975 43.64 313.755 41.72C314.595 39.8 315.855 38.12 317.535 36.68C319.275 35.24 321.465 34.1 324.105 33.26C326.805 32.42 329.985 32 333.645 32L360.465 32L360.465 45.05L332.295 45.05C330.495 45.05 329.295 45.32 328.695 45.86C328.095 46.4 327.795 47 327.795 47.66C327.795 48.38 328.065 49.01 328.605 49.55C329.145 50.09 330.075 50.48 331.395 50.72L344.715 53.33C351.315 54.65 356.025 56.63 358.845 59.27C361.725 61.85 363.165 65.3 363.165 69.62C363.165 74.48 361.305 78.44 357.585 81.5C353.925 84.5 348.345 86 340.845 86L314.385 86L314.385 72.95L343.725 72.95C345.645 72.95 346.875 72.68 347.415 72.14C348.015 71.6 348.315 70.91 348.315 70.07C348.315 69.17 347.895 68.51 347.055 68.09C346.275 67.67 345.225 67.34 343.905 67.1ZM447.311 18.5L447.311 86L408.971 86C402.311 86 397.091 83.78 393.311 79.34C389.531 74.9 387.641 69.02 387.641 61.7L387.641 56.3C387.641 48.98 389.531 43.1 393.311 38.66C397.091 34.22 402.311 32 408.971 32L430.211 32L430.211 18.5L447.311 18.5ZM414.821 72.68L430.211 72.68L430.211 45.32L414.821 45.32C411.161 45.32 408.641 46.16 407.261 47.84C405.881 49.52 405.191 52.13 405.191 55.67L405.191 62.78C405.191 66.32 405.881 68.87 407.261 70.43C408.641 71.93 411.161 72.68 414.821 72.68ZM510.024 64.04L471.414 64.04L471.414 64.4C471.414 67.82 472.164 70.1 473.664 71.24C475.164 72.38 477.744 72.95 481.404 72.95L508.764 72.95L508.764 86L482.394 86C477.114 86 472.644 85.43 468.984 84.29C465.384 83.09 462.474 81.44 460.254 79.34C458.094 77.18 456.504 74.6 455.484 71.6C454.524 68.6 454.044 65.3 454.044 61.7L454.044 54.86C454.044 47.72 456.114 42.02 460.254 37.76C464.394 33.44 471.174 31.28 480.594 31.28L484.194 31.28C489.234 31.28 493.434 31.88 496.794 33.08C500.154 34.28 502.794 35.99 504.714 38.21C506.694 40.37 508.074 42.98 508.854 46.04C509.634 49.1 510.024 52.49 510.024 56.21L510.024 64.04ZM486.174 43.34L479.154 43.34C476.274 43.34 474.264 43.97 473.124 45.23C471.984 46.49 471.414 48.59 471.414 51.53L471.414 52.7L493.824 52.7L493.824 51.53C493.824 48.59 493.224 46.49 492.024 45.23C490.884 43.97 488.934 43.34 486.174 43.34Z"/>
</mask>
<path d="M5.85 86L3.85 86L3.85 88L5.85 88L5.85 86ZM5.85 18.5L5.85 16.5L3.85 16.5L3.85 18.5L5.85 18.5ZM62.19 18.5L64.19 18.5L64.19 16.5L62.19 16.5L62.19 18.5ZM62.19 33.35L62.19 35.35L64.19 35.35L64.19 33.35L62.19 33.35ZM23.4 33.35L23.4 31.35L21.4 31.35L21.4 33.35L23.4 33.35ZM23.4 45.05L21.4 45.05L21.4 47.05L23.4 47.05L23.4 45.05ZM62.19 45.05L64.19 45.05L64.19 43.05L62.19 43.05L62.19 45.05ZM62.19 59.45L62.19 61.45L64.19 61.45L64.19 59.45L62.19 59.45ZM23.4 59.45L23.4 57.45L21.4 57.45L21.4 59.45L23.4 59.45ZM23.4 71.15L21.4 71.15L21.4 73.15L23.4 73.15L23.4 71.15ZM62.19 71.15L64.19 71.15L64.19 69.15L62.19 69.15L62.19 71.15ZM62.19 86L62.19 88L64.19 88L64.19 86L62.19 86ZM7.85 86L7.85 18.5L3.85 18.5L3.85 86L7.85 86ZM5.85 20.5L62.19 20.5L62.19 16.5L5.85 16.5L5.85 20.5ZM60.19 18.5L60.19 33.35L64.19 33.35L64.19 18.5L60.19 18.5ZM62.19 31.35L23.4 31.35L23.4 35.35L62.19 35.35L62.19 31.35ZM21.4 33.35L21.4 45.05L25.4 45.05L25.4 33.35L21.4 33.35ZM23.4 47.05L62.19 47.05L62.19 43.05L23.4 43.05L23.4 47.05ZM60.19 45.05L60.19 59.45L64.19 59.45L64.19 45.05L60.19 45.05ZM62.19 57.45L23.4 57.45L23.4 61.45L62.19 61.45L62.19 57.45ZM21.4 59.45L21.4 71.15L25.4 71.15L25.4 59.45L21.4 59.45ZM23.4 73.15L62.19 73.15L62.19 69.15L23.4 69.15L23.4 73.15ZM60.19 71.15L60.19 86L64.19 86L64.19 71.15L60.19 71.15ZM62.19 84L5.85 84L5.85 88L62.19 88L62.19 84ZM100.444 67.1L100.059 69.0625L100.073 69.0652L100.086 69.0677L100.444 67.1ZM85.7742 64.22L85.382 66.1812L85.3889 66.1825L85.7742 64.22ZM73.3542 58.55L71.9711 59.9946L71.9787 60.0019L71.9863 60.0091L73.3542 58.55ZM70.2942 41.72L68.4619 40.9184L68.4513 40.9427L68.4413 40.9672L70.2942 41.72ZM74.0742 36.68L72.7991 35.1392L72.7858 35.1502L72.7726 35.1615L74.0742 36.68ZM80.6442 33.26L80.0501 31.3502L80.0378 31.3541L80.6442 33.26ZM135.004 32L137.004 32L137.004 30L135.004 30L135.004 32ZM135.004 45.05L135.004 47.05L137.004 47.05L137.004 45.05L135.004 45.05ZM87.9342 50.72L88.3188 48.7573L88.3054 48.7547L88.292 48.7523L87.9342 50.72ZM101.254 53.33L101.646 51.3688L101.639 51.3673L101.254 53.33ZM115.384 59.27L114.017 60.73L114.033 60.745L114.05 60.7597L115.384 59.27ZM114.124 81.5L115.392 83.0468L115.395 83.0446L114.124 81.5ZM70.9242 86L68.9242 86L68.9242 88L70.9242 88L70.9242 86ZM70.9242 72.95L70.9242 70.95L68.9242 70.95L68.9242 72.95L70.9242 72.95ZM103.774 72.14L102.574 70.54L103.774 72.14ZM103.594 68.09L102.646 69.8509L102.673 69.8653L102.7 69.8789L103.594 68.09ZM100.829 65.1375L86.1595 62.2575L85.3889 66.1825L100.059 69.0625L100.829 65.1375ZM86.1665 62.2588C80.9938 61.2243 77.2428 59.4541 74.7221 57.0909L71.9863 60.0091C75.2256 63.0459 79.7546 65.0557 85.382 66.1812L86.1665 62.2588ZM74.7374 57.1054C72.3725 54.8412 71.1242 51.7953 71.1242 47.75L67.1242 47.75C67.1242 52.7047 68.6959 56.8588 71.9711 59.9946L74.7374 57.1054ZM71.1242 47.75C71.1242 45.9045 71.4656 44.1504 72.1471 42.4728L68.4413 40.9672C67.5628 43.1296 67.1242 45.3955 67.1242 47.75L71.1242 47.75ZM72.1265 42.5216C72.8391 40.8929 73.9113 39.4538 75.3758 38.1985L72.7726 35.1615C70.8771 36.7862 69.4293 38.7071 68.4619 40.9184L72.1265 42.5216ZM75.3493 38.2208C76.8527 36.9767 78.8012 35.9452 81.2506 35.1658L80.0378 31.3541C77.2073 32.2548 74.7758 33.5033 72.7991 35.1392L75.3493 38.2208ZM81.2383 35.1697C83.699 34.4042 86.6697 34 90.1842 34L90.1842 30C86.3787 30 82.9894 30.4358 80.0501 31.3503L81.2383 35.1697ZM90.1842 34L135.004 34L135.004 30L90.1842 30L90.1842 34ZM133.004 32L133.004 45.05L137.004 45.05L137.004 32L133.004 32ZM135.004 43.05L88.8342 43.05L88.8342 47.05L135.004 47.05L135.004 43.05ZM88.8342 43.05C87.8479 43.05 86.9388 43.1227 86.1452 43.3013C85.3715 43.4754 84.5506 43.7845 83.8963 44.3734L86.5721 47.3466C86.5178 47.3955 86.5969 47.2996 87.0232 47.2037C87.4296 47.1123 88.0206 47.05 88.8342 47.05L88.8342 43.05ZM83.8963 44.3734C82.9766 45.2011 82.3342 46.3092 82.3342 47.66L86.3342 47.66C86.3342 47.6457 86.3346 47.6364 86.3481 47.6094C86.3659 47.5738 86.4213 47.4823 86.5721 47.3466L83.8963 44.3734ZM82.3342 47.66C82.3342 48.9451 82.8402 50.0744 83.73 50.9642L86.5584 48.1358C86.3682 47.9456 86.3342 47.8149 86.3342 47.66L82.3342 47.66ZM83.73 50.9642C84.7033 51.9375 86.1232 52.4235 87.5764 52.6877L88.292 48.7523C87.1052 48.5365 86.6651 48.2425 86.5584 48.1358L83.73 50.9642ZM87.5496 52.6827L100.87 55.2927L101.639 51.3673L88.3188 48.7573L87.5496 52.6827ZM100.862 55.2912C107.334 56.5856 111.604 58.4706 114.017 60.73L116.751 57.81C113.525 54.7894 108.374 52.7144 101.646 51.3688L100.862 55.2912ZM114.05 60.7597C116.454 62.9134 117.704 65.7943 117.704 69.62L121.704 69.62C121.704 64.8057 120.075 60.7866 116.719 57.7803L114.05 60.7597ZM117.704 69.62C117.704 73.8882 116.107 77.2793 112.854 79.9554L115.395 83.0446C119.581 79.6007 121.704 75.0718 121.704 69.62L117.704 69.62ZM112.856 79.9532C109.711 82.5318 104.676 84 97.3842 84L97.3842 88C105.092 88 111.218 86.4682 115.392 83.0468L112.856 79.9532ZM97.3842 84L70.9242 84L70.9242 88L97.3842 88L97.3842 84ZM72.9242 86L72.9242 72.95L68.9242 72.95L68.9242 86L72.9242 86ZM70.9242 74.95L99.8142 74.95L99.8142 70.95L70.9242 70.95L70.9242 74.95ZM99.8142 74.95C101.77 74.95 103.687 74.7051 104.974 73.74L102.574 70.54C102.421 70.6549 101.699 70.95 99.8142 70.95L99.8142 74.95ZM104.974 73.74C106.156 72.8537 106.854 71.59 106.854 70.07L102.854 70.07C102.854 70.23 102.832 70.3463 102.574 70.54L104.974 73.74ZM106.854 70.07C106.854 69.2982 106.67 68.5232 106.227 67.8262C105.786 67.1342 105.168 66.6406 104.489 66.3011L102.7 69.8789C102.782 69.9202 102.826 69.9528 102.844 69.9685C102.861 69.9829 102.859 69.985 102.852 69.9737C102.844 69.9621 102.843 69.9544 102.844 69.9599C102.846 69.9674 102.854 70.0009 102.854 70.07L106.854 70.07ZM104.542 66.3291C103.509 65.7724 102.234 65.3926 100.802 65.1323L100.086 69.0677C101.295 69.2874 102.12 69.5676 102.646 69.8509L104.542 66.3291ZM136.325 45.05L134.325 45.05L134.325 47.05L136.325 47.05L136.325 45.05ZM136.325 32L136.325 30L134.325 30L134.325 32L136.325 32ZM145.055 32L145.055 34L147.055 34L147.055 32L145.055 32ZM145.055 21.02L145.055 19.02L143.055 19.02L143.055 21.02L145.055 21.02ZM160.805 21.02L162.805 21.02L162.805 19.02L160.805 19.02L160.805 21.02ZM160.805 32L158.805 32L158.805 34L160.805 34L160.805 32ZM190.055 32L192.055 32L192.055 30L190.055 30L190.055 32ZM190.055 45.05L190.055 47.05L192.055 47.05L192.055 45.05L190.055 45.05ZM160.805 45.05L160.805 43.05L158.805 43.05L158.805 45.05L160.805 45.05ZM162.245 71.69L160.878 73.1491L160.903 73.1725L160.928 73.1952L162.245 71.69ZM175.655 72.95L177.655 72.95L177.655 70.95L175.655 70.95L175.655 72.95ZM175.655 86L175.655 88L177.655 88L177.655 86L175.655 86ZM148.925 81.32L147.511 82.7342L147.525 82.7476L147.538 82.7606L148.925 81.32ZM144.155 45.05L146.155 45.05L146.155 43.05L144.155 43.05L144.155 45.05ZM138.325 45.05L138.325 32L134.325 32L134.325 45.05L138.325 45.05ZM136.325 34L145.055 34L145.055 30L136.325 30L136.325 34ZM147.055 32L147.055 21.02L143.055 21.02L143.055 32L147.055 32ZM145.055 23.02L160.805 23.02L160.805 19.02L145.055 19.02L145.055 23.02ZM158.805 21.02L158.805 32L162.805 32L162.805 21.02L158.805 21.02ZM160.805 34L190.055 34L190.055 30L160.805 30L160.805 34ZM188.055 32L188.055 45.05L192.055 45.05L192.055 32L188.055 32ZM190.055 43.05L160.805 43.05L160.805 47.05L190.055 47.05L190.055 43.05ZM158.805 45.05L158.805 66.92L162.805 66.92L162.805 45.05L158.805 45.05ZM158.805 66.92C158.805 69.3727 159.302 71.6723 160.878 73.1491L163.613 70.2309C163.269 69.9077 162.805 69.0273 162.805 66.92L158.805 66.92ZM160.928 73.1952C162.433 74.5116 164.59 74.95 166.925 74.95L166.925 70.95C164.94 70.95 163.978 70.5484 163.562 70.1848L160.928 73.1952ZM166.925 74.95L175.655 74.95L175.655 70.95L166.925 70.95L166.925 74.95ZM173.655 72.95L173.655 86L177.655 86L177.655 72.95L173.655 72.95ZM175.655 84L164.945 84L164.945 88L175.655 88L175.655 84ZM164.945 84C157.704 84 153 82.4675 150.313 79.8794L147.538 82.7606C151.33 86.4125 157.307 88 164.945 88L164.945 84ZM150.34 79.9058C147.67 77.2363 146.155 73.038 146.155 66.92L142.155 66.92C142.155 73.6419 143.821 79.0437 147.511 82.7342L150.34 79.9058ZM146.155 66.92L146.155 45.05L142.155 45.05L142.155 66.92L146.155 66.92ZM144.155 43.05L136.325 43.05L136.325 47.05L144.155 47.05L144.155 43.05ZM212.98 27.32L212.98 29.32L214.98 29.32L214.98 27.32L212.98 27.32ZM195.88 27.32L193.88 27.32L193.88 29.32L195.88 29.32L195.88 27.32ZM195.88 16.7L195.88 14.7L193.88 14.7L193.88 16.7L195.88 16.7ZM212.98 16.7L214.98 16.7L214.98 14.7L212.98 14.7L212.98 16.7ZM195.88 86L193.88 86L193.88 88L195.88 88L195.88 86ZM195.88 32L195.88 30L193.88 30L193.88 32L195.88 32ZM212.98 32L214.98 32L214.98 30L212.98 30L212.98 32ZM212.98 86L212.98 88L214.98 88L214.98 86L212.98 86ZM212.98 25.32L195.88 25.32L195.88 29.32L212.98 29.32L212.98 25.32ZM197.88 27.32L197.88 16.7L193.88 16.7L193.88 27.32L197.88 27.32ZM195.88 18.7L212.98 18.7L212.98 14.7L195.88 14.7L195.88 18.7ZM210.98 16.7L210.98 27.32L214.98 27.32L214.98 16.7L210.98 16.7ZM197.88 86L197.88 32L193.88 32L193.88 86L197.88 86ZM195.88 34L212.98 34L212.98 30L195.88 30L195.88 34ZM210.98 32L210.98 86L214.98 86L214.98 32L210.98 32ZM212.98 84L195.88 84L195.88 88L212.98 88L212.98 84ZM223.787 18.5L223.787 16.5L221.787 16.5L221.787 18.5L223.787 18.5ZM240.887 18.5L242.887 18.5L242.887 16.5L240.887 16.5L240.887 18.5ZM240.887 86L240.887 88L242.887 88L242.887 86L240.887 86ZM223.787 86L221.787 86L221.787 88L223.787 88L223.787 86ZM223.787 20.5L240.887 20.5L240.887 16.5L223.787 16.5L223.787 20.5ZM238.887 18.5L238.887 86L242.887 86L242.887 18.5L238.887 18.5ZM240.887 84L223.787 84L223.787 88L240.887 88L240.887 84ZM225.787 86L225.787 18.5L221.787 18.5L221.787 86L225.787 86ZM300.654 80.24L302.059 81.6637L302.059 81.6636L300.654 80.24ZM255.564 80.24L254.159 81.6636L254.169 81.6729L255.564 80.24ZM255.564 37.85L256.959 39.283L256.969 39.2735L255.564 37.85ZM300.654 37.85L299.24 39.2642L299.249 39.2736L299.259 39.2829L300.654 37.85ZM287.964 46.58L286.344 47.753L286.367 47.7848L286.392 47.8156L287.964 46.58ZM268.254 46.58L269.827 47.8156L269.837 47.8023L269.848 47.7888L268.254 46.58ZM268.254 71.51L266.661 72.7188L266.671 72.7323L266.681 72.7456L268.254 71.51ZM287.964 71.51L286.371 70.3012L286.364 70.31L287.964 71.51ZM305.494 55.76L305.494 62.24L309.494 62.24L309.494 55.76L305.494 55.76ZM305.494 62.24C305.494 69.3037 303.364 74.7563 299.249 78.8165L302.059 81.6636C307.065 76.7237 309.494 70.1763 309.494 62.24L305.494 62.24ZM299.249 78.8163C295.234 82.7782 289.357 84.9 281.304 84.9L281.304 88.9C290.051 88.9 297.074 86.5818 302.059 81.6637L299.249 78.8163ZM281.304 84.9L275.004 84.9L275.004 88.9L281.304 88.9L281.304 84.9ZM275.004 84.9C266.953 84.9 261.039 82.7789 256.959 78.8071L254.169 81.6729C259.21 86.5811 266.255 88.9 275.004 88.9L275.004 84.9ZM256.969 78.8165C252.855 74.7563 250.724 69.3037 250.724 62.24L246.724 62.24C246.724 70.1763 249.154 76.7237 254.159 81.6636L256.969 78.8165ZM250.724 62.24L250.724 55.76L246.724 55.76L246.724 62.24L250.724 62.24ZM250.724 55.76C250.724 48.6956 252.855 43.2796 256.959 39.2829L254.169 36.4171C249.154 41.3004 246.724 47.8244 246.724 55.76L250.724 55.76ZM256.969 39.2735C261.049 35.2471 266.96 33.1 275.004 33.1L275.004 29.1C266.248 29.1 259.199 31.4529 254.159 36.4264L256.969 39.2735ZM275.004 33.1L281.304 33.1L281.304 29.1L275.004 29.1L275.004 33.1ZM281.304 33.1C289.35 33.1 295.223 35.2477 299.24 39.2642L302.068 36.4358C297.085 31.4523 290.059 29.1 281.304 29.1L281.304 33.1ZM299.259 39.2829C303.364 43.2796 305.494 48.6956 305.494 55.76L309.494 55.76C309.494 47.8244 307.065 41.3004 302.049 36.4171L299.259 39.2829ZM291.944 54.32C291.944 50.6523 291.26 47.5378 289.537 45.3444L286.392 47.8156C287.308 48.9822 287.944 51.0277 287.944 54.32L291.944 54.32ZM289.584 45.407C287.779 42.9148 284.71 41.97 281.124 41.97L281.124 45.97C284.138 45.97 285.629 46.7652 286.344 47.753L289.584 45.407ZM281.124 41.97L275.184 41.97L275.184 45.97L281.124 45.97L281.124 41.97ZM275.184 41.97C271.588 41.97 268.521 42.9185 266.661 45.3712L269.848 47.7888C270.627 46.7615 272.18 45.97 275.184 45.97L275.184 41.97ZM266.681 45.3444C264.958 47.5378 264.274 50.6523 264.274 54.32L268.274 54.32C268.274 51.0277 268.91 48.9822 269.827 47.8156L266.681 45.3444ZM264.274 54.32L264.274 63.59L268.274 63.59L268.274 54.32L264.274 54.32ZM264.274 63.59C264.274 67.3166 264.958 70.474 266.661 72.7188L269.848 70.3012C268.91 69.066 268.274 66.9434 268.274 63.59L264.274 63.59ZM266.681 72.7456C268.55 75.1237 271.61 76.03 275.184 76.03L275.184 72.03C272.158 72.03 270.598 71.2563 269.827 70.2744L266.681 72.7456ZM275.184 76.03L281.124 76.03L281.124 72.03L275.184 72.03L275.184 76.03ZM281.124 76.03C284.688 76.03 287.751 75.1278 289.564 72.71L286.364 70.31C285.658 71.2522 284.16 72.03 281.124 72.03L281.124 76.03ZM289.558 72.7188C291.26 70.474 291.944 67.3166 291.944 63.59L287.944 63.59C287.944 66.9434 287.308 69.066 286.371 70.3012L289.558 72.7188ZM291.944 63.59L291.944 54.32L287.944 54.32L287.944 63.59L291.944 63.59ZM343.905 67.1L343.52 69.0625L343.533 69.0652L343.547 69.0677L343.905 67.1ZM329.235 64.22L328.843 66.1812L328.849 66.1825L329.235 64.22ZM316.815 58.55L315.432 59.9946L315.439 60.0019L315.447 60.0091L316.815 58.55ZM313.755 41.72L311.922 40.9184L311.912 40.9427L311.902 40.9672L313.755 41.72ZM317.535 36.68L316.26 35.1392L316.246 35.1502L316.233 35.1615L317.535 36.68ZM324.105 33.26L323.511 31.3502L323.498 31.3541L324.105 33.26ZM360.465 32L362.465 32L362.465 30L360.465 30L360.465 32ZM360.465 45.05L360.465 47.05L362.465 47.05L362.465 45.05L360.465 45.05ZM331.395 50.72L331.779 48.7573L331.766 48.7547L331.753 48.7523L331.395 50.72ZM344.715 53.33L345.107 51.3688L345.099 51.3673L344.715 53.33ZM358.845 59.27L357.478 60.73L357.494 60.745L357.51 60.7597L358.845 59.27ZM357.585 81.5L358.853 83.0468L358.855 83.0446L357.585 81.5ZM314.385 86L312.385 86L312.385 88L314.385 88L314.385 86ZM314.385 72.95L314.385 70.95L312.385 70.95L312.385 72.95L314.385 72.95ZM347.415 72.14L346.077 70.6534L346.038 70.6886L346.001 70.7258L347.415 72.14ZM347.055 68.09L346.107 69.8509L346.133 69.8653L346.16 69.8789L347.055 68.09ZM344.29 65.1375L329.62 62.2575L328.849 66.1825L343.52 69.0625L344.29 65.1375ZM329.627 62.2588C324.454 61.2243 320.703 59.4541 318.183 57.0909L315.447 60.0091C318.686 63.0459 323.215 65.0557 328.843 66.1812L329.627 62.2588ZM318.198 57.1054C315.833 54.8412 314.585 51.7953 314.585 47.75L310.585 47.75C310.585 52.7047 312.156 56.8588 315.432 59.9946L318.198 57.1054ZM314.585 47.75C314.585 45.9045 314.926 44.1504 315.608 42.4728L311.902 40.9672C311.023 43.1296 310.585 45.3955 310.585 47.75L314.585 47.75ZM315.587 42.5216C316.3 40.8929 317.372 39.4538 318.836 38.1985L316.233 35.1615C314.338 36.7862 312.89 38.7071 311.922 40.9184L315.587 42.5216ZM318.81 38.2208C320.313 36.9767 322.262 35.9452 324.711 35.1658L323.498 31.3541C320.668 32.2548 318.236 33.5033 316.26 35.1392L318.81 38.2208ZM324.699 35.1697C327.16 34.4042 330.13 34 333.645 34L333.645 30C329.839 30 326.45 30.4358 323.511 31.3503L324.699 35.1697ZM333.645 34L360.465 34L360.465 30L333.645 30L333.645 34ZM358.465 32L358.465 45.05L362.465 45.05L362.465 32L358.465 32ZM360.465 43.05L332.295 43.05L332.295 47.05L360.465 47.05L360.465 43.05ZM332.295 43.05C331.308 43.05 330.399 43.1227 329.606 43.3013C328.832 43.4754 328.011 43.7845 327.357 44.3734L330.033 47.3466C329.978 47.3955 330.057 47.2996 330.484 47.2037C330.89 47.1123 331.481 47.05 332.295 47.05L332.295 43.05ZM327.357 44.3734C326.437 45.2011 325.795 46.3092 325.795 47.66L329.795 47.66C329.795 47.6457 329.795 47.6364 329.809 47.6094C329.826 47.5738 329.882 47.4823 330.033 47.3466L327.357 44.3734ZM325.795 47.66C325.795 48.9451 326.301 50.0744 327.191 50.9642L330.019 48.1358C329.829 47.9456 329.795 47.8149 329.795 47.66L325.795 47.66ZM327.191 50.9642C328.164 51.9375 329.584 52.4235 331.037 52.6877L331.753 48.7523C330.566 48.5365 330.126 48.2425 330.019 48.1358L327.191 50.9642ZM331.01 52.6827L344.33 55.2927L345.099 51.3673L331.779 48.7573L331.01 52.6827ZM344.323 55.2912C350.795 56.5856 355.064 58.4706 357.478 60.73L360.212 57.81C356.985 54.7894 351.835 52.7144 345.107 51.3688L344.323 55.2912ZM357.51 60.7597C359.914 62.9134 361.165 65.7943 361.165 69.62L365.165 69.62C365.165 64.8057 363.535 60.7866 360.179 57.7803L357.51 60.7597ZM361.165 69.62C361.165 73.8882 359.568 77.2793 356.314 79.9554L358.855 83.0446C363.042 79.6007 365.165 75.0718 365.165 69.62L361.165 69.62ZM356.317 79.9532C353.171 82.5318 348.137 84 340.845 84L340.845 88C348.553 88 354.678 86.4682 358.853 83.0468L356.317 79.9532ZM340.845 84L314.385 84L314.385 88L340.845 88L340.845 84ZM316.385 86L316.385 72.95L312.385 72.95L312.385 86L316.385 86ZM314.385 74.95L343.725 74.95L343.725 70.95L314.385 70.95L314.385 74.95ZM343.725 74.95C344.762 74.95 345.707 74.8785 346.516 74.701C347.287 74.5319 348.165 74.2177 348.829 73.5542L346.001 70.7258C346.124 70.6023 346.118 70.6931 345.658 70.794C345.237 70.8865 344.607 70.95 343.725 70.95L343.725 74.95ZM348.753 73.6266C349.793 72.6902 350.315 71.4508 350.315 70.07L346.315 70.07C346.315 70.3692 346.236 70.5098 346.077 70.6534L348.753 73.6266ZM350.315 70.07C350.315 69.2982 350.131 68.5232 349.687 67.8262C349.247 67.1342 348.628 66.6406 347.949 66.3011L346.16 69.8789C346.243 69.9202 346.286 69.9528 346.304 69.9685C346.321 69.9829 346.32 69.985 346.312 69.9737C346.305 69.9621 346.303 69.9544 346.305 69.9599C346.307 69.9674 346.315 70.0009 346.315 70.07L350.315 70.07ZM348.003 66.3291C346.969 65.7724 345.694 65.3926 344.263 65.1323L343.547 69.0677C344.755 69.2874 345.58 69.5676 346.107 69.8509L348.003 66.3291ZM447.311 18.5L449.311 18.5L449.311 16.5L447.311 16.5L447.311 18.5ZM447.311 86L447.311 88L449.311 88L449.311 86L447.311 86ZM430.211 32L430.211 34L432.211 34L432.211 32L430.211 32ZM430.211 18.5L430.211 16.5L428.211 16.5L428.211 18.5L430.211 18.5ZM430.211 72.68L430.211 74.68L432.211 74.68L432.211 72.68L430.211 72.68ZM430.211 45.32L432.211 45.32L432.211 43.32L430.211 43.32L430.211 45.32ZM407.261 47.84L408.806 49.1095L407.261 47.84ZM407.261 70.43L405.763 71.7552L405.775 71.7698L405.789 71.7841L407.261 70.43ZM445.311 18.5L445.311 86L449.311 86L449.311 18.5L445.311 18.5ZM447.311 84L408.971 84L408.971 88L447.311 88L447.311 84ZM408.971 84C402.804 84 398.177 81.9709 394.833 78.0435L391.788 80.6365C396.004 85.5891 401.817 88 408.971 88L408.971 84ZM394.833 78.0435C391.434 74.0503 389.641 68.6699 389.641 61.7L385.641 61.7C385.641 69.3701 387.627 75.7497 391.788 80.6365L394.833 78.0435ZM389.641 61.7L389.641 56.3L385.641 56.3L385.641 61.7L389.641 61.7ZM389.641 56.3C389.641 49.3301 391.434 43.9497 394.833 39.9565L391.788 37.3635C387.627 42.2503 385.641 48.6299 385.641 56.3L389.641 56.3ZM394.833 39.9565C398.177 36.0291 402.804 34 408.971 34L408.971 30C401.817 30 396.004 32.4109 391.788 37.3635L394.833 39.9565ZM408.971 34L430.211 34L430.211 30L408.971 30L408.971 34ZM432.211 32L432.211 18.5L428.211 18.5L428.211 32L432.211 32ZM430.211 20.5L447.311 20.5L447.311 16.5L430.211 16.5L430.211 20.5ZM414.821 74.68L430.211 74.68L430.211 70.68L414.821 70.68L414.821 74.68ZM432.211 72.68L432.211 45.32L428.211 45.32L428.211 72.68L432.211 72.68ZM430.211 43.32L414.821 43.32L414.821 47.32L430.211 47.32L430.211 43.32ZM414.821 43.32C410.959 43.32 407.67 44.1902 405.715 46.5705L408.806 49.1095C409.611 48.1298 411.362 47.32 414.821 47.32L414.821 43.32ZM405.715 46.5705C403.906 48.7727 403.191 51.9373 403.191 55.67L407.191 55.67C407.191 52.3227 407.855 50.2673 408.806 49.1095L405.715 46.5705ZM403.191 55.67L403.191 62.78L407.191 62.78L407.191 55.67L403.191 55.67ZM403.191 62.78C403.191 66.4935 403.898 69.6478 405.763 71.7552L408.759 69.1049C407.863 68.0922 407.191 66.1465 407.191 62.78L403.191 62.78ZM405.789 71.7841C407.757 73.9237 411.013 74.68 414.821 74.68L414.821 70.68C411.308 70.68 409.524 69.9363 408.732 69.0759L405.789 71.7841ZM510.024 64.04L510.024 66.04L512.024 66.04L512.024 64.04L510.024 64.04ZM471.414 64.04L471.414 62.04L469.414 62.04L469.414 64.04L471.414 64.04ZM473.664 71.24L474.874 69.6477L473.664 71.24ZM508.764 72.95L510.764 72.95L510.764 70.95L508.764 70.95L508.764 72.95ZM508.764 86L508.764 88L510.764 88L510.764 86L508.764 86ZM468.984 84.29L468.351 86.1874L468.37 86.1936L468.389 86.1995L468.984 84.29ZM460.254 79.34L458.839 80.7542L458.859 80.7739L458.879 80.7929L460.254 79.34ZM455.484 71.6L453.579 72.2095L453.584 72.2267L453.59 72.2438L455.484 71.6ZM460.254 37.76L461.688 39.1539L461.698 39.1438L460.254 37.76ZM496.794 33.08L496.121 34.9635V34.9635L496.794 33.08ZM504.714 38.21L503.201 39.5183L503.22 39.5402L503.239 39.5614L504.714 38.21ZM508.854 46.04L510.792 45.546L508.854 46.04ZM473.124 45.23L474.607 46.5718V46.5718L473.124 45.23ZM471.414 52.7L469.414 52.7L469.414 54.7L471.414 54.7L471.414 52.7ZM493.824 52.7L493.824 54.7L495.824 54.7L495.824 52.7L493.824 52.7ZM492.024 45.23L490.541 46.5718L490.558 46.5908L490.575 46.6093L492.024 45.23ZM510.024 62.04L471.414 62.04L471.414 66.04L510.024 66.04L510.024 62.04ZM469.414 64.04L469.414 64.4L473.414 64.4L473.414 64.04L469.414 64.04ZM469.414 64.4C469.414 67.9608 470.167 71.0949 472.454 72.8323L474.874 69.6477C474.16 69.1051 473.414 67.6792 473.414 64.4L469.414 64.4ZM472.454 72.8323C474.504 74.3903 477.657 74.95 481.404 74.95L481.404 70.95C477.831 70.95 475.824 70.3697 474.874 69.6477L472.454 72.8323ZM481.404 74.95L508.764 74.95L508.764 70.95L481.404 70.95L481.404 74.95ZM506.764 72.95L506.764 86L510.764 86L510.764 72.95L506.764 72.95ZM508.764 84L482.394 84L482.394 88L508.764 88L508.764 84ZM482.394 84C477.245 84 472.989 83.4427 469.578 82.3805L468.389 86.1995C472.299 87.4173 476.982 88 482.394 88L482.394 84ZM469.616 82.3926C466.228 81.2632 463.591 79.7442 461.628 77.8871L458.879 80.7929C461.356 83.1358 464.54 84.9168 468.351 86.1874L469.616 82.3926ZM461.668 77.9258C459.733 75.9907 458.302 73.6772 457.377 70.9562L453.59 72.2438C454.705 75.5228 456.455 78.3693 458.839 80.7542L461.668 77.9258ZM457.389 70.9904C456.5 68.2134 456.044 65.1221 456.044 61.7L452.044 61.7C452.044 65.4779 452.548 68.9866 453.579 72.2095L457.389 70.9904ZM456.044 61.7L456.044 54.86L452.044 54.86L452.044 61.7L456.044 61.7ZM456.044 54.86C456.044 48.1286 457.982 42.9673 461.688 39.1539L458.819 36.3661C454.245 41.0727 452.044 47.3114 452.044 54.86L456.044 54.86ZM461.698 39.1438C465.291 35.3937 471.414 33.28 480.594 33.28L480.594 29.28C470.934 29.28 463.496 31.4863 458.81 36.3762L461.698 39.1438ZM480.594 33.28L484.194 33.28L484.194 29.28L480.594 29.28L480.594 33.28ZM484.194 33.28C489.091 33.28 493.046 33.8652 496.121 34.9635L497.466 31.1965C493.821 29.8948 489.376 29.28 484.194 29.28L484.194 33.28ZM496.121 34.9635C499.226 36.0723 501.551 37.6101 503.201 39.5183L506.226 36.9017C504.037 34.3699 501.082 32.4877 497.466 31.1965L496.121 34.9635ZM503.239 39.5614C504.979 41.4596 506.211 43.7682 506.916 46.534L510.792 45.546C509.937 42.1918 508.408 39.2804 506.188 36.8585L503.239 39.5614ZM506.916 46.534C507.648 49.407 508.024 52.6279 508.024 56.21L512.024 56.21C512.024 52.3521 511.619 48.793 510.792 45.546L506.916 46.534ZM508.024 56.21L508.024 64.04L512.024 64.04L512.024 56.21L508.024 56.21ZM486.174 41.34L479.154 41.34L479.154 45.34L486.174 45.34L486.174 41.34ZM479.154 41.34C476.083 41.34 473.354 41.9947 471.641 43.8882L474.607 46.5718C475.174 45.9453 476.464 45.34 479.154 45.34L479.154 41.34ZM471.641 43.8882C469.998 45.7041 469.414 48.4261 469.414 51.53L473.414 51.53C473.414 48.7539 473.97 47.2759 474.607 46.5718L471.641 43.8882ZM469.414 51.53L469.414 52.7L473.414 52.7L473.414 51.53L469.414 51.53ZM471.414 54.7L493.824 54.7L493.824 50.7L471.414 50.7L471.414 54.7ZM495.824 52.7L495.824 51.53L491.824 51.53L491.824 52.7L495.824 52.7ZM495.824 51.53C495.824 48.407 495.202 45.6676 493.472 43.8507L490.575 46.6093C491.245 47.3124 491.824 48.773 491.824 51.53L495.824 51.53ZM493.507 43.8882C491.806 42.0089 489.156 41.34 486.174 41.34L486.174 45.34C488.711 45.34 489.961 45.9311 490.541 46.5718L493.507 43.8882Z" fill="white" mask="url(#path-2-inside-1_511_2)"/>
</g>
<defs>
<filter id="filter0_d_511_2" x="1.85001" y="16.7" width="512.174" height="78.2001" filterUnits="userSpaceOnUse" color-interpolation-filters="sRGB">
<feFlood flood-opacity="0" result="BackgroundImageFix"/>
<feColorMatrix in="SourceAlpha" type="matrix" values="0 0 0 0 0 0 0 0 0 0 0 0 0 0 0 0 0 0 127 0" result="hardAlpha"/>
<feOffset dy="4"/>
<feGaussianBlur stdDeviation="2"/>
<feComposite in2="hardAlpha" operator="out"/>
<feColorMatrix type="matrix" values="0 0 0 0 0 0 0 0 0 0 0 0 0 0 0 0 0 0 0.25 0"/>
<feBlend mode="normal" in2="BackgroundImageFix" result="effect1_dropShadow_511_2"/>
<feBlend mode="normal" in="SourceGraphic" in2="effect1_dropShadow_511_2" result="shape"/>
</filter>
</defs>
</svg>
