<svg xmlns="http://www.w3.org/2000/svg" width="678" height="85" fill="none" viewBox="0 0 678 85">
  <path fill="#fff" d="M7.455 84.053c-2.028 0-3.549-.312-4.563-.936-1.014-.624-1.677-1.482-1.989-2.574-.234-1.092-.351-2.301-.351-3.627V9.407c0-1.248.117-2.379.351-3.393.312-1.092.975-1.95 1.989-2.574 1.014-.702 2.613-1.053 4.797-1.053 1.638 0 2.847.117 3.627.351.858.156 1.521.429 1.989.819.468.312.936.741 1.404 1.287l28.548 39.897h-2.691L69.231 4.727c.546-.624 1.092-1.092 1.638-1.404.546-.312 1.248-.546 2.106-.702.858-.156 1.989-.234 3.393-.234 2.106 0 3.666.351 4.68 1.053 1.014.624 1.638 1.482 1.872 2.574.312 1.092.468 2.301.468 3.627V77.15c0 1.17-.156 2.301-.468 3.393-.234 1.092-.858 1.95-1.872 2.574-1.014.624-2.613.936-4.797.936-2.106 0-3.666-.351-4.68-1.053-1.014-.624-1.677-1.482-1.989-2.574a16.734 16.734 0 0 1-.351-3.51V26.723L47.937 57.494a27.38 27.38 0 0 1-1.053 1.287c-.468.468-1.092.897-1.872 1.287-.78.39-1.833.585-3.159.585-1.248 0-2.262-.195-3.042-.585-.78-.39-1.404-.819-1.872-1.287l-1.17-1.404-21.177-30.654V77.15c0 1.17-.156 2.301-.468 3.393-.234 1.092-.858 1.95-1.872 2.574-1.014.624-2.613.936-4.797.936Zm135.433-.117c-2.262 0-3.939-.429-5.031-1.287-1.092-.858-1.638-2.028-1.638-3.51l.819-3.861c-.624 1.014-1.677 2.223-3.159 3.627-1.482 1.326-3.432 2.535-5.85 3.627-2.418 1.014-5.343 1.521-8.775 1.521-3.666 0-7.137-.741-10.413-2.223-3.198-1.56-6.045-3.666-8.541-6.318-2.418-2.73-4.368-5.811-5.85-9.243-1.404-3.51-2.106-7.254-2.106-11.232 0-3.822.702-7.41 2.106-10.764 1.482-3.432 3.471-6.474 5.967-9.126 2.496-2.652 5.343-4.719 8.541-6.201 3.276-1.56 6.708-2.34 10.296-2.34 3.198 0 5.889.429 8.073 1.287 2.262.858 4.173 1.95 5.733 3.276 1.56 1.248 2.847 2.574 3.861 3.978l-.702-3.393c0-1.716.546-3.003 1.638-3.861 1.092-.936 2.808-1.404 5.148-1.404 2.184 0 3.744.351 4.68 1.053.936.624 1.521 1.521 1.755 2.691.234 1.092.351 2.34.351 3.744v42.822c0 1.326-.117 2.535-.351 3.627-.234 1.092-.858 1.95-1.872 2.574-.936.624-2.496.936-4.68.936ZM121.36 70.364c2.652 0 5.031-.663 7.137-1.989s3.783-3.12 5.031-5.382c1.326-2.34 1.989-4.914 1.989-7.722 0-3.042-.663-5.694-1.989-7.956-1.326-2.262-3.081-4.017-5.265-5.265-2.106-1.326-4.485-1.989-7.137-1.989-2.886 0-5.46.702-7.722 2.106-2.262 1.326-4.056 3.159-5.382 5.499-1.248 2.262-1.872 4.836-1.872 7.722 0 2.808.663 5.343 1.989 7.605a14.837 14.837 0 0 0 5.382 5.382c2.34 1.326 4.953 1.989 7.839 1.989Zm47.073 13.806c-2.106 0-3.666-.351-4.68-1.053-.936-.624-1.521-1.482-1.755-2.574-.234-1.092-.351-2.301-.351-3.627V33.509c0-1.404.117-2.613.351-3.627.234-1.092.819-1.911 1.755-2.457 1.014-.624 2.613-.936 4.797-.936 2.106 0 3.627.273 4.563.819 1.014.546 1.638 1.248 1.872 2.106.312.78.468 1.56.468 2.34l-.936 2.106c.39-.624.936-1.365 1.638-2.223.702-.936 1.638-1.833 2.808-2.691 1.17-.936 2.574-1.677 4.212-2.223 1.638-.624 3.588-.936 5.85-.936.936 0 1.911.117 2.925.351 1.092.156 2.145.429 3.159.819 1.092.312 2.067.741 2.925 1.287.858.546 1.521 1.209 1.989 1.989.468.702.702 1.521.702 2.457 0 2.496-.624 4.602-1.872 6.318-1.248 1.716-2.73 2.574-4.446 2.574-1.17 0-2.028-.117-2.574-.351a6.049 6.049 0 0 1-1.404-.819c-.312-.312-.819-.585-1.521-.819-.624-.234-1.638-.351-3.042-.351-1.17 0-2.379.195-3.627.585-1.17.39-2.262.975-3.276 1.755-1.014.78-1.833 1.794-2.457 3.042-.624 1.17-.936 2.535-.936 4.095V77.15c0 1.326-.117 2.535-.351 3.627-.234 1.014-.858 1.833-1.872 2.457-1.014.624-2.652.936-4.914.936Zm49.145 0c-2.106 0-3.666-.351-4.68-1.053-1.014-.624-1.638-1.443-1.872-2.457-.234-1.092-.351-2.301-.351-3.627V33.509c0-1.248.117-2.379.351-3.393a4.476 4.476 0 0 1 1.872-2.574c1.014-.624 2.613-.936 4.797-.936 2.184 0 3.744.312 4.68.936 1.014.624 1.638 1.482 1.872 2.574.234 1.092.351 2.301.351 3.627V77.15c0 1.326-.117 2.535-.351 3.627-.234 1.014-.858 1.833-1.872 2.457-.936.624-2.535.936-4.797.936Zm0-68.913c-2.262 0-3.939-.312-5.031-.936-1.014-.702-1.677-1.638-1.989-2.808-.234-1.17-.351-2.457-.351-3.861 0-1.482.117-2.769.351-3.861.312-1.092 1.014-1.95 2.106-2.574 1.092-.702 2.769-1.053 5.031-1.053 2.34 0 4.017.351 5.031 1.053 1.014.702 1.677 1.638 1.989 2.808.312 1.092.468 2.379.468 3.861a14.48 14.48 0 0 1-.468 3.744c-.312 1.17-.975 2.067-1.989 2.691-1.014.624-2.73.936-5.148.936Zm46.158 69.615c-3.744 0-7.41-.702-10.998-2.106-3.51-1.482-6.708-3.549-9.594-6.201-2.808-2.652-5.07-5.772-6.786-9.36-1.638-3.588-2.457-7.527-2.457-11.817 0-4.134.78-7.995 2.34-11.583a30.44 30.44 0 0 1 6.435-9.477 29.177 29.177 0 0 1 9.36-6.318c3.588-1.56 7.41-2.34 11.466-2.34 5.46 0 10.413 1.326 14.859 3.978 4.446 2.574 7.995 6.084 10.647 10.53s3.978 9.477 3.978 15.093c0 4.446-.819 8.502-2.457 12.168-1.638 3.588-3.861 6.708-6.669 9.36a30.903 30.903 0 0 1-9.477 5.967 27.865 27.865 0 0 1-10.647 2.106Zm-.234-13.806c2.574 0 5.031-.624 7.371-1.872 2.418-1.326 4.368-3.198 5.85-5.616 1.56-2.418 2.34-5.265 2.34-8.541 0-3.042-.702-5.733-2.106-8.073a14.327 14.327 0 0 0-5.499-5.499c-2.34-1.326-5.031-1.989-8.073-1.989-2.886 0-5.499.702-7.839 2.106-2.34 1.326-4.212 3.198-5.616 5.616-1.326 2.34-1.989 4.992-1.989 7.956 0 3.276.741 6.123 2.223 8.541 1.482 2.34 3.393 4.173 5.733 5.499 2.418 1.248 4.953 1.872 7.605 1.872Zm74.019 12.987c-2.028 0-3.549-.351-4.563-1.053-1.014-.702-1.677-1.638-1.989-2.808-.234-1.17-.351-2.457-.351-3.861V9.875c0-1.404.156-2.652.468-3.744.312-1.17.936-2.106 1.872-2.808 1.014-.702 2.574-1.053 4.68-1.053h30.888c4.524 0 8.502 1.053 11.934 3.159 3.51 2.106 6.24 4.914 8.19 8.424 1.95 3.432 2.925 7.215 2.925 11.349 0 1.872-.234 3.744-.702 5.616a16.54 16.54 0 0 1-1.989 5.031 17.024 17.024 0 0 1-3.276 4.212c1.794 1.404 3.354 3.12 4.68 5.148a22.258 22.258 0 0 1 2.925 6.669c.702 2.34 1.053 4.797 1.053 7.371-.078 3.51-.741 6.786-1.989 9.828a24.334 24.334 0 0 1-5.265 7.839c-2.184 2.262-4.758 4.017-7.722 5.265-2.964 1.248-6.162 1.872-9.594 1.872h-32.175Zm7.254-13.806h23.751c2.262 0 4.251-.429 5.967-1.287 1.794-.858 3.198-2.184 4.212-3.978 1.014-1.794 1.521-4.134 1.521-7.02 0-2.262-.312-4.056-.936-5.382-.546-1.404-1.326-2.496-2.34-3.276-.936-.78-2.028-1.326-3.276-1.638a13.572 13.572 0 0 0-3.51-.468 49.435 49.435 0 0 0-3.276-.117h-5.382c-2.028 0-3.51-.468-4.446-1.404-.936-1.014-1.404-2.652-1.404-4.914 0-2.106.507-3.588 1.521-4.446 1.014-.936 2.574-1.404 4.68-1.404h5.265c1.014 0 2.106-.039 3.276-.117a10.504 10.504 0 0 0 3.51-.819c1.092-.546 1.989-1.404 2.691-2.574.702-1.17 1.053-2.886 1.053-5.148 0-3.51-.936-6.045-2.808-7.605-1.794-1.638-4.914-2.457-9.36-2.457h-20.709v54.054Zm66.913 13.923c-2.106 0-3.666-.351-4.68-1.053-.936-.624-1.521-1.482-1.755-2.574-.234-1.092-.351-2.301-.351-3.627V33.509c0-1.404.117-2.613.351-3.627.234-1.092.819-1.911 1.755-2.457 1.014-.624 2.613-.936 4.797-.936 2.106 0 3.627.273 4.563.819 1.014.546 1.638 1.248 1.872 2.106.312.78.468 1.56.468 2.34l-.936 2.106c.39-.624.936-1.365 1.638-2.223.702-.936 1.638-1.833 2.808-2.691 1.17-.936 2.574-1.677 4.212-2.223 1.638-.624 3.588-.936 5.85-.936.936 0 1.911.117 2.925.351 1.092.156 2.145.429 3.159.819 1.092.312 2.067.741 2.925 1.287.858.546 1.521 1.209 1.989 1.989.468.702.702 1.521.702 2.457 0 2.496-.624 4.602-1.872 6.318-1.248 1.716-2.73 2.574-4.446 2.574-1.17 0-2.028-.117-2.574-.351a6.049 6.049 0 0 1-1.404-.819c-.312-.312-.819-.585-1.521-.819-.624-.234-1.638-.351-3.042-.351-1.17 0-2.379.195-3.627.585-1.17.39-2.262.975-3.276 1.755-1.014.78-1.833 1.794-2.457 3.042-.624 1.17-.936 2.535-.936 4.095V77.15c0 1.326-.117 2.535-.351 3.627-.234 1.014-.858 1.833-1.872 2.457-1.014.624-2.652.936-4.914.936Zm65.961.702c-5.07 0-9.516-.819-13.338-2.457-3.744-1.638-6.903-3.861-9.477-6.669a31.686 31.686 0 0 1-5.733-9.594 33.596 33.596 0 0 1-1.872-11.115c0-5.616 1.287-10.608 3.861-14.976 2.574-4.368 6.123-7.8 10.647-10.296 4.602-2.496 9.867-3.744 15.795-3.744 4.212 0 7.917.663 11.115 1.989 3.198 1.326 5.85 3.081 7.956 5.265 2.184 2.106 3.822 4.446 4.914 7.02 1.17 2.574 1.755 5.07 1.755 7.488 0 4.134-1.014 7.137-3.042 9.009-1.95 1.872-4.407 2.808-7.371 2.808h-30.888c.078 2.652.897 4.953 2.457 6.903 1.638 1.95 3.666 3.471 6.084 4.563 2.496 1.014 5.031 1.521 7.605 1.521 1.95 0 3.666-.117 5.148-.351 1.56-.234 2.886-.507 3.978-.819 1.092-.39 2.028-.78 2.808-1.17.858-.39 1.638-.741 2.34-1.053.702-.312 1.365-.507 1.989-.585.858-.078 1.716.117 2.574.585.858.468 1.56 1.287 2.106 2.457.468.78.78 1.521.936 2.223a5.3 5.3 0 0 1 .351 1.872c0 1.56-.936 3.042-2.808 4.446-1.872 1.326-4.524 2.418-7.956 3.276-3.354.936-7.332 1.404-11.934 1.404Zm-15.678-33.579h23.985c1.326 0 2.34-.195 3.042-.585.702-.468 1.053-1.404 1.053-2.808 0-1.794-.546-3.393-1.638-4.797-1.092-1.482-2.574-2.613-4.446-3.393-1.872-.858-4.056-1.287-6.552-1.287-2.886 0-5.499.585-7.839 1.755-2.34 1.092-4.212 2.613-5.616 4.563-1.326 1.95-1.989 4.134-1.989 6.552Zm78.19 32.877c-3.822 0-7.098-.39-9.828-1.17-2.73-.78-4.953-1.989-6.669-3.627-1.716-1.638-3.003-3.744-3.861-6.318-.78-2.652-1.17-5.772-1.17-9.36V14.087c0-1.404.117-2.613.351-3.627.312-1.014.936-1.794 1.872-2.34 1.014-.624 2.574-.936 4.68-.936 2.184 0 3.744.312 4.68.936 1.014.624 1.638 1.482 1.872 2.574.312 1.014.468 2.145.468 3.393v49.14c0 1.638.117 2.964.351 3.978.312 1.014.741 1.794 1.287 2.34.624.468 1.404.819 2.34 1.053 1.014.156 2.223.234 3.627.234 1.482 0 2.73.117 3.744.351 1.092.234 1.911.819 2.457 1.755.546.858.819 2.301.819 4.329 0 2.184-.351 3.783-1.053 4.797-.624.936-1.482 1.521-2.574 1.755-1.014.234-2.145.351-3.393.351Zm-26.325-56.511 12.051.117 16.146-.468c1.326 0 2.496.156 3.51.468 1.092.234 1.95.858 2.574 1.872.624.936.936 2.496.936 4.68 0 2.028-.312 3.549-.936 4.563-.624 1.014-1.443 1.677-2.457 1.989-1.014.234-2.184.351-3.51.351l-15.678-.234-12.987.117c-1.95-.078-3.315-.624-4.095-1.638-.702-1.092-1.053-2.847-1.053-5.265 0-2.262.429-3.9 1.287-4.914.936-1.092 2.34-1.638 4.212-1.638Zm70.85 57.213c-3.744 0-7.41-.702-10.998-2.106-3.51-1.482-6.708-3.549-9.594-6.201-2.808-2.652-5.07-5.772-6.786-9.36-1.638-3.588-2.457-7.527-2.457-11.817 0-4.134.78-7.995 2.34-11.583a30.44 30.44 0 0 1 6.435-9.477 29.177 29.177 0 0 1 9.36-6.318c3.588-1.56 7.41-2.34 11.466-2.34 5.46 0 10.413 1.326 14.859 3.978 4.446 2.574 7.995 6.084 10.647 10.53s3.978 9.477 3.978 15.093c0 4.446-.819 8.502-2.457 12.168-1.638 3.588-3.861 6.708-6.669 9.36a30.903 30.903 0 0 1-9.477 5.967 27.865 27.865 0 0 1-10.647 2.106Zm-.234-13.806c2.574 0 5.031-.624 7.371-1.872 2.418-1.326 4.368-3.198 5.85-5.616 1.56-2.418 2.34-5.265 2.34-8.541 0-3.042-.702-5.733-2.106-8.073a14.327 14.327 0 0 0-5.499-5.499c-2.34-1.326-5.031-1.989-8.073-1.989-2.886 0-5.499.702-7.839 2.106-2.34 1.326-4.212 3.198-5.616 5.616-1.326 2.34-1.989 4.992-1.989 7.956 0 3.276.741 6.123 2.223 8.541 1.482 2.34 3.393 4.173 5.733 5.499 2.418 1.248 4.953 1.872 7.605 1.872Zm-3.744-50.544c-1.248.234-2.301 0-3.159-.702-.78-.702-1.443-1.95-1.989-3.744-.702-2.184-.858-3.822-.468-4.914.468-1.17 1.677-2.067 3.627-2.691l19.656-6.201c1.248-.234 2.262.039 3.042.819.858.702 1.521 1.95 1.989 3.744.78 2.106.897 3.744.351 4.914-.468 1.092-1.638 1.95-3.51 2.574l-19.539 6.201Zm49.327 63.531c-2.106 0-3.666-.351-4.68-1.053-.936-.624-1.521-1.443-1.755-2.457-.234-1.092-.351-2.301-.351-3.627V33.158c0-1.248.117-2.379.351-3.393.234-1.014.858-1.794 1.872-2.34 1.014-.624 2.574-.936 4.68-.936 1.872 0 3.276.234 4.212.702.936.468 1.56 1.053 1.872 1.755.312.702.468 1.404.468 2.106.078.702.156 1.248.234 1.638l-.468 3.744c.468-1.248 1.248-2.457 2.34-3.627 1.092-1.17 2.418-2.223 3.978-3.159a19.719 19.719 0 0 1 5.031-2.34 18.016 18.016 0 0 1 5.733-.936c3.666 0 6.942.663 9.828 1.989a20.874 20.874 0 0 1 7.371 5.616c2.106 2.418 3.705 5.304 4.797 8.658 1.092 3.276 1.638 6.981 1.638 11.115v23.283c0 1.326-.156 2.535-.468 3.627-.234 1.014-.819 1.833-1.755 2.457-.936.624-2.535.936-4.797.936-2.184 0-3.783-.351-4.797-1.053-1.014-.624-1.638-1.443-1.872-2.457-.234-1.092-.351-2.301-.351-3.627V53.633c0-2.808-.507-5.226-1.521-7.254-.936-2.028-2.34-3.588-4.212-4.68-1.794-1.092-4.095-1.638-6.903-1.638-2.73 0-5.109.585-7.137 1.755a11.28 11.28 0 0 0-4.68 4.68c-1.092 2.028-1.638 4.407-1.638 7.137v23.4c0 1.326-.117 2.535-.351 3.627-.234 1.014-.858 1.833-1.872 2.457-.936.624-2.535.936-4.797.936Z"/>
</svg>
