<?xml version="1.0" encoding="UTF-8"?>
<svg xmlns="http://www.w3.org/2000/svg" xmlns:xlink="http://www.w3.org/1999/xlink" version="1.1" viewBox="0 0 246.8 153.2">
  <!-- Generator: Adobe Illustrator 29.2.1, SVG Export Plug-In . SVG Version: 2.1.0 Build 116)  -->
  <defs>
    <style>
      .st0, .st1 {
        fill: none;
      }

      .st2 {
        fill: #eb6209;
        stroke: #eb6209;
      }

      .st2, .st3 {
        stroke-miterlimit: 6;
        stroke-width: 0px;
      }

      .st1 {
        stroke: #fff;
        stroke-width: 0px;
      }

      .st1, .st4 {
        stroke-miterlimit: 10;
      }

      .st5 {
        fill: url(#linear-gradient2);
      }

      .st6 {
        fill: url(#linear-gradient1);
      }

      .st7 {
        fill: url(#linear-gradient9);
      }

      .st8 {
        fill: url(#linear-gradient6);
      }

      .st9 {
        fill: url(#linear-gradient8);
      }

      .st10 {
        fill: url(#linear-gradient7);
      }

      .st11 {
        fill: url(#linear-gradient5);
      }

      .st12 {
        fill: url(#linear-gradient4);
      }

      .st13 {
        fill: url(#linear-gradient3);
        opacity: .7;
      }

      .st14 {
        fill: #b12535;
      }

      .st15 {
        fill: #83bc56;
      }

      .st16 {
        fill: url(#linear-gradient18);
      }

      .st17 {
        fill: url(#linear-gradient13);
      }

      .st18 {
        fill: url(#linear-gradient12);
      }

      .st19 {
        fill: url(#linear-gradient15);
      }

      .st20 {
        fill: url(#linear-gradient16);
      }

      .st21 {
        fill: url(#linear-gradient11);
      }

      .st22 {
        fill: url(#linear-gradient10);
      }

      .st23 {
        fill: url(#linear-gradient17);
      }

      .st24 {
        fill: url(#linear-gradient14);
      }

      .st25 {
        mix-blend-mode: multiply;
        opacity: .7;
      }

      .st26 {
        fill: url(#linear-gradient);
      }

      .st27 {
        isolation: isolate;
      }

      .st28 {
        fill: #072165;
      }

      .st4 {
        stroke: #072165;
        stroke-width: 0px;
      }

      .st4, .st29 {
        fill: #fff;
      }

      .st30 {
        clip-path: url(#clippath-1);
      }

      .st31 {
        clip-path: url(#clippath-3);
      }

      .st32 {
        clip-path: url(#clippath-2);
      }

      .st33 {
        fill: url(#linear-gradient19);
        mix-blend-mode: screen;
      }

      .st34 {
        fill: #f9dc3b;
      }

      .st35 {
        fill: #275e36;
      }

      .st36 {
        fill: #12009d;
      }

      .st37 {
        fill: #afd84c;
      }

      .st38 {
        opacity: .9;
      }

      .st39 {
        opacity: .8;
      }

      .st40 {
        opacity: .8;
      }

      .st41 {
        opacity: .6;
      }

      .st42 {
        opacity: .5;
      }

      .st43 {
        fill: red;
      }

      .st44, .st3 {
        fill: #e2071e;
      }

      .st45 {
        fill: #23a860;
      }

      .st3 {
        stroke: #e2071e;
      }

      .st46 {
        clip-path: url(#clippath);
      }

      .st47 {
        fill: #d82d89;
      }

      .st48 {
        fill: #48ae62;
      }
    </style>
    <clipPath id="clippath">
      <ellipse class="st0" cx="133.2" cy="126.3" rx="11.5" ry="11.6"/>
    </clipPath>
    <clipPath id="clippath-1">
      <polygon class="st0" points="106.4 125.7 106.6 125.2 105.8 125.5 105.4 125.6 104.7 126.7 106.2 126.1 106.4 125.7"/>
    </clipPath>
    <clipPath id="clippath-2">
      <polygon class="st0" points="109.8 123 108.4 124.6 109.1 124.3 109.7 124.1 111.4 122.2 110 122.6 109.8 123"/>
    </clipPath>
    <clipPath id="clippath-3">
      <polygon class="st0" points="110.1 123.7 109.7 124.1 105.1 128.9 104.6 129.4 103.8 131.4 111.9 123.1 110.1 123.7"/>
    </clipPath>
    <linearGradient id="linear-gradient" x1="166.9" y1="124.8" x2="164.3" y2="123.1" gradientUnits="userSpaceOnUse">
      <stop offset="0" stop-color="#0091d3"/>
      <stop offset=".3" stop-color="#0091d3"/>
      <stop offset=".4" stop-color="#008bcd"/>
      <stop offset=".6" stop-color="#017abd"/>
      <stop offset=".7" stop-color="#0360a2"/>
      <stop offset=".9" stop-color="#053a7e"/>
      <stop offset="1" stop-color="#072165"/>
    </linearGradient>
    <linearGradient id="linear-gradient1" x1="-848.2" y1="125" x2="-850.8" y2="123.3" gradientTransform="translate(-697.1) rotate(-180) scale(1 -1)" gradientUnits="userSpaceOnUse">
      <stop offset="0" stop-color="#83bc56"/>
      <stop offset=".3" stop-color="#81b956" stop-opacity="1"/>
      <stop offset=".4" stop-color="#7ab156" stop-opacity="1"/>
      <stop offset=".5" stop-color="#70a458" stop-opacity=".9"/>
      <stop offset=".7" stop-color="#61925a" stop-opacity=".9"/>
      <stop offset=".8" stop-color="#4e795c" stop-opacity=".8"/>
      <stop offset=".9" stop-color="#365c5f" stop-opacity=".8"/>
      <stop offset=".9" stop-color="#1a3962" stop-opacity=".7"/>
      <stop offset="1" stop-color="#072165" stop-opacity=".6"/>
    </linearGradient>
    <linearGradient id="linear-gradient2" x1="172.6" y1="125.7" x2="151.8" y2="122.4" gradientUnits="userSpaceOnUse">
      <stop offset="0" stop-color="#d82d89" stop-opacity=".8"/>
      <stop offset=".2" stop-color="#d32b89" stop-opacity=".8"/>
      <stop offset=".3" stop-color="#c7288a" stop-opacity=".8"/>
      <stop offset=".5" stop-color="#b2238c" stop-opacity=".7"/>
      <stop offset=".7" stop-color="#951c8f" stop-opacity=".6"/>
      <stop offset=".8" stop-color="#701393" stop-opacity=".5"/>
      <stop offset="1" stop-color="#470a97" stop-opacity=".4"/>
    </linearGradient>
    <linearGradient id="linear-gradient3" x1="152.7" y1="125.8" x2="158.9" y2="121.4" gradientUnits="userSpaceOnUse">
      <stop offset=".2" stop-color="#fff24a"/>
      <stop offset=".3" stop-color="#fef049" stop-opacity="1"/>
      <stop offset=".4" stop-color="#fdea48" stop-opacity=".9"/>
      <stop offset=".5" stop-color="#fae047" stop-opacity=".9"/>
      <stop offset=".7" stop-color="#f7d345" stop-opacity=".8"/>
      <stop offset=".8" stop-color="#f3c143" stop-opacity=".6"/>
      <stop offset=".9" stop-color="#eead40" stop-opacity=".5"/>
      <stop offset="1" stop-color="#e9973e" stop-opacity=".3"/>
    </linearGradient>
    <linearGradient id="linear-gradient4" x1="-709.5" y1="123.6" x2="-724" y2="122.2" gradientTransform="translate(-559.2) rotate(-180) scale(1 -1)" gradientUnits="userSpaceOnUse">
      <stop offset="0" stop-color="#d82d89"/>
      <stop offset=".3" stop-color="#d52c89"/>
      <stop offset=".4" stop-color="#cd2a8a"/>
      <stop offset=".6" stop-color="#be268b"/>
      <stop offset=".7" stop-color="#aa228d"/>
      <stop offset=".8" stop-color="#901b8f"/>
      <stop offset=".9" stop-color="#6f1393"/>
      <stop offset="1" stop-color="#4a0a96"/>
      <stop offset="1" stop-color="#470a97"/>
    </linearGradient>
    <linearGradient id="linear-gradient5" x1="-738.2" y1="124" x2="-722.8" y2="121.7" gradientTransform="translate(-571.1) rotate(-180) scale(1 -1)" gradientUnits="userSpaceOnUse">
      <stop offset="0" stop-color="#0091d3"/>
      <stop offset=".8" stop-color="#072165" stop-opacity="0"/>
    </linearGradient>
    <linearGradient id="linear-gradient6" x1="157.6" y1="123.3" x2="153.3" y2="122.7" gradientUnits="userSpaceOnUse">
      <stop offset="0" stop-color="#e9973e" stop-opacity=".1"/>
      <stop offset="0" stop-color="#e9983e" stop-opacity=".1"/>
      <stop offset=".1" stop-color="#efaf41" stop-opacity=".3"/>
      <stop offset=".2" stop-color="#f3c443" stop-opacity=".5"/>
      <stop offset=".4" stop-color="#f7d446" stop-opacity=".6"/>
      <stop offset=".5" stop-color="#fbe147" stop-opacity=".8"/>
      <stop offset=".6" stop-color="#fdea49" stop-opacity=".8"/>
      <stop offset=".7" stop-color="#fef049" stop-opacity=".9"/>
      <stop offset=".8" stop-color="#fff24a" stop-opacity=".9"/>
    </linearGradient>
    <linearGradient id="linear-gradient7" x1="151.3" y1="126.2" x2="164.6" y2="121.9" gradientUnits="userSpaceOnUse">
      <stop offset="0" stop-color="#83bc56"/>
      <stop offset=".2" stop-color="#80b359" stop-opacity="1"/>
      <stop offset=".3" stop-color="#789c61" stop-opacity=".8"/>
      <stop offset=".5" stop-color="#6b766f" stop-opacity=".6"/>
      <stop offset=".8" stop-color="#5a4282" stop-opacity=".4"/>
      <stop offset="1" stop-color="#470a97" stop-opacity="0"/>
    </linearGradient>
    <linearGradient id="linear-gradient8" x1="151.3" y1="125.7" x2="159.7" y2="123" gradientUnits="userSpaceOnUse">
      <stop offset="0" stop-color="#83bc56"/>
      <stop offset=".3" stop-color="#81b956" stop-opacity="1"/>
      <stop offset=".4" stop-color="#7ab156" stop-opacity="1"/>
      <stop offset=".5" stop-color="#70a458" stop-opacity="1"/>
      <stop offset=".7" stop-color="#60915a" stop-opacity=".9"/>
      <stop offset=".8" stop-color="#4d785c" stop-opacity=".9"/>
      <stop offset=".9" stop-color="#345a5f" stop-opacity=".8"/>
      <stop offset="1" stop-color="#183662" stop-opacity=".7"/>
      <stop offset="1" stop-color="#072165" stop-opacity=".7"/>
    </linearGradient>
    <linearGradient id="linear-gradient9" x1="151.4" y1="124.2" x2="156.6" y2="124.2" gradientUnits="userSpaceOnUse">
      <stop offset="0" stop-color="#d82d89" stop-opacity=".7"/>
      <stop offset="0" stop-color="#d82d89" stop-opacity=".6"/>
      <stop offset=".3" stop-color="#d82d89" stop-opacity=".4"/>
      <stop offset=".5" stop-color="#d82d89" stop-opacity=".2"/>
      <stop offset=".7" stop-color="#d82d89" stop-opacity=".1"/>
      <stop offset=".9" stop-color="#d82d89" stop-opacity="0"/>
      <stop offset="1" stop-color="#d82d89" stop-opacity="0"/>
    </linearGradient>
    <linearGradient id="linear-gradient10" x1="167.1" y1="123.9" x2="158.8" y2="122.6" gradientUnits="userSpaceOnUse">
      <stop offset=".3" stop-color="#97c461"/>
      <stop offset=".3" stop-color="#8dc068" stop-opacity="1"/>
      <stop offset=".4" stop-color="#68b484" stop-opacity=".9"/>
      <stop offset=".4" stop-color="#47a99c" stop-opacity=".9"/>
      <stop offset=".5" stop-color="#2da0b0" stop-opacity=".9"/>
      <stop offset=".6" stop-color="#1999bf" stop-opacity=".8"/>
      <stop offset=".7" stop-color="#0a94ca" stop-opacity=".8"/>
      <stop offset=".8" stop-color="#0291d1" stop-opacity=".8"/>
      <stop offset="1" stop-color="#0091d3" stop-opacity=".8"/>
    </linearGradient>
    <linearGradient id="linear-gradient11" x1="167" y1="124.3" x2="163.6" y2="123.8" gradientUnits="userSpaceOnUse">
      <stop offset="0" stop-color="#83bc56"/>
      <stop offset=".2" stop-color="#83bc56"/>
      <stop offset=".4" stop-color="#83bc56" stop-opacity=".7"/>
      <stop offset=".6" stop-color="#83bc56" stop-opacity=".4"/>
      <stop offset=".8" stop-color="#83bc56" stop-opacity=".2"/>
      <stop offset=".9" stop-color="#83bc56" stop-opacity="0"/>
      <stop offset="1" stop-color="#83bc56" stop-opacity="0"/>
    </linearGradient>
    <linearGradient id="linear-gradient12" x1="-971.5" y1="125.7" x2="-963.2" y2="123" gradientTransform="translate(-804.5) rotate(-180) scale(1 -1)" gradientUnits="userSpaceOnUse">
      <stop offset="0" stop-color="#d82d89"/>
      <stop offset=".3" stop-color="#d52c89" stop-opacity="1"/>
      <stop offset=".4" stop-color="#ce2a89" stop-opacity="1"/>
      <stop offset=".5" stop-color="#c2278b" stop-opacity=".9"/>
      <stop offset=".7" stop-color="#b1238c" stop-opacity=".9"/>
      <stop offset=".8" stop-color="#9b1e8e" stop-opacity=".8"/>
      <stop offset=".8" stop-color="#801791" stop-opacity=".8"/>
      <stop offset=".9" stop-color="#611094" stop-opacity=".7"/>
      <stop offset="1" stop-color="#470a97" stop-opacity=".6"/>
    </linearGradient>
    <linearGradient id="linear-gradient13" x1="-965.3" y1="122.1" x2="-966.8" y2="124.7" gradientTransform="translate(-804.5) rotate(-180) scale(1 -1)" gradientUnits="userSpaceOnUse">
      <stop offset="0" stop-color="#0091d3" stop-opacity="0"/>
      <stop offset=".2" stop-color="#0880cb" stop-opacity="0"/>
      <stop offset=".5" stop-color="#1f55b8" stop-opacity=".2"/>
      <stop offset="1" stop-color="#440f99" stop-opacity=".5"/>
      <stop offset="1" stop-color="#470a97" stop-opacity=".5"/>
    </linearGradient>
    <linearGradient id="linear-gradient14" x1="156.6" y1="122.7" x2="162.9" y2="121.7" gradientUnits="userSpaceOnUse">
      <stop offset="0" stop-color="#d82d89" stop-opacity=".5"/>
      <stop offset=".3" stop-color="#d82d89" stop-opacity=".4"/>
      <stop offset=".7" stop-color="#d82d89" stop-opacity=".3"/>
      <stop offset="1" stop-color="#d82d89" stop-opacity=".2"/>
    </linearGradient>
    <linearGradient id="linear-gradient15" x1="159.1" y1="121.4" x2="159.1" y2="123.6" gradientUnits="userSpaceOnUse">
      <stop offset="0" stop-color="#d82d89"/>
      <stop offset=".1" stop-color="#d82d89"/>
      <stop offset="1" stop-color="#d82d89"/>
    </linearGradient>
    <linearGradient id="linear-gradient16" x1="159.1" y1="121.4" x2="159.1" y2="123.6" gradientUnits="userSpaceOnUse">
      <stop offset="0" stop-color="#d82d89"/>
      <stop offset=".1" stop-color="#d22b89"/>
      <stop offset=".3" stop-color="#c1278b"/>
      <stop offset=".5" stop-color="#a6218d"/>
      <stop offset=".7" stop-color="#801791"/>
      <stop offset="1" stop-color="#510c96"/>
      <stop offset="1" stop-color="#470a97"/>
    </linearGradient>
    <linearGradient id="linear-gradient17" x1="167" y1="124.4" x2="161.5" y2="123.6" gradientUnits="userSpaceOnUse">
      <stop offset="0" stop-color="#0091d3" stop-opacity=".8"/>
      <stop offset="0" stop-color="#0082c5" stop-opacity=".8"/>
      <stop offset=".3" stop-color="#035fa2" stop-opacity=".7"/>
      <stop offset=".4" stop-color="#044487" stop-opacity=".6"/>
      <stop offset=".6" stop-color="#063074" stop-opacity=".5"/>
      <stop offset=".8" stop-color="#062468" stop-opacity=".5"/>
      <stop offset="1" stop-color="#072165" stop-opacity=".5"/>
    </linearGradient>
    <linearGradient id="linear-gradient18" x1="167" y1="124.4" x2="161.5" y2="123.6" gradientUnits="userSpaceOnUse">
      <stop offset="0" stop-color="#459dd5" stop-opacity=".8"/>
      <stop offset="0" stop-color="#3d9ed7" stop-opacity=".8"/>
      <stop offset="0" stop-color="#28a1dc" stop-opacity=".9"/>
      <stop offset="0" stop-color="#05a7e6" stop-opacity="1"/>
      <stop offset="0" stop-color="#00a9e8"/>
      <stop offset=".2" stop-color="#00a7e6" stop-opacity="1"/>
      <stop offset=".3" stop-color="#00a1e0" stop-opacity=".9"/>
      <stop offset=".4" stop-color="#0096d6" stop-opacity=".9"/>
      <stop offset=".5" stop-color="#0188c8" stop-opacity=".8"/>
      <stop offset=".7" stop-color="#0276b6" stop-opacity=".6"/>
      <stop offset=".8" stop-color="#035fa1" stop-opacity=".5"/>
      <stop offset=".9" stop-color="#054487" stop-opacity=".3"/>
      <stop offset="1" stop-color="#06266a" stop-opacity="0"/>
      <stop offset="1" stop-color="#072165" stop-opacity="0"/>
    </linearGradient>
    <linearGradient id="linear-gradient19" x1="159.1" y1="121.7" x2="159.1" y2="123.5" xlink:href="#linear-gradient9"/>
  </defs>
  <g class="st27">
    <g id="Layer_2">
      <g>
        <g>
          <g>
            <circle class="st29" cx="215.2" cy="37.2" r="23.8"/>
            <path d="M215.2,13.4c13.1,0,23.8,10.6,23.8,23.8s-10.6,23.8-23.8,23.8-23.8-10.6-23.8-23.8,10.6-23.8,23.8-23.8M215.2,12.5c-3.3,0-6.6.7-9.6,1.9-2.9,1.2-5.6,3-7.8,5.3-2.3,2.3-4,4.9-5.3,7.8-1.3,3-1.9,6.3-1.9,9.6s.7,6.6,1.9,9.6c1.2,2.9,3,5.6,5.3,7.8,2.3,2.3,4.9,4,7.8,5.3,3,1.3,6.3,1.9,9.6,1.9s6.6-.7,9.6-1.9c2.9-1.2,5.6-3,7.8-5.3,2.3-2.3,4-4.9,5.3-7.8,1.3-3,1.9-6.3,1.9-9.6s-.7-6.6-1.9-9.6c-1.2-2.9-3-5.6-5.3-7.8-2.3-2.3-4.9-4-7.8-5.3-3-1.3-6.3-1.9-9.6-1.9h0Z"/>
          </g>
          <path class="st43" d="M194.9,28.3c2.7.9,6,1.6,8.9,1.6,7.5,0,15.2-2.8,22.9-2.8s6.4.4,8.8,1.2c-3.5-8.1-11.5-13.3-20.3-13.3s-16.8,5.3-20.3,13.3Z"/>
          <path class="st36" d="M235.5,46c-2.7-.9-6-1.6-8.9-1.6-7.5,0-15.2,2.8-22.9,2.8s-6.4-.4-8.8-1.2c3.5,8.1,11.5,13.3,20.3,13.3s16.8-5.3,20.3-13.3Z"/>
          <path d="M204.4,32.6h7.9v2.3h-4.8v1.2h3.8v2.2h-3.8v1.2h4.8v2.3h-8v-9.1ZM232.5,41.6h3.2v-9.2l-3.2,1.1v8.1ZM222.2,39.6c.6,1.6,2.4,2.3,5,2.3s4.3-1.1,4.3-3c0-3.3-5.6-2.5-5.6-3.7s.4-.6,1.1-.6,1.5.3,1.8,1l2.5-1c-.3-1.3-1.6-2.2-4.4-2.2s-4.1,1-4.1,2.9c0,3.5,5.6,2.6,5.6,3.9s-.4.6-1.3.6c-1.3,0-2.1-.3-2.5-1l-2.5,1ZM200.2,39l-2.3.8v1.7h-3.1v-9.1h4.9c2.5,0,3.8,1.1,3.8,3s-1.4,2.8-3.3,3.5ZM199.2,34.8h-1.3v2.7l1.2-.5c.8-.3,1.2-.6,1.2-1.3s-.4-.9-1.1-.9ZM219,39l-2.3.8v1.7h-3.1v-9.1h4.9c2.5,0,3.8,1.1,3.8,3s-1.4,2.8-3.3,3.5ZM218,34.8h-1.3v2.7l1.2-.5c.8-.3,1.2-.6,1.2-1.3s-.4-.9-1.1-.9Z"/>
        </g>
        <g>
          <path class="st29" d="M40.5,95.5c-17,0-28.6-11.9-28.6-28v-.2c0-15.5,12.1-28.2,28.5-28.2s15.7,2.6,21.4,7.5l-7.5,9.1c-4.2-3.5-7.9-5.5-14.2-5.5s-15.6,7.7-15.6,17v.2c0,10,6.8,17.3,16.5,17.3s8.2-1.1,11.3-3.3v-7.8h-12.1v-10.3h23.6v23.6c-5.6,4.7-13.3,8.6-23.3,8.6Z"/>
          <path class="st29" d="M69.2,94.6v-54.4h41.1v10.7h-29.2v11h25.7v10.7h-25.7v11.4h29.6v10.7h-41.5Z"/>
          <g>
            <path class="st29" d="M169.7,40.1h-17.1c4.2,2.1,6.9,6.1,8.1,10.8h8c6,0,9.7,2.9,9.7,8.2v.2c0,4.7-3.5,8.2-9.5,8.2h-10.1c-2.3,4.5-6.1,8.1-11.4,9.8v17.2h12v-16.3h9.1c12.2,0,22-6.5,22-19.1v-.2c0-11.1-7.9-18.8-20.8-18.8Z"/>
            <path class="st29" d="M136.2,78.3h-9.1v16.3h-12v-54.4h22.2c13,0,20.8,7.7,20.8,18.8v.2c0,12.6-9.8,19.1-22,19.1ZM146.1,59.2c0-5.4-3.7-8.2-9.7-8.2h-9.3v16.6h9.5c6,0,9.5-3.6,9.5-8.2v-.2Z"/>
          </g>
        </g>
        <path class="st29" d="M204.8,125.5c4.6-20.2-23.5-29.4-54.9-26.9,0,0-.1,0-.2,0,0,0,0,0-.1,0-31,1.9-59.3,14.4-68.8,22.6-.1.1,0,.6.4.3,0,0,.3-.2.4-.2,11.6-7.1,39.6-18,66.8-18.8h.1s0,0,0,0h0s0,0,.1,0c30.9-.8,53.3,7.7,54.5,23.3,0,.8,1.5,1,1.6-.2Z"/>
        <g>
          <path class="st29" d="M192.8,134c-4.6,4.6-12.1,4.6-16.8,0s-4.6-12.1,0-16.8c4.6-4.6,12.1-4.6,16.8,0s4.6,12.1,0,16.8Z"/>
          <g>
            <path class="st34" d="M185.1,138.1c-6.5,0-11.8-5.3-11.8-11.8s5.3-11.8,11.8-11.8,11.8,5.3,11.8,11.8-5.3,11.8-11.8,11.8Z"/>
            <g>
              <path class="st29" d="M176.7,122.9c1.5-3.4,4.9-5.8,8.8-5.8s6.2,1.6,7.9,4.1c-1.7-3-4.9-5-8.5-5s-7.9,2.7-9.3,6.6h1.1Z"/>
              <path class="st29" d="M175.6,129.5c.8,2.3,2.4,4.2,4.4,5.4-1.8-1.3-3.2-3.2-3.8-5.4h-.6Z"/>
              <path class="st29" d="M194.2,129.5c-1.6,3.6-5.4,6.5-9.2,6.5s-.1,0-.2,0c.5,0,.9,0,1.5,0,3.8,0,7.4-2.9,8.6-6.6h-.6Z"/>
            </g>
            <path class="st29" d="M185.1,121.2c-4.4,0-4.9,1.5-10.1,1.5v7c5.2,0,5.7,1.5,10.1,1.5s4.9-1.5,10.1-1.5v-7c-5.2,0-5.7-1.5-10.1-1.5Z"/>
            <path class="st14" d="M185.1,121.6c-4.4,0-4.9,1.5-10.1,1.5v6.3c5.2,0,5.7,1.5,10.1,1.5s4.9-1.5,10.1-1.5v-6.3c-5.2,0-5.7-1.5-10.1-1.5Z"/>
            <g>
              <path class="st29" d="M179.8,124.9h-.1s0,0,0,0c0,0,.1.1.1.3v2.3s0,0,0,0h0c0,.2,0,.3-.1.3,0,0,0,0,0,0h1v-3.1h-.9"/>
              <path class="st29" d="M183,124.8c-.3,0-.7.1-.9.4h0c0,0,0-.3,0-.3h-.9s0,0,0,0c0,0,.1.1.1.3h0s0,3.7,0,3.7c0,0,.3.1,1,.2,0,0,0,0,0,0,0,0-.1-.1-.1-.3v-1.2s0,0,0,0c.2.2.5.3.8.3.5,0,.8-.3,1-.5.2-.3.4-.7.4-1.1s-.1-.9-.4-1.2c-.2-.3-.6-.5-1-.5M183.2,127.2c-.2.2-.4.3-.6.3s-.3,0-.5-.2h0v-1.3s0-.5.7-.5.7.4.7,1,0,.5-.3.7"/>
              <path class="st29" d="M188.5,124.8c-.9,0-1.6.7-1.6,1.6s.7,1.6,1.6,1.6,1.6-.7,1.6-1.6-.7-1.6-1.6-1.6M188.5,127.5c-.4,0-.8-.5-.8-1s.4-1,.8-1,.8.5.8,1-.3,1-.8,1"/>
              <path class="st29" d="M179.4,127.1s0,0,0,0c0,0-.1.1-.3.1,0,0-.2,0-.3,0h-.9v-3.2h-.8s-.3,0-.3,0c0,0,0,0,0,0,0,0,.1.1.1.3v3.2h0c0,.3,0,.3-.1.4,0,0,0,0,0,0h2.2c.2,0,.3-.1.3-.4v-.4h0"/>
              <path class="st29" d="M186.7,127.2c0,0-.3.2-.5.2s-.4-.2-.4-.5v-1.4h.3c.6,0,.5-.6.5-.6h-.8v-.9l-.9.4v.5h-.3v.6s.3,0,.3,0v1.5c0,.7.4,1.1,1,1.1.8,0,.8-.6.8-.8,0,0,0,0,0,0"/>
              <path class="st29" d="M193.3,128s0,0-.1-.2v-1.8c0-.4,0-.6-.3-.8-.2-.2-.4-.3-.7-.3-.5,0-.8.2-.9.4h0c0,0,0-.3,0-.3h-.9s0,0,0,0c0,0,.1.1.1.3h0s0,0,0,0v1h0v1.7h1s0,0,0,0c0,0,0,0-.1-.2v-1.3c0-.6.4-.9.7-.9s.3.1.3.5v1.6s0,0,0,0v.4h1s0,0,0,0"/>
              <path class="st29" d="M180.2,123.7c-.2,0-.5.2-.5.5s.2.5.5.5.5-.2.5-.5-.2-.5-.5-.5"/>
            </g>
          </g>
          <path class="st29" d="M196.3,123c0,0-.1-.2-.2-.2-.2,0-.4,0-.6,0,0,0-.2.1-.2.2,0,0,0,.2,0,.3s0,.2,0,.3c0,0,.1.2.2.2,0,0,.2,0,.3,0s.2,0,.3,0c0,0,.2-.1.2-.2,0,0,0-.2,0-.3s0-.2,0-.3"/>
          <path class="st14" d="M195.9,123.4s0,0,0,0h0s0,0,0,0c0,0,0,0,0-.1s0,0,0,0c0,0,0,0,0,0,0,0,0,0,0,0,0,0,0,0-.2,0h-.1v.6h.1v-.2h0s0,0,0,0c0,0,0,0,0,.1h0c0,0,.2,0,.2,0h0c0-.2,0-.2,0-.2M195.9,123.2s0,0,0,0c0,0,0,0,0,0,0,0,0,0-.1,0h0c0-.1,0-.1,0-.1,0,0,.1,0,.1,0,0,0,0,0,0,0,0,0,0,0,0,0"/>
          <path class="st14" d="M196.2,123c0,0-.1-.1-.2-.2-.2,0-.3,0-.5,0,0,0-.1.1-.2.2,0,0,0,.2,0,.3s0,.2,0,.3c0,0,.1.1.2.2,0,0,.2,0,.3,0s.2,0,.3,0c0,0,.1-.1.2-.2,0,0,0-.2,0-.3s0-.2,0-.3M195.6,123.6c0,0-.1,0-.1-.1,0,0,0-.1,0-.2s0-.1,0-.2c0,0,0-.1.1-.1,0,0,.1,0,.2,0s.1,0,.2,0c0,0,.1,0,.1.1,0,0,0,.1,0,.2s0,.1,0,.2c0,0,0,.1-.1.1-.1,0-.3,0-.4,0"/>
        </g>
        <g class="st46">
          <ellipse class="st48" cx="133.2" cy="126.3" rx="11.5" ry="11.6"/>
          <g>
            <path class="st37" d="M146.5,126.4l-9-8.1s0,0,0,.1c-1.2,5.1-3.7,5.4-5.3,13.8v.3s0,0,0,0l6.7,6h4l3.6-12.1Z"/>
            <g>
              <path class="st35" d="M134,121.6s0,0-.2,0c0,0,0,0,0,0,0,0,0,0,0,0,0,0,0,0,0,0,0,0,0,0-.1,0,0,0,0,0,0,0,0,0,0,0,0,0,0,0-.2,0-.3,0,0,0,0,0,0,0-.4,0-1,.2-1.7.2-.6,0-1.1.1-1.5.2,0,0-.1,0-.2,0,0,0-.1,0-.2,0,0,0,0,0-.1,0,0,0,0,0,0,0,0,0,0,0-.1,0,0,0,0,0-.1,0,0,0-.1,0-.2,0-.1,0-.2,0-.3.1,0,0-.2,0-.2,0,0,0,0,0,0,0,0,0,0,0,0,0,0,0-.1,0-.2,0,0,0,0,0,0,0,0,0,0,0,0,0,0,0,0,0-.1,0,0,0,0,0-.1,0,0,0-.1,0-.2.1,0,0,0,0-.1,0,0,0,0,0,0,0s0,0,0,0c0,0,0,0,0,0,0,0,0,0-.1,0,0,0,0,0,0,0,0,0,0,0,0,0,0,0,0,0,0,0,0,0,0,0,0,0,0,0,0,0,0,0,0,0,0,0,0,0,0,0,0,0,0,0,0,0,0,0,0,0,0,0,0,0,0,0,0,0,0,0,0,0,0,0,0,0,0,0,0,0,0,0,0,0,0,0,0,0,0,0,0,0,0,0,0,0,0,0,0,0,0,0h0s3.3,3,3.3,3c1.9-3.1,3.8-4.8,3.8-4.8Z"/>
              <g>
                <path class="st35" d="M138.9,138.6l-6.7-6h0s-1.3.2-2.4.5c-.6.1-1.4.4-2.4.6,0,0,0,0,0,0l5.5,4.9h6.1Z"/>
                <g>
                  <path class="st29" d="M137.4,118.3c-5.2,1-9.5.2-9.8,1.5s-.9,3.5-.9,3.5c0,.1,0,.2.2.1.5-.4,1.8-1.1,4.4-1.3,1.9-.1,2.6-.5,2.6-.5,0,0-4.9,4.2-6.7,11.9,0,0,0,.2.1.1,1-.3,1.8-.5,2.4-.6,1.1-.3,2.4-.5,2.4-.5v-.3c1.6-8.4,4.2-8.7,5.3-13.8,0,0,0-.2-.1-.1Z"/>
                  <g>
                    <g>
                      <circle class="st44" cx="137.2" cy="126.5" r="4.5"/>
                      <path class="st29" d="M136.3,128.3h-1.1c0,.1,0,0,0,0,0,0-.1.2-.5.2-.6,0-1-.2-.9-.9,0-.1.8-2.8.8-2.8h1.1c0-.1-.8,2.7-.8,2.7-.1.4.4.3.5.2l.9-3.1h1.1c0-.1-1.1,3.7-1.1,3.7ZM140.2,125.1c0,.2-.4,1.4-.4,1.6-.2.7-.6,1.1-1.6,1.3h-.4s0,0,0,0c0,0-.3,1.1-.3,1.1h-1.1c0,.1,1.4-4.9,1.4-4.9h1.1c0-.1,0,0,0,0,0,0,.2-.1.4-.2.3-.1.6,0,.8,0,.3.2.3.5.2.9ZM138.8,124.8h0s-.7,2.5-.7,2.5h.1c.4,0,.5-.2.6-.5l.4-1.7c0-.2,0-.4-.4-.4Z"/>
                    </g>
                    <path class="st29" d="M141,129.7c-.4,0-.6.3-.6.6s.3.6.6.6.6-.3.6-.6-.3-.6-.6-.6ZM140.9,130.8c-.3,0-.4-.2-.4-.5s.2-.5.5-.5.5.2.5.5-.2.5-.5.5ZM141.1,130.3h0c0,0,.1,0,.1-.2s0-.1,0-.1c0,0,0,0-.2,0s-.2,0-.2,0v.6s.1,0,.1,0v-.2s0,0,0,0c0,0,.1,0,.1,0,0,0,0,.1,0,.2h.2s0,0,0-.2c0,0,0-.1-.1-.2ZM140.9,130.3h0s0-.2,0-.2c0,0,0,0,0,0,0,0,.1,0,.1,0s0,0-.1,0Z"/>
                  </g>
                </g>
              </g>
              <path class="st45" d="M137.5,118.3"/>
            </g>
          </g>
        </g>
        <g>
          <ellipse class="st2" cx="107" cy="126.4" rx="11.5" ry="11.6"/>
          <g>
            <path class="st29" d="M114.6,120c-.2.2-.3.2-.5.2s-.4,0-.5-.2c-.1-.2-.2-.3-.2-.5s0-.4.2-.5.3-.2.5-.2.4,0,.5.2c.1.2.2.3.2.5s0,.4-.2.5ZM113.6,119c-.1.1-.2.3-.2.5s0,.3.2.5c.1.1.3.2.5.2s.3,0,.5-.2c.1-.1.2-.3.2-.5s0-.3-.2-.5c-.1-.1-.3-.2-.5-.2s-.3,0-.5.2ZM114.1,119c.1,0,.2,0,.2,0,0,0,.1.1.1.2s0,.1,0,.2c0,0,0,0-.1,0,0,0,.1,0,.1,0,0,0,0,0,0,.1h0c0,0,0,.1,0,.1,0,0,0,0,0,0h0s-.1,0-.1,0c0,0,0,0,0,0,0,0,0,0,0,0h0c0-.2,0-.3,0-.3,0,0,0,0-.2,0h-.1v.3h-.1v-.8h.3ZM114.2,119.2s0,0-.2,0h-.1v.3h.1c0,0,.1,0,.1,0,0,0,0,0,0-.1s0-.1,0-.1Z"/>
            <g>
              <path class="st29" d="M108.9,125.9l-2.8,2.8h3.1v2.2c-.6.2-1,.3-1.6.3-1,0-1.9-.3-2.6-.9,0,0-.2-.1-.4-.4-.2-.2-.3-.4-.3-.4-.6-.8-.9-1.8-.9-2.9,0-2.4,1.6-4.2,3.9-4.2s1.1,0,1.6.3l.6.2-.2.9h1.4c0,0,2.2,0,2.2,0v-5.1h-2.4v.8c-1-.4-2-.6-3.2-.6-4.8,0-8.2,3.3-8.2,8s3.3,7.7,8.1,7.7,4.3-.6,6-1.8v-7h-4.3Z"/>
              <g>
                <polygon class="st2" points="106.8 123.9 110.5 122.7 109.1 124.3 110.6 123.8 104.7 129.9 106.4 125.7 105.4 126 106.8 123.9"/>
                <g>
                  <g class="st30">
                    <polygon class="st3" points="106.6 125.2 105.8 125.5 105.4 126 106.4 125.7 106.6 125.2"/>
                  </g>
                  <g class="st32">
                    <polygon class="st3" points="108.4 124.6 109.1 124.3 110.5 122.7 109.8 123 108.4 124.6"/>
                  </g>
                  <g class="st31">
                    <polygon class="st3" points="105.1 128.9 109.7 124.1 110.6 123.8 104.7 129.9 105.1 128.9"/>
                  </g>
                </g>
                <path d="M103.8,131.4c.3-.7,2.1-5.2,2.1-5.2l-1.2.5,1.9-3,4.9-1.6-1.3,1.6,1.7-.6-8.1,8.3M105.4,126l1-.4-1.7,4.2,5.9-6.1-1.4.5,1.3-1.6-3.7,1.2-1.4,2.1Z"/>
              </g>
            </g>
          </g>
        </g>
        <ellipse class="st29" cx="159.1" cy="126.3" rx="11.6" ry="11.7"/>
        <g>
          <g>
            <g>
              <g>
                <path class="st4" d="M158,126.1c-.3-.2-.5-.2-.9-.2s-.6,0-.9.2c-.3.1-.5.3-.6.6-.2.3-.2.5-.2.9v2.9h.6v-1.7c.1.1.2.2.4.3.2.1.5.2.7.2s.6,0,.9-.2c.3-.1.4-.3.6-.6.1-.3.2-.5.2-.9s0-.6-.2-.8c-.1-.3-.4-.5-.6-.6ZM158,128.1c0,.2-.2.3-.4.4-.2,0-.3.1-.5.1s-.4,0-.5-.1c-.2,0-.3-.2-.4-.4,0-.2-.1-.3-.1-.5s0-.4.1-.5c0-.2.2-.3.4-.4.2,0,.3-.1.5-.1s.4,0,.5.1c.2,0,.3.2.4.4,0,.2.1.3.1.5s0,.4-.1.5Z"/>
                <path class="st4" d="M162,127.5c0,.2,0,.4-.1.5,0,.2-.2.3-.3.4-.1.1-.3.2-.5.2s-.4,0-.5-.2c-.1-.1-.2-.2-.3-.4,0-.2-.1-.4-.1-.5v-1.5h-.6v1.6c0,.3,0,.6.2.8.1.3.3.5.5.6.2.2.5.2.8.2s.6,0,.9-.2c.2-.1.4-.3.5-.6.1-.3.2-.5.2-.8v-1.6h-.6v1.5Z"/>
                <path class="st4" d="M164.9,125.9c-.3,0-.5,0-.7.2-.2.1-.3.3-.4.5,0,.2-.1.4-.1.7v1.9h.6v-1.9c0-.2,0-.4.2-.6.1-.1.3-.2.5-.2s.2,0,.3,0c0,0,.2,0,.3.1v-.6c0,0-.2,0-.3,0,0,0-.2,0-.3,0Z"/>
                <path class="st4" d="M169,126.7c-.2-.3-.4-.5-.6-.6-.3-.1-.5-.2-.9-.2s-.6,0-.9.2c-.3.2-.5.4-.6.6-.2.3-.2.5-.2.8s0,.6.2.8c.1.3.3.5.6.6s.5.2.8.2.5,0,.7-.2c.2-.1.3-.3.5-.4v.6h.6v-1.6c0-.3,0-.6-.2-.9ZM168.5,128.1c0,.2-.2.3-.4.4-.2,0-.3.1-.5.1s-.4,0-.5-.1c-.2,0-.3-.2-.4-.4,0-.2-.1-.3-.1-.5s0-.4.1-.5c0-.2.2-.3.4-.4.2,0,.3-.1.5-.1s.4,0,.5.1c.2,0,.3.2.4.4,0,.2.1.3.1.5s0,.4-.1.5Z"/>
                <path class="st4" d="M154.5,127.5l-.6-1-.6,1h0c0,0,0,.2,0,.3,0,.4.3.7.7.7s.7-.3.7-.7,0-.2,0-.3h0Z"/>
                <path class="st4" d="M152.1,127.7h.2c0,0,0-.1,0-.2,0-.9-.8-1.7-1.7-1.7s-1.7.8-1.7,1.7.8,1.7,1.7,1.7,1.2-.4,1.5-.9h-.7c-.2.2-.5.3-.8.3-.5,0-1-.4-1.1-.9h2.5ZM150.7,126.4c.5,0,.9.3,1.1.8h-2.1c.1-.5.6-.8,1.1-.8Z"/>
                <path class="st4" d="M169.6,126.5c0,0-.1,0-.2,0,0,0,0,0-.1-.1,0,0,0-.1,0-.2s0-.1,0-.2c0,0,0,0,.1-.1,0,0,.1,0,.2,0s.1,0,.2,0c0,0,0,0,.1.1,0,0,0,.1,0,.2s0,.1,0,.2c0,0,0,0-.1.1,0,0-.1,0-.2,0ZM169.6,126.5s0,0,.1,0c0,0,0,0,0,0,0,0,0,0,0-.1s0,0,0-.1c0,0,0,0,0,0,0,0,0,0-.1,0s0,0-.1,0c0,0,0,0,0,0,0,0,0,0,0,.1s0,0,0,.1c0,0,0,0,0,0,0,0,0,0,.1,0ZM169.6,126.4h0v-.3h.1s0,0,0,0c0,0,0,0,0,0s0,0,0,0c0,0,0,0,0,0h0s0,0,0,0c0,0,0,0,0,0h0c0,0,0,0,0,0h0c0,0,0,0,0,0,0,0,0,0,0,0h0c0,0,0,0,0,0,0,0,0,0,0,0,0,0,0,0,0,0,0,0,0,0,0,0h0v.3Z"/>
              </g>
              <g>
                <path class="st1" d="M158,126.1c-.3-.2-.5-.2-.9-.2s-.6,0-.9.2c-.3.1-.5.3-.6.6-.2.3-.2.5-.2.9v2.9h.6v-1.7c.1.1.2.2.4.3.2.1.5.2.7.2s.6,0,.9-.2c.3-.1.4-.3.6-.6.1-.3.2-.5.2-.9s0-.6-.2-.8c-.1-.3-.4-.5-.6-.6ZM158,128.1c0,.2-.2.3-.4.4-.2,0-.3.1-.5.1s-.4,0-.5-.1c-.2,0-.3-.2-.4-.4,0-.2-.1-.3-.1-.5s0-.4.1-.5c0-.2.2-.3.4-.4.2,0,.3-.1.5-.1s.4,0,.5.1c.2,0,.3.2.4.4,0,.2.1.3.1.5s0,.4-.1.5Z"/>
                <path class="st1" d="M162,127.5c0,.2,0,.4-.1.5,0,.2-.2.3-.3.4-.1.1-.3.2-.5.2s-.4,0-.5-.2c-.1-.1-.2-.2-.3-.4,0-.2-.1-.4-.1-.5v-1.5h-.6v1.6c0,.3,0,.6.2.8.1.3.3.5.5.6.2.2.5.2.8.2s.6,0,.9-.2c.2-.1.4-.3.5-.6.1-.3.2-.5.2-.8v-1.6h-.6v1.5Z"/>
                <path class="st1" d="M164.9,125.9c-.3,0-.5,0-.7.2-.2.1-.3.3-.4.5,0,.2-.1.4-.1.7v1.9h.6v-1.9c0-.2,0-.4.2-.6.1-.1.3-.2.5-.2s.2,0,.3,0c0,0,.2,0,.3.1v-.6c0,0-.2,0-.3,0,0,0-.2,0-.3,0Z"/>
                <path class="st1" d="M169,126.7c-.2-.3-.4-.5-.6-.6-.3-.1-.5-.2-.9-.2s-.6,0-.9.2c-.3.2-.5.4-.6.6-.2.3-.2.5-.2.8s0,.6.2.8c.1.3.3.5.6.6s.5.2.8.2.5,0,.7-.2c.2-.1.3-.3.5-.4v.6h.6v-1.6c0-.3,0-.6-.2-.9ZM168.5,128.1c0,.2-.2.3-.4.4-.2,0-.3.1-.5.1s-.4,0-.5-.1c-.2,0-.3-.2-.4-.4,0-.2-.1-.3-.1-.5s0-.4.1-.5c0-.2.2-.3.4-.4.2,0,.3-.1.5-.1s.4,0,.5.1c.2,0,.3.2.4.4,0,.2.1.3.1.5s0,.4-.1.5Z"/>
                <path class="st1" d="M154.5,127.5l-.6-1-.6,1h0c0,0,0,.2,0,.3,0,.4.3.7.7.7s.7-.3.7-.7,0-.2,0-.3h0Z"/>
                <path class="st1" d="M152.1,127.7h.2c0,0,0-.1,0-.2,0-.9-.8-1.7-1.7-1.7s-1.7.8-1.7,1.7.8,1.7,1.7,1.7,1.2-.4,1.5-.9h-.7c-.2.2-.5.3-.8.3-.5,0-1-.4-1.1-.9h2.5ZM150.7,126.4c.5,0,.9.3,1.1.8h-2.1c.1-.5.6-.8,1.1-.8Z"/>
                <path class="st1" d="M169.6,126.5c0,0-.1,0-.2,0,0,0,0,0-.1-.1,0,0,0-.1,0-.2s0-.1,0-.2c0,0,0,0,.1-.1,0,0,.1,0,.2,0s.1,0,.2,0c0,0,0,0,.1.1,0,0,0,.1,0,.2s0,.1,0,.2c0,0,0,0-.1.1,0,0-.1,0-.2,0ZM169.6,126.5s0,0,.1,0c0,0,0,0,0,0,0,0,0,0,0-.1s0,0,0-.1c0,0,0,0,0,0,0,0,0,0-.1,0s0,0-.1,0c0,0,0,0,0,0,0,0,0,0,0,.1s0,0,0,.1c0,0,0,0,0,0,0,0,0,0,.1,0ZM169.6,126.4h0v-.3h.1s0,0,0,0c0,0,0,0,0,0s0,0,0,0c0,0,0,0,0,0h0s0,0,0,0c0,0,0,0,0,0h0c0,0,0,0,0,0h0c0,0,0,0,0,0,0,0,0,0,0,0h0c0,0,0,0,0,0,0,0,0,0,0,0,0,0,0,0,0,0,0,0,0,0,0,0h0v.3Z"/>
              </g>
              <g>
                <path class="st28" d="M158,126.1c-.3-.2-.5-.2-.9-.2s-.6,0-.9.2c-.3.1-.5.3-.6.6-.2.3-.2.5-.2.9v2.9h.6v-1.7c.1.1.2.2.4.3.2.1.5.2.7.2s.6,0,.9-.2c.3-.1.4-.3.6-.6.1-.3.2-.5.2-.9s0-.6-.2-.8c-.1-.3-.4-.5-.6-.6ZM158,128.1c0,.2-.2.3-.4.4-.2,0-.3.1-.5.1s-.4,0-.5-.1c-.2,0-.3-.2-.4-.4,0-.2-.1-.3-.1-.5s0-.4.1-.5c0-.2.2-.3.4-.4.2,0,.3-.1.5-.1s.4,0,.5.1c.2,0,.3.2.4.4,0,.2.1.3.1.5s0,.4-.1.5Z"/>
                <path class="st28" d="M162,127.5c0,.2,0,.4-.1.5,0,.2-.2.3-.3.4-.1.1-.3.2-.5.2s-.4,0-.5-.2c-.1-.1-.2-.2-.3-.4,0-.2-.1-.4-.1-.5v-1.5h-.6v1.6c0,.3,0,.6.2.8.1.3.3.5.5.6.2.2.5.2.8.2s.6,0,.9-.2c.2-.1.4-.3.5-.6.1-.3.2-.5.2-.8v-1.6h-.6v1.5Z"/>
                <path class="st28" d="M164.9,125.9c-.3,0-.5,0-.7.2-.2.1-.3.3-.4.5,0,.2-.1.4-.1.7v1.9h.6v-1.9c0-.2,0-.4.2-.6.1-.1.3-.2.5-.2s.2,0,.3,0c0,0,.2,0,.3.1v-.6c0,0-.2,0-.3,0,0,0-.2,0-.3,0Z"/>
                <path class="st28" d="M169,126.7c-.2-.3-.4-.5-.6-.6-.3-.1-.5-.2-.9-.2s-.6,0-.9.2c-.3.2-.5.4-.6.6-.2.3-.2.5-.2.8s0,.6.2.8c.1.3.3.5.6.6s.5.2.8.2.5,0,.7-.2c.2-.1.3-.3.5-.4v.6h.6v-1.6c0-.3,0-.6-.2-.9ZM168.5,128.1c0,.2-.2.3-.4.4-.2,0-.3.1-.5.1s-.4,0-.5-.1c-.2,0-.3-.2-.4-.4,0-.2-.1-.3-.1-.5s0-.4.1-.5c0-.2.2-.3.4-.4.2,0,.3-.1.5-.1s.4,0,.5.1c.2,0,.3.2.4.4,0,.2.1.3.1.5s0,.4-.1.5Z"/>
                <path class="st28" d="M154.5,127.5l-.6-1-.6,1h0c0,0,0,.2,0,.3,0,.4.3.7.7.7s.7-.3.7-.7,0-.2,0-.3h0Z"/>
                <path class="st28" d="M152.1,127.7h.2c0,0,0-.1,0-.2,0-.9-.8-1.7-1.7-1.7s-1.7.8-1.7,1.7.8,1.7,1.7,1.7,1.2-.4,1.5-.9h-.7c-.2.2-.5.3-.8.3-.5,0-1-.4-1.1-.9h2.5ZM150.7,126.4c.5,0,.9.3,1.1.8h-2.1c.1-.5.6-.8,1.1-.8Z"/>
                <path class="st28" d="M169.6,126.5c0,0-.1,0-.2,0,0,0,0,0-.1-.1,0,0,0-.1,0-.2s0-.1,0-.2c0,0,0,0,.1-.1,0,0,.1,0,.2,0s.1,0,.2,0c0,0,0,0,.1.1,0,0,0,.1,0,.2s0,.1,0,.2c0,0,0,0-.1.1,0,0-.1,0-.2,0ZM169.6,126.5s0,0,.1,0c0,0,0,0,0,0,0,0,0,0,0-.1s0,0,0-.1c0,0,0,0,0,0,0,0,0,0-.1,0s0,0-.1,0c0,0,0,0,0,0,0,0,0,0,0,.1s0,0,0,.1c0,0,0,0,0,0,0,0,0,0,.1,0ZM169.6,126.4h0v-.3h.1s0,0,0,0c0,0,0,0,0,0s0,0,0,0c0,0,0,0,0,0h0s0,0,0,0c0,0,0,0,0,0h0c0,0,0,0,0,0h0c0,0,0,0,0,0,0,0,0,0,0,0h0c0,0,0,0,0,0,0,0,0,0,0,0,0,0,0,0,0,0,0,0,0,0,0,0h0v.3Z"/>
              </g>
            </g>
            <g>
              <path class="st29" d="M167,124.8l-1.2-1.6h0s0,0,0,0h-1c0,.1-1.6-1-1.6-1h0s0,0,0,0l-1.3.3-1.9-.8-.7-.3h0s0,0,0,0h0s0,0,0,0l-.9.4-1.6.7-1.3-.3h0s0,0,0,0h0s-1.6,1.1-1.6,1.1h-1c0-.1,0-.1,0-.1h0s-1.2,1.6-1.2,1.6h-.1c0,.1.2.1.2.1l7.8-.9,7.8.9h.2s-.1-.1-.1-.1Z"/>
              <g>
                <g>
                  <g>
                    <polygon class="st26" points="166.9 124.9 165.7 123.3 163.8 123.5 166.9 124.9"/>
                    <polygon class="st6" points="151.4 124.9 152.6 123.3 154.5 123.5 151.4 124.9"/>
                    <polygon class="st5" points="153.6 123.4 155.3 122.3 166.9 124.9 153.6 123.4"/>
                    <polygon class="st13" points="151.4 124.9 155.3 122.3 159.1 123.1 151.4 124.9"/>
                    <polygon class="st12" points="151.4 124.9 159.1 121.4 163.8 123.5 151.4 124.9"/>
                    <g class="st40">
                      <polygon class="st11" points="166.9 124.9 159.1 121.4 154.5 123.5 166.9 124.9"/>
                    </g>
                    <g class="st41">
                      <polygon class="st8" points="156.6 122.6 154.5 123.5 153.6 123.4 155.3 122.3 156.6 122.6"/>
                    </g>
                    <polygon class="st10" points="163.8 123.5 162.2 123.7 161.7 123.7 159.1 124 151.4 124.9 156.6 123.7 159.1 123.1 161.7 122.6 163.8 123.5"/>
                    <polygon class="st9" points="159.1 124 151.4 124.9 156.6 123.7 159.1 124"/>
                    <polygon class="st7" points="156.6 123.7 151.4 124.9 154.5 123.5 156.6 123.7"/>
                    <g class="st42">
                      <polygon class="st47" points="159.1 123.1 161.7 123.7 161.7 123.7 161.7 123.7 159.2 124 159.1 124 156.6 123.7 156.6 123.7 156.6 123.7 159.1 123.1 159.1 123.1 159.1 123.1 159.1 123.1"/>
                    </g>
                    <g class="st40">
                      <polygon class="st22" points="166.9 124.9 163 122.3 159.1 123.1 166.9 124.9"/>
                    </g>
                    <g class="st39">
                      <polygon class="st21" points="163.8 123.5 166.9 124.9 164.7 123.4 163.8 123.5"/>
                    </g>
                    <polygon class="st18" points="159.2 124 166.9 124.9 161.7 123.7 159.2 124"/>
                    <g class="st39">
                      <polygon class="st15" points="161.7 122.6 163.8 123.5 164.7 123.4 163 122.3 161.7 122.6"/>
                    </g>
                    <g class="st39">
                      <polygon class="st17" points="159.1 123.1 161.7 123.7 163.8 123.5 161.7 122.6 159.1 123.1"/>
                    </g>
                    <polygon class="st24" points="159.1 123.1 156.6 122.6 156.6 122.6 159.1 121.4 161.7 122.6 159.1 123.1"/>
                  </g>
                  <polygon class="st19" points="159.1 123.1 156.6 122.6 156.6 122.6 159.1 121.4 161.7 122.6 159.1 123.1"/>
                  <g class="st25">
                    <polygon class="st20" points="159.1 123.1 156.6 122.6 156.6 122.6 159.1 121.4 161.7 122.6 159.1 123.1"/>
                  </g>
                </g>
                <g class="st40">
                  <polygon class="st23" points="166.9 124.9 163.8 123.5 161.7 123.7 166.9 124.9"/>
                </g>
                <g class="st38">
                  <polygon class="st16" points="166.9 124.9 163.8 123.5 161.7 123.7 166.9 124.9"/>
                </g>
              </g>
            </g>
          </g>
          <polygon class="st33" points="159.1 123.1 156.6 122.6 156.6 122.6 159.1 121.4 161.7 122.6 159.1 123.1"/>
        </g>
      </g>
    </g>
  </g>
</svg>